<svg width="60" height="60" viewBox="0 0 60 60" fill="none" xmlns="http://www.w3.org/2000/svg">
<g clip-path="url(#clip0_211_1022)">
<rect width="60" height="60" fill="#2565D0"/>
<path d="M24.3348 35.1687H35.666C44.9957 35.1687 52.5535 42.7265 52.5535 52.0562V58.8687C52.5535 62.8062 49.3598 64 45.4223 64H14.5785C10.641 64 7.44727 62.8062 7.44727 58.8687V52.0562C7.44727 42.7265 15.0051 35.1687 24.3348 35.1687Z" fill="#DAE3FF"/>
<path d="M29.9998 32.0406C36.6384 32.0406 42.0201 26.6589 42.0201 20.0203C42.0201 13.3817 36.6384 8 29.9998 8C23.3612 8 17.9795 13.3817 17.9795 20.0203C17.9795 26.6589 23.3612 32.0406 29.9998 32.0406Z" fill="#DAE3FF"/>
</g>
<defs>
<clipPath id="clip0_211_1022">
<rect width="60" height="60" fill="white"/>
</clipPath>
</defs>
</svg>
