<svg width="33" height="32" viewBox="0 0 33 32"  xmlns="http://www.w3.org/2000/svg">
<g clip-path="url(#clip0_1713_2548)">
<path d="M19.3066 16C19.3066 17.6914 17.9355 19.0625 16.2441 19.0625C14.5527 19.0625 13.1816 17.6914 13.1816 16C13.1816 14.3086 14.5527 12.9375 16.2441 12.9375C17.9355 12.9375 19.3066 14.3086 19.3066 16Z" fill="currentColor"/>
<path d="M29.9363 0H2.552C1.27734 0 0.244141 1.0332 0.244141 2.30786V29.6921C0.244141 30.9668 1.27734 32 2.552 32H29.9363C31.2109 32 32.2441 30.9668 32.2441 29.6921V2.30786C32.2441 1.0332 31.2109 0 29.9363 0ZM25.3762 19.7878C25.3318 20.7659 25.1763 21.4336 24.9492 22.0181C24.4719 23.2522 23.4963 24.2278 22.2622 24.7051C21.678 24.9321 21.01 25.0874 20.0322 25.1321C19.0525 25.1768 18.7395 25.1875 16.2444 25.1875C13.749 25.1875 13.4363 25.1768 12.4563 25.1321C11.4785 25.0874 10.8105 24.9321 10.2263 24.7051C9.61304 24.4744 9.05786 24.1128 8.59888 23.6453C8.13159 23.1865 7.77002 22.6311 7.53931 22.0181C7.31226 21.4338 7.15674 20.7659 7.11231 19.7881C7.06714 18.8081 7.05664 18.4951 7.05664 16C7.05664 13.5049 7.06714 13.1919 7.11206 12.2122C7.15649 11.2341 7.31177 10.5664 7.53882 9.98193C7.76953 9.3689 8.13135 8.81348 8.59888 8.35474C9.05762 7.88721 9.61304 7.52563 10.2261 7.29492C10.8105 7.06787 11.4783 6.9126 12.4563 6.86792C13.436 6.82324 13.749 6.8125 16.2441 6.8125C18.7393 6.8125 19.0522 6.82324 20.032 6.86816C21.01 6.9126 21.6777 7.06787 22.2622 7.29468C22.8752 7.52539 23.4307 7.88721 23.8896 8.35474C24.3569 8.81372 24.7188 9.3689 24.9492 9.98193C25.1765 10.5664 25.3318 11.2341 25.3765 12.2122C25.4211 13.1919 25.4316 13.5049 25.4316 16C25.4316 18.4951 25.4211 18.8081 25.3762 19.7878Z" fill="currentColor"/>
<rect x="4.50977" y="5.48438" width="23.7188" height="20.7188" fill="currentColor"/>
<path d="M24.7636 9.95935H19.3965V11.452H24.7847L24.7636 9.95935ZM23.6309 20.2277C23.2237 20.4975 22.7429 20.6343 22.2547 20.6194C21.9315 20.6531 21.6049 20.6197 21.2952 20.5213C20.9856 20.423 20.6996 20.2617 20.4551 20.0477C20.0031 19.5353 19.7678 18.8673 19.7987 18.1846H26.8066C26.8572 17.4738 26.7964 16.7595 26.6267 16.0674C26.4625 15.409 26.1751 14.7876 25.7798 14.2361C25.3819 13.7011 24.868 13.2631 24.2766 12.9552C23.6186 12.6308 22.8929 12.4675 22.1594 12.4788C21.4695 12.4737 20.7856 12.6069 20.1481 12.8705C19.5643 13.1166 19.0353 13.4765 18.592 13.9291C18.1499 14.3907 17.8076 14.9385 17.5863 15.5381C17.3488 16.1855 17.2305 16.8705 17.237 17.5601C17.2261 18.2594 17.3408 18.955 17.5757 19.6137C17.7752 20.2103 18.092 20.7609 18.5073 21.2334C18.937 21.6972 19.4651 22.0589 20.0528 22.292C20.7082 22.5417 21.4052 22.6638 22.1065 22.6519C23.0904 22.6826 24.0618 22.425 24.9012 21.9109C25.749 21.3084 26.3594 20.4284 26.6267 19.4232H24.2872C24.1619 19.7557 23.9315 20.0382 23.6309 20.2277ZM19.9999 15.8663C20.0823 15.6024 20.219 15.3586 20.4014 15.1508C20.5837 14.9429 20.8075 14.7756 21.0585 14.6595C21.3908 14.5099 21.7527 14.4375 22.1171 14.4478C22.3803 14.4253 22.6452 14.46 22.8937 14.5496C23.1422 14.6391 23.3684 14.7813 23.5568 14.9665C23.9165 15.4068 24.1473 15.9381 24.2237 16.5015H19.8305C19.8476 16.2863 19.8867 16.0735 19.947 15.8663H19.9999ZM14.3999 15.3582C14.9387 15.1338 15.4069 14.7681 15.7549 14.2996C16.0749 13.802 16.2338 13.2181 16.2101 12.627C16.2309 12.088 16.1258 11.5516 15.9031 11.0603C15.7161 10.6346 15.4158 10.2685 15.0351 10.0017C14.6314 9.72431 14.173 9.53661 13.6907 9.45122C13.1199 9.33151 12.5377 9.27471 11.9546 9.28185H5.63477V22.599H12.0922C12.6815 22.5994 13.2685 22.5247 13.8389 22.3767C14.3795 22.2368 14.8918 22.004 15.3527 21.6886C15.7991 21.3792 16.1626 20.9647 16.4113 20.4818C16.6864 19.9417 16.8211 19.341 16.8029 18.7351C16.823 17.9843 16.6124 17.2453 16.1995 16.6179C15.7555 15.9869 15.097 15.5391 14.347 15.3582H14.3999ZM8.56707 11.5578H11.3088C11.5607 11.5575 11.8122 11.5788 12.0604 11.6213C12.289 11.6552 12.5086 11.7344 12.7062 11.8542C12.8971 11.9622 13.0518 12.1243 13.1508 12.32C13.2734 12.5547 13.3318 12.8177 13.3202 13.0822C13.3399 13.31 13.305 13.5393 13.2185 13.751C13.132 13.9627 12.9963 14.1508 12.8226 14.2996C12.4438 14.56 11.9904 14.6901 11.5311 14.6701H8.56707V11.5578ZM13.6907 19.4338C13.5819 19.6495 13.4174 19.8323 13.2143 19.9631C13.0029 20.0945 12.77 20.1877 12.5262 20.2383C12.2553 20.2989 11.9781 20.3274 11.7005 20.323H8.52473V16.6708H11.7005C12.2455 16.647 12.7837 16.7991 13.2355 17.1049C13.4396 17.288 13.5977 17.5167 13.697 17.7723C13.7963 18.028 13.834 18.3034 13.8071 18.5763C13.8357 18.8673 13.7959 19.1609 13.6907 19.4338Z" fill="white"/>
</g>
<defs>
<clipPath id="clip0_1713_2548">
<rect width="32" height="32" fill="white" transform="translate(0.244141)"/>
</clipPath>
</defs>
</svg>


