<svg width="33" height="32" viewBox="0 0 33 32"  xmlns="http://www.w3.org/2000/svg">
<g clip-path="url(#clip0_1713_2555)">
<path d="M23.3682 10.5813C23.2209 10.1824 22.9861 9.82129 22.6809 9.5249C22.3845 9.21973 22.0237 8.98486 21.6245 8.83765C21.3008 8.71191 20.8145 8.56226 19.9187 8.52148C18.9497 8.47729 18.6592 8.46777 16.2061 8.46777C13.7527 8.46777 13.4622 8.47705 12.4934 8.52124C11.5977 8.56226 11.1111 8.71191 10.7876 8.83765C10.3884 8.98486 10.0273 9.21973 9.7312 9.5249C9.42603 9.82129 9.19116 10.1821 9.0437 10.5813C8.91797 10.905 8.76831 11.3916 8.72754 12.2874C8.68335 13.2561 8.67383 13.5466 8.67383 16C8.67383 18.4531 8.68335 18.7437 8.72754 19.7126C8.76831 20.6084 8.91797 21.0947 9.0437 21.4185C9.19116 21.8176 9.42578 22.1785 9.73096 22.4749C10.0273 22.78 10.3882 23.0149 10.7874 23.1621C11.1111 23.2881 11.5977 23.4377 12.4934 23.4785C13.4622 23.5227 13.7524 23.532 16.2058 23.532C18.6594 23.532 18.95 23.5227 19.9185 23.4785C20.8142 23.4377 21.3008 23.2881 21.6245 23.1621C22.4258 22.853 23.0591 22.2197 23.3682 21.4185C23.4939 21.0947 23.6436 20.6084 23.6846 19.7126C23.7288 18.7437 23.738 18.4531 23.738 16C23.738 13.5466 23.7288 13.2561 23.6846 12.2874C23.6438 11.3916 23.4941 10.905 23.3682 10.5813ZM16.2061 20.7175C13.6003 20.7175 11.488 18.6055 11.488 15.9998C11.488 13.394 13.6003 11.282 16.2061 11.282C18.8115 11.282 20.9238 13.394 20.9238 15.9998C20.9238 18.6055 18.8115 20.7175 16.2061 20.7175ZM21.1104 12.198C20.5015 12.198 20.0078 11.7043 20.0078 11.0955C20.0078 10.4866 20.5015 9.99292 21.1104 9.99292C21.7192 9.99292 22.2129 10.4866 22.2129 11.0955C22.2126 11.7043 21.7192 12.198 21.1104 12.198Z" fill="currentColor"/>
<path d="M19.2695 16C19.2695 17.6914 17.8984 19.0625 16.207 19.0625C14.5156 19.0625 13.1445 17.6914 13.1445 16C13.1445 14.3086 14.5156 12.9375 16.207 12.9375C17.8984 12.9375 19.2695 14.3086 19.2695 16Z" fill="currentColor"/>
<path d="M29.8992 0H2.51489C1.24023 0 0.207031 1.0332 0.207031 2.30786V29.6921C0.207031 30.9668 1.24023 32 2.51489 32H29.8992C31.1738 32 32.207 30.9668 32.207 29.6921V2.30786C32.207 1.0332 31.1738 0 29.8992 0ZM25.3391 19.7878C25.2947 20.7659 25.1392 21.4336 24.9121 22.0181C24.4348 23.2522 23.4592 24.2278 22.2251 24.7051C21.6409 24.9321 20.9729 25.0874 19.9951 25.1321C19.0154 25.1768 18.7024 25.1875 16.2073 25.1875C13.7119 25.1875 13.3992 25.1768 12.4192 25.1321C11.4414 25.0874 10.7734 24.9321 10.1892 24.7051C9.57593 24.4744 9.02075 24.1128 8.56177 23.6453C8.09448 23.1865 7.73291 22.6311 7.5022 22.0181C7.27515 21.4338 7.11963 20.7659 7.0752 19.7881C7.03003 18.8081 7.01953 18.4951 7.01953 16C7.01953 13.5049 7.03003 13.1919 7.07495 12.2122C7.11938 11.2341 7.27466 10.5664 7.50171 9.98193C7.73242 9.3689 8.09424 8.81348 8.56177 8.35474C9.02051 7.88721 9.57593 7.52563 10.189 7.29492C10.7734 7.06787 11.4412 6.9126 12.4192 6.86792C13.3989 6.82324 13.7119 6.8125 16.207 6.8125C18.7021 6.8125 19.0151 6.82324 19.9949 6.86816C20.9729 6.9126 21.6406 7.06787 22.2251 7.29468C22.8381 7.52539 23.3936 7.88721 23.8525 8.35474C24.3198 8.81372 24.6816 9.3689 24.9121 9.98193C25.1394 10.5664 25.2947 11.2341 25.3394 12.2122C25.384 13.1919 25.3945 13.5049 25.3945 16C25.3945 18.4951 25.384 18.8081 25.3391 19.7878Z" fill="currentColor"/>
</g>
<defs>
<clipPath id="clip0_1713_2555">
<rect width="32" height="32" fill="white" transform="translate(0.207031)"/>
</clipPath>
</defs>
</svg>
