<svg width="33" height="33" viewBox="0 0 33 33" xmlns="http://www.w3.org/2000/svg">
<g clip-path="url(#clip0_1713_2560)">
<path d="M29.9363 0.84375H2.552C1.27734 0.84375 0.244141 1.87695 0.244141 3.15161V30.5359C0.244141 31.8105 1.27734 32.8438 2.552 32.8438H29.9363C31.2109 32.8438 32.2441 31.8105 32.2441 30.5359V3.15161C32.2441 1.87695 31.2109 0.84375 29.9363 0.84375ZM11.5947 25.0312H7.698V13.3079H11.5947V25.0312ZM9.64648 11.707H9.62109C8.31348 11.707 7.46777 10.8069 7.46777 9.68188C7.46777 8.53149 8.33936 7.65625 9.67236 7.65625C11.0054 7.65625 11.8257 8.53149 11.8511 9.68188C11.8511 10.8069 11.0054 11.707 9.64648 11.707ZM25.6455 25.0312H21.7493V18.7595C21.7493 17.1833 21.1851 16.1084 19.7751 16.1084C18.6987 16.1084 18.0576 16.8335 17.7759 17.5334C17.6729 17.7839 17.6477 18.134 17.6477 18.4844V25.0312H13.7512C13.7512 25.0312 13.8022 14.4077 13.7512 13.3079H17.6477V14.9678C18.1655 14.1689 19.092 13.0327 21.1594 13.0327C23.7231 13.0327 25.6455 14.7083 25.6455 18.3091V25.0312Z" fill="currentColor"/>
</g>
<defs>
<clipPath id="clip0_1713_2560">
<rect width="32" height="32" fill="white" transform="translate(0.244141 0.84375)"/>
</clipPath>
</defs>
</svg>
