<svg width="33" height="33" viewBox="0 0 33 33" xmlns="http://www.w3.org/2000/svg">
<g clip-path="url(#clip0_1713_2569)">
<rect width="32" height="32" transform="translate(0.181641 0.5)" fill="white"/>
<path d="M2.4895 0.5H29.8738C31.1484 0.5 32.1816 1.5332 32.1816 2.80786V30.1921C32.1816 31.4668 31.1484 32.5 29.8738 32.5H2.4895C1.21484 32.5 0.181641 31.4668 0.181641 30.1921V2.80786C0.181641 1.5332 1.21484 0.5 2.4895 0.5Z" fill="currentColor"/>
<path d="M24.8462 8.21682L7.11625 15.0538C5.90625 15.5398 5.91325 16.2148 6.89425 16.5158L11.4462 17.9358L21.9782 11.2908C22.4762 10.9878 22.9312 11.1508 22.5572 11.4828L14.0242 19.1838H14.0222L14.0242 19.1848L13.7102 23.8768C14.1702 23.8768 14.3732 23.6658 14.6312 23.4168L16.8422 21.2668L21.4412 24.6638C22.2892 25.1308 22.8982 24.8908 23.1092 23.8788L26.1282 9.65082C26.4372 8.41182 25.6552 7.85082 24.8462 8.21682Z" fill="white"/>
</g>
<defs>
<clipPath id="clip0_1713_2569">
<rect width="32" height="32" fill="white" transform="translate(0.181641 0.5)"/>
</clipPath>
</defs>
</svg>
