<svg width="396" height="290" viewBox="0 0 396 290" fill="none" xmlns="http://www.w3.org/2000/svg">
<g clip-path="url(#clip0_1536_2143)">
<path d="M123.365 160.35C116.857 157.982 111.114 153.398 107.38 146.931C98.9504 132.331 103.953 113.662 118.552 105.233L257.45 25.0405C265.583 20.3452 274.978 19.8174 283.162 22.7944C289.671 25.1619 295.414 29.746 299.148 36.2134C307.577 50.8132 302.575 69.482 287.975 77.9112L149.077 158.104C140.945 162.799 131.55 163.327 123.365 160.35Z" fill="#D9D9D9"/>
<path d="M78.0805 296.419C71.5718 294.052 65.8286 289.468 62.0947 283C53.6654 268.401 58.6677 249.732 73.2675 241.303L256.971 135.241C265.103 130.546 274.498 130.018 282.683 132.995C289.192 135.363 294.935 139.947 298.669 146.414C307.098 161.014 302.096 179.683 287.496 188.112L103.792 294.173C95.66 298.869 86.265 299.396 78.0805 296.419Z" fill="#D9D9D9"/>
<path d="M120.342 380.752C113.833 378.384 108.09 373.8 104.356 367.333C95.9267 352.733 100.929 334.064 115.529 325.635L164.815 297.179C172.948 292.484 182.343 291.956 190.527 294.933C197.036 297.301 202.779 301.885 206.513 308.352C214.942 322.952 209.94 341.621 195.34 350.05L146.054 378.506C137.921 383.201 128.526 383.729 120.342 380.752Z" fill="#D9D9D9"/>
<path d="M310.085 196.334C324.684 187.905 329.687 169.236 321.257 154.636L298.668 146.415C307.097 161.014 302.095 179.683 287.495 188.112L310.085 196.334Z" fill="#D9D9D9"/>
<path d="M321.258 154.636C317.524 148.169 311.781 143.585 305.272 141.218L282.694 133C289.198 135.369 294.937 139.951 298.668 146.415L321.258 154.636Z" fill="#D9D9D9"/>
<path d="M305.272 141.218C297.087 138.241 287.692 138.769 279.56 143.464L256.97 135.242C265.103 130.547 274.498 130.019 282.682 132.996L305.272 141.218Z" fill="url(#paint0_linear_1536_2143)"/>
<path d="M310.564 86.1331C325.164 77.7039 330.166 59.0351 321.737 44.4353L299.148 36.2134C307.577 50.8132 302.575 69.482 287.975 77.9112L310.564 86.1331Z" fill="#D9D9D9"/>
<path d="M321.738 44.4353C318.004 37.9679 312.26 33.3839 305.752 31.0163L283.174 22.7986C289.678 25.1674 295.416 29.7498 299.148 36.2134L321.738 44.4353Z" fill="#D9D9D9"/>
<path d="M126.382 302.395L310.086 196.334L287.496 188.112L103.793 294.173L126.382 302.395Z" fill="#D9D9D9"/>
<path d="M305.749 31.0163C297.565 28.0393 288.17 28.5671 280.037 33.2624L257.448 25.0405C265.58 20.3452 274.975 19.8174 283.16 22.7944L305.749 31.0163Z" fill="url(#paint1_linear_1536_2143)"/>
<path d="M171.666 166.326L310.564 86.133L287.974 77.9111L149.077 158.104L171.666 166.326Z" fill="#D9D9D9"/>
<path d="M84.6828 291.222C88.4145 297.686 94.1531 302.268 100.657 304.637L78.0791 296.419C71.5704 294.052 65.8272 289.468 62.0933 283L84.6828 291.222Z" fill="url(#paint2_linear_1536_2143)"/>
<path d="M84.6828 291.222C88.4145 297.686 94.1531 302.268 100.657 304.637L78.0791 296.419C71.5704 294.052 65.8272 289.468 62.0933 283L84.6828 291.222Z" fill="#D9D9D9"/>
<path d="M84.6828 291.222C88.4145 297.686 94.1531 302.268 100.657 304.637L78.0791 296.419C71.5704 294.052 65.8272 289.468 62.0933 283L84.6828 291.222Z" fill="url(#paint3_linear_1536_2143)"/>
<path d="M279.558 143.463L95.8551 249.524L73.2656 241.302L256.969 135.241L279.558 143.463Z" fill="#E4E4E4"/>
<path d="M280.039 33.2624L141.141 113.455L118.552 105.233L257.449 25.0405L280.039 33.2624Z" fill="#E4E4E4"/>
<path d="M145.954 168.572C154.138 171.549 163.533 171.021 171.666 166.326L149.076 158.104C140.944 162.799 131.549 163.327 123.364 160.35L145.954 168.572Z" fill="#D9D9D9"/>
<path d="M84.6828 291.222C88.4145 297.686 94.1531 302.268 100.657 304.637L78.0791 296.419C71.5704 294.052 65.8272 289.468 62.0933 283L84.6828 291.222Z" fill="#D9D9D9"/>
<path d="M84.6828 291.222C88.4145 297.686 94.1531 302.268 100.657 304.637L78.0791 296.419C71.5704 294.052 65.8272 289.468 62.0933 283L84.6828 291.222Z" fill="url(#paint4_linear_1536_2143)"/>
<path d="M129.969 155.153C133.7 161.617 139.439 166.199 145.943 168.568L123.365 160.35C116.856 157.983 111.113 153.399 107.379 146.931L129.969 155.153Z" fill="url(#paint5_linear_1536_2143)"/>
<path d="M84.6842 291.222C76.255 276.623 81.2572 257.954 95.8571 249.525L73.2675 241.303C58.6677 249.732 53.6654 268.401 62.0947 283.001L84.6842 291.222Z" fill="url(#paint6_linear_1536_2143)"/>
<path d="M129.968 155.153C121.539 140.553 126.541 121.885 141.141 113.455L118.552 105.233C103.952 113.663 98.9496 132.331 107.379 146.931L129.968 155.153Z" fill="url(#paint7_linear_1536_2143)"/>
<rect x="114.707" y="128.717" width="221.435" height="61.0498" rx="30.5249" transform="rotate(-30 114.707 128.717)" fill="#F3F4F7"/>
<rect x="69.4229" y="264.787" width="273.172" height="61.0498" rx="30.5249" transform="rotate(-30 69.4229 264.787)" fill="#F3F4F7"/>
</g>
<defs>
<linearGradient id="paint0_linear_1536_2143" x1="279.284" y1="140.221" x2="288.054" y2="105.527" gradientUnits="userSpaceOnUse">
<stop offset='0' stop-color="#E4E4E4"/>
<stop offset="0.33176" stop-color="white"/>
</linearGradient>
<linearGradient id="paint1_linear_1536_2143" x1="279.761" y1="30.0196" x2="284.569" y2="7.18228" gradientUnits="userSpaceOnUse">
<stop offset='0' stop-color="#E4E4E4"/>
<stop offset="0.211303" stop-color="white"/>
<stop offset="0.839974" stop-color="#EEEEEF"/>
</linearGradient>
<linearGradient id="paint2_linear_1536_2143" x1="76.4182" y1="289.891" x2="92.6447" y2="309.724" gradientUnits="userSpaceOnUse">
<stop offset='0' stop-color="#E4E4E4"/>
<stop offset="1" stop-color="white"/>
</linearGradient>
<linearGradient id="paint3_linear_1536_2143" x1="76.4182" y1="289.891" x2="92.6447" y2="309.724" gradientUnits="userSpaceOnUse">
<stop offset='0' stop-color="#E4E4E4"/>
<stop offset="1" stop-color="white"/>
</linearGradient>
<linearGradient id="paint4_linear_1536_2143" x1="76.4182" y1="289.891" x2="92.6447" y2="309.724" gradientUnits="userSpaceOnUse">
<stop offset='0' stop-color="#E4E4E4"/>
<stop offset="1" stop-color="white"/>
</linearGradient>
<linearGradient id="paint5_linear_1536_2143" x1="121.704" y1="153.822" x2="137.931" y2="173.654" gradientUnits="userSpaceOnUse">
<stop offset='0' stop-color="#E4E4E4"/>
<stop offset="1" stop-color="white"/>
</linearGradient>
<linearGradient id="paint6_linear_1536_2143" x1="85.4339" y1="241.813" x2="79.424" y2="294.098" gradientUnits="userSpaceOnUse">
<stop offset="0.119056" stop-color="#E4E4E4" stop-opacity="0.99"/>
<stop offset="0.473957" stop-color="#F7F7F7"/>
<stop offset="0.75458" stop-color="#E4E4E4"/>
</linearGradient>
<linearGradient id="paint7_linear_1536_2143" x1="130.718" y1="105.744" x2="124.708" y2="158.029" gradientUnits="userSpaceOnUse">
<stop offset="0.119056" stop-color="#E4E4E4" stop-opacity="0.99"/>
<stop offset="0.473957" stop-color="#F7F7F7"/>
<stop offset="0.75458" stop-color="#E4E4E4"/>
</linearGradient>
<clipPath id="clip0_1536_2143">
<rect width="396" height="292" fill="white"/>
</clipPath>
</defs>
</svg>
