<svg width="250" height="342" viewBox="0 0 250 342" fill="none" xmlns="http://www.w3.org/2000/svg">
<path d="M59.0146 126.784C53.2176 124.675 48.1024 120.592 44.7768 114.832C37.2693 101.829 41.7246 85.2014 54.7279 77.6939L178.437 6.27044C185.68 2.08858 194.048 1.6185 201.337 4.27001C207.134 6.37863 212.25 10.4614 215.575 16.2216C223.083 29.2249 218.627 45.8522 205.624 53.3597L81.9149 124.783C74.6717 128.965 66.3041 129.435 59.0146 126.784Z" fill="#D9D9D9"/>
<path d="M18.6816 247.974C12.8846 245.865 7.76941 241.782 4.44378 236.022C-3.0637 223.019 1.39157 206.392 14.3949 198.884L178.01 104.421C185.253 100.239 193.621 99.7689 200.911 102.42C206.708 104.529 211.823 108.612 215.148 114.372C222.656 127.375 218.201 144.003 205.197 151.51L41.5819 245.973C34.3387 250.155 25.9711 250.625 18.6816 247.974Z" fill="#D9D9D9"/>
<path d="M56.3215 323.084C50.5245 320.976 45.4094 316.893 42.0837 311.133C34.5763 298.129 39.0315 281.502 52.0349 273.995L95.9317 248.651C103.175 244.469 111.542 243.999 118.832 246.65C124.629 248.759 129.744 252.842 133.07 258.602C140.577 271.605 136.122 288.233 123.119 295.74L79.2218 321.084C71.9786 325.266 63.611 325.736 56.3215 323.084Z" fill="#D9D9D9"/>
<path d="M225.315 158.834C238.318 151.326 242.773 134.699 235.266 121.695L215.147 114.373C222.654 127.376 218.199 144.003 205.195 151.511L225.315 158.834Z" fill="#D9D9D9"/>
<path d="M235.267 121.695C231.941 115.935 226.826 111.852 221.029 109.744L200.92 102.425C206.712 104.534 211.824 108.616 215.147 114.372L235.267 121.695Z" fill="#D9D9D9"/>
<path d="M143.235 303.063C156.238 295.556 160.694 278.928 153.186 265.925L133.067 258.602C140.574 271.605 136.119 288.233 123.116 295.74L143.235 303.063Z" fill="#D9D9D9"/>
<path d="M225.743 60.6827C238.746 53.1752 243.202 36.5479 235.694 23.5445L215.575 16.2217C223.082 29.225 218.627 45.8523 205.624 53.3598L225.743 60.6827Z" fill="#D9D9D9"/>
<path d="M153.189 265.925C149.863 260.165 144.748 256.082 138.951 253.973L118.842 246.654C124.635 248.764 129.746 252.845 133.069 258.602L153.189 265.925Z" fill="#D9D9D9"/>
<path d="M99.3413 328.407L143.238 303.063L123.119 295.74L79.2219 321.084L99.3413 328.407Z" fill="#D9D9D9"/>
<path d="M235.693 23.5444C232.367 17.7843 227.252 13.7015 221.455 11.5929L201.346 4.27376C207.139 6.38347 212.25 10.4648 215.574 16.2216L235.693 23.5444Z" fill="#D9D9D9"/>
<path d="M61.7009 253.296L225.316 158.833L205.197 151.51L41.5815 245.974L61.7009 253.296Z" fill="#D9D9D9"/>
<path d="M76.4382 330.407C83.7277 333.059 92.0953 332.589 99.3385 328.407L79.2192 321.084C71.976 325.266 63.6084 325.736 56.3188 323.084L76.4382 330.407Z" fill="#D9D9D9"/>
<path d="M102.035 132.106L225.744 60.6827L205.625 53.3599L81.9158 124.783L102.035 132.106Z" fill="#D9D9D9"/>
<path d="M116.05 255.974C123.293 251.792 131.661 251.322 138.951 253.973L118.831 246.65C111.542 243.999 103.174 244.469 95.9309 248.651L116.05 255.974Z" fill="url(#paint0_linear_1535_3535)"/>
<path d="M72.1523 281.317L116.049 255.974L95.9298 248.651L52.033 273.995L72.1523 281.317Z" fill="url(#paint1_linear_1535_3535)"/>
<path d="M72.1549 281.317C59.1515 288.825 54.6963 305.452 62.2037 318.456L42.0844 311.133C34.5769 298.129 39.0322 281.502 52.0355 273.995L72.1549 281.317Z" fill="#D9D9D9"/>
<path d="M72.1549 281.317C59.1515 288.825 54.6963 305.452 62.2037 318.456L42.0844 311.133C34.5769 298.129 39.0322 281.502 52.0355 273.995L72.1549 281.317Z" fill="url(#paint2_linear_1535_3535)"/>
<path d="M72.1549 281.317C59.1515 288.825 54.6963 305.452 62.2037 318.456L42.0844 311.133C34.5769 298.129 39.0322 281.502 52.0355 273.995L72.1549 281.317Z" fill="url(#paint3_linear_1535_3535)"/>
<path d="M76.4308 330.403C70.6381 328.294 65.5274 324.212 62.2037 318.456L42.0844 311.133C45.41 316.893 50.5248 320.976 56.3218 323.084L76.4308 330.403Z" fill="#D9D9D9"/>
<path d="M76.4308 330.403C70.6381 328.294 65.5274 324.212 62.2037 318.456L42.0844 311.133C45.41 316.893 50.5248 320.976 56.3218 323.084L76.4308 330.403Z" fill="url(#paint4_linear_1535_3535)"/>
<path d="M76.4308 330.403C70.6381 328.294 65.5274 324.212 62.2037 318.456L42.0844 311.133C45.41 316.893 50.5248 320.976 56.3218 323.084L76.4308 330.403Z" fill="url(#paint5_linear_1535_3535)"/>
<path d="M198.129 111.744C205.372 107.562 213.739 107.092 221.029 109.743L200.91 102.42C193.62 99.7689 185.252 100.239 178.009 104.421L14.394 198.884L34.5134 206.207L198.129 111.744Z" fill="url(#paint6_linear_1535_3535)"/>
<path d="M198.555 13.5932C205.798 9.41141 214.166 8.94136 221.455 11.5929L201.336 4.27001C194.046 1.6185 185.679 2.08858 178.435 6.27044L54.7268 77.6939L74.8461 85.0168L198.555 13.5932Z" fill="#2565D0"/>
<path d="M198.555 13.5932C205.798 9.41141 214.166 8.94136 221.455 11.5929L201.336 4.27001C194.046 1.6185 185.679 2.08858 178.435 6.27044L54.7268 77.6939L74.8461 85.0168L198.555 13.5932Z" fill="url(#paint7_linear_1535_3535)"/>
<path d="M38.7995 255.296C46.089 257.948 54.4567 257.478 61.6999 253.296L41.5805 245.973C34.3373 250.155 25.9697 250.625 18.6802 247.974L38.7995 255.296Z" fill="#D9D9D9"/>
<path d="M79.132 134.107C86.4215 136.758 94.7891 136.288 102.032 132.107L81.913 124.784C74.6698 128.966 66.3022 129.436 59.0127 126.784L79.132 134.107Z" fill="#D9D9D9"/>
<path d="M34.5142 206.213C21.5109 213.721 17.0556 230.348 24.5631 243.352L4.44378 236.029C-3.0637 223.025 1.39157 206.398 14.3949 198.891L34.5142 206.213Z" fill="url(#paint8_linear_1535_3535)"/>
<path d="M38.7902 255.299C32.9975 253.19 27.8868 249.108 24.5631 243.352L4.44378 236.029C7.76941 241.789 12.8842 245.872 18.6812 247.98L38.7902 255.299Z" fill="url(#paint9_linear_1535_3535)"/>
<path d="M74.8487 85.0167C61.8454 92.5242 57.3901 109.151 64.8976 122.155L44.7783 114.832C37.2708 101.829 41.726 85.2013 54.7294 77.6938L74.8487 85.0167Z" fill="url(#paint10_linear_1535_3535)"/>
<path d="M74.8487 85.0167C61.8454 92.5242 57.3901 109.151 64.8976 122.155L44.7783 114.832C37.2708 101.829 41.726 85.2013 54.7294 77.6938L74.8487 85.0167Z" fill="url(#paint11_linear_1535_3535)"/>
<path d="M79.1247 134.103C73.3319 131.993 68.2213 127.912 64.8976 122.155L44.7783 114.832C48.1039 120.592 53.2186 124.675 59.0156 126.784L79.1247 134.103Z" fill="url(#paint12_linear_1535_3535)"/>
<path d="M79.1247 134.103C73.3319 131.993 68.2213 127.912 64.8976 122.155L44.7783 114.832C48.1039 120.592 53.2186 124.675 59.0156 126.784L79.1247 134.103Z" fill="url(#paint13_linear_1535_3535)"/>
<rect x="51.3008" y="98.6104" width="197.221" height="54.374" rx="27.187" transform="rotate(-30 51.3008 98.6104)" fill="#2565D0"/>
<rect x="10.9663" y="219.801" width="243.301" height="54.374" rx="27.187" transform="rotate(-30 10.9663 219.801)" fill="#2565D0"/>
<rect x="48.6069" y="294.911" width="105.062" height="54.374" rx="27.187" transform="rotate(-30 48.6069 294.911)" fill="#2565D0"/>
<defs>
<linearGradient id="paint0_linear_1535_3535" x1="142.622" y1="221.633" x2="97.6424" y2="225.505" gradientUnits="userSpaceOnUse">
<stop offset='0' stop-color="#B3C7FF"/>
<stop offset="1" stop-color="#2568D9"/>
</linearGradient>
<linearGradient id="paint1_linear_1535_3535" x1="142.622" y1="221.633" x2="97.6424" y2="225.505" gradientUnits="userSpaceOnUse">
<stop offset='0' stop-color="#B3C7FF"/>
<stop offset="1" stop-color="#2568D9"/>
</linearGradient>
<linearGradient id="paint2_linear_1535_3535" x1="61.803" y1="276.59" x2="47.8861" y2="330.116" gradientUnits="userSpaceOnUse">
<stop offset='0' stop-color="#2565D0"/>
<stop offset="1" stop-color="#414F84"/>
</linearGradient>
<linearGradient id="paint3_linear_1535_3535" x1="55.3629" y1="279.751" x2="47.8862" y2="330.116" gradientUnits="userSpaceOnUse">
<stop offset='0' stop-color="#2669D9"/>
<stop offset="1" stop-color="#414F84"/>
</linearGradient>
<linearGradient id="paint4_linear_1535_3535" x1="61.803" y1="276.59" x2="47.8861" y2="330.116" gradientUnits="userSpaceOnUse">
<stop offset='0' stop-color="#2565D0"/>
<stop offset="1" stop-color="#414F84"/>
</linearGradient>
<linearGradient id="paint5_linear_1535_3535" x1="55.3629" y1="279.751" x2="47.8862" y2="330.116" gradientUnits="userSpaceOnUse">
<stop offset='0' stop-color="#2669D9"/>
<stop offset="1" stop-color="#414F84"/>
</linearGradient>
<linearGradient id="paint6_linear_1535_3535" x1="221.029" y1="73.0668" x2="152.246" y2="71.0908" gradientUnits="userSpaceOnUse">
<stop offset='0' stop-color="#B3C7FF"/>
<stop offset="1" stop-color="#2568D9"/>
</linearGradient>
<linearGradient id="paint7_linear_1535_3535" x1="221.455" y1="-19.0289" x2="165.959" y2="-20.675" gradientUnits="userSpaceOnUse">
<stop offset='0' stop-color="#B3C7FF"/>
<stop offset="1" stop-color="#2568D9"/>
</linearGradient>
<linearGradient id="paint8_linear_1535_3535" x1="17.7223" y1="204.647" x2="10.2455" y2="255.012" gradientUnits="userSpaceOnUse">
<stop offset='0' stop-color="#2669D9"/>
<stop offset="1" stop-color="#414F84"/>
</linearGradient>
<linearGradient id="paint9_linear_1535_3535" x1="17.7223" y1="204.647" x2="10.2455" y2="255.012" gradientUnits="userSpaceOnUse">
<stop offset='0' stop-color="#2669D9"/>
<stop offset="1" stop-color="#414F84"/>
</linearGradient>
<linearGradient id="paint10_linear_1535_3535" x1="64.4969" y1="80.2893" x2="50.58" y2="133.816" gradientUnits="userSpaceOnUse">
<stop offset='0' stop-color="#2565D0"/>
<stop offset="1" stop-color="#414F84"/>
</linearGradient>
<linearGradient id="paint11_linear_1535_3535" x1="58.0568" y1="83.4502" x2="50.58" y2="133.816" gradientUnits="userSpaceOnUse">
<stop offset='0' stop-color="#2669D9"/>
<stop offset="1" stop-color="#414F84"/>
</linearGradient>
<linearGradient id="paint12_linear_1535_3535" x1="64.4969" y1="80.2893" x2="50.58" y2="133.816" gradientUnits="userSpaceOnUse">
<stop offset='0' stop-color="#2565D0"/>
<stop offset="1" stop-color="#414F84"/>
</linearGradient>
<linearGradient id="paint13_linear_1535_3535" x1="58.0568" y1="83.4502" x2="50.58" y2="133.816" gradientUnits="userSpaceOnUse">
<stop offset='0' stop-color="#2669D9"/>
<stop offset="1" stop-color="#414F84"/>
</linearGradient>
</defs>
</svg>
