<svg width="282" height="463" viewBox="0 0 282 463" fill="none" xmlns="http://www.w3.org/2000/svg">
<g clip-path="url(#clip0_172_938)">
<path d="M94.4391 174.827C90.1528 173.267 86.3706 170.249 83.9116 165.989C78.3605 156.375 81.6548 144.08 91.2695 138.529L182.741 85.7183C188.097 82.6262 194.284 82.2786 199.674 84.2391C203.96 85.7983 207.742 88.8171 210.201 93.0762C215.752 102.691 212.458 114.985 202.843 120.536L111.372 173.347C106.016 176.44 99.829 176.787 94.4391 174.827Z" fill="#D9D9D9"/>
<path d="M64.6166 264.435C60.3303 262.876 56.5481 259.857 54.0891 255.598C48.538 245.984 51.8323 233.689 61.4471 228.138L182.425 158.291C187.781 155.199 193.968 154.852 199.358 156.812C203.644 158.371 207.426 161.39 209.885 165.649C215.437 175.264 212.142 187.558 202.528 193.109L81.5493 262.956C76.1936 266.048 70.0066 266.396 64.6166 264.435Z" fill="#D9D9D9"/>
<path d="M92.4479 319.973C88.1615 318.413 84.3793 315.395 81.9204 311.136C76.3693 301.521 79.6635 289.226 89.2783 283.675L121.736 264.936C127.092 261.844 133.279 261.496 138.669 263.457C142.955 265.016 146.737 268.035 149.196 272.294C154.747 281.909 151.453 294.203 141.838 299.754L109.381 318.493C104.025 321.586 97.8378 321.933 92.4479 319.973Z" fill="#D9D9D9"/>
<path d="M217.402 198.524C227.017 192.973 230.311 180.679 224.76 171.064L209.884 165.65C215.435 175.264 212.141 187.559 202.526 193.11L217.402 198.524Z" fill="#D9D9D9"/>
<path d="M224.761 171.064C222.302 166.805 218.52 163.786 214.234 162.227L199.365 156.815C203.648 158.375 207.427 161.393 209.885 165.65L224.761 171.064Z" fill="#D9D9D9"/>
<path d="M156.712 305.169C166.327 299.618 169.621 287.323 164.07 277.709L149.194 272.294C154.745 281.909 151.451 294.203 141.836 299.754L156.712 305.169Z" fill="#D9D9D9"/>
<path d="M217.719 125.951C227.334 120.4 230.628 108.106 225.077 98.4909L210.201 93.0763C215.752 102.691 212.458 114.985 202.843 120.536L217.719 125.951Z" fill="#D9D9D9"/>
<path d="M164.072 277.709C161.613 273.449 157.831 270.431 153.545 268.871L138.676 263.46C142.959 265.02 146.738 268.037 149.196 272.294L164.072 277.709Z" fill="#D9D9D9"/>
<path d="M124.257 323.908L156.715 305.169L141.838 299.754L109.381 318.494L124.257 323.908Z" fill="#D9D9D9"/>
<path d="M225.076 98.4909C222.617 94.2318 218.835 91.2129 214.549 89.6538L199.68 84.242C203.963 85.802 207.742 88.8198 210.2 93.0763L225.076 98.4909Z" fill="#D9D9D9"/>
<path d="M96.4252 268.371L217.403 198.524L202.527 193.109L81.5488 262.956L96.4252 268.371Z" fill="#D9D9D9"/>
<path d="M107.323 325.387C112.713 327.348 118.9 327 124.255 323.908L109.379 318.494C104.023 321.586 97.8362 321.933 92.4463 319.973L107.323 325.387Z" fill="#D9D9D9"/>
<path d="M126.249 178.762L217.72 125.951L202.844 120.536L111.373 173.348L126.249 178.762Z" fill="#D9D9D9"/>
<path d="M136.612 270.35C141.967 267.258 148.154 266.911 153.544 268.871L138.668 263.457C133.278 261.496 127.091 261.844 121.735 264.936L136.612 270.35Z" fill="url(#paint0_linear_172_938)"/>
<path d="M104.153 289.09L136.611 270.35L121.734 264.936L89.2769 283.675L104.153 289.09Z" fill="url(#paint1_linear_172_938)"/>
<path d="M104.155 289.09C94.5407 294.641 91.2464 306.935 96.7975 316.55L81.9212 311.135C76.3701 301.521 79.6643 289.226 89.2791 283.675L104.155 289.09Z" fill="#D9D9D9"/>
<path d="M104.155 289.09C94.5407 294.641 91.2464 306.935 96.7975 316.55L81.9212 311.135C76.3701 301.521 79.6643 289.226 89.2791 283.675L104.155 289.09Z" fill="url(#paint2_linear_172_938)"/>
<path d="M104.155 289.09C94.5407 294.641 91.2464 306.935 96.7975 316.55L81.9212 311.135C76.3701 301.521 79.6643 289.226 89.2791 283.675L104.155 289.09Z" fill="url(#paint3_linear_172_938)"/>
<path d="M107.317 325.384C103.034 323.824 99.2551 320.806 96.7975 316.55L81.9212 311.135C84.3801 315.394 88.162 318.413 92.4484 319.972L107.317 325.384Z" fill="#D9D9D9"/>
<path d="M107.317 325.384C103.034 323.824 99.2551 320.806 96.7975 316.55L81.9212 311.135C84.3801 315.394 88.162 318.413 92.4484 319.972L107.317 325.384Z" fill="url(#paint4_linear_172_938)"/>
<path d="M107.317 325.384C103.034 323.824 99.2551 320.806 96.7975 316.55L81.9212 311.135C84.3801 315.394 88.162 318.413 92.4484 319.972L107.317 325.384Z" fill="url(#paint5_linear_172_938)"/>
<path d="M197.301 163.706C202.657 160.614 208.844 160.266 214.234 162.227L199.358 156.812C193.968 154.852 187.781 155.199 182.425 158.292L61.4468 228.138L76.3232 233.553L197.301 163.706Z" fill="url(#paint6_linear_172_938)"/>
<path d="M197.616 91.1326C202.972 88.0406 209.159 87.693 214.549 89.6536L199.672 84.239C194.282 82.2785 188.095 82.6261 182.74 85.7181L91.2686 138.529L106.145 143.944L197.616 91.1326Z" fill="#2565D0"/>
<path d="M197.616 91.1326C202.972 88.0406 209.159 87.693 214.549 89.6536L199.672 84.239C194.282 82.2785 188.095 82.6261 182.74 85.7181L91.2686 138.529L106.145 143.944L197.616 91.1326Z" fill="url(#paint7_linear_172_938)"/>
<path d="M79.4921 269.85C84.882 271.81 91.0691 271.463 96.4248 268.371L81.5484 262.956C76.1927 266.048 70.0056 266.396 64.6157 264.435L79.4921 269.85Z" fill="#D9D9D9"/>
<path d="M109.314 180.241C114.704 182.202 120.891 181.854 126.247 178.762L111.37 173.348C106.014 176.44 99.8274 176.787 94.4375 174.827L109.314 180.241Z" fill="#D9D9D9"/>
<path d="M76.3234 233.558C66.7087 239.109 63.4144 251.403 68.9655 261.018L54.0891 255.603C48.538 245.988 51.8323 233.694 61.4471 228.143L76.3234 233.558Z" fill="url(#paint8_linear_172_938)"/>
<path d="M79.4851 269.852C75.2019 268.292 71.423 265.274 68.9655 261.018L54.0891 255.603C56.5481 259.862 60.33 262.881 64.6163 264.44L79.4851 269.852Z" fill="url(#paint9_linear_172_938)"/>
<path d="M106.147 143.944C96.5319 149.495 93.2377 161.789 98.7887 171.404L83.9124 165.99C78.3613 156.375 81.6555 144.081 91.2703 138.529L106.147 143.944Z" fill="url(#paint10_linear_172_938)"/>
<path d="M106.147 143.944C96.5319 149.495 93.2377 161.789 98.7887 171.404L83.9124 165.99C78.3613 156.375 81.6555 144.081 91.2703 138.529L106.147 143.944Z" fill="url(#paint11_linear_172_938)"/>
<path d="M109.308 180.238C105.025 178.679 101.246 175.661 98.7887 171.404L83.9124 165.99C86.3714 170.249 90.1532 173.268 94.4396 174.827L109.308 180.238Z" fill="url(#paint12_linear_172_938)"/>
<path d="M109.308 180.238C105.025 178.679 101.246 175.661 98.7887 171.404L83.9124 165.99C86.3714 170.249 90.1532 173.268 94.4396 174.827L109.308 180.238Z" fill="url(#paint13_linear_172_938)"/>
<rect x="88.7349" y="153.995" width="145.827" height="40.2045" rx="20.1023" transform="rotate(-30 88.7349 153.995)" fill="#2565D0"/>
<rect x="58.9116" y="243.604" width="179.898" height="40.2045" rx="20.1023" transform="rotate(-30 58.9116 243.604)" fill="#2565D0"/>
<rect x="86.7432" y="299.141" width="77.6833" height="40.2045" rx="20.1023" transform="rotate(-30 86.7432 299.141)" fill="#2565D0"/>
<path d="M228.695 338.917C224.409 337.358 220.626 334.339 218.167 330.08C212.616 320.465 215.911 308.171 225.525 302.62L316.997 249.809C322.352 246.717 328.539 246.369 333.929 248.33C338.216 249.889 341.998 252.908 344.457 257.167C350.008 266.782 346.714 279.076 337.099 284.627L245.628 337.438C240.272 340.53 234.085 340.878 228.695 338.917Z" fill="#D9D9D9"/>
<path d="M198.873 428.526C194.586 426.967 190.804 423.948 188.345 419.689C182.794 410.074 186.088 397.78 195.703 392.229L316.681 322.382C322.037 319.29 328.224 318.942 333.614 320.903C337.9 322.462 341.682 325.481 344.141 329.74C349.692 339.355 346.398 351.649 336.783 357.2L215.805 427.047C210.45 430.139 204.262 430.487 198.873 428.526Z" fill="#D9D9D9"/>
<path d="M226.704 484.063C222.417 482.504 218.635 479.485 216.176 475.226C210.625 465.611 213.919 453.317 223.534 447.766L255.992 429.026C261.347 425.934 267.534 425.587 272.924 427.547C277.211 429.106 280.993 432.125 283.452 436.384C289.003 445.999 285.709 458.294 276.094 463.845L243.636 482.584C238.281 485.676 232.094 486.024 226.704 484.063Z" fill="#D9D9D9"/>
<path d="M290.968 469.259C300.583 463.708 303.877 451.414 298.326 441.799L283.45 436.384C289.001 445.999 285.707 458.294 276.092 463.845L290.968 469.259Z" fill="#D9D9D9"/>
<path d="M298.328 441.799C295.869 437.54 292.087 434.521 287.801 432.962L272.932 427.55C277.215 429.11 280.994 432.128 283.452 436.384L298.328 441.799Z" fill="#D9D9D9"/>
<path d="M230.681 432.461L351.659 362.615L336.783 357.2L215.805 427.047L230.681 432.461Z" fill="#D9D9D9"/>
<path d="M260.505 342.853L351.977 290.042L337.1 284.627L245.629 337.438L260.505 342.853Z" fill="#D9D9D9"/>
<path d="M270.867 434.441C276.223 431.349 282.41 431.001 287.8 432.962L272.924 427.547C267.534 425.587 261.347 425.934 255.991 429.026L270.867 434.441Z" fill="url(#paint14_linear_172_938)"/>
<path d="M238.409 453.18L270.867 434.441L255.99 429.026L223.533 447.766L238.409 453.18Z" fill="url(#paint15_linear_172_938)"/>
<path d="M238.411 453.18C228.797 458.731 225.502 471.026 231.053 480.64L216.177 475.226C210.626 465.611 213.92 453.317 223.535 447.766L238.411 453.18Z" fill="#D9D9D9"/>
<path d="M238.411 453.18C228.797 458.731 225.502 471.026 231.053 480.64L216.177 475.226C210.626 465.611 213.92 453.317 223.535 447.766L238.411 453.18Z" fill="url(#paint16_linear_172_938)"/>
<path d="M238.411 453.18C228.797 458.731 225.502 471.026 231.053 480.64L216.177 475.226C210.626 465.611 213.92 453.317 223.535 447.766L238.411 453.18Z" fill="url(#paint17_linear_172_938)"/>
<path d="M241.573 489.475C237.29 487.915 233.511 484.897 231.053 480.64L216.177 475.226C218.636 479.485 222.418 482.504 226.704 484.063L241.573 489.475Z" fill="#D9D9D9"/>
<path d="M241.573 489.475C237.29 487.915 233.511 484.897 231.053 480.64L216.177 475.226C218.636 479.485 222.418 482.504 226.704 484.063L241.573 489.475Z" fill="url(#paint18_linear_172_938)"/>
<path d="M241.573 489.475C237.29 487.915 233.511 484.897 231.053 480.64L216.177 475.226C218.636 479.485 222.418 482.504 226.704 484.063L241.573 489.475Z" fill="url(#paint19_linear_172_938)"/>
<path d="M331.557 327.797C336.913 324.705 343.1 324.357 348.49 326.318L333.613 320.903C328.223 318.942 322.036 319.29 316.681 322.382L195.703 392.229L210.579 397.643L331.557 327.797Z" fill="url(#paint20_linear_172_938)"/>
<path d="M331.872 255.223C337.228 252.131 343.415 251.784 348.805 253.744L333.929 248.33C328.539 246.369 322.352 246.717 316.996 249.809L225.525 302.62L240.401 308.034L331.872 255.223Z" fill="#2565D0"/>
<path d="M331.872 255.223C337.228 252.131 343.415 251.784 348.805 253.744L333.929 248.33C328.539 246.369 322.352 246.717 316.996 249.809L225.525 302.62L240.401 308.034L331.872 255.223Z" fill="url(#paint21_linear_172_938)"/>
<path d="M213.748 433.94C219.138 435.901 225.325 435.553 230.681 432.461L215.804 427.047C210.449 430.139 204.262 430.486 198.872 428.526L213.748 433.94Z" fill="#D9D9D9"/>
<path d="M243.57 344.332C248.96 346.292 255.147 345.945 260.502 342.853L245.626 337.438C240.27 340.53 234.083 340.878 228.693 338.917L243.57 344.332Z" fill="#D9D9D9"/>
<path d="M210.579 397.648C200.965 403.199 197.67 415.494 203.221 425.108L188.345 419.694C182.794 410.079 186.088 397.785 195.703 392.234L210.579 397.648Z" fill="url(#paint22_linear_172_938)"/>
<path d="M213.741 433.943C209.458 432.383 205.679 429.365 203.221 425.108L188.345 419.694C190.804 423.953 194.586 426.972 198.872 428.531L213.741 433.943Z" fill="url(#paint23_linear_172_938)"/>
<path d="M240.403 308.034C230.788 313.586 227.494 325.88 233.045 335.495L218.168 330.08C212.617 320.465 215.911 308.171 225.526 302.62L240.403 308.034Z" fill="url(#paint24_linear_172_938)"/>
<path d="M240.403 308.034C230.788 313.586 227.494 325.88 233.045 335.495L218.168 330.08C212.617 320.465 215.911 308.171 225.526 302.62L240.403 308.034Z" fill="url(#paint25_linear_172_938)"/>
<path d="M243.564 344.329C239.281 342.769 235.502 339.751 233.045 335.495L218.168 330.08C220.627 334.339 224.409 337.358 228.695 338.917L243.564 344.329Z" fill="url(#paint26_linear_172_938)"/>
<path d="M243.564 344.329C239.281 342.769 235.502 339.751 233.045 335.495L218.168 330.08C220.627 334.339 224.409 337.358 228.695 338.917L243.564 344.329Z" fill="url(#paint27_linear_172_938)"/>
<rect x="222.991" y="318.086" width="145.827" height="40.2045" rx="20.1023" transform="rotate(-30 222.991 318.086)" fill="#2565D0"/>
<rect x="193.167" y="407.695" width="179.898" height="40.2045" rx="20.1023" transform="rotate(-30 193.167 407.695)" fill="#2565D0"/>
<rect x="220.999" y="463.231" width="77.6833" height="40.2045" rx="20.1023" transform="rotate(-30 220.999 463.231)" fill="#2565D0"/>
</g>
<defs>
<linearGradient id="paint0_linear_172_938" x1="156.259" y1="244.958" x2="123.001" y2="247.822" gradientUnits="userSpaceOnUse">
<stop offset="" stop-color="#B3C7FF"/>
<stop offset="1" stop-color="#2568D9"/>
</linearGradient>
<linearGradient id="paint1_linear_172_938" x1="156.259" y1="244.958" x2="123.001" y2="247.822" gradientUnits="userSpaceOnUse">
<stop offset="" stop-color="#B3C7FF"/>
<stop offset="1" stop-color="#2568D9"/>
</linearGradient>
<linearGradient id="paint2_linear_172_938" x1="96.5012" y1="285.594" x2="86.211" y2="325.172" gradientUnits="userSpaceOnUse">
<stop offset="" stop-color="#2565D0"/>
<stop offset="1" stop-color="#414F84"/>
</linearGradient>
<linearGradient id="paint3_linear_172_938" x1="91.7394" y1="287.931" x2="86.211" y2="325.172" gradientUnits="userSpaceOnUse">
<stop offset="" stop-color="#2669D9"/>
<stop offset="1" stop-color="#414F84"/>
</linearGradient>
<linearGradient id="paint4_linear_172_938" x1="96.5012" y1="285.594" x2="86.211" y2="325.172" gradientUnits="userSpaceOnUse">
<stop offset="" stop-color="#2565D0"/>
<stop offset="1" stop-color="#414F84"/>
</linearGradient>
<linearGradient id="paint5_linear_172_938" x1="91.7394" y1="287.931" x2="86.211" y2="325.172" gradientUnits="userSpaceOnUse">
<stop offset="" stop-color="#2669D9"/>
<stop offset="1" stop-color="#414F84"/>
</linearGradient>
<linearGradient id="paint6_linear_172_938" x1="214.234" y1="135.108" x2="163.375" y2="133.647" gradientUnits="userSpaceOnUse">
<stop offset="" stop-color="#B3C7FF"/>
<stop offset="1" stop-color="#2568D9"/>
</linearGradient>
<linearGradient id="paint7_linear_172_938" x1="214.549" y1="67.0117" x2="173.514" y2="65.7945" gradientUnits="userSpaceOnUse">
<stop offset="" stop-color="#B3C7FF"/>
<stop offset="1" stop-color="#2568D9"/>
</linearGradient>
<linearGradient id="paint8_linear_172_938" x1="63.9073" y1="232.399" x2="58.379" y2="269.64" gradientUnits="userSpaceOnUse">
<stop offset="" stop-color="#2669D9"/>
<stop offset="1" stop-color="#414F84"/>
</linearGradient>
<linearGradient id="paint9_linear_172_938" x1="63.9073" y1="232.399" x2="58.379" y2="269.64" gradientUnits="userSpaceOnUse">
<stop offset="" stop-color="#2669D9"/>
<stop offset="1" stop-color="#414F84"/>
</linearGradient>
<linearGradient id="paint10_linear_172_938" x1="98.4924" y1="140.448" x2="88.2022" y2="180.026" gradientUnits="userSpaceOnUse">
<stop offset="" stop-color="#2565D0"/>
<stop offset="1" stop-color="#414F84"/>
</linearGradient>
<linearGradient id="paint11_linear_172_938" x1="93.7306" y1="142.786" x2="88.2022" y2="180.026" gradientUnits="userSpaceOnUse">
<stop offset="" stop-color="#2669D9"/>
<stop offset="1" stop-color="#414F84"/>
</linearGradient>
<linearGradient id="paint12_linear_172_938" x1="98.4924" y1="140.448" x2="88.2022" y2="180.026" gradientUnits="userSpaceOnUse">
<stop offset="" stop-color="#2565D0"/>
<stop offset="1" stop-color="#414F84"/>
</linearGradient>
<linearGradient id="paint13_linear_172_938" x1="93.7306" y1="142.786" x2="88.2022" y2="180.026" gradientUnits="userSpaceOnUse">
<stop offset="" stop-color="#2669D9"/>
<stop offset="1" stop-color="#414F84"/>
</linearGradient>
<linearGradient id="paint14_linear_172_938" x1="290.515" y1="409.049" x2="257.257" y2="411.912" gradientUnits="userSpaceOnUse">
<stop offset="" stop-color="#B3C7FF"/>
<stop offset="1" stop-color="#2568D9"/>
</linearGradient>
<linearGradient id="paint15_linear_172_938" x1="290.515" y1="409.049" x2="257.257" y2="411.912" gradientUnits="userSpaceOnUse">
<stop offset="" stop-color="#B3C7FF"/>
<stop offset="1" stop-color="#2568D9"/>
</linearGradient>
<linearGradient id="paint16_linear_172_938" x1="230.757" y1="449.685" x2="220.467" y2="489.263" gradientUnits="userSpaceOnUse">
<stop offset="" stop-color="#2565D0"/>
<stop offset="1" stop-color="#414F84"/>
</linearGradient>
<linearGradient id="paint17_linear_172_938" x1="225.995" y1="452.022" x2="220.467" y2="489.263" gradientUnits="userSpaceOnUse">
<stop offset="" stop-color="#2669D9"/>
<stop offset="1" stop-color="#414F84"/>
</linearGradient>
<linearGradient id="paint18_linear_172_938" x1="230.757" y1="449.685" x2="220.467" y2="489.263" gradientUnits="userSpaceOnUse">
<stop offset="" stop-color="#2565D0"/>
<stop offset="1" stop-color="#414F84"/>
</linearGradient>
<linearGradient id="paint19_linear_172_938" x1="225.995" y1="452.022" x2="220.467" y2="489.263" gradientUnits="userSpaceOnUse">
<stop offset="" stop-color="#2669D9"/>
<stop offset="1" stop-color="#414F84"/>
</linearGradient>
<linearGradient id="paint20_linear_172_938" x1="348.49" y1="299.199" x2="297.631" y2="297.738" gradientUnits="userSpaceOnUse">
<stop offset="" stop-color="#B3C7FF"/>
<stop offset="1" stop-color="#2568D9"/>
</linearGradient>
<linearGradient id="paint21_linear_172_938" x1="348.805" y1="231.102" x2="307.771" y2="229.885" gradientUnits="userSpaceOnUse">
<stop offset="" stop-color="#B3C7FF"/>
<stop offset="1" stop-color="#2568D9"/>
</linearGradient>
<linearGradient id="paint22_linear_172_938" x1="198.163" y1="396.49" x2="192.635" y2="433.73" gradientUnits="userSpaceOnUse">
<stop offset="" stop-color="#2669D9"/>
<stop offset="1" stop-color="#414F84"/>
</linearGradient>
<linearGradient id="paint23_linear_172_938" x1="198.163" y1="396.49" x2="192.635" y2="433.73" gradientUnits="userSpaceOnUse">
<stop offset="" stop-color="#2669D9"/>
<stop offset="1" stop-color="#414F84"/>
</linearGradient>
<linearGradient id="paint24_linear_172_938" x1="232.748" y1="304.539" x2="222.458" y2="344.117" gradientUnits="userSpaceOnUse">
<stop offset="" stop-color="#2565D0"/>
<stop offset="1" stop-color="#414F84"/>
</linearGradient>
<linearGradient id="paint25_linear_172_938" x1="227.986" y1="306.876" x2="222.458" y2="344.117" gradientUnits="userSpaceOnUse">
<stop offset="" stop-color="#2669D9"/>
<stop offset="1" stop-color="#414F84"/>
</linearGradient>
<linearGradient id="paint26_linear_172_938" x1="232.748" y1="304.539" x2="222.458" y2="344.117" gradientUnits="userSpaceOnUse">
<stop offset="" stop-color="#2565D0"/>
<stop offset="1" stop-color="#414F84"/>
</linearGradient>
<linearGradient id="paint27_linear_172_938" x1="227.986" y1="306.876" x2="222.458" y2="344.117" gradientUnits="userSpaceOnUse">
<stop offset="" stop-color="#2669D9"/>
<stop offset="1" stop-color="#414F84"/>
</linearGradient>
<clipPath id="clip0_172_938">
<rect width="421" height="462.437" fill="white"/>
</clipPath>
</defs>
</svg>
