<svg width="762" height="757" viewBox="0 0 762 757" fill="none" xmlns="http://www.w3.org/2000/svg">
<g clip-path="url(#clip0_149_474)">
<path d="M170.933 236.432C163.175 233.61 156.329 228.146 151.878 220.437C141.831 203.034 147.793 180.782 165.196 170.735L330.757 75.148C340.451 69.5514 351.649 68.9223 361.405 72.4708C369.163 75.2928 376.008 80.7569 380.459 88.4657C390.506 105.868 384.544 128.121 367.141 138.168L201.58 233.755C191.887 239.351 180.688 239.98 170.933 236.432Z" fill="#D9D9D9"/>
<path d="M116.955 398.622C109.197 395.8 102.351 390.336 97.9002 382.627C87.8529 365.224 93.8154 342.972 111.218 332.925L330.186 206.504C339.879 200.907 351.078 200.278 360.833 203.826C368.591 206.648 375.437 212.112 379.888 219.821C389.935 237.224 383.973 259.476 366.57 269.524L147.603 395.945C137.909 401.541 126.71 402.17 116.955 398.622Z" fill="#D9D9D9"/>
<path d="M167.329 499.143C159.57 496.321 152.725 490.857 148.274 483.148C138.227 465.745 144.189 443.493 161.592 433.446L220.339 399.528C230.033 393.931 241.231 393.302 250.987 396.85C258.745 399.672 265.591 405.137 270.041 412.845C280.089 430.248 274.126 452.5 256.724 462.548L197.976 496.466C188.283 502.062 177.084 502.691 167.329 499.143Z" fill="#D9D9D9"/>
<path d="M393.493 279.324C410.896 269.277 416.858 247.024 406.811 229.622L379.885 219.822C389.932 237.224 383.97 259.477 366.567 269.524L393.493 279.324Z" fill="#D9D9D9"/>
<path d="M406.812 229.622C402.362 221.913 395.516 216.449 387.758 213.627L360.846 203.832C368.598 206.655 375.439 212.117 379.887 219.822L406.812 229.622Z" fill="#D9D9D9"/>
<path d="M283.646 472.348C301.048 462.301 307.011 440.048 296.963 422.646L270.037 412.845C280.085 430.248 274.122 452.5 256.72 462.548L283.646 472.348Z" fill="#D9D9D9"/>
<path d="M394.067 147.968C411.469 137.921 417.432 115.669 407.384 98.266L380.458 88.4658C390.506 105.868 384.543 128.121 367.141 138.168L394.067 147.968Z" fill="#D9D9D9"/>
<path d="M296.967 422.646C292.516 414.937 285.67 409.473 277.912 406.651L251 396.856C258.753 399.679 265.593 405.141 270.041 412.845L296.967 422.646Z" fill="#D9D9D9"/>
<path d="M224.902 506.266L283.65 472.348L256.724 462.548L197.977 496.466L224.902 506.266Z" fill="#D9D9D9"/>
<path d="M407.383 98.2661C402.932 90.5572 396.086 85.0932 388.328 82.2712L361.416 72.476C369.169 75.2994 376.009 80.7615 380.457 88.4658L407.383 98.2661Z" fill="#D9D9D9"/>
<path d="M174.527 405.745L393.495 279.324L366.569 269.523L147.602 395.944L174.527 405.745Z" fill="#D9D9D9"/>
<path d="M194.251 508.943C204.007 512.492 215.205 511.863 224.899 506.266L197.973 496.466C188.279 502.062 177.081 502.692 167.325 499.143L194.251 508.943Z" fill="#D9D9D9"/>
<path d="M228.508 243.555L394.069 147.968L367.143 138.168L201.582 233.755L228.508 243.555Z" fill="#D9D9D9"/>
<path d="M247.264 409.328C256.957 403.731 268.156 403.102 277.911 406.651L250.985 396.85C241.23 393.302 230.031 393.931 220.338 399.528L247.264 409.328Z" fill="url(#paint0_linear_149_474)"/>
<path d="M188.515 443.246L247.262 409.328L220.336 399.528L161.589 433.446L188.515 443.246Z" fill="url(#paint1_linear_149_474)"/>
<path d="M188.519 443.246C171.116 453.293 165.154 475.545 175.201 492.948L148.275 483.148C138.228 465.745 144.19 443.493 161.593 433.445L188.519 443.246Z" fill="#D9D9D9"/>
<path d="M188.519 443.246C171.116 453.293 165.154 475.545 175.201 492.948L148.275 483.148C138.228 465.745 144.19 443.493 161.593 433.445L188.519 443.246Z" fill="url(#paint2_linear_149_474)"/>
<path d="M188.519 443.246C171.116 453.293 165.154 475.545 175.201 492.948L148.275 483.148C138.228 465.745 144.19 443.493 161.593 433.445L188.519 443.246Z" fill="url(#paint3_linear_149_474)"/>
<path d="M194.241 508.938C186.489 506.114 179.649 500.652 175.201 492.948L148.275 483.148C152.726 490.856 159.571 496.321 167.329 499.142L194.241 508.938Z" fill="#D9D9D9"/>
<path d="M194.241 508.938C186.489 506.114 179.649 500.652 175.201 492.948L148.275 483.148C152.726 490.856 159.571 496.321 167.329 499.142L194.241 508.938Z" fill="url(#paint4_linear_149_474)"/>
<path d="M194.241 508.938C186.489 506.114 179.649 500.652 175.201 492.948L148.275 483.148C152.726 490.856 159.571 496.321 167.329 499.142L194.241 508.938Z" fill="url(#paint5_linear_149_474)"/>
<path d="M357.11 216.304C366.804 210.708 378.002 210.078 387.758 213.627L360.832 203.827C351.076 200.278 339.878 200.907 330.184 206.504L111.217 332.925L138.143 342.725L357.11 216.304Z" fill="url(#paint6_linear_149_474)"/>
<path d="M357.681 84.9478C367.374 79.3514 378.573 78.7223 388.328 82.2708L361.402 72.4706C351.647 68.922 340.448 69.5512 330.755 75.1478L165.194 170.734L192.12 180.535L357.681 84.9478Z" fill="#2565D0"/>
<path d="M357.681 84.9478C367.374 79.3514 378.573 78.7223 388.328 82.2708L361.402 72.4706C351.647 68.922 340.448 69.5512 330.755 75.1478L165.194 170.734L192.12 180.535L357.681 84.9478Z" fill="url(#paint7_linear_149_474)"/>
<path d="M143.879 408.422C153.635 411.97 164.833 411.341 174.527 405.745L147.601 395.944C137.907 401.541 126.709 402.17 116.953 398.622L143.879 408.422Z" fill="#D9D9D9"/>
<path d="M197.856 246.232C207.611 249.781 218.81 249.152 228.503 243.555L201.577 233.755C191.884 239.351 180.685 239.981 170.93 236.432L197.856 246.232Z" fill="#D9D9D9"/>
<path d="M138.144 342.734C120.741 352.781 114.779 375.034 124.826 392.436L97.9002 382.636C87.8529 365.233 93.8154 342.981 111.218 332.934L138.144 342.734Z" fill="url(#paint8_linear_149_474)"/>
<path d="M143.866 408.426C136.114 405.603 129.274 400.14 124.826 392.436L97.9002 382.636C102.351 390.345 109.196 395.809 116.954 398.631L143.866 408.426Z" fill="url(#paint9_linear_149_474)"/>
<path d="M192.123 180.535C174.721 190.582 168.758 212.835 178.806 230.237L151.88 220.437C141.832 203.035 147.795 180.782 165.197 170.735L192.123 180.535Z" fill="url(#paint10_linear_149_474)"/>
<path d="M192.123 180.535C174.721 190.582 168.758 212.835 178.806 230.237L151.88 220.437C141.832 203.035 147.795 180.782 165.197 170.735L192.123 180.535Z" fill="url(#paint11_linear_149_474)"/>
<path d="M197.846 246.227C190.093 243.404 183.254 237.942 178.806 230.237L151.88 220.437C156.33 228.146 163.176 233.61 170.934 236.432L197.846 246.227Z" fill="url(#paint12_linear_149_474)"/>
<path d="M197.846 246.227C190.093 243.404 183.254 237.942 178.806 230.237L151.88 220.437C156.33 228.146 163.176 233.61 170.934 236.432L197.846 246.227Z" fill="url(#paint13_linear_149_474)"/>
<rect x="160.608" y="198.728" width="263.943" height="72.7692" rx="36.3846" transform="rotate(-30 160.608 198.728)" fill="#2565D0"/>
<rect x="106.629" y="360.918" width="325.611" height="72.7692" rx="36.3846" transform="rotate(-30 106.629 360.918)" fill="#2565D0"/>
<rect x="157.003" y="461.438" width="140.605" height="72.7692" rx="36.3846" transform="rotate(-30 157.003 461.438)" fill="#2565D0"/>
<path d="M413.933 533.432C406.175 530.61 399.329 525.146 394.878 517.437C384.831 500.034 390.793 477.782 408.196 467.735L573.757 372.148C583.451 366.551 594.649 365.922 604.405 369.471C612.163 372.293 619.008 377.757 623.459 385.466C633.506 402.868 627.544 425.121 610.141 435.168L444.58 530.755C434.887 536.351 423.688 536.98 413.933 533.432Z" fill="#D9D9D9"/>
<path d="M359.955 695.622C352.197 692.8 345.351 687.336 340.9 679.627C330.853 662.224 336.815 639.972 354.218 629.925L573.186 503.504C582.879 497.907 594.078 497.278 603.833 500.826C611.591 503.648 618.437 509.112 622.888 516.821C632.935 534.224 626.973 556.476 609.57 566.524L390.603 692.945C380.909 698.541 369.71 699.17 359.955 695.622Z" fill="#D9D9D9"/>
<path d="M410.329 796.143C402.57 793.321 395.725 787.857 391.274 780.148C381.227 762.745 387.189 740.493 404.592 730.446L463.339 696.528C473.033 690.931 484.231 690.302 493.987 693.85C501.745 696.672 508.591 702.137 513.041 709.845C523.089 727.248 517.126 749.5 499.724 759.548L440.976 793.466C431.283 799.062 420.084 799.691 410.329 796.143Z" fill="#D9D9D9"/>
<path d="M636.493 576.324C653.896 566.277 659.858 544.024 649.811 526.622L622.885 516.822C632.932 534.224 626.97 556.477 609.567 566.524L636.493 576.324Z" fill="#D9D9D9"/>
<path d="M649.812 526.622C645.362 518.913 638.516 513.449 630.758 510.627L603.846 500.832C611.598 503.655 618.439 509.117 622.887 516.822L649.812 526.622Z" fill="#D9D9D9"/>
<path d="M526.646 769.348C544.048 759.301 550.011 737.048 539.963 719.646L513.037 709.845C523.085 727.248 517.122 749.5 499.72 759.548L526.646 769.348Z" fill="#D9D9D9"/>
<path d="M637.067 444.968C654.469 434.921 660.432 412.669 650.384 395.266L623.458 385.466C633.506 402.868 627.543 425.121 610.141 435.168L637.067 444.968Z" fill="#D9D9D9"/>
<path d="M539.967 719.646C535.516 711.937 528.67 706.473 520.912 703.651L494 693.856C501.753 696.679 508.593 702.141 513.041 709.845L539.967 719.646Z" fill="#D9D9D9"/>
<path d="M650.383 395.266C645.932 387.557 639.086 382.093 631.328 379.271L604.416 369.476C612.169 372.299 619.009 377.762 623.457 385.466L650.383 395.266Z" fill="#D9D9D9"/>
<path d="M417.527 702.745L636.495 576.324L609.569 566.523L390.602 692.944L417.527 702.745Z" fill="#D9D9D9"/>
<path d="M471.508 540.555L637.069 444.968L610.143 435.168L444.582 530.755L471.508 540.555Z" fill="#D9D9D9"/>
<path d="M490.264 706.328C499.957 700.731 511.156 700.102 520.911 703.651L493.985 693.85C484.23 690.302 473.031 690.931 463.338 696.528L490.264 706.328Z" fill="url(#paint14_linear_149_474)"/>
<path d="M431.515 740.246L490.262 706.328L463.336 696.528L404.589 730.446L431.515 740.246Z" fill="url(#paint15_linear_149_474)"/>
<path d="M431.519 740.246C414.116 750.293 408.154 772.545 418.201 789.948L391.275 780.148C381.228 762.745 387.19 740.493 404.593 730.445L431.519 740.246Z" fill="#D9D9D9"/>
<path d="M431.519 740.246C414.116 750.293 408.154 772.545 418.201 789.948L391.275 780.148C381.228 762.745 387.19 740.493 404.593 730.445L431.519 740.246Z" fill="url(#paint16_linear_149_474)"/>
<path d="M431.519 740.246C414.116 750.293 408.154 772.545 418.201 789.948L391.275 780.148C381.228 762.745 387.19 740.493 404.593 730.445L431.519 740.246Z" fill="url(#paint17_linear_149_474)"/>
<path d="M437.241 805.938C429.489 803.114 422.649 797.652 418.201 789.948L391.275 780.148C395.726 787.856 402.571 793.321 410.329 796.142L437.241 805.938Z" fill="#D9D9D9"/>
<path d="M437.241 805.938C429.489 803.114 422.649 797.652 418.201 789.948L391.275 780.148C395.726 787.856 402.571 793.321 410.329 796.142L437.241 805.938Z" fill="url(#paint18_linear_149_474)"/>
<path d="M437.241 805.938C429.489 803.114 422.649 797.652 418.201 789.948L391.275 780.148C395.726 787.856 402.571 793.321 410.329 796.142L437.241 805.938Z" fill="url(#paint19_linear_149_474)"/>
<path d="M600.11 513.304C609.804 507.708 621.002 507.078 630.758 510.627L603.832 500.827C594.076 497.278 582.878 497.907 573.184 503.504L354.217 629.925L381.143 639.725L600.11 513.304Z" fill="url(#paint20_linear_149_474)"/>
<path d="M600.681 381.948C610.374 376.351 621.573 375.722 631.328 379.271L604.402 369.471C594.647 365.922 583.448 366.551 573.755 372.148L408.194 467.734L435.12 477.535L600.681 381.948Z" fill="#2565D0"/>
<path d="M600.681 381.948C610.374 376.351 621.573 375.722 631.328 379.271L604.402 369.471C594.647 365.922 583.448 366.551 573.755 372.148L408.194 467.734L435.12 477.535L600.681 381.948Z" fill="url(#paint21_linear_149_474)"/>
<path d="M386.879 705.422C396.635 708.97 407.833 708.341 417.527 702.745L390.601 692.944C380.907 698.541 369.709 699.17 359.953 695.622L386.879 705.422Z" fill="#D9D9D9"/>
<path d="M440.856 543.232C450.611 546.781 461.81 546.152 471.503 540.555L444.577 530.755C434.884 536.351 423.685 536.981 413.93 533.432L440.856 543.232Z" fill="#D9D9D9"/>
<path d="M381.144 639.734C363.741 649.781 357.779 672.034 367.826 689.436L340.9 679.636C330.853 662.233 336.815 639.981 354.218 629.934L381.144 639.734Z" fill="url(#paint22_linear_149_474)"/>
<path d="M386.866 705.426C379.114 702.603 372.274 697.14 367.826 689.436L340.9 679.636C345.351 687.345 352.196 692.809 359.954 695.631L386.866 705.426Z" fill="url(#paint23_linear_149_474)"/>
<path d="M435.123 477.535C417.721 487.582 411.758 509.835 421.806 527.237L394.88 517.437C384.832 500.035 390.795 477.782 408.197 467.735L435.123 477.535Z" fill="url(#paint24_linear_149_474)"/>
<path d="M435.123 477.535C417.721 487.582 411.758 509.835 421.806 527.237L394.88 517.437C384.832 500.035 390.795 477.782 408.197 467.735L435.123 477.535Z" fill="url(#paint25_linear_149_474)"/>
<path d="M440.846 543.227C433.093 540.404 426.254 534.942 421.806 527.237L394.88 517.437C399.33 525.146 406.176 530.61 413.934 533.432L440.846 543.227Z" fill="url(#paint26_linear_149_474)"/>
<path d="M440.846 543.227C433.093 540.404 426.254 534.942 421.806 527.237L394.88 517.437C399.33 525.146 406.176 530.61 413.934 533.432L440.846 543.227Z" fill="url(#paint27_linear_149_474)"/>
<rect x="403.608" y="495.728" width="263.943" height="72.7692" rx="36.3846" transform="rotate(-30 403.608 495.728)" fill="#2565D0"/>
<rect x="349.629" y="657.918" width="325.611" height="72.7692" rx="36.3846" transform="rotate(-30 349.629 657.918)" fill="#2565D0"/>
<rect x="400.003" y="758.438" width="140.605" height="72.7692" rx="36.3846" transform="rotate(-30 400.003 758.438)" fill="#2565D0"/>
</g>
<defs>
<linearGradient id="paint0_linear_149_474" x1="282.825" y1="363.369" x2="222.628" y2="368.551" gradientUnits="userSpaceOnUse">
<stop offset="" stop-color="#B3C7FF"/>
<stop offset="1" stop-color="#2568D9"/>
</linearGradient>
<linearGradient id="paint1_linear_149_474" x1="282.825" y1="363.369" x2="222.628" y2="368.551" gradientUnits="userSpaceOnUse">
<stop offset="" stop-color="#B3C7FF"/>
<stop offset="1" stop-color="#2568D9"/>
</linearGradient>
<linearGradient id="paint2_linear_149_474" x1="174.665" y1="436.919" x2="156.04" y2="508.554" gradientUnits="userSpaceOnUse">
<stop offset="" stop-color="#2565D0"/>
<stop offset="1" stop-color="#414F84"/>
</linearGradient>
<linearGradient id="paint3_linear_149_474" x1="166.046" y1="441.149" x2="156.04" y2="508.554" gradientUnits="userSpaceOnUse">
<stop offset="" stop-color="#2669D9"/>
<stop offset="1" stop-color="#414F84"/>
</linearGradient>
<linearGradient id="paint4_linear_149_474" x1="174.665" y1="436.919" x2="156.04" y2="508.554" gradientUnits="userSpaceOnUse">
<stop offset="" stop-color="#2565D0"/>
<stop offset="1" stop-color="#414F84"/>
</linearGradient>
<linearGradient id="paint5_linear_149_474" x1="166.046" y1="441.149" x2="156.04" y2="508.554" gradientUnits="userSpaceOnUse">
<stop offset="" stop-color="#2669D9"/>
<stop offset="1" stop-color="#414F84"/>
</linearGradient>
<linearGradient id="paint6_linear_149_474" x1="387.758" y1="164.543" x2="295.705" y2="161.898" gradientUnits="userSpaceOnUse">
<stop offset="" stop-color="#B3C7FF"/>
<stop offset="1" stop-color="#2568D9"/>
</linearGradient>
<linearGradient id="paint7_linear_149_474" x1="388.328" y1="41.2895" x2="314.057" y2="39.0864" gradientUnits="userSpaceOnUse">
<stop offset="" stop-color="#B3C7FF"/>
<stop offset="1" stop-color="#2568D9"/>
</linearGradient>
<linearGradient id="paint8_linear_149_474" x1="115.671" y1="340.637" x2="105.665" y2="408.042" gradientUnits="userSpaceOnUse">
<stop offset="" stop-color="#2669D9"/>
<stop offset="1" stop-color="#414F84"/>
</linearGradient>
<linearGradient id="paint9_linear_149_474" x1="115.671" y1="340.637" x2="105.665" y2="408.042" gradientUnits="userSpaceOnUse">
<stop offset="" stop-color="#2669D9"/>
<stop offset="1" stop-color="#414F84"/>
</linearGradient>
<linearGradient id="paint10_linear_149_474" x1="178.269" y1="174.208" x2="159.644" y2="245.843" gradientUnits="userSpaceOnUse">
<stop offset="" stop-color="#2565D0"/>
<stop offset="1" stop-color="#414F84"/>
</linearGradient>
<linearGradient id="paint11_linear_149_474" x1="169.65" y1="178.439" x2="159.644" y2="245.843" gradientUnits="userSpaceOnUse">
<stop offset="" stop-color="#2669D9"/>
<stop offset="1" stop-color="#414F84"/>
</linearGradient>
<linearGradient id="paint12_linear_149_474" x1="178.269" y1="174.208" x2="159.644" y2="245.843" gradientUnits="userSpaceOnUse">
<stop offset="" stop-color="#2565D0"/>
<stop offset="1" stop-color="#414F84"/>
</linearGradient>
<linearGradient id="paint13_linear_149_474" x1="169.65" y1="178.439" x2="159.644" y2="245.843" gradientUnits="userSpaceOnUse">
<stop offset="" stop-color="#2669D9"/>
<stop offset="1" stop-color="#414F84"/>
</linearGradient>
<linearGradient id="paint14_linear_149_474" x1="525.825" y1="660.369" x2="465.628" y2="665.551" gradientUnits="userSpaceOnUse">
<stop offset="" stop-color="#B3C7FF"/>
<stop offset="1" stop-color="#2568D9"/>
</linearGradient>
<linearGradient id="paint15_linear_149_474" x1="525.825" y1="660.369" x2="465.628" y2="665.551" gradientUnits="userSpaceOnUse">
<stop offset="" stop-color="#B3C7FF"/>
<stop offset="1" stop-color="#2568D9"/>
</linearGradient>
<linearGradient id="paint16_linear_149_474" x1="417.665" y1="733.919" x2="399.04" y2="805.554" gradientUnits="userSpaceOnUse">
<stop offset="" stop-color="#2565D0"/>
<stop offset="1" stop-color="#414F84"/>
</linearGradient>
<linearGradient id="paint17_linear_149_474" x1="409.046" y1="738.149" x2="399.04" y2="805.554" gradientUnits="userSpaceOnUse">
<stop offset="" stop-color="#2669D9"/>
<stop offset="1" stop-color="#414F84"/>
</linearGradient>
<linearGradient id="paint18_linear_149_474" x1="417.665" y1="733.919" x2="399.04" y2="805.554" gradientUnits="userSpaceOnUse">
<stop offset="" stop-color="#2565D0"/>
<stop offset="1" stop-color="#414F84"/>
</linearGradient>
<linearGradient id="paint19_linear_149_474" x1="409.046" y1="738.149" x2="399.04" y2="805.554" gradientUnits="userSpaceOnUse">
<stop offset="" stop-color="#2669D9"/>
<stop offset="1" stop-color="#414F84"/>
</linearGradient>
<linearGradient id="paint20_linear_149_474" x1="630.758" y1="461.543" x2="538.705" y2="458.898" gradientUnits="userSpaceOnUse">
<stop offset="" stop-color="#B3C7FF"/>
<stop offset="1" stop-color="#2568D9"/>
</linearGradient>
<linearGradient id="paint21_linear_149_474" x1="631.328" y1="338.289" x2="557.057" y2="336.086" gradientUnits="userSpaceOnUse">
<stop offset="" stop-color="#B3C7FF"/>
<stop offset="1" stop-color="#2568D9"/>
</linearGradient>
<linearGradient id="paint22_linear_149_474" x1="358.671" y1="637.637" x2="348.665" y2="705.042" gradientUnits="userSpaceOnUse">
<stop offset="" stop-color="#2669D9"/>
<stop offset="1" stop-color="#414F84"/>
</linearGradient>
<linearGradient id="paint23_linear_149_474" x1="358.671" y1="637.637" x2="348.665" y2="705.042" gradientUnits="userSpaceOnUse">
<stop offset="" stop-color="#2669D9"/>
<stop offset="1" stop-color="#414F84"/>
</linearGradient>
<linearGradient id="paint24_linear_149_474" x1="421.269" y1="471.208" x2="402.644" y2="542.843" gradientUnits="userSpaceOnUse">
<stop offset="" stop-color="#2565D0"/>
<stop offset="1" stop-color="#414F84"/>
</linearGradient>
<linearGradient id="paint25_linear_149_474" x1="412.65" y1="475.439" x2="402.644" y2="542.843" gradientUnits="userSpaceOnUse">
<stop offset="" stop-color="#2669D9"/>
<stop offset="1" stop-color="#414F84"/>
</linearGradient>
<linearGradient id="paint26_linear_149_474" x1="421.269" y1="471.208" x2="402.644" y2="542.843" gradientUnits="userSpaceOnUse">
<stop offset="" stop-color="#2565D0"/>
<stop offset="1" stop-color="#414F84"/>
</linearGradient>
<linearGradient id="paint27_linear_149_474" x1="412.65" y1="475.439" x2="402.644" y2="542.843" gradientUnits="userSpaceOnUse">
<stop offset="" stop-color="#2669D9"/>
<stop offset="1" stop-color="#414F84"/>
</linearGradient>
<clipPath id="clip0_149_474">
<rect width="762" height="837" fill="white" transform="translate(0 -80)"/>
</clipPath>
</defs>
</svg>
