<svg width="239" height="178" viewBox="0 0 239 178" fill="none" xmlns="http://www.w3.org/2000/svg">
<g clip-path="url(#clip0_204_1279)">
<path d="M56.5691 104.721C54.0016 103.787 51.736 101.979 50.2631 99.4278C46.938 93.6686 48.9113 86.3043 54.6705 82.9792L109.462 51.3453C112.67 49.4932 116.376 49.285 119.605 50.4593C122.172 51.3933 124.438 53.2015 125.911 55.7527C129.236 61.512 127.262 68.8763 121.503 72.2014L66.7117 103.835C63.5037 105.687 59.7977 105.896 56.5691 104.721Z" fill="#D9D9D9"/>
<path d="M38.7054 158.397C36.1379 157.463 33.8723 155.655 32.3994 153.104C29.0743 147.344 31.0476 139.98 36.8068 136.655L109.273 94.8166C112.481 92.9645 116.187 92.7563 119.416 93.9306C121.983 94.8646 124.249 96.6729 125.721 99.224C129.047 104.983 127.073 112.348 121.314 115.673L48.8481 157.511C45.64 159.363 41.934 159.571 38.7054 158.397Z" fill="#D9D9D9"/>
<path d="M55.3763 191.664C52.8088 190.73 50.5433 188.922 49.0703 186.37C45.7452 180.611 47.7185 173.247 53.4777 169.922L72.9199 158.697C76.1279 156.845 79.834 156.636 83.0625 157.811C85.63 158.745 87.8956 160.553 89.3685 163.104C92.6936 168.863 90.7203 176.228 84.9611 179.553L65.519 190.778C62.3109 192.63 58.6049 192.838 55.3763 191.664Z" fill="#D9D9D9"/>
<path d="M130.224 118.916C135.983 115.591 137.956 108.227 134.631 102.467L125.72 99.2241C129.045 104.983 127.072 112.348 121.313 115.673L130.224 118.916Z" fill="#D9D9D9"/>
<path d="M134.632 102.468C133.159 99.9163 130.894 98.108 128.326 97.1741L119.42 93.9324C121.985 94.8668 124.249 96.6745 125.721 99.2242L134.632 102.468Z" fill="#D9D9D9"/>
<path d="M93.8709 182.796C99.6302 179.471 101.603 172.107 98.2783 166.347L89.3674 163.104C92.6925 168.863 90.7192 176.228 84.96 179.553L93.8709 182.796Z" fill="#D9D9D9"/>
<path d="M130.414 75.4447C136.173 72.1196 138.146 64.7553 134.821 58.996L125.91 55.7527C129.235 61.5119 127.262 68.8762 121.503 72.2013L130.414 75.4447Z" fill="#D9D9D9"/>
<path d="M98.2795 166.348C96.8065 163.796 94.541 161.988 91.9735 161.054L83.0671 157.812C85.6327 158.747 87.8964 160.555 89.3685 163.104L98.2795 166.348Z" fill="#D9D9D9"/>
<path d="M134.821 58.9961C133.348 56.4449 131.082 54.6366 128.515 53.7027L119.609 50.461C122.174 51.3954 124.438 53.2031 125.91 55.7528L134.821 58.9961Z" fill="#D9D9D9"/>
<path d="M57.7586 160.754L130.225 118.916L121.314 115.673L48.8477 157.511L57.7586 160.754Z" fill="#D9D9D9"/>
<path d="M75.6234 107.079L130.415 75.4447L121.504 72.2014L66.7124 103.835L75.6234 107.079Z" fill="#D9D9D9"/>
<path d="M81.8306 161.94C85.0387 160.088 88.7447 159.88 91.9733 161.054L83.0623 157.811C79.8337 156.636 76.1277 156.845 72.9197 158.697L81.8306 161.94Z" fill="url(#paint0_linear_204_1279)"/>
<path d="M62.388 173.165L81.8301 161.94L72.9192 158.697L53.4771 169.922L62.388 173.165Z" fill="url(#paint1_linear_204_1279)"/>
<path d="M62.3892 173.165C56.6299 176.49 54.6567 183.854 57.9818 189.614L49.0708 186.37C45.7457 180.611 47.719 173.247 53.4782 169.922L62.3892 173.165Z" fill="#D9D9D9"/>
<path d="M62.3892 173.165C56.6299 176.49 54.6567 183.854 57.9818 189.614L49.0708 186.37C45.7457 180.611 47.719 173.247 53.4782 169.922L62.3892 173.165Z" fill="url(#paint2_linear_204_1279)"/>
<path d="M62.3892 173.165C56.6299 176.49 54.6567 183.854 57.9818 189.614L49.0708 186.37C45.7457 180.611 47.719 173.247 53.4782 169.922L62.3892 173.165Z" fill="url(#paint3_linear_204_1279)"/>
<path d="M64.283 194.905C61.7174 193.971 59.4538 192.163 57.9818 189.614L49.0708 186.37C50.5437 188.921 52.8091 190.73 55.3766 191.664L64.283 194.905Z" fill="#D9D9D9"/>
<path d="M64.283 194.905C61.7174 193.971 59.4538 192.163 57.9818 189.614L49.0708 186.37C50.5437 188.921 52.8091 190.73 55.3766 191.664L64.283 194.905Z" fill="url(#paint4_linear_204_1279)"/>
<path d="M64.283 194.905C61.7174 193.971 59.4538 192.163 57.9818 189.614L49.0708 186.37C50.5437 188.921 52.8091 190.73 55.3766 191.664L64.283 194.905Z" fill="url(#paint5_linear_204_1279)"/>
<path d="M118.184 98.0601C121.392 96.2079 125.098 95.9997 128.326 97.1741L119.415 93.9308C116.187 92.7564 112.481 92.9646 109.273 94.8168L36.8066 136.655L45.7176 139.898L118.184 98.0601Z" fill="url(#paint6_linear_204_1279)"/>
<path d="M118.372 54.5885C121.58 52.7364 125.286 52.5282 128.515 53.7025L119.604 50.4592C116.375 49.2848 112.669 49.493 109.461 51.3452L54.6699 82.979L63.5809 86.2224L118.372 54.5885Z" fill="#2565D0"/>
<path d="M118.372 54.5885C121.58 52.7364 125.286 52.5282 128.515 53.7025L119.604 50.4592C116.375 49.2848 112.669 49.493 109.461 51.3452L54.6699 82.979L63.5809 86.2224L118.372 54.5885Z" fill="url(#paint7_linear_204_1279)"/>
<path d="M47.616 161.64C50.8446 162.815 54.5507 162.606 57.7587 160.754L48.8478 157.511C45.6397 159.363 41.9336 159.571 38.7051 158.397L47.616 161.64Z" fill="#D9D9D9"/>
<path d="M65.4793 107.965C68.7079 109.139 72.4139 108.931 75.622 107.079L66.711 103.835C63.503 105.687 59.7969 105.896 56.5684 104.721L65.4793 107.965Z" fill="#D9D9D9"/>
<path d="M45.7178 139.901C39.9585 143.226 37.9853 150.591 41.3104 156.35L32.3994 153.106C29.0743 147.347 31.0476 139.983 36.8068 136.658L45.7178 139.901Z" fill="url(#paint8_linear_204_1279)"/>
<path d="M47.6116 161.642C45.046 160.707 42.7824 158.9 41.3104 156.35L32.3994 153.106C33.8723 155.658 36.1377 157.466 38.7052 158.4L47.6116 161.642Z" fill="url(#paint9_linear_204_1279)"/>
<path d="M63.582 86.2224C57.8228 89.5475 55.8495 96.9119 59.1746 102.671L50.2637 99.4278C46.9386 93.6685 48.9118 86.3042 54.6711 82.9791L63.582 86.2224Z" fill="url(#paint10_linear_204_1279)"/>
<path d="M63.582 86.2224C57.8228 89.5475 55.8495 96.9119 59.1746 102.671L50.2637 99.4278C46.9386 93.6685 48.9118 86.3042 54.6711 82.9791L63.582 86.2224Z" fill="url(#paint11_linear_204_1279)"/>
<path d="M65.4759 107.963C62.9102 107.028 60.6467 105.221 59.1746 102.671L50.2637 99.4278C51.7366 101.979 54.002 103.787 56.5695 104.721L65.4759 107.963Z" fill="url(#paint12_linear_204_1279)"/>
<path d="M65.4759 107.963C62.9102 107.028 60.6467 105.221 59.1746 102.671L50.2637 99.4278C51.7366 101.979 54.002 103.787 56.5695 104.721L65.4759 107.963Z" fill="url(#paint13_linear_204_1279)"/>
<rect x="53.1523" y="92.2432" width="87.3502" height="24.0825" rx="12.0413" transform="rotate(-30 53.1523 92.2432)" fill="#2565D0"/>
<rect x="35.2881" y="145.919" width="107.759" height="24.0825" rx="12.0413" transform="rotate(-30 35.2881 145.919)" fill="#2565D0"/>
<rect x="51.959" y="179.185" width="46.5323" height="24.0825" rx="12.0413" transform="rotate(-30 51.959 179.185)" fill="#2565D0"/>
<path d="M136.989 203.012C134.421 202.078 132.155 200.269 130.683 197.718C127.357 191.959 129.331 184.595 135.09 181.269L189.881 149.636C193.089 147.783 196.795 147.575 200.024 148.75C202.592 149.684 204.857 151.492 206.33 154.043C209.655 159.802 207.682 167.167 201.923 170.492L147.131 202.126C143.923 203.978 140.217 204.186 136.989 203.012Z" fill="#D9D9D9"/>
<path d="M119.125 256.687C116.557 255.753 114.292 253.945 112.819 251.394C109.494 245.635 111.467 238.27 117.226 234.945L189.692 193.107C192.9 191.255 196.606 191.047 199.835 192.221C202.402 193.155 204.668 194.963 206.141 197.514C209.466 203.274 207.493 210.638 201.734 213.963L129.268 255.801C126.059 257.653 122.353 257.862 119.125 256.687Z" fill="#D9D9D9"/>
<path d="M135.796 289.954C133.228 289.02 130.963 287.212 129.49 284.661C126.165 278.901 128.138 271.537 133.897 268.212L153.339 256.987C156.547 255.135 160.253 254.927 163.482 256.101C166.049 257.035 168.315 258.843 169.788 261.394C173.113 267.154 171.14 274.518 165.381 277.843L145.938 289.068C142.73 290.92 139.024 291.128 135.796 289.954Z" fill="#D9D9D9"/>
<path d="M210.833 173.735C216.593 170.41 218.566 163.046 215.241 157.286L206.33 154.043C209.655 159.802 207.682 167.167 201.922 170.492L210.833 173.735Z" fill="#D9D9D9"/>
<path d="M215.24 157.286C213.767 154.735 211.502 152.927 208.934 151.993L200.028 148.751C202.594 149.686 204.857 151.493 206.329 154.043L215.24 157.286Z" fill="#D9D9D9"/>
<path d="M156.043 205.369L210.834 173.735L201.923 170.492L147.132 202.126L156.043 205.369Z" fill="#D9D9D9"/>
<path d="M198.792 152.879C202 151.027 205.706 150.818 208.934 151.993L200.023 148.749C196.795 147.575 193.089 147.783 189.881 149.635L135.089 181.269L144 184.513L198.792 152.879Z" fill="#2565D0"/>
<path d="M198.792 152.879C202 151.027 205.706 150.818 208.934 151.993L200.023 148.749C196.795 147.575 193.089 147.783 189.881 149.635L135.089 181.269L144 184.513L198.792 152.879Z" fill="url(#paint14_linear_204_1279)"/>
<rect x="133.572" y="190.533" width="87.3502" height="24.0825" rx="12.0413" transform="rotate(-30 133.572 190.533)" fill="#2565D0"/>
</g>
<defs>
<linearGradient id="paint0_linear_204_1279" x1="93.5993" y1="146.73" x2="73.6777" y2="148.445" gradientUnits="userSpaceOnUse">
<stop offset="" stop-color="#B3C7FF"/>
<stop offset="1" stop-color="#2568D9"/>
</linearGradient>
<linearGradient id="paint1_linear_204_1279" x1="93.5993" y1="146.73" x2="73.6777" y2="148.445" gradientUnits="userSpaceOnUse">
<stop offset="" stop-color="#B3C7FF"/>
<stop offset="1" stop-color="#2568D9"/>
</linearGradient>
<linearGradient id="paint2_linear_204_1279" x1="57.8043" y1="171.071" x2="51.6404" y2="194.778" gradientUnits="userSpaceOnUse">
<stop offset="" stop-color="#2565D0"/>
<stop offset="1" stop-color="#414F84"/>
</linearGradient>
<linearGradient id="paint3_linear_204_1279" x1="54.9519" y1="172.471" x2="51.6404" y2="194.778" gradientUnits="userSpaceOnUse">
<stop offset="" stop-color="#2669D9"/>
<stop offset="1" stop-color="#414F84"/>
</linearGradient>
<linearGradient id="paint4_linear_204_1279" x1="57.8043" y1="171.071" x2="51.6404" y2="194.778" gradientUnits="userSpaceOnUse">
<stop offset="" stop-color="#2565D0"/>
<stop offset="1" stop-color="#414F84"/>
</linearGradient>
<linearGradient id="paint5_linear_204_1279" x1="54.9519" y1="172.471" x2="51.6404" y2="194.778" gradientUnits="userSpaceOnUse">
<stop offset="" stop-color="#2669D9"/>
<stop offset="1" stop-color="#414F84"/>
</linearGradient>
<linearGradient id="paint6_linear_204_1279" x1="128.326" y1="80.9299" x2="97.862" y2="80.0547" gradientUnits="userSpaceOnUse">
<stop offset="" stop-color="#B3C7FF"/>
<stop offset="1" stop-color="#2568D9"/>
</linearGradient>
<linearGradient id="paint7_linear_204_1279" x1="128.515" y1="40.14" x2="103.935" y2="39.4109" gradientUnits="userSpaceOnUse">
<stop offset="" stop-color="#B3C7FF"/>
<stop offset="1" stop-color="#2568D9"/>
</linearGradient>
<linearGradient id="paint8_linear_204_1279" x1="38.2805" y1="139.207" x2="34.969" y2="161.514" gradientUnits="userSpaceOnUse">
<stop offset="" stop-color="#2669D9"/>
<stop offset="1" stop-color="#414F84"/>
</linearGradient>
<linearGradient id="paint9_linear_204_1279" x1="38.2805" y1="139.207" x2="34.969" y2="161.514" gradientUnits="userSpaceOnUse">
<stop offset="" stop-color="#2669D9"/>
<stop offset="1" stop-color="#414F84"/>
</linearGradient>
<linearGradient id="paint10_linear_204_1279" x1="58.9971" y1="84.1287" x2="52.8333" y2="107.836" gradientUnits="userSpaceOnUse">
<stop offset="" stop-color="#2565D0"/>
<stop offset="1" stop-color="#414F84"/>
</linearGradient>
<linearGradient id="paint11_linear_204_1279" x1="56.1448" y1="85.5286" x2="52.8333" y2="107.836" gradientUnits="userSpaceOnUse">
<stop offset="" stop-color="#2669D9"/>
<stop offset="1" stop-color="#414F84"/>
</linearGradient>
<linearGradient id="paint12_linear_204_1279" x1="58.9971" y1="84.1287" x2="52.8333" y2="107.836" gradientUnits="userSpaceOnUse">
<stop offset="" stop-color="#2565D0"/>
<stop offset="1" stop-color="#414F84"/>
</linearGradient>
<linearGradient id="paint13_linear_204_1279" x1="56.1448" y1="85.5286" x2="52.8333" y2="107.836" gradientUnits="userSpaceOnUse">
<stop offset="" stop-color="#2669D9"/>
<stop offset="1" stop-color="#414F84"/>
</linearGradient>
<linearGradient id="paint14_linear_204_1279" x1="208.934" y1="138.43" x2="184.355" y2="137.701" gradientUnits="userSpaceOnUse">
<stop offset="" stop-color="#B3C7FF"/>
<stop offset="1" stop-color="#2568D9"/>
</linearGradient>
<clipPath id="clip0_204_1279">
<rect width="239" height="178" fill="white"/>
</clipPath>
</defs>
</svg>
