<svg width="762" height="1051" viewBox="0 0 762 1051" fill="none" xmlns="http://www.w3.org/2000/svg">
<path d="M170.933 316.432C163.175 313.61 156.329 308.146 151.878 300.437C141.831 283.034 147.793 260.782 165.196 250.735L330.757 155.148C340.451 149.551 351.649 148.922 361.405 152.471C369.163 155.293 376.008 160.757 380.459 168.466C390.506 185.868 384.544 208.121 367.141 218.168L201.58 313.755C191.887 319.351 180.688 319.98 170.933 316.432Z" fill="#D9D9D9"/>
<path d="M116.955 478.622C109.197 475.8 102.351 470.336 97.9002 462.627C87.8529 445.224 93.8154 422.972 111.218 412.925L330.186 286.504C339.879 280.907 351.078 280.278 360.833 283.826C368.591 286.648 375.437 292.112 379.888 299.821C389.935 317.224 383.973 339.476 366.57 349.524L147.603 475.945C137.909 481.541 126.71 482.17 116.955 478.622Z" fill="#D9D9D9"/>
<path d="M167.329 579.143C159.57 576.321 152.725 570.857 148.274 563.148C138.227 545.745 144.189 523.493 161.592 513.446L220.339 479.528C230.033 473.931 241.231 473.302 250.987 476.85C258.745 479.672 265.591 485.137 270.041 492.845C280.089 510.248 274.126 532.5 256.724 542.548L197.976 576.466C188.283 582.062 177.084 582.691 167.329 579.143Z" fill="#D9D9D9"/>
<path d="M393.494 359.324C410.897 349.277 416.859 327.024 406.812 309.622L379.886 299.822C389.933 317.224 383.971 339.477 366.568 349.524L393.494 359.324Z" fill="#D9D9D9"/>
<path d="M406.812 309.622C402.362 301.913 395.516 296.449 387.758 293.627L360.846 283.832C368.598 286.655 375.439 292.117 379.887 299.822L406.812 309.622Z" fill="#D9D9D9"/>
<path d="M283.647 552.348C301.049 542.301 307.012 520.048 296.964 502.646L270.038 492.845C280.086 510.248 274.123 532.5 256.721 542.548L283.647 552.348Z" fill="#D9D9D9"/>
<path d="M394.067 227.968C411.469 217.921 417.432 195.669 407.384 178.266L380.458 168.466C390.506 185.868 384.543 208.121 367.141 218.168L394.067 227.968Z" fill="#D9D9D9"/>
<path d="M296.967 502.646C292.516 494.937 285.67 489.473 277.912 486.651L251 476.856C258.753 479.679 265.593 485.141 270.041 492.845L296.967 502.646Z" fill="#D9D9D9"/>
<path d="M224.902 586.266L283.65 552.348L256.724 542.548L197.977 576.466L224.902 586.266Z" fill="#D9D9D9"/>
<path d="M407.383 178.266C402.932 170.557 396.086 165.093 388.328 162.271L361.416 152.476C369.169 155.299 376.009 160.762 380.457 168.466L407.383 178.266Z" fill="#D9D9D9"/>
<path d="M174.527 485.745L393.495 359.324L366.569 349.523L147.602 475.944L174.527 485.745Z" fill="#D9D9D9"/>
<path d="M194.25 588.943C204.006 592.492 215.204 591.863 224.898 586.266L197.972 576.466C188.278 582.062 177.08 582.692 167.324 579.143L194.25 588.943Z" fill="#D9D9D9"/>
<path d="M228.508 323.555L394.069 227.968L367.143 218.168L201.582 313.755L228.508 323.555Z" fill="#D9D9D9"/>
<path d="M247.263 489.328C256.956 483.731 268.155 483.102 277.91 486.651L250.985 476.85C241.229 473.302 230.03 473.931 220.337 479.528L247.263 489.328Z" fill="url(#paint0_linear_149_470)"/>
<path d="M188.514 523.246L247.261 489.328L220.335 479.528L161.588 513.446L188.514 523.246Z" fill="url(#paint1_linear_149_470)"/>
<path d="M188.519 523.246C171.116 533.293 165.154 555.545 175.201 572.948L148.275 563.148C138.228 545.745 144.19 523.493 161.593 513.445L188.519 523.246Z" fill="#D9D9D9"/>
<path d="M188.519 523.246C171.116 533.293 165.154 555.545 175.201 572.948L148.275 563.148C138.228 545.745 144.19 523.493 161.593 513.445L188.519 523.246Z" fill="url(#paint2_linear_149_470)"/>
<path d="M188.519 523.246C171.116 533.293 165.154 555.545 175.201 572.948L148.275 563.148C138.228 545.745 144.19 523.493 161.593 513.445L188.519 523.246Z" fill="url(#paint3_linear_149_470)"/>
<path d="M194.241 588.938C186.489 586.114 179.649 580.652 175.201 572.948L148.275 563.148C152.726 570.856 159.571 576.321 167.329 579.142L194.241 588.938Z" fill="#D9D9D9"/>
<path d="M194.241 588.938C186.489 586.114 179.649 580.652 175.201 572.948L148.275 563.148C152.726 570.856 159.571 576.321 167.329 579.142L194.241 588.938Z" fill="url(#paint4_linear_149_470)"/>
<path d="M194.241 588.938C186.489 586.114 179.649 580.652 175.201 572.948L148.275 563.148C152.726 570.856 159.571 576.321 167.329 579.142L194.241 588.938Z" fill="url(#paint5_linear_149_470)"/>
<path d="M357.11 296.304C366.804 290.708 378.002 290.078 387.758 293.627L360.832 283.827C351.076 280.278 339.878 280.907 330.184 286.504L111.217 412.925L138.143 422.725L357.11 296.304Z" fill="url(#paint6_linear_149_470)"/>
<path d="M357.682 164.948C367.375 159.351 378.574 158.722 388.329 162.271L361.403 152.471C351.648 148.922 340.449 149.551 330.756 155.148L165.195 250.734L192.121 260.535L357.682 164.948Z" fill="#2565D0"/>
<path d="M357.682 164.948C367.375 159.351 378.574 158.722 388.329 162.271L361.403 152.471C351.648 148.922 340.449 149.551 330.756 155.148L165.195 250.734L192.121 260.535L357.682 164.948Z" fill="url(#paint7_linear_149_470)"/>
<path d="M143.879 488.422C153.635 491.97 164.833 491.341 174.527 485.745L147.601 475.944C137.907 481.541 126.709 482.17 116.953 478.622L143.879 488.422Z" fill="#D9D9D9"/>
<path d="M197.856 326.232C207.611 329.781 218.81 329.152 228.503 323.555L201.577 313.755C191.884 319.351 180.685 319.981 170.93 316.432L197.856 326.232Z" fill="#D9D9D9"/>
<path d="M138.144 422.734C120.741 432.781 114.779 455.034 124.826 472.436L97.9002 462.636C87.8529 445.233 93.8154 422.981 111.218 412.934L138.144 422.734Z" fill="url(#paint8_linear_149_470)"/>
<path d="M143.866 488.426C136.114 485.603 129.274 480.14 124.826 472.436L97.9002 462.636C102.351 470.345 109.196 475.809 116.954 478.631L143.866 488.426Z" fill="url(#paint9_linear_149_470)"/>
<path d="M192.124 260.535C174.722 270.582 168.759 292.835 178.807 310.237L151.881 300.437C141.833 283.035 147.796 260.782 165.198 250.735L192.124 260.535Z" fill="url(#paint10_linear_149_470)"/>
<path d="M192.124 260.535C174.722 270.582 168.759 292.835 178.807 310.237L151.881 300.437C141.833 283.035 147.796 260.782 165.198 250.735L192.124 260.535Z" fill="url(#paint11_linear_149_470)"/>
<path d="M197.847 326.227C190.094 323.404 183.255 317.942 178.807 310.237L151.881 300.437C156.331 308.146 163.177 313.61 170.935 316.432L197.847 326.227Z" fill="url(#paint12_linear_149_470)"/>
<path d="M197.847 326.227C190.094 323.404 183.255 317.942 178.807 310.237L151.881 300.437C156.331 308.146 163.177 313.61 170.935 316.432L197.847 326.227Z" fill="url(#paint13_linear_149_470)"/>
<rect x="160.609" y="278.728" width="263.943" height="72.7692" rx="36.3846" transform="rotate(-30 160.609 278.728)" fill="#2565D0"/>
<rect x="106.629" y="440.918" width="325.611" height="72.7692" rx="36.3846" transform="rotate(-30 106.629 440.918)" fill="#2565D0"/>
<rect x="157.004" y="541.438" width="140.605" height="72.7692" rx="36.3846" transform="rotate(-30 157.004 541.438)" fill="#2565D0"/>
<path d="M413.933 613.432C406.175 610.61 399.329 605.146 394.878 597.437C384.831 580.034 390.793 557.782 408.196 547.735L573.757 452.148C583.451 446.551 594.649 445.922 604.405 449.471C612.163 452.293 619.008 457.757 623.459 465.466C633.506 482.868 627.544 505.121 610.141 515.168L444.58 610.755C434.887 616.351 423.688 616.98 413.933 613.432Z" fill="#D9D9D9"/>
<path d="M359.955 775.622C352.197 772.8 345.351 767.336 340.9 759.627C330.853 742.224 336.815 719.972 354.218 709.925L573.186 583.504C582.879 577.907 594.078 577.278 603.833 580.826C611.591 583.648 618.437 589.112 622.888 596.821C632.935 614.224 626.973 636.476 609.57 646.524L390.603 772.945C380.909 778.541 369.71 779.17 359.955 775.622Z" fill="#D9D9D9"/>
<path d="M410.329 876.143C402.57 873.321 395.725 867.857 391.274 860.148C381.227 842.745 387.189 820.493 404.592 810.446L463.339 776.528C473.033 770.931 484.231 770.302 493.987 773.85C501.745 776.672 508.591 782.137 513.041 789.845C523.089 807.248 517.126 829.5 499.724 839.548L440.976 873.466C431.283 879.062 420.084 879.691 410.329 876.143Z" fill="#D9D9D9"/>
<path d="M636.494 656.324C653.897 646.277 659.859 624.024 649.812 606.622L622.886 596.822C632.933 614.224 626.971 636.477 609.568 646.524L636.494 656.324Z" fill="#D9D9D9"/>
<path d="M649.812 606.622C645.362 598.913 638.516 593.449 630.758 590.627L603.846 580.832C611.598 583.655 618.439 589.117 622.887 596.822L649.812 606.622Z" fill="#D9D9D9"/>
<path d="M526.647 849.348C544.049 839.301 550.012 817.048 539.964 799.646L513.038 789.845C523.086 807.248 517.123 829.5 499.721 839.548L526.647 849.348Z" fill="#D9D9D9"/>
<path d="M637.067 524.968C654.469 514.921 660.432 492.669 650.384 475.266L623.458 465.466C633.506 482.868 627.543 505.121 610.141 515.168L637.067 524.968Z" fill="#D9D9D9"/>
<path d="M539.967 799.646C535.516 791.937 528.67 786.473 520.912 783.651L494 773.856C501.753 776.679 508.593 782.141 513.041 789.845L539.967 799.646Z" fill="#D9D9D9"/>
<path d="M467.902 883.266L526.65 849.348L499.724 839.548L440.977 873.466L467.902 883.266Z" fill="#D9D9D9"/>
<path d="M650.383 475.266C645.932 467.557 639.086 462.093 631.328 459.271L604.416 449.476C612.169 452.299 619.009 457.762 623.457 465.466L650.383 475.266Z" fill="#D9D9D9"/>
<path d="M417.527 782.745L636.495 656.324L609.569 646.523L390.602 772.944L417.527 782.745Z" fill="#D9D9D9"/>
<path d="M437.25 885.943C447.006 889.492 458.204 888.863 467.898 883.266L440.972 873.466C431.278 879.062 420.08 879.692 410.324 876.143L437.25 885.943Z" fill="#D9D9D9"/>
<path d="M471.508 620.555L637.069 524.968L610.143 515.168L444.582 610.755L471.508 620.555Z" fill="#D9D9D9"/>
<path d="M490.263 786.328C499.956 780.731 511.155 780.102 520.91 783.651L493.985 773.85C484.229 770.302 473.03 770.931 463.337 776.528L490.263 786.328Z" fill="url(#paint14_linear_149_470)"/>
<path d="M431.514 820.246L490.261 786.328L463.335 776.528L404.588 810.446L431.514 820.246Z" fill="url(#paint15_linear_149_470)"/>
<path d="M431.519 820.246C414.116 830.293 408.154 852.545 418.201 869.948L391.275 860.148C381.228 842.745 387.19 820.493 404.593 810.445L431.519 820.246Z" fill="#D9D9D9"/>
<path d="M431.519 820.246C414.116 830.293 408.154 852.545 418.201 869.948L391.275 860.148C381.228 842.745 387.19 820.493 404.593 810.445L431.519 820.246Z" fill="url(#paint16_linear_149_470)"/>
<path d="M431.519 820.246C414.116 830.293 408.154 852.545 418.201 869.948L391.275 860.148C381.228 842.745 387.19 820.493 404.593 810.445L431.519 820.246Z" fill="url(#paint17_linear_149_470)"/>
<path d="M437.241 885.938C429.489 883.114 422.649 877.652 418.201 869.948L391.275 860.148C395.726 867.856 402.571 873.321 410.329 876.142L437.241 885.938Z" fill="#D9D9D9"/>
<path d="M437.241 885.938C429.489 883.114 422.649 877.652 418.201 869.948L391.275 860.148C395.726 867.856 402.571 873.321 410.329 876.142L437.241 885.938Z" fill="url(#paint18_linear_149_470)"/>
<path d="M437.241 885.938C429.489 883.114 422.649 877.652 418.201 869.948L391.275 860.148C395.726 867.856 402.571 873.321 410.329 876.142L437.241 885.938Z" fill="url(#paint19_linear_149_470)"/>
<path d="M600.11 593.304C609.804 587.708 621.002 587.078 630.758 590.627L603.832 580.827C594.076 577.278 582.878 577.907 573.184 583.504L354.217 709.925L381.143 719.725L600.11 593.304Z" fill="url(#paint20_linear_149_470)"/>
<path d="M600.682 461.948C610.375 456.351 621.574 455.722 631.329 459.271L604.403 449.471C594.648 445.922 583.449 446.551 573.756 452.148L408.195 547.734L435.121 557.535L600.682 461.948Z" fill="#2565D0"/>
<path d="M600.682 461.948C610.375 456.351 621.574 455.722 631.329 459.271L604.403 449.471C594.648 445.922 583.449 446.551 573.756 452.148L408.195 547.734L435.121 557.535L600.682 461.948Z" fill="url(#paint21_linear_149_470)"/>
<path d="M386.879 785.422C396.635 788.97 407.833 788.341 417.527 782.745L390.601 772.944C380.907 778.541 369.709 779.17 359.953 775.622L386.879 785.422Z" fill="#D9D9D9"/>
<path d="M440.856 623.232C450.611 626.781 461.81 626.152 471.503 620.555L444.577 610.755C434.884 616.351 423.685 616.981 413.93 613.432L440.856 623.232Z" fill="#D9D9D9"/>
<path d="M381.144 719.734C363.741 729.781 357.779 752.034 367.826 769.436L340.9 759.636C330.853 742.233 336.815 719.981 354.218 709.934L381.144 719.734Z" fill="url(#paint22_linear_149_470)"/>
<path d="M386.866 785.426C379.114 782.603 372.274 777.14 367.826 769.436L340.9 759.636C345.351 767.345 352.196 772.809 359.954 775.631L386.866 785.426Z" fill="url(#paint23_linear_149_470)"/>
<path d="M435.124 557.535C417.722 567.582 411.759 589.835 421.807 607.237L394.881 597.437C384.833 580.035 390.796 557.782 408.198 547.735L435.124 557.535Z" fill="url(#paint24_linear_149_470)"/>
<path d="M435.124 557.535C417.722 567.582 411.759 589.835 421.807 607.237L394.881 597.437C384.833 580.035 390.796 557.782 408.198 547.735L435.124 557.535Z" fill="url(#paint25_linear_149_470)"/>
<path d="M440.847 623.227C433.094 620.404 426.255 614.942 421.807 607.237L394.881 597.437C399.331 605.146 406.177 610.61 413.935 613.432L440.847 623.227Z" fill="url(#paint26_linear_149_470)"/>
<path d="M440.847 623.227C433.094 620.404 426.255 614.942 421.807 607.237L394.881 597.437C399.331 605.146 406.177 610.61 413.935 613.432L440.847 623.227Z" fill="url(#paint27_linear_149_470)"/>
<rect x="403.609" y="575.728" width="263.943" height="72.7692" rx="36.3846" transform="rotate(-30 403.609 575.728)" fill="#2565D0"/>
<rect x="349.629" y="737.918" width="325.611" height="72.7692" rx="36.3846" transform="rotate(-30 349.629 737.918)" fill="#2565D0"/>
<rect x="400.004" y="838.438" width="140.605" height="72.7692" rx="36.3846" transform="rotate(-30 400.004 838.438)" fill="#2565D0"/>
<defs>
<linearGradient id="paint0_linear_149_470" x1="282.824" y1="443.369" x2="222.627" y2="448.551" gradientUnits="userSpaceOnUse">
<stop offset="" stop-color="#B3C7FF"/>
<stop offset="1" stop-color="#2568D9"/>
</linearGradient>
<linearGradient id="paint1_linear_149_470" x1="282.824" y1="443.369" x2="222.627" y2="448.551" gradientUnits="userSpaceOnUse">
<stop offset="" stop-color="#B3C7FF"/>
<stop offset="1" stop-color="#2568D9"/>
</linearGradient>
<linearGradient id="paint2_linear_149_470" x1="174.665" y1="516.919" x2="156.04" y2="588.554" gradientUnits="userSpaceOnUse">
<stop offset="" stop-color="#2565D0"/>
<stop offset="1" stop-color="#414F84"/>
</linearGradient>
<linearGradient id="paint3_linear_149_470" x1="166.046" y1="521.149" x2="156.04" y2="588.554" gradientUnits="userSpaceOnUse">
<stop offset="" stop-color="#2669D9"/>
<stop offset="1" stop-color="#414F84"/>
</linearGradient>
<linearGradient id="paint4_linear_149_470" x1="174.665" y1="516.919" x2="156.04" y2="588.554" gradientUnits="userSpaceOnUse">
<stop offset="" stop-color="#2565D0"/>
<stop offset="1" stop-color="#414F84"/>
</linearGradient>
<linearGradient id="paint5_linear_149_470" x1="166.046" y1="521.149" x2="156.04" y2="588.554" gradientUnits="userSpaceOnUse">
<stop offset="" stop-color="#2669D9"/>
<stop offset="1" stop-color="#414F84"/>
</linearGradient>
<linearGradient id="paint6_linear_149_470" x1="387.758" y1="244.543" x2="295.705" y2="241.898" gradientUnits="userSpaceOnUse">
<stop offset="" stop-color="#B3C7FF"/>
<stop offset="1" stop-color="#2568D9"/>
</linearGradient>
<linearGradient id="paint7_linear_149_470" x1="388.329" y1="121.289" x2="314.058" y2="119.086" gradientUnits="userSpaceOnUse">
<stop offset="" stop-color="#B3C7FF"/>
<stop offset="1" stop-color="#2568D9"/>
</linearGradient>
<linearGradient id="paint8_linear_149_470" x1="115.671" y1="420.637" x2="105.665" y2="488.042" gradientUnits="userSpaceOnUse">
<stop offset="" stop-color="#2669D9"/>
<stop offset="1" stop-color="#414F84"/>
</linearGradient>
<linearGradient id="paint9_linear_149_470" x1="115.671" y1="420.637" x2="105.665" y2="488.042" gradientUnits="userSpaceOnUse">
<stop offset="" stop-color="#2669D9"/>
<stop offset="1" stop-color="#414F84"/>
</linearGradient>
<linearGradient id="paint10_linear_149_470" x1="178.27" y1="254.208" x2="159.645" y2="325.843" gradientUnits="userSpaceOnUse">
<stop offset="" stop-color="#2565D0"/>
<stop offset="1" stop-color="#414F84"/>
</linearGradient>
<linearGradient id="paint11_linear_149_470" x1="169.651" y1="258.439" x2="159.645" y2="325.843" gradientUnits="userSpaceOnUse">
<stop offset="" stop-color="#2669D9"/>
<stop offset="1" stop-color="#414F84"/>
</linearGradient>
<linearGradient id="paint12_linear_149_470" x1="178.27" y1="254.208" x2="159.645" y2="325.843" gradientUnits="userSpaceOnUse">
<stop offset="" stop-color="#2565D0"/>
<stop offset="1" stop-color="#414F84"/>
</linearGradient>
<linearGradient id="paint13_linear_149_470" x1="169.651" y1="258.439" x2="159.645" y2="325.843" gradientUnits="userSpaceOnUse">
<stop offset="" stop-color="#2669D9"/>
<stop offset="1" stop-color="#414F84"/>
</linearGradient>
<linearGradient id="paint14_linear_149_470" x1="525.824" y1="740.369" x2="465.627" y2="745.551" gradientUnits="userSpaceOnUse">
<stop offset="" stop-color="#B3C7FF"/>
<stop offset="1" stop-color="#2568D9"/>
</linearGradient>
<linearGradient id="paint15_linear_149_470" x1="525.824" y1="740.369" x2="465.627" y2="745.551" gradientUnits="userSpaceOnUse">
<stop offset="" stop-color="#B3C7FF"/>
<stop offset="1" stop-color="#2568D9"/>
</linearGradient>
<linearGradient id="paint16_linear_149_470" x1="417.665" y1="813.919" x2="399.04" y2="885.554" gradientUnits="userSpaceOnUse">
<stop offset="" stop-color="#2565D0"/>
<stop offset="1" stop-color="#414F84"/>
</linearGradient>
<linearGradient id="paint17_linear_149_470" x1="409.046" y1="818.149" x2="399.04" y2="885.554" gradientUnits="userSpaceOnUse">
<stop offset="" stop-color="#2669D9"/>
<stop offset="1" stop-color="#414F84"/>
</linearGradient>
<linearGradient id="paint18_linear_149_470" x1="417.665" y1="813.919" x2="399.04" y2="885.554" gradientUnits="userSpaceOnUse">
<stop offset="" stop-color="#2565D0"/>
<stop offset="1" stop-color="#414F84"/>
</linearGradient>
<linearGradient id="paint19_linear_149_470" x1="409.046" y1="818.149" x2="399.04" y2="885.554" gradientUnits="userSpaceOnUse">
<stop offset="" stop-color="#2669D9"/>
<stop offset="1" stop-color="#414F84"/>
</linearGradient>
<linearGradient id="paint20_linear_149_470" x1="630.758" y1="541.543" x2="538.705" y2="538.898" gradientUnits="userSpaceOnUse">
<stop offset="" stop-color="#B3C7FF"/>
<stop offset="1" stop-color="#2568D9"/>
</linearGradient>
<linearGradient id="paint21_linear_149_470" x1="631.329" y1="418.289" x2="557.058" y2="416.086" gradientUnits="userSpaceOnUse">
<stop offset="" stop-color="#B3C7FF"/>
<stop offset="1" stop-color="#2568D9"/>
</linearGradient>
<linearGradient id="paint22_linear_149_470" x1="358.671" y1="717.637" x2="348.665" y2="785.042" gradientUnits="userSpaceOnUse">
<stop offset="" stop-color="#2669D9"/>
<stop offset="1" stop-color="#414F84"/>
</linearGradient>
<linearGradient id="paint23_linear_149_470" x1="358.671" y1="717.637" x2="348.665" y2="785.042" gradientUnits="userSpaceOnUse">
<stop offset="" stop-color="#2669D9"/>
<stop offset="1" stop-color="#414F84"/>
</linearGradient>
<linearGradient id="paint24_linear_149_470" x1="421.27" y1="551.208" x2="402.645" y2="622.843" gradientUnits="userSpaceOnUse">
<stop offset="" stop-color="#2565D0"/>
<stop offset="1" stop-color="#414F84"/>
</linearGradient>
<linearGradient id="paint25_linear_149_470" x1="412.651" y1="555.439" x2="402.645" y2="622.843" gradientUnits="userSpaceOnUse">
<stop offset="" stop-color="#2669D9"/>
<stop offset="1" stop-color="#414F84"/>
</linearGradient>
<linearGradient id="paint26_linear_149_470" x1="421.27" y1="551.208" x2="402.645" y2="622.843" gradientUnits="userSpaceOnUse">
<stop offset="" stop-color="#2565D0"/>
<stop offset="1" stop-color="#414F84"/>
</linearGradient>
<linearGradient id="paint27_linear_149_470" x1="412.651" y1="555.439" x2="402.645" y2="622.843" gradientUnits="userSpaceOnUse">
<stop offset="" stop-color="#2669D9"/>
<stop offset="1" stop-color="#414F84"/>
</linearGradient>
</defs>
</svg>
