<svg width="20" height="20" viewBox="0 0 20 20" fill="none" xmlns="http://www.w3.org/2000/svg">
<path d="M18.8302 11.8113V18H15.2075V12.1887C15.2075 10.7547 14.6792 9.77359 13.3962 9.77359C12.4151 9.77359 11.8113 10.4528 11.5849 11.0566C11.5094 11.283 11.434 11.5849 11.434 11.9623V18H7.81132C7.81132 18 7.88679 8.18868 7.81132 7.20755H11.434V8.71698C11.8868 7.96227 12.7924 6.90566 14.6792 6.90566C17.0189 6.90566 18.8302 8.49057 18.8302 11.8113ZM4.03773 2C2.83019 2 2 2.83019 2 3.88679C2 4.9434 2.75472 5.77359 3.96226 5.77359C5.24528 5.77359 6 4.9434 6 3.88679C6.07547 2.75472 5.32075 2 4.03773 2ZM2.22641 18H5.84906V7.20755H2.22641V18Z" fill="currentColor"/>
</svg>
