<svg width="187" height="34" viewBox="0 0 187 34" fill="none" xmlns="http://www.w3.org/2000/svg">
<rect x="3.98047" y="9.7583" width="19.6552" height="5.41896" rx="2.70948" transform="rotate(-30 3.98047 9.7583)" fill="#2565D0"/>
<rect x="-0.0390625" y="21.8359" width="24.2475" height="5.41896" rx="2.70948" transform="rotate(-30 -0.0390625 21.8359)" fill="url(#paint0_linear_1808_1817)"/>
<rect x="3.71094" y="29.3213" width="10.4705" height="5.41896" rx="2.70948" transform="rotate(-30 3.71094 29.3213)" fill="#2565D0"/>
<path d="M104.446 18.2933L106.445 18.2933L111.835 26.2745L115.087 26.2745C114.951 26.1153 114.69 25.7913 114.304 25.3024C113.918 24.8022 113.469 24.211 112.959 23.5289C112.448 22.8353 111.92 22.1248 111.375 21.3971C110.842 20.6581 110.342 19.976 109.877 19.3507C109.502 18.8254 109.182 18.3815 108.916 18.0187C108.952 18.0082 108.989 17.9975 109.026 17.9864C109.718 17.7817 110.371 17.4634 110.984 17.0314C111.608 16.588 112.119 16.0138 112.516 15.3089C112.913 14.5927 113.112 13.7286 113.112 12.7168C113.112 10.875 112.493 9.54476 111.256 8.72618C110.019 7.89623 108.401 7.48126 106.404 7.48126C105.693 7.48126 105.04 7.48646 104.446 7.49686L104.446 9.56343C104.615 9.55607 104.791 9.54985 104.974 9.54476C105.394 9.53339 105.831 9.52771 106.285 9.52771C107.851 9.52771 108.975 9.81762 109.656 10.3975C110.348 10.9773 110.694 11.8186 110.694 12.9214C110.694 13.9787 110.32 14.8087 109.571 15.4113C108.821 16.0025 107.726 16.2981 106.285 16.2981L104.446 16.2981L104.446 18.2933Z" fill="#2565D0"/>
<path d="M124.492 26.2745C124.582 25.7629 124.633 25.0239 124.645 24.0575C124.668 23.0911 124.679 21.977 124.679 20.715L124.679 18.4639L121.291 12.6656C120.803 11.8243 120.315 11.0114 119.827 10.2269C119.35 9.43107 118.754 8.55564 118.039 7.60063L120.967 7.60063L126.024 16.0593L130.808 7.60063L133.736 7.60063C132.987 8.68071 132.391 9.58456 131.949 10.3122C131.506 11.0398 131.041 11.8243 130.553 12.6656L127.097 18.5662L127.097 20.715C127.097 21.977 127.102 23.0911 127.114 24.0575C127.136 25.0239 127.199 25.7629 127.301 26.2745L124.492 26.2745Z" fill="#2565D0"/>
<path d="M137.148 24.6885L137.148 26.2745L150.684 26.2745L150.684 23.9211C150.173 24.0007 149.429 24.0632 148.453 24.1087C147.488 24.1542 146.382 24.1769 145.133 24.1769L140.145 24.1769L150.292 9.2719L150.292 7.60063L137.914 7.60063L137.914 9.97111C138.425 9.85742 139.078 9.7892 139.872 9.76646C140.667 9.73235 141.694 9.7153 142.954 9.7153L147.295 9.7153L137.148 24.6885Z" fill="#2565D0"/>
<path d="M155.679 26.2745C155.77 25.7629 155.821 25.0239 155.832 24.0575C155.855 23.0911 155.866 21.977 155.866 20.715L155.866 13.1772C155.866 11.9152 155.855 10.8011 155.832 9.83468C155.821 8.85693 155.77 8.11225 155.679 7.60063L166.524 7.60063L166.524 9.7153L158.284 9.7153L158.284 15.4795L165.571 15.4795L165.571 17.5259L158.284 17.5259L158.284 24.1769L161.655 24.1769C162.915 24.1769 163.976 24.1655 164.838 24.1428C165.712 24.1201 166.405 24.0632 166.916 23.9723L166.916 26.2745L155.679 26.2745Z" fill="#2565D0"/>
<path d="M174.533 11.5432L184.68 26.2745L186.791 26.2745L186.791 13.1772C186.791 11.9152 186.797 10.8011 186.808 9.83468C186.831 8.85693 186.888 8.11225 186.978 7.60063L184.68 7.60063L184.68 22.39L174.533 7.60063L172.234 7.60063C172.325 8.11225 172.376 8.85693 172.388 9.83468C172.41 10.8011 172.422 11.9152 172.422 13.1772L172.422 20.715C172.422 21.977 172.41 23.0911 172.388 24.0575C172.376 25.0239 172.325 25.7629 172.234 26.2745L174.533 26.2745L174.533 11.5432Z" fill="#2565D0"/>
<path d="M38.6687 26.644C37.4429 26.644 36.2965 26.4848 35.2296 26.1665C34.174 25.8482 33.3227 25.4389 32.6758 24.9386L33.2546 22.3124C34.0946 23.04 34.9685 23.5743 35.8766 23.9154C36.7959 24.2565 37.7267 24.427 38.6687 24.427C39.7016 24.427 40.621 24.1428 41.4268 23.5743C42.2327 23.0059 42.6357 22.2044 42.6357 21.1698C42.6357 20.715 42.5278 20.2943 42.3122 19.9078C42.1079 19.5099 41.6766 19.1233 41.0182 18.7481C40.3599 18.3729 39.3668 17.9864 38.0388 17.5885C36.7108 17.1905 35.695 16.7415 34.9912 16.2412C34.2989 15.7296 33.8222 15.1668 33.5611 14.5529C33.3114 13.9276 33.1865 13.2511 33.1865 12.5235C33.1865 11.7959 33.3908 11.0341 33.7995 10.2383C34.2081 9.44245 34.855 8.76598 35.7404 8.20889C36.6257 7.64043 37.7721 7.3562 39.1795 7.3562C40.167 7.3562 41.0466 7.44715 41.8184 7.62906C42.6016 7.81097 43.4075 8.10088 44.236 8.4988L43.7253 10.9887C42.8059 10.4884 42 10.1303 41.3077 9.91427C40.6267 9.69825 39.8775 9.59025 39.0603 9.59025C38.0388 9.59025 37.2045 9.87448 36.5576 10.4429C35.922 11 35.6042 11.631 35.6042 12.3359C35.6042 12.802 35.7006 13.217 35.8936 13.5808C36.0979 13.9333 36.5008 14.2687 37.1024 14.587C37.704 14.9053 38.612 15.2407 39.8265 15.5932C41.5177 16.0934 42.8116 16.7585 43.7083 17.5885C44.6049 18.4184 45.0533 19.5269 45.0533 20.914C45.0533 22.0509 44.7638 23.0514 44.185 23.9154C43.6061 24.7795 42.8343 25.4503 41.8695 25.9278C40.9047 26.4053 39.8378 26.644 38.6687 26.644Z" fill="#212B36"/>
<path fill-rule="evenodd" clip-rule="evenodd" d="M57.2843 26.644C55.9223 26.644 54.6397 26.2802 53.4366 25.5526C52.2448 24.8136 51.28 23.7392 50.5423 22.3294C49.8045 20.9083 49.4356 19.1745 49.4356 17.128C49.4356 15.0816 49.8215 13.3307 50.5933 11.8755C51.3765 10.4202 52.3867 9.30602 53.6239 8.53291C54.861 7.74844 56.1663 7.3562 57.5397 7.3562C58.9017 7.3562 60.173 7.7257 61.3534 8.4647C62.5452 9.19232 63.5043 10.2667 64.2307 11.6879C64.9685 13.0976 65.3374 14.8258 65.3374 16.8722C65.3374 18.9187 64.9458 20.6752 64.1626 22.1418C63.3908 23.5971 62.392 24.7113 61.1661 25.4844C59.9403 26.2575 58.6464 26.644 57.2843 26.644ZM57.4205 24.427C58.9755 24.427 60.2638 23.7904 61.2853 22.517C62.3182 21.2323 62.8346 19.4587 62.8346 17.1962C62.8346 14.8314 62.3352 12.9726 61.3364 11.6196C60.3489 10.2667 59.0436 9.59025 57.4205 9.59025C55.8088 9.59025 54.4865 10.244 53.4536 11.5514C52.4321 12.8475 51.9213 14.6041 51.9213 16.821C51.9213 19.1517 52.4207 21.0049 53.4196 22.3806C54.4297 23.7449 55.7634 24.427 57.4205 24.427Z" fill="#212B36"/>
<path d="M70.8264 24.1201C70.815 25.0864 70.7639 25.8254 70.6731 26.3371L73.4823 26.3371C73.3802 25.8368 73.3177 25.1035 73.295 24.1371C73.2837 23.1707 73.278 22.0509 73.278 20.7775L73.278 17.7078L80.6841 17.7078L80.6841 15.6614L73.278 15.6614L73.278 9.77784L81.7737 9.77784L81.7737 7.66317L70.6731 7.66317C70.7639 8.17478 70.815 8.93083 70.8264 9.93132C70.8491 10.9204 70.8604 12.0403 70.8604 13.2909L70.8604 20.7775C70.8604 22.0395 70.8491 23.1537 70.8264 24.1201Z" fill="#212B36"/>
<path d="M91.485 26.3371C91.5985 25.8254 91.6666 25.0864 91.6893 24.1201C91.7234 23.1537 91.7404 22.0395 91.7404 20.7775L91.7404 9.77784L88.7439 9.77784C88.1764 9.77784 87.6373 9.79489 87.1265 9.829C86.6271 9.85174 86.122 9.91995 85.6112 10.0336L85.6112 7.66317L100.372 7.66317L100.372 10.0336C99.8615 9.91995 99.3507 9.85174 98.84 9.829C98.3406 9.79489 97.8071 9.77784 97.2396 9.77784L94.175 9.77784L94.175 20.7775C94.175 22.0395 94.1864 23.1537 94.2091 24.1201C94.2431 25.0864 94.3169 25.8254 94.4304 26.3371L91.485 26.3371Z" fill="#212B36"/>
<defs>
<linearGradient id='paint0_linear_1808_1817' x1="12.0847" y1="27.2548" x2="12.0847" y2="21.8359" gradientUnits="userSpaceOnUse">
<stop offset='0' stop-color="#56C3DB"/>
<stop offset="1" stop-color="#2B68D5"/>
</linearGradient>
</defs>
</svg>
