<svg width="50" height="50" viewBox="0 0 50 50" fill="none" xmlns="http://www.w3.org/2000/svg">
<path d="M22 30.8799V19.7099C21.9989 19.5113 22.0569 19.3168 22.1667 19.1513C22.2765 18.9858 22.4331 18.8567 22.6165 18.7805C22.8 18.7044 23.002 18.6846 23.1967 18.7236C23.3914 18.7627 23.5701 18.8589 23.71 18.9999L29.29 24.5899C29.4763 24.7773 29.5808 25.0307 29.5808 25.2949C29.5808 25.5591 29.4763 25.8126 29.29 25.9999L23.71 31.5899C23.5701 31.7309 23.3914 31.8271 23.1967 31.8662C23.002 31.9053 22.8 31.8855 22.6165 31.8093C22.4331 31.7331 22.2765 31.6041 22.1667 31.4385C22.0569 31.273 21.9989 31.0785 22 30.8799Z" fill="#F8F8F8"/>
<circle cx="25" cy="25" r="23.5" stroke="#F8F8F8" stroke-width="3"/>
</svg>
