<svg width="20" height="20" viewBox="0 0 20 20"  xmlns="http://www.w3.org/2000/svg">
<path d="M17.9051 13.9642L15.8337 11.8924C15.2811 11.3397 14.3155 11.3388 13.7619 11.8924L13.4165 12.2378L17.5598 16.3809L17.9051 16.0356C18.4786 15.462 18.4767 14.5348 17.9051 13.9642Z" fill="currentColor"/>
<path d="M12.7056 12.9091C12.2697 13.2468 11.6479 13.2333 11.2496 12.8342L7.15405 8.73578C6.75487 8.3366 6.74143 7.71434 7.07909 7.27955L2.94531 3.146C1.16697 5.21889 1.23651 8.34233 3.19921 10.305L9.68036 16.789C11.5638 18.6724 14.6489 18.9222 16.8395 17.0428L12.7056 12.9091Z" fill="currentColor"/>
<path d="M8.09699 4.15318L6.02562 2.08136C5.47296 1.52869 4.50738 1.52775 3.9538 2.08136L3.6084 2.42676L7.75171 6.56985L8.09699 6.22454C8.67049 5.65104 8.6686 4.72384 8.09699 4.15318Z" fill="currentColor"/>
</svg>
