<svg width="320" height="290" viewBox="0 0 320 290" fill="none" xmlns="http://www.w3.org/2000/svg">
<g clip-path="url(#clip0_207_1354)">
<path d="M59.9474 401.36L205.486 255.709L351.025 401.36L354.42 404.758L357.819 401.363L402.438 356.805L405.846 353.401L402.434 350.001L256.597 204.666L402.434 59.3307L405.846 55.931L402.438 52.5276L357.819 7.96875L354.42 4.57447L351.025 7.97233L205.486 153.623L59.9474 7.97233L56.5522 4.57447L53.1534 7.96875L8.53494 52.5276L5.12702 55.931L8.53852 59.3307L154.375 204.666L8.53852 350.001L5.12702 353.401L8.53494 356.805L53.1534 401.363L56.5522 404.758L59.9474 401.36Z" fill="#EEF0F4" stroke="#EEF0F4" stroke-width="9.60961"/>
</g>
<defs>
<clipPath id="clip0_207_1354">
<rect width="320" height="290" fill="white"/>
</clipPath>
</defs>
</svg>
