<svg width="360" height="400" viewBox="0 0 360 400" fill="none" xmlns="http://www.w3.org/2000/svg">
<path d="M79.2494 262.824C78.5235 262.824 78.5235 262.824 79.2494 262.824L27.7109 232.897L26.9851 232.167V173.044C26.9851 172.314 26.985 172.314 27.7109 172.314L78.5235 143.117C79.2494 143.117 79.2494 143.117 79.9752 143.117L130.788 172.314C131.514 172.314 131.514 173.044 131.514 173.044V232.167C131.514 232.897 131.514 232.897 130.788 232.897L79.2494 262.824ZM29.1627 231.437L78.5235 259.904L127.884 231.437V173.774L78.5235 145.307L29.1627 173.774V231.437Z" fill="#2565D0"/>
<path d="M79.2494 204.431C78.5235 204.431 78.5235 204.431 79.2494 204.431L27.7109 175.234C26.985 175.234 26.9851 174.505 26.9851 173.775C26.9851 173.045 27.711 173.045 28.4369 173.045L79.2494 202.241C79.9753 202.241 79.9753 202.971 79.9753 203.701L79.2494 204.431Z" fill="#2565D0"/>
<path d="M180.149 262.823L128.61 232.896C127.885 232.896 127.885 232.166 127.885 232.166V173.043C127.885 172.313 128.61 171.583 129.336 171.583C130.062 171.583 130.788 172.313 130.788 173.043V231.436L180.875 260.633C181.601 260.633 181.601 261.363 181.601 262.093C180.875 262.823 180.875 262.823 180.149 262.823Z" fill="#2565D0"/>
<path d="M180.149 204.431L128.61 175.234C127.885 175.234 127.885 174.505 127.885 173.775C127.885 173.045 128.61 173.045 129.336 173.045L180.149 202.241C180.875 202.241 180.875 202.971 180.875 203.701C180.875 203.701 180.875 204.431 180.149 204.431Z" fill="#2565D0"/>
<path d="M180.149 204.431C179.423 204.431 179.423 204.431 179.423 203.701C179.423 202.971 179.423 202.241 180.149 202.241L230.962 173.045C231.688 173.045 232.413 173.045 232.413 173.775C232.413 174.505 232.414 175.234 231.688 175.234L180.149 204.431C180.875 204.431 180.149 204.431 180.149 204.431Z" fill="#2565D0"/>
<path d="M180.151 262.823C179.426 262.823 178.7 262.093 178.7 261.363V202.239C178.7 201.509 179.426 200.779 180.151 200.779C180.877 200.779 181.603 201.509 181.603 202.239V262.093C181.603 262.823 180.877 262.823 180.151 262.823Z" fill="#2565D0"/>
<path d="M281.776 262.824C281.05 262.824 281.05 262.824 281.776 262.824L230.238 232.897C229.512 232.897 229.512 232.167 229.512 232.167V173.044C229.512 172.314 230.238 171.584 230.963 171.584C231.689 171.584 232.415 172.314 232.415 173.044V231.437L281.776 259.904L331.137 231.437V174.504L281.05 145.307C280.324 145.307 280.324 144.577 280.324 143.847C280.324 143.117 281.05 143.117 281.776 143.117L332.589 172.314C333.315 172.314 333.314 173.044 333.314 173.044V232.167C333.314 232.897 333.315 232.897 332.589 232.897L281.776 262.824Z" fill="#2565D0"/>
<path d="M281.773 204.431C281.048 204.431 281.048 204.431 281.048 203.701C281.048 202.971 281.048 202.241 281.773 202.241L332.586 173.045C333.312 173.045 334.038 173.045 334.038 173.775C334.038 174.505 334.038 175.234 333.312 175.234L281.773 204.431Z" fill="#2565D0"/>
<path d="M281.775 262.824C281.05 262.824 280.324 262.094 280.324 261.364V202.24C280.324 201.51 281.05 200.78 281.775 200.78C282.501 200.78 283.227 201.51 283.227 202.24V262.094C282.501 262.824 282.501 262.824 281.775 262.824Z" fill="#2565D0"/>
<path d="M129.338 351.145L77.7992 321.218C77.0733 321.218 77.0732 320.488 77.0732 320.488V262.095C77.0732 261.365 77.0733 261.365 77.7992 261.365L128.612 232.168C128.612 232.168 129.338 232.168 130.063 232.168L180.876 261.365C181.602 261.365 181.602 262.095 181.602 262.095V320.488C181.602 321.218 181.602 321.218 180.876 321.218L129.338 351.145C130.063 351.145 130.063 351.145 129.338 351.145ZM79.9768 319.759L129.338 348.225L178.698 319.759V262.095L129.338 233.628L79.9768 262.095V319.759Z" fill="#2565D0"/>
<path d="M129.338 292.751L77.7992 263.554C77.0733 263.554 77.0732 262.825 77.0732 262.095C77.0732 261.365 77.7991 261.365 78.525 261.365L129.338 290.562C130.063 290.562 130.063 291.291 130.063 292.021C130.063 292.021 130.063 292.751 129.338 292.751Z" fill="#2565D0"/>
<path d="M281.777 262.823C281.051 262.823 281.051 262.823 281.777 262.823L230.238 232.897C229.512 232.897 229.512 232.167 229.512 231.437C229.512 230.707 230.238 230.707 230.964 230.707L281.777 259.904C282.503 259.904 282.503 260.634 282.503 261.364C282.503 262.823 281.777 262.823 281.777 262.823Z" fill="#2565D0"/>
<path d="M230.964 351.144C230.238 351.144 230.964 351.144 230.964 351.144L179.426 321.218L178.7 320.488V262.094C178.7 261.364 179.426 260.634 180.151 260.634C180.877 260.634 181.603 261.364 181.603 262.094V320.488L230.964 348.955L281.051 319.758C281.777 319.758 282.503 319.758 282.503 320.488C282.503 321.218 282.503 321.948 281.777 321.948L230.964 351.144C231.69 351.144 230.964 351.144 230.964 351.144Z" fill="#2565D0"/>
<path d="M230.964 292.751C230.238 292.751 230.964 292.751 230.964 292.751L179.426 263.554C178.7 263.554 178.7 262.825 178.7 262.095C178.7 261.365 179.426 261.365 180.151 261.365L230.964 290.562C231.69 290.562 231.69 291.291 231.69 292.021C231.69 292.021 231.69 292.751 230.964 292.751Z" fill="#2565D0"/>
<path d="M230.961 292.751C230.236 292.751 230.236 292.751 230.236 292.021C230.236 291.291 230.236 290.562 230.961 290.562L281.774 261.365C282.5 261.365 283.226 261.365 283.226 262.095C283.226 262.825 283.226 263.554 282.5 263.554L230.961 292.751C231.687 292.751 230.961 292.751 230.961 292.751Z" fill="#2565D0"/>
<path d="M230.963 351.145C230.238 351.145 229.512 350.415 229.512 349.685V291.291C229.512 290.561 230.238 289.831 230.963 289.831C231.689 289.831 232.415 290.561 232.415 291.291V350.415C232.415 350.415 231.689 351.145 230.963 351.145Z" fill="#2565D0"/>
<path d="M129.338 174.503L77.7992 144.576C77.0733 144.576 77.0732 143.846 77.0732 143.846V84.7225C77.0732 83.9926 77.0733 83.9926 77.7992 83.9926L128.612 54.7958C128.612 54.7958 129.338 54.7958 130.063 54.7958L180.876 83.9926C181.602 83.9926 181.602 84.7225 181.602 84.7225L180.876 83.9926C181.602 84.7225 181.602 83.9926 180.876 83.9926C180.15 83.9926 180.876 84.7225 180.876 83.9926L178.698 85.4524L129.338 56.9855L79.9768 85.4524V143.116L130.063 172.313C130.789 172.313 130.789 173.043 130.789 173.773C130.063 174.503 130.063 174.503 129.338 174.503Z" fill="#2565D0"/>
<path d="M129.907 119.117V169.849" stroke="#2565D0" stroke-width="0.951567" stroke-dasharray="1.9 1.9"/>
<path d="M177.216 263.144L134.871 288.509" stroke="#2565D0" stroke-width="0.951567" stroke-dasharray="1.9 1.9"/>
<path d="M177.88 380.263L130.392 351.986" stroke="#2565D0" stroke-width="0.951567" stroke-dasharray="1.9 1.9"/>
<path d="M278.43 86.682L236.615 112.87" stroke="#2565D0" stroke-width="0.951567" stroke-dasharray="1.9 1.9"/>
<path d="M129.338 116.11L77.7992 86.9129C77.0733 86.9129 77.0732 86.183 77.0732 85.4531C77.0732 84.7231 77.7991 84.7231 78.525 84.7231L129.338 113.92C130.063 113.92 130.064 114.65 130.064 115.38C130.064 115.38 130.063 116.11 129.338 116.11Z" fill="#2565D0"/>
<path d="M129.338 116.11C128.612 116.11 128.612 116.11 128.612 115.38C128.612 114.65 128.612 113.92 129.338 113.92L180.15 84.7231C180.876 84.7231 181.602 84.7231 181.602 85.4531C181.602 86.183 181.602 86.9129 180.876 86.9129L129.338 116.11C130.064 116.11 130.064 116.11 129.338 116.11Z" fill="#2565D0"/>
<path d="M230.964 116.11C230.238 116.11 230.964 116.11 230.964 116.11L179.426 86.9129C178.7 86.9129 178.7 86.183 178.7 85.4531C178.7 84.7231 179.426 84.7231 180.151 84.7231L230.964 113.92C231.69 113.92 231.69 114.65 231.69 115.38C231.69 115.38 231.69 116.11 230.964 116.11Z" fill="#2565D0"/>
<path d="M230.963 174.501C230.238 174.501 229.512 173.771 229.512 173.041V113.918C229.512 113.188 230.238 112.458 230.963 112.458C231.689 112.458 232.415 113.188 232.415 113.918V173.041C232.415 174.501 231.689 174.501 230.963 174.501Z" fill="#2565D0"/>
<path d="M180.149 381.07C179.423 381.07 179.423 381.07 179.423 380.34C179.423 379.61 179.423 378.88 180.149 378.88L331.861 290.56V114.649C331.861 113.919 332.587 113.189 333.313 113.189C334.039 113.189 334.765 113.919 334.765 114.649V291.29C334.765 292.019 334.765 292.019 334.039 292.019L180.149 381.07C180.875 381.07 180.149 381.07 180.149 381.07Z" fill="#2565D0"/>
<path d="M28.4369 292.019C27.711 292.019 26.9851 291.29 26.9851 290.56V114.649C26.9851 113.919 27.711 113.189 28.4369 113.189C29.1628 113.189 29.8886 113.919 29.8886 114.649V291.29C29.1627 292.019 29.1628 292.019 28.4369 292.019Z" fill="#2565D0"/>
<path d="M337.666 294.941C336.94 294.211 336.94 294.941 337.666 294.941L336.94 112.461L180.147 20.491C180.147 20.491 180.147 20.491 180.147 19.7611C180.147 19.7611 180.148 19.7611 180.873 19.7611L338.392 111.001L337.666 294.941C337.666 294.941 337.666 294.211 337.666 294.941Z" fill="#2565D0"/>
<path d="M133.691 229.976C132.965 229.976 132.965 229.976 133.691 229.976C132.965 229.246 132.965 229.246 133.691 229.246L175.793 205.159H176.519V205.889L133.691 229.976Z" fill="#2565D0"/>
<path d="M133.691 227.056C132.965 227.056 132.965 227.056 133.691 227.056C132.965 226.326 132.965 226.326 133.691 226.326L172.89 203.698H173.616V204.428L133.691 227.056Z" fill="#2565D0"/>
<path d="M133.691 224.138C132.965 224.138 132.965 224.138 133.691 224.138C132.965 223.408 132.965 223.408 133.691 223.408L170.712 202.24H171.438V202.97L133.691 224.138Z" fill="#2565D0"/>
<path d="M133.691 221.217C132.965 221.217 132.965 221.217 133.691 221.217C132.965 220.487 132.965 220.487 133.691 220.487L167.808 200.779H168.534V201.509L133.691 221.217Z" fill="#2565D0"/>
<path d="M133.691 218.295C132.965 218.295 132.965 218.295 133.691 218.295C132.965 217.565 132.965 217.565 133.691 217.565L165.631 199.317H166.357V200.047L133.691 218.295Z" fill="#2565D0"/>
<path d="M133.691 215.377C132.965 215.377 132.965 215.377 133.691 215.377C132.965 214.647 132.965 214.647 133.691 214.647L163.453 197.129H164.179V197.859L133.691 215.377Z" fill="#2565D0"/>
<path d="M133.691 213.187C132.965 212.457 132.965 213.187 133.691 213.187C132.965 212.457 132.965 212.457 133.691 212.457L160.549 196.398H161.275V197.128L133.691 213.187C133.691 213.187 133.691 212.457 133.691 213.187Z" fill="#2565D0"/>
<path d="M133.691 210.269C132.965 210.269 132.965 210.269 133.691 210.269C132.965 209.539 132.965 209.539 133.691 209.539L158.372 194.94H159.098V195.67L133.691 210.269Z" fill="#2565D0"/>
<path d="M132.965 207.348C132.239 206.618 132.239 206.618 132.965 206.618L155.468 193.48H156.193V194.21L132.965 207.348C133.691 207.348 133.691 207.348 132.965 207.348Z" fill="#2565D0"/>
<path d="M133.691 204.427C132.965 204.427 132.965 204.427 133.691 204.427C132.965 203.697 132.965 203.697 133.691 203.697L153.29 192.018H154.016V192.748L133.691 204.427Z" fill="#2565D0"/>
<path d="M133.691 201.51C132.965 201.51 132.965 201.51 133.691 201.51C132.965 200.78 132.965 200.78 133.691 200.78L151.113 190.561H151.839V191.291L133.691 201.51Z" fill="#2565D0"/>
<path d="M133.691 198.588C132.965 198.588 132.965 198.588 133.691 198.588C132.965 197.858 132.965 197.858 133.691 197.858L148.209 189.099H148.935V189.829L133.691 198.588Z" fill="#2565D0"/>
<path d="M133.691 195.671C132.965 195.671 133.691 195.671 133.691 195.671C132.965 194.941 132.965 194.941 133.691 194.941L146.032 187.641H146.758V188.371L133.691 195.671Z" fill="#2565D0"/>
<path d="M133.691 192.749C132.965 192.749 132.965 192.749 133.691 192.749C132.965 192.019 132.965 192.019 133.691 192.019L143.854 186.18H144.58V186.91L133.691 192.749Z" fill="#2565D0"/>
<path d="M133.691 189.828C132.965 189.828 132.965 189.828 133.691 189.828C132.965 189.099 132.965 189.099 133.691 189.099L140.95 184.719H141.676V185.449L133.691 189.828Z" fill="#2565D0"/>
<path d="M133.691 186.911C132.965 186.911 133.691 186.911 133.691 186.911C132.965 186.181 132.965 186.181 133.691 186.181L138.773 183.261H139.499V183.991L133.691 186.911Z" fill="#2565D0"/>
<path d="M132.965 184.72C132.239 183.99 132.239 183.99 132.965 183.99L135.868 182.531H136.594V183.261L132.965 184.72C133.691 184.72 133.691 184.72 132.965 184.72Z" fill="#2565D0"/>
<path d="M134.417 232.164C133.691 231.434 133.691 231.434 134.417 231.434L176.519 207.347H177.245V208.077L134.417 232.164C135.143 232.164 134.417 232.164 134.417 232.164Z" fill="#2565D0"/>
<path d="M137.321 233.623C136.595 233.623 136.595 233.623 137.321 233.623C136.595 232.893 136.595 232.893 137.321 232.893L176.52 210.266H177.245V210.996L137.321 233.623Z" fill="#2565D0"/>
<path d="M139.496 235.086C138.77 234.357 138.77 234.357 139.496 234.357L176.516 213.189H177.242V213.919L139.496 235.086Z" fill="#2565D0"/>
<path d="M141.678 236.545C140.952 235.815 140.952 235.815 141.678 235.815L175.795 216.108H176.521V216.838L141.678 236.545C142.404 236.545 142.404 236.545 141.678 236.545Z" fill="#2565D0"/>
<path d="M144.58 238.005C143.854 237.275 144.58 238.005 144.58 238.005C143.854 237.275 143.854 237.275 144.58 237.275L176.519 219.027H177.245V219.757L144.58 238.005Z" fill="#2565D0"/>
<path d="M146.756 239.463C146.756 238.734 146.756 239.463 146.756 239.463C146.03 238.734 146.03 238.734 146.756 238.734L176.518 221.215H177.244V221.945L146.756 239.463C146.756 239.463 146.756 238.734 146.756 239.463Z" fill="#2565D0"/>
<path d="M149.658 240.195C148.932 240.195 148.932 240.195 149.658 240.195C148.932 239.465 148.932 239.465 149.658 239.465L176.516 223.407H177.242V224.137L149.658 240.195Z" fill="#2565D0"/>
<path d="M151.838 241.655C151.112 240.925 151.112 240.925 151.838 240.925L176.518 226.326H177.244V227.056L151.838 241.655Z" fill="#2565D0"/>
<path d="M154.016 243.113C153.29 242.383 153.29 242.383 154.016 242.383L176.519 229.245H177.245V229.975L154.016 243.113Z" fill="#2565D0"/>
<path d="M156.918 244.573C156.193 244.573 156.193 244.573 156.918 244.573C156.193 243.843 156.193 243.843 156.918 243.843L176.518 232.164H177.243V232.894L156.918 244.573Z" fill="#2565D0"/>
<path d="M159.096 246.035C158.37 245.305 158.37 245.305 159.096 245.305L176.517 235.087H177.243V235.816L159.096 246.035Z" fill="#2565D0"/>
<path d="M161.274 247.494C160.548 246.764 160.548 246.764 161.274 246.764L175.792 238.005H176.518V238.735L161.274 247.494C162 247.494 161.274 247.494 161.274 247.494Z" fill="#2565D0"/>
<path d="M164.176 248.953C163.45 248.223 163.45 248.223 164.176 248.223L176.516 240.924H177.242V241.654L164.176 248.953Z" fill="#2565D0"/>
<path d="M166.356 250.413C165.63 249.683 165.63 249.683 166.356 249.683L176.518 243.843H177.244V244.573L166.356 250.413Z" fill="#2565D0"/>
<path d="M169.26 251.872C168.534 251.872 168.534 251.872 169.26 251.872C168.534 251.142 168.534 251.142 169.26 251.142L176.519 246.763H177.245V247.493L169.26 251.872Z" fill="#2565D0"/>
<path d="M171.435 253.335C170.709 252.605 170.709 252.605 171.435 252.605L176.516 249.685H177.242V250.415L171.435 253.335Z" fill="#2565D0"/>
<path d="M173.616 254.793C172.89 254.063 172.89 254.063 173.616 254.063L176.52 252.604H177.246V253.334L173.616 254.793Z" fill="#2565D0"/>
<path d="M32.0652 287.642C31.3393 286.912 31.3393 286.912 32.0652 286.912L74.167 262.825H74.8929V263.555L32.0652 287.642Z" fill="#2565D0"/>
<path d="M32.0652 285.452C32.0652 284.722 32.0652 285.452 32.0652 285.452C31.3393 284.722 31.3393 284.722 32.0652 284.722L71.2634 262.095H71.9893V262.825L32.0652 285.452Z" fill="#2565D0"/>
<path d="M32.0652 282.531C31.3393 281.801 31.3393 281.801 32.0652 281.801L69.0857 260.634H69.8116V261.364L32.0652 282.531Z" fill="#2565D0"/>
<path d="M32.0652 279.614C31.3393 278.884 31.3393 278.884 32.0652 278.884L66.1822 259.176H66.9081V259.906L32.0652 279.614Z" fill="#2565D0"/>
<path d="M32.0652 276.693C31.3393 275.963 31.3393 275.963 32.0652 275.963L64.0045 257.715H64.7304V258.445L32.0652 276.693Z" fill="#2565D0"/>
<path d="M32.0652 273.774C31.3393 273.044 31.3393 273.044 32.0652 273.044L61.8267 255.526H62.5527V256.256L32.0652 273.774Z" fill="#2565D0"/>
<path d="M32.0652 270.855C31.3393 270.125 31.3393 270.125 32.0652 270.125L58.9232 254.796H59.6492V255.526L32.0652 270.855Z" fill="#2565D0"/>
<path d="M32.0652 267.935C31.3393 267.205 31.3393 267.205 32.0652 267.205L56.7455 252.607H57.4715V253.337L32.0652 267.935Z" fill="#2565D0"/>
<path d="M32.0652 265.015C31.3393 265.015 32.0652 265.015 32.0652 265.015C31.3393 264.285 31.3393 264.285 32.0652 264.285L54.5678 251.146H55.2938V251.876L32.0652 265.015Z" fill="#2565D0"/>
<path d="M32.0652 262.094C31.3393 261.364 31.3393 261.364 32.0652 261.364L51.6643 249.685H52.3902V250.415L32.0652 262.094Z" fill="#2565D0"/>
<path d="M32.0652 259.906C32.0652 259.177 32.0652 259.906 32.0652 259.906C31.3393 259.177 31.3393 259.177 32.0652 259.177L49.4866 248.958H50.2125V249.688L32.0652 259.906Z" fill="#2565D0"/>
<path d="M32.0652 256.985C31.3393 256.255 31.3393 256.256 32.0652 256.256L47.3089 247.496H48.0348V248.226L32.0652 256.985Z" fill="#2565D0"/>
<path d="M32.0652 254.065C31.3393 253.335 31.3393 253.335 32.0652 253.335L44.4053 246.036H45.1313V246.766L32.0652 254.065Z" fill="#2565D0"/>
<path d="M32.0652 251.147C31.3393 250.417 31.3393 250.417 32.0652 250.417L42.2276 244.578H42.9536V245.308L32.0652 251.147Z" fill="#2565D0"/>
<path d="M32.0652 248.226C31.3393 247.496 31.3393 247.496 32.0652 247.496L39.3241 243.116H40.0499V243.846L32.0652 248.226Z" fill="#2565D0"/>
<path d="M32.0652 245.308C31.3393 244.578 31.3393 244.578 32.0652 244.578L37.1464 241.659H37.8724V242.389L32.0652 245.308Z" fill="#2565D0"/>
<path d="M32.0652 242.387C31.3393 242.387 32.0652 242.387 32.0652 242.387C31.3393 241.657 31.3393 241.657 32.0652 241.657L34.9687 240.197H35.6946V240.927L32.0652 242.387Z" fill="#2565D0"/>
<path d="M33.5198 289.832C32.7939 289.832 32.7939 289.832 33.5198 289.832C32.7939 289.102 32.7939 289.102 33.5198 289.102L75.6216 265.014H76.3474V265.744L33.5198 289.832Z" fill="#2565D0"/>
<path d="M35.6941 291.29C34.9682 290.56 34.9682 290.56 35.6941 290.56L74.8923 267.933H75.6182V268.663L35.6941 291.29Z" fill="#2565D0"/>
<path d="M37.8723 292.753C37.1464 292.024 37.1464 292.023 37.8723 292.023L74.8928 270.856H75.6188V271.586L37.8723 292.753C38.5982 292.753 38.5982 292.753 37.8723 292.753Z" fill="#2565D0"/>
<path d="M40.7781 294.212C40.0522 294.212 40.7781 294.212 40.7781 294.212C40.0522 293.482 40.0522 293.482 40.7781 293.482L74.895 273.774H75.621V274.504L40.7781 294.212Z" fill="#2565D0"/>
<path d="M42.9526 295.671C42.2267 294.941 42.2267 294.941 42.9526 294.941L74.8919 276.693H75.6178V277.423L42.9526 295.671Z" fill="#2565D0"/>
<path d="M45.8584 297.13C45.1325 297.13 45.1325 297.13 45.8584 297.13C45.1325 296.4 45.1325 296.4 45.8584 296.4L75.6201 278.882H76.3459V279.612L45.8584 297.13Z" fill="#2565D0"/>
<path d="M48.0366 298.592C47.3107 297.863 47.3107 297.863 48.0366 297.863L74.8946 281.804H75.6206V282.534L48.0366 298.592Z" fill="#2565D0"/>
<path d="M50.2148 300.051C49.4889 299.322 49.4889 299.322 50.2148 299.322L74.8952 284.723H75.6211V285.453L50.2148 300.051Z" fill="#2565D0"/>
<path d="M53.1167 301.511C52.3908 301.511 52.3908 301.511 53.1167 301.511C52.3908 300.781 52.3908 300.781 53.1167 300.781L75.6194 287.642H76.3453V288.372L53.1167 301.511Z" fill="#2565D0"/>
<path d="M55.2959 302.969C54.57 302.239 54.57 302.239 55.2959 302.239L74.895 290.561H75.6209V291.291L55.2959 302.969Z" fill="#2565D0"/>
<path d="M57.4731 304.428C56.7472 303.699 56.7472 303.699 57.4731 303.699L74.8945 293.48H75.6205V294.21L57.4731 304.428C58.199 304.428 58.199 304.428 57.4731 304.428Z" fill="#2565D0"/>
<path d="M60.3743 305.891C59.6484 305.891 60.3743 305.891 60.3743 305.891C59.6484 305.161 59.6484 305.161 60.3743 305.161L74.8921 296.402H75.6181V297.132L60.3743 305.891Z" fill="#2565D0"/>
<path d="M62.5564 307.351C61.8305 306.621 61.8305 306.621 62.5564 306.621L74.8966 299.322H75.6225V300.051L62.5564 307.351C63.2823 307.351 62.5564 307.351 62.5564 307.351Z" fill="#2565D0"/>
<path d="M65.4582 308.81C64.7323 308.81 64.7323 308.81 65.4582 308.81C64.7323 308.08 64.7323 308.08 65.4582 308.08L75.6208 302.24H76.3466V302.97L65.4582 308.81Z" fill="#2565D0"/>
<path d="M67.6328 310.268C66.9069 309.539 66.9069 309.539 67.6328 309.539L74.8917 305.159H75.6177V305.889L67.6328 310.268Z" fill="#2565D0"/>
<path d="M69.8147 311.728C69.8147 310.998 69.8147 311.728 69.8147 311.728C69.0888 310.998 69.0888 310.998 69.8147 310.998L74.8959 308.078H75.6219V308.808L69.8147 311.728C70.5406 310.998 69.8147 311.728 69.8147 311.728Z" fill="#2565D0"/>
<path d="M71.9892 313.191C71.2634 312.461 71.2634 312.461 71.9892 312.461L74.8928 311.001H75.6187V311.731L71.9892 313.191C72.7151 313.191 72.7151 313.191 71.9892 313.191Z" fill="#2565D0"/>
<path d="M285.912 251.469C285.186 250.739 285.186 250.739 285.912 250.739L328.014 226.652H328.74V227.382L285.912 251.469Z" fill="#2565D0"/>
<path d="M285.912 248.549C285.186 247.819 285.186 247.819 285.912 247.819L325.111 225.191H325.837V225.921L285.912 248.549Z" fill="#2565D0"/>
<path d="M285.912 245.63C285.186 244.9 285.186 244.9 285.912 244.9L322.933 223.733H323.659V224.463L285.912 245.63Z" fill="#2565D0"/>
<path d="M285.912 242.709C285.186 241.979 285.186 241.979 285.912 241.979L320.029 222.272H320.755V223.002L285.912 242.709Z" fill="#2565D0"/>
<path d="M285.912 240.519C285.912 239.789 285.912 240.519 285.912 240.519C285.186 239.789 285.186 239.789 285.912 239.789L317.852 221.541H318.578V222.271L285.912 240.519Z" fill="#2565D0"/>
<path d="M285.912 237.6C285.186 236.87 285.186 236.87 285.912 236.87L315.674 219.352H316.4V220.082L285.912 237.6Z" fill="#2565D0"/>
<path d="M285.912 234.68C285.186 233.95 285.186 233.95 285.912 233.95L312.77 217.891H313.496V218.621L285.912 234.68Z" fill="#2565D0"/>
<path d="M285.912 231.762C285.186 231.032 285.186 231.032 285.912 231.032L310.593 216.434H311.319V217.164L285.912 231.762Z" fill="#2565D0"/>
<path d="M285.912 228.841C285.186 228.841 285.912 228.841 285.912 228.841C285.186 228.111 285.186 228.111 285.912 228.111L308.415 214.972H309.141V215.702L285.912 228.841Z" fill="#2565D0"/>
<path d="M285.912 225.92C285.186 225.191 285.186 225.191 285.912 225.191L305.511 213.512H306.237V214.242L285.912 225.92Z" fill="#2565D0"/>
<path d="M285.912 223.003C285.186 222.273 285.186 222.273 285.912 222.273L303.334 212.054H304.06V212.784L285.912 223.003Z" fill="#2565D0"/>
<path d="M285.912 220.082C285.186 219.352 285.186 219.352 285.912 219.352L300.43 210.593H301.156V211.323L285.912 220.082Z" fill="#2565D0"/>
<path d="M285.912 217.163C285.186 216.433 285.186 216.433 285.912 216.433L298.253 209.134H298.978V209.864L285.912 217.163Z" fill="#2565D0"/>
<path d="M285.912 214.243C285.186 213.513 285.186 213.513 285.912 213.513L296.075 207.674H296.801V208.404L285.912 214.243Z" fill="#2565D0"/>
<path d="M285.912 212.053C285.186 211.323 285.186 211.323 285.912 211.323L293.171 206.943H293.897V207.673L285.912 212.053Z" fill="#2565D0"/>
<path d="M285.912 209.135C285.186 208.406 285.186 208.406 285.912 208.406L290.994 205.486H291.72V206.216L285.912 209.135Z" fill="#2565D0"/>
<path d="M285.912 206.213C285.186 206.213 285.912 206.213 285.912 206.213C285.186 205.483 285.186 205.483 285.912 205.483L288.816 204.024H289.542V204.753L285.912 206.213Z" fill="#2565D0"/>
<path d="M287.365 253.658C286.639 253.658 286.639 253.658 287.365 253.658C286.639 252.928 286.639 252.928 287.365 252.928L329.467 228.841H330.193V229.571L287.365 253.658Z" fill="#2565D0"/>
<path d="M294.625 258.038C293.899 258.038 294.625 258.038 294.625 258.038C293.899 257.309 293.899 257.309 294.625 257.309L328.742 237.601H329.468V238.331L294.625 258.038Z" fill="#2565D0"/>
<path d="M296.802 259.497C296.076 258.767 296.076 258.768 296.802 258.768L328.741 240.52H329.467V241.249L296.802 259.497Z" fill="#2565D0"/>
<path d="M298.978 260.956C298.252 260.226 298.252 260.226 298.978 260.226L328.74 242.708H329.466V243.438L298.978 260.956C299.704 260.956 299.704 260.956 298.978 260.956Z" fill="#2565D0"/>
<path d="M301.884 262.419C301.158 262.419 301.884 262.419 301.884 262.419C301.158 261.689 301.158 261.689 301.884 261.689L328.742 245.631H329.468V246.361L301.884 262.419Z" fill="#2565D0"/>
<path d="M304.06 263.879C303.334 263.149 303.334 263.149 304.06 263.149L328.74 248.55H329.466V249.28L304.06 263.879Z" fill="#2565D0"/>
<path d="M306.236 265.338C305.51 264.608 305.51 264.608 306.236 264.608L328.739 251.469H329.465V252.199L306.236 265.338C306.962 265.338 306.962 265.338 306.236 265.338Z" fill="#2565D0"/>
<path d="M309.142 266.797C309.142 266.067 309.142 266.797 309.142 266.797C308.416 266.067 308.416 266.067 309.142 266.067L328.741 254.388H329.467V255.118L309.142 266.797C309.142 266.797 309.142 266.067 309.142 266.797Z" fill="#2565D0"/>
<path d="M311.319 267.529C310.593 266.799 310.593 266.799 311.319 266.799L328.74 256.58H329.466V257.31L311.319 267.529C312.044 267.529 311.319 267.529 311.319 267.529Z" fill="#2565D0"/>
<path d="M314.225 268.987C313.499 268.987 314.225 268.987 314.225 268.987C313.499 268.257 313.499 268.257 314.225 268.257L329.469 259.498H330.195V260.228L314.225 268.987Z" fill="#2565D0"/>
<path d="M316.4 270.446C315.674 269.716 315.674 269.716 316.4 269.716L328.74 262.417H329.466V263.147L316.4 270.446Z" fill="#2565D0"/>
<path d="M318.578 271.906C317.852 271.176 317.852 271.176 318.578 271.176L328.74 265.336H329.466V266.066L318.578 271.906C319.304 271.906 319.304 271.906 318.578 271.906Z" fill="#2565D0"/>
<path d="M321.485 273.365C320.759 273.365 321.485 273.365 321.485 273.365C320.759 272.635 320.759 272.635 321.485 272.635L328.744 268.256H329.47V268.986L321.485 273.365Z" fill="#2565D0"/>
<path d="M323.66 274.828C322.934 274.098 322.934 274.098 323.66 274.098L328.741 271.178H329.467V271.908L323.66 274.828Z" fill="#2565D0"/>
<path d="M325.836 276.286C325.111 275.556 325.111 275.556 325.836 275.556L328.74 274.097H329.466V274.827L325.836 276.286C326.562 276.286 325.836 276.286 325.836 276.286Z" fill="#2565D0"/>
<path d="M82.8804 317.567C82.1545 317.567 82.8804 317.567 82.8804 317.567C82.1545 316.838 82.1545 316.838 82.8804 316.838L124.982 292.75H125.708V293.48L82.8804 317.567Z" fill="#2565D0"/>
<path d="M82.8804 314.646C82.1545 314.646 82.8804 314.646 82.8804 314.646C82.1545 313.916 82.1545 313.916 82.8804 313.916L122.079 291.289H122.805V292.019L82.8804 314.646Z" fill="#2565D0"/>
<path d="M82.8804 311.728C82.1545 311.728 82.8804 311.728 82.8804 311.728C82.1545 310.998 82.1545 310.998 82.8804 310.998L119.901 289.831H120.627V290.561L82.8804 311.728Z" fill="#2565D0"/>
<path d="M82.8804 308.807C82.1545 308.807 82.8804 308.807 82.8804 308.807C82.1545 308.078 82.1545 308.077 82.8804 308.077L116.997 288.37H117.723V289.1L82.8804 308.807Z" fill="#2565D0"/>
<path d="M82.8804 305.886C82.1545 305.886 82.8804 305.886 82.8804 305.886C82.1545 305.156 82.1545 305.156 82.8804 305.156L114.82 286.908H115.546V287.638L82.8804 305.886Z" fill="#2565D0"/>
<path d="M82.8804 302.969C82.1545 302.969 82.8804 302.969 82.8804 302.969C82.1545 302.239 82.1545 302.239 82.8804 302.239L112.642 284.721H113.368V285.451L82.8804 302.969Z" fill="#2565D0"/>
<path d="M82.8804 300.048C82.1545 300.048 82.8804 300.048 82.8804 300.048C82.1545 299.318 82.1545 299.318 82.8804 299.318L109.738 283.99H110.464V284.719L82.8804 300.048Z" fill="#2565D0"/>
<path d="M82.8804 297.129C82.1545 297.129 82.8804 297.129 82.8804 297.129C82.1545 296.4 82.1545 296.4 82.8804 296.4L107.561 281.801H108.287V282.531L82.8804 297.129Z" fill="#2565D0"/>
<path d="M82.8804 294.938C82.1545 294.938 82.1545 294.938 82.8804 294.938C82.1545 294.208 82.1545 294.208 82.8804 294.208L105.383 281.07H106.109V281.8L82.8804 294.938Z" fill="#2565D0"/>
<path d="M82.8804 292.018C82.1545 292.018 82.8804 292.018 82.8804 292.018C82.1545 291.288 82.1545 291.288 82.8804 291.288L102.479 279.609H103.205V280.339L82.8804 292.018Z" fill="#2565D0"/>
<path d="M82.8804 289.1C82.1545 289.1 82.8804 289.1 82.8804 289.1C82.1545 288.37 82.1545 288.37 82.8804 288.37L100.302 278.151H101.028V278.881L82.8804 289.1Z" fill="#2565D0"/>
<path d="M82.8804 286.179C82.1545 286.179 82.8804 286.179 82.8804 286.179C82.1545 285.449 82.1545 285.449 82.8804 285.449L97.3982 276.69H98.1241V277.42L82.8804 286.179Z" fill="#2565D0"/>
<path d="M82.8804 283.262C82.1545 282.532 82.1545 282.532 82.8804 282.532L95.2205 275.233H95.9465V275.962L82.8804 283.262Z" fill="#2565D0"/>
<path d="M82.8804 280.341C82.1545 280.341 82.8804 280.341 82.8804 280.341C82.1545 279.611 82.1545 279.611 82.8804 279.611L93.0428 273.771H93.7688V274.501L82.8804 280.341Z" fill="#2565D0"/>
<path d="M82.8804 277.419C82.1545 277.419 82.8804 277.419 82.8804 277.419C82.1545 276.69 82.1545 276.69 82.8804 276.69L90.1393 272.31H90.8651V273.04L82.8804 277.419Z" fill="#2565D0"/>
<path d="M82.8804 274.503C82.1545 273.773 82.1545 273.773 82.8804 273.773L87.9616 270.853H88.6875V271.583L82.8804 274.503Z" fill="#2565D0"/>
<path d="M82.8804 272.311C82.1545 271.581 82.1545 272.311 82.8804 272.311C82.1545 271.581 82.1545 271.581 82.8804 271.581L85.7839 270.122H86.5098V270.852L82.8804 272.311Z" fill="#2565D0"/>
<path d="M84.3345 319.756C83.6086 319.756 83.6086 319.756 84.3345 319.756C83.6086 319.026 83.6086 319.026 84.3345 319.026L126.436 294.939H127.162V295.669L84.3345 319.756Z" fill="#2565D0"/>
<path d="M86.509 321.215C85.7831 321.215 86.509 321.215 86.509 321.215C85.7831 320.485 85.7831 320.485 86.509 320.485L125.707 297.857H126.433V298.587L86.509 321.215Z" fill="#2565D0"/>
<path d="M88.6843 322.678C88.6843 321.948 88.6843 322.678 88.6843 322.678C87.9584 321.948 87.9584 321.948 88.6843 321.948L125.705 300.78H126.431V301.51L88.6843 322.678Z" fill="#2565D0"/>
<path d="M91.593 323.406C90.8671 323.406 90.8671 323.406 91.593 323.406C90.8671 322.676 90.8671 322.676 91.593 322.676L125.71 302.968H126.436V303.698L91.593 323.406Z" fill="#2565D0"/>
<path d="M93.7673 324.864C93.0414 324.134 93.0414 324.134 93.7673 324.134L125.707 305.886H126.433V306.616L93.7673 324.864Z" fill="#2565D0"/>
<path d="M95.9455 326.327C95.2196 325.597 95.2196 325.597 95.9455 325.597L125.707 308.079H126.433V308.809L95.9455 326.327C96.6714 326.327 95.9455 326.327 95.9455 326.327Z" fill="#2565D0"/>
<path d="M98.8513 327.786C98.1254 327.786 98.8513 327.786 98.8513 327.786C98.1254 327.056 98.1254 327.056 98.8513 327.056L125.709 310.998H126.435V311.728L98.8513 327.786Z" fill="#2565D0"/>
<path d="M101.028 329.245C100.302 328.515 100.302 328.515 101.028 328.515L125.708 313.917H126.434V314.647L101.028 329.245Z" fill="#2565D0"/>
<path d="M103.204 330.704C102.478 329.974 102.478 329.974 103.204 329.974L125.707 316.835H126.433V317.565L103.204 330.704C103.93 330.704 103.204 330.704 103.204 330.704Z" fill="#2565D0"/>
<path d="M106.11 332.163C105.384 332.163 106.11 332.163 106.11 332.163C105.384 331.433 105.384 331.433 106.11 331.433L125.709 319.755H126.435V320.485L106.11 332.163Z" fill="#2565D0"/>
<path d="M108.287 333.626C107.561 332.897 107.561 332.897 108.287 332.897L125.709 322.678H126.435V323.408L108.287 333.626Z" fill="#2565D0"/>
<path d="M111.189 335.085C110.464 335.085 110.464 335.085 111.189 335.085C110.464 334.355 110.464 334.355 111.189 334.355L126.433 325.596H127.159V326.326L111.189 335.085Z" fill="#2565D0"/>
<path d="M113.368 336.544C112.642 335.814 112.642 335.814 113.368 335.814L125.708 328.515H126.434V329.245L113.368 336.544Z" fill="#2565D0"/>
<path d="M115.546 338.004C114.82 337.274 114.82 337.274 115.546 337.274L125.708 331.434H126.434V332.164L115.546 338.004C116.272 338.004 115.546 338.004 115.546 338.004Z" fill="#2565D0"/>
<path d="M118.448 339.463C117.722 339.463 118.448 339.463 118.448 339.463C117.722 338.733 117.722 338.733 118.448 338.733L125.707 334.354H126.433V335.084L118.448 339.463Z" fill="#2565D0"/>
<path d="M120.63 340.925C119.904 340.196 119.904 340.196 120.63 340.196L125.711 337.276H126.437V338.006L120.63 340.925Z" fill="#2565D0"/>
<path d="M122.804 342.384C122.078 341.655 122.078 341.655 122.804 341.655L125.708 340.195H126.434V340.925L122.804 342.384Z" fill="#2565D0"/>
<path d="M188.135 83.9933C188.135 88.3728 184.505 92.0224 180.15 92.0224C175.794 92.0224 172.165 88.3728 172.165 83.9933C172.165 79.6138 175.794 75.9642 180.15 75.9642C184.505 75.2343 188.135 79.6138 188.135 83.9933Z" fill="#2565D0"/>
<path d="M238.947 173.773C238.947 178.153 235.317 181.802 230.962 181.802C226.607 181.802 222.977 178.153 222.977 173.773C222.977 169.393 226.607 165.744 230.962 165.744C235.317 165.744 238.947 169.393 238.947 173.773Z" fill="#2565D0"/>
<path d="M340.57 114.649C340.57 119.029 336.941 122.679 332.585 122.679C328.23 122.679 324.601 119.029 324.601 114.649C324.601 110.27 328.23 106.62 332.585 106.62C336.941 106.62 340.57 110.27 340.57 114.649Z" fill="#2565D0"/>
<path d="M188.135 319.757C188.135 324.137 184.505 327.786 180.15 327.786C175.794 327.786 172.165 324.137 172.165 319.757C172.165 315.378 175.794 311.728 180.15 311.728C184.505 311.728 188.135 315.378 188.135 319.757Z" fill="#2565D0"/>
<path d="M87.235 202.24C87.235 206.619 83.6056 210.269 79.2503 210.269C74.8949 210.269 71.2654 206.619 71.2654 202.24C71.2654 197.86 74.8949 194.21 79.2503 194.21C83.6056 194.21 87.235 197.86 87.235 202.24Z" fill="#2565D0"/>
<path d="M184.505 20.4905C184.505 22.6802 182.328 24.87 180.15 24.87C177.972 24.87 175.795 22.6802 175.795 20.4905C175.795 18.3007 177.972 16.111 180.15 16.111C182.328 16.111 184.505 18.3007 184.505 20.4905Z" fill="#2565D0"/>
<path d="M32.7937 114.649C32.7937 116.838 30.6161 119.028 28.4384 119.028C26.2607 119.028 24.083 116.838 24.083 114.649C24.083 112.459 26.2607 110.269 28.4384 110.269C30.6161 110.269 32.7937 112.459 32.7937 114.649Z" fill="#2565D0"/>
<path d="M133.692 291.288C133.692 293.478 131.515 295.668 129.337 295.668C127.159 295.668 124.982 293.478 124.982 291.288C124.982 289.098 127.159 286.909 129.337 286.909C132.241 286.909 133.692 289.098 133.692 291.288Z" fill="#2565D0"/>
<path d="M286.131 143.846C286.131 146.036 283.953 148.226 281.775 148.226C279.598 148.226 277.42 146.036 277.42 143.846C277.42 141.656 279.598 139.467 281.775 139.467C283.953 139.467 286.131 141.656 286.131 143.846Z" fill="#2565D0"/>
<path d="M235.317 116.107C235.317 118.297 233.139 120.487 230.961 120.487C228.784 120.487 226.606 118.297 226.606 116.107C226.606 113.917 228.784 111.728 230.961 111.728C233.139 111.728 235.317 113.188 235.317 116.107Z" fill="#2565D0"/>
<path d="M235.317 232.167C235.317 234.357 233.139 236.547 230.961 236.547C228.784 236.547 226.606 234.357 226.606 232.167C226.606 229.977 228.784 227.788 230.961 227.788C233.139 227.788 235.317 229.977 235.317 232.167Z" fill="#2565D0"/>
<path d="M235.317 289.83C235.317 292.02 233.139 294.21 230.961 294.21C228.784 294.21 226.606 292.02 226.606 289.83C226.606 287.64 228.784 285.451 230.961 285.451C233.139 285.451 235.317 287.64 235.317 289.83Z" fill="#2565D0"/>
<path d="M230.961 194.21C220.072 194.21 210.636 184.721 210.636 173.772C210.636 162.823 220.072 153.334 230.961 153.334C241.849 153.334 251.286 162.823 251.286 173.772C251.286 185.451 241.849 194.21 230.961 194.21ZM230.961 154.064C220.072 154.064 211.362 162.823 211.362 173.772C211.362 184.721 220.072 193.48 230.961 193.48C241.849 193.48 250.56 184.721 250.56 173.772C250.56 162.823 241.849 154.064 230.961 154.064Z" fill="#2565D0"/>
<path d="M180.148 29.9779C175.067 29.9779 170.711 25.5984 170.711 20.489C170.711 18.2992 171.437 15.3795 173.615 13.9197C175.067 12.4598 177.97 11 180.148 11C185.229 11 189.585 15.3795 189.585 20.489C189.585 22.6787 188.859 25.5984 186.681 27.0582C185.229 28.5181 183.052 29.9779 180.148 29.9779ZM180.148 11.7299C177.97 11.7299 175.793 12.4598 174.341 13.9197C172.889 15.3795 172.163 17.5693 172.163 19.759C172.163 24.1386 175.793 28.5181 180.874 28.5181V29.248V28.5181C183.052 28.5181 185.229 27.7881 186.681 26.3283C188.133 24.8685 188.859 22.6787 188.859 20.489C188.859 15.3795 185.229 11.7299 180.148 11.7299Z" fill="#2565D0"/>
<path d="M28.4366 124.137C23.3554 124.137 19 119.758 19 114.649C19 112.459 19.7258 109.539 21.9035 108.079C23.3553 106.619 26.259 105.16 28.4366 105.16C33.5179 105.16 37.8733 109.539 37.8733 114.649C37.8733 116.838 37.1473 119.758 34.9696 121.218C32.792 123.408 30.6143 124.137 28.4366 124.137ZM28.4366 106.619C26.259 106.619 24.0813 107.349 22.6295 108.809C21.1777 110.269 20.4518 112.459 20.4518 114.649C20.4518 119.028 24.0812 123.408 29.1625 123.408V122.678C31.3401 122.678 33.5178 121.948 34.9696 120.488C36.4214 119.028 37.1473 116.838 37.1473 114.649C36.4214 110.269 32.792 106.619 28.4366 106.619Z" fill="#2565D0"/>
<path d="M281.773 153.333C276.691 153.333 272.336 148.954 272.336 143.845C272.336 141.655 273.062 138.735 275.24 137.275C276.691 135.815 279.595 134.356 281.773 134.356C286.854 134.356 291.209 138.735 291.209 143.845C291.209 146.034 290.483 148.954 288.306 150.414C286.128 152.604 283.95 153.333 281.773 153.333ZM281.773 135.815C279.595 135.815 277.417 136.545 275.965 138.005C274.514 139.465 273.788 141.655 273.788 143.845C273.788 148.224 277.417 152.604 282.499 152.604V153.333V152.604C284.676 152.604 286.854 151.874 288.306 150.414C289.757 148.954 290.483 146.764 290.483 144.574C289.757 139.465 286.128 135.815 281.773 135.815Z" fill="#2565D0"/>
<path d="M230.961 241.655C225.88 241.655 221.525 237.276 221.525 232.166C221.525 229.976 222.251 227.057 224.428 225.597C225.88 224.137 228.784 222.677 230.961 222.677C236.043 222.677 240.398 227.057 240.398 232.166C240.398 234.356 239.672 237.276 237.494 238.735C236.043 240.925 233.139 241.655 230.961 241.655ZM230.961 224.137C228.784 224.137 226.606 224.867 225.154 226.327C223.702 227.787 222.977 229.976 222.977 232.166C222.977 236.546 226.606 240.925 231.687 240.925V241.655V240.925C233.865 240.925 236.043 240.195 237.494 238.735C238.946 237.276 239.672 235.086 239.672 232.896C239.672 227.787 235.317 224.137 230.961 224.137Z" fill="#2565D0"/>
<path d="M230.961 299.317C225.88 299.317 221.525 294.938 221.525 289.828C221.525 287.639 222.251 284.719 224.428 283.259C225.88 281.799 228.784 280.339 230.961 280.339C236.043 280.339 240.398 284.719 240.398 289.828C240.398 292.018 239.672 294.938 237.494 296.398C236.043 297.857 233.139 299.317 230.961 299.317ZM230.961 281.069C228.784 281.069 226.606 281.799 225.154 283.259C223.702 284.719 222.977 286.909 222.977 289.098C222.977 293.478 226.606 297.857 231.687 297.857V298.587V297.857C233.865 297.857 236.043 297.127 237.494 295.668C238.946 294.208 239.672 292.018 239.672 289.828C238.946 284.719 235.317 281.069 230.961 281.069Z" fill="#2565D0"/>
</svg>
