<svg width="360" height="400" viewBox="0 0 360 400" fill="none" xmlns="http://www.w3.org/2000/svg">
<path d="M13.8628 203.081L13.867 202.325C13.8712 201.569 14.6433 201.573 15.4154 201.578L182.19 202.541C182.962 202.545 183.734 202.549 183.73 203.306L266.34 345.172C266.336 345.928 266.332 346.684 266.332 346.684C266.327 347.44 265.555 347.436 264.783 347.431L98.009 346.468C97.2368 346.464 96.4648 346.46 96.4689 345.703L14.6308 203.841L13.8628 203.081ZM181.401 205.56L18.4872 204.62L98.7977 343.449L261.711 344.389L181.401 205.56Z" fill="#2565D0"/>
<g opacity="0.4">
<path d="M21.5184 213.709L27.7584 202.402L28.5305 202.407L28.5263 203.163L22.2864 214.469C22.2864 214.469 22.2863 214.469 21.5184 213.709C21.5142 214.465 21.5184 213.709 21.5184 213.709Z" fill="#2565D0"/>
<path d="M25.3414 220.538L35.4756 203.204L36.2478 203.208L36.2437 203.965L26.1094 221.299C26.8816 221.303 26.1094 221.299 25.3414 220.538C25.3372 221.294 26.1094 221.299 25.3414 220.538Z" fill="#2565D0"/>
<path d="M29.932 228.126L44.7412 203.257L45.5134 203.261L45.5093 204.018L30.7001 228.887C30.7001 228.887 30.7001 228.887 29.932 228.126Z" fill="#2565D0"/>
<path d="M33.7546 234.952L52.4619 203.3L53.2341 203.304L53.23 204.06L34.5226 235.713C34.5226 235.713 34.5227 235.713 33.7546 234.952C33.7505 235.708 33.7505 235.708 33.7546 234.952Z" fill="#2565D0"/>
<path d="M38.3533 241.775L61.7349 202.589L62.5071 202.593L62.5029 203.349L39.1255 241.779C39.1214 242.536 38.3492 242.531 38.3533 241.775C38.3492 242.531 38.3492 242.531 38.3533 241.775Z" fill="#2565D0"/>
<path d="M41.4065 250.12C42.1828 249.368 41.4065 250.12 41.4065 250.12L69.4627 203.399L70.2349 203.403L70.2307 204.16L42.1745 250.881C42.9509 250.129 42.1745 250.881 41.4065 250.12C41.4065 250.12 42.1787 250.125 41.4065 250.12Z" fill="#2565D0"/>
<path d="M45.9899 256.196L77.9451 202.691L78.7173 202.695L78.7131 203.451L46.758 256.956C46.758 256.956 46.758 256.956 45.9899 256.196C45.9858 256.952 45.9858 256.952 45.9899 256.196Z" fill="#2565D0"/>
<path d="M50.5816 263.775C50.5858 263.018 50.5858 263.018 50.5816 263.775L86.4351 203.486L87.2073 203.491L87.2031 204.247L51.3497 264.535C51.3538 263.779 51.3538 263.779 50.5816 263.775Z" fill="#2565D0"/>
<path d="M54.3929 270.602L94.1448 203.531L94.917 203.535L94.9128 204.291L55.1651 270.607C55.161 271.363 55.161 271.363 54.3929 270.602Z" fill="#2565D0"/>
<path d="M58.9992 277.443L102.645 204.345L103.417 204.349L103.413 205.105L59.7672 278.204C59.7672 278.204 58.995 278.199 58.9992 277.443C58.995 278.199 58.9992 277.443 58.9992 277.443Z" fill="#2565D0"/>
<path d="M62.8209 285.026C62.825 284.27 62.8209 285.026 62.8209 285.026L111.146 203.636L111.918 203.641L111.914 204.397L63.5931 285.03C63.5931 285.03 63.5889 285.787 62.8209 285.026Z" fill="#2565D0"/>
<path d="M66.6256 291.844L119.621 203.675L120.393 203.68L120.389 204.436L67.3936 292.604C68.1658 292.609 67.3937 292.604 66.6256 291.844C67.3937 292.604 66.6256 291.844 66.6256 291.844Z" fill="#2565D0"/>
<path d="M71.2269 298.685L128.125 202.977L128.897 202.981L128.893 203.738L71.9991 298.689C71.9949 299.446 71.9949 299.446 71.2269 298.685C71.2227 299.441 71.2227 299.441 71.2269 298.685Z" fill="#2565D0"/>
<path d="M75.0457 306.269L135.842 203.778L136.615 203.782L136.61 204.538L75.818 306.273C75.8138 307.03 75.8138 307.03 75.0457 306.269Z" fill="#2565D0"/>
<path d="M79.6556 313.101L145.123 203.831L145.895 203.836L145.891 204.592L80.4236 313.862C80.4236 313.862 79.6514 313.857 79.6556 313.101C79.6514 313.857 79.6556 313.101 79.6556 313.101Z" fill="#2565D0"/>
<path d="M83.4631 319.919L152.833 203.109L153.605 203.114L153.601 203.87L84.2353 319.923C84.2312 320.679 84.2312 320.679 83.4631 319.919C83.459 320.675 83.459 320.675 83.4631 319.919Z" fill="#2565D0"/>
<path d="M87.2782 327.512L161.318 203.924L162.091 203.928L162.086 204.684L88.0463 328.272C88.0463 328.272 88.0463 328.272 87.2782 327.512C87.2741 328.268 87.2782 327.512 87.2782 327.512Z" fill="#2565D0"/>
<path d="M91.8769 334.344L169.815 203.972L170.588 203.977L170.583 204.733L92.645 335.104C92.645 335.104 92.645 335.104 91.8769 334.344C91.8728 335.1 91.8728 335.1 91.8769 334.344Z" fill="#2565D0"/>
<path d="M94.9186 342.669C95.6908 342.674 94.9186 342.669 94.9186 342.669L178.308 204.011L179.08 204.016L179.076 204.772L96.463 342.678C96.4588 343.434 95.6866 343.43 94.9186 342.669C94.9186 342.669 95.6908 342.674 94.9186 342.669Z" fill="#2565D0"/>
<path d="M101.853 344.987L184.47 206.325L185.242 206.329L185.238 207.085L102.621 345.748C102.621 345.748 102.621 345.748 101.853 344.987C101.849 345.743 101.849 345.743 101.853 344.987Z" fill="#2565D0"/>
<path d="M110.344 345.035L188.283 214.663L189.055 214.668L189.051 215.424L111.112 345.795C111.112 345.795 111.112 345.795 110.344 345.035C110.34 345.791 110.34 345.791 110.344 345.035Z" fill="#2565D0"/>
<path d="M118.838 345.083L192.878 221.495L193.65 221.5L193.646 222.256L119.606 345.844C119.606 345.844 119.606 345.844 118.838 345.083C118.834 345.84 118.834 345.84 118.838 345.083Z" fill="#2565D0"/>
<path d="M127.328 345.122L196.698 228.313L197.47 228.317L197.466 229.073L128.1 345.126C128.096 345.882 128.096 345.882 127.328 345.122C127.324 345.878 127.324 345.878 127.328 345.122Z" fill="#2565D0"/>
<path d="M135.837 345.18L200.532 235.905L201.304 235.91L201.3 236.666L136.609 345.184C136.605 345.94 135.833 345.936 135.837 345.18C135.833 345.936 135.833 345.936 135.837 345.18Z" fill="#2565D0"/>
<path d="M143.544 345.227L204.34 242.735L205.113 242.74L205.108 243.496L144.312 345.987C145.084 345.992 144.312 345.987 143.544 345.227C143.54 345.983 143.54 345.983 143.544 345.227Z" fill="#2565D0"/>
<path d="M152.038 345.273L208.932 250.321L209.704 250.326L209.7 251.082L152.806 346.034C152.806 346.034 152.806 346.034 152.038 345.273C152.034 346.029 152.034 346.029 152.038 345.273Z" fill="#2565D0"/>
<path d="M160.521 345.312L213.517 257.143L214.289 257.148L214.285 257.904L162.062 346.077C161.289 346.073 161.289 346.073 160.521 345.312C160.517 346.068 160.517 346.068 160.521 345.312Z" fill="#2565D0"/>
<path d="M169.025 345.371L217.35 263.981L218.123 263.986L218.118 264.742L169.793 346.131C169.793 346.131 169.021 346.127 169.025 345.371C169.021 346.127 169.021 346.127 169.025 345.371Z" fill="#2565D0"/>
<path d="M177.52 345.419L221.942 271.569L222.715 271.573L222.71 272.329L178.288 346.18C178.288 346.18 178.288 346.18 177.52 345.419C177.516 346.175 177.52 345.419 177.52 345.419Z" fill="#2565D0"/>
<path d="M185.996 345.457L225.748 278.385L226.52 278.389L226.516 279.146L186.768 345.461C186.764 346.217 185.992 346.213 185.996 345.457C185.992 346.213 185.996 345.457 185.996 345.457Z" fill="#2565D0"/>
<path d="M193.725 345.503L229.574 285.971L230.347 285.975L230.343 286.732L194.493 346.264C195.266 346.268 194.493 346.264 193.725 345.503C194.493 346.264 193.725 345.503 193.725 345.503Z" fill="#2565D0"/>
<path d="M202.221 345.561L234.177 292.056L234.949 292.061L234.945 292.817L202.994 345.566C202.99 346.322 202.99 346.322 202.221 345.561C202.217 346.318 202.221 345.561 202.221 345.561Z" fill="#2565D0"/>
<path d="M210.727 345.609L238.007 299.639L238.779 299.644L238.775 300.4L211.499 345.613C211.495 346.369 211.495 346.369 210.727 345.609C210.723 346.365 210.727 345.609 210.727 345.609Z" fill="#2565D0"/>
<path d="M219.208 345.647L242.585 307.217L243.357 307.221L243.353 307.978L220.748 346.412C219.976 346.408 219.976 346.408 219.208 345.647C219.203 346.403 219.208 345.647 219.208 345.647Z" fill="#2565D0"/>
<path d="M226.927 345.699L245.639 313.291L246.411 313.296L246.407 314.052L227.7 345.704C228.468 346.465 227.695 346.46 226.927 345.699C226.923 346.456 226.923 346.456 226.927 345.699Z" fill="#2565D0"/>
<path d="M235.418 345.75C236.19 345.755 235.418 345.75 235.418 345.75L250.227 320.881L250.999 320.886L250.995 321.642L236.19 345.755C236.958 346.515 236.186 346.511 235.418 345.75C236.186 346.511 235.418 345.75 235.418 345.75Z" fill="#2565D0"/>
<path d="M244.695 345.804C244.7 345.048 244.7 345.048 244.695 345.804L254.83 328.47L255.602 328.474L255.598 329.23L245.464 346.565C245.468 345.809 244.695 345.804 244.695 345.804Z" fill="#2565D0"/>
<path d="M252.403 345.847L258.638 335.297L259.411 335.301L259.406 336.057L253.171 346.607C253.171 346.607 253.171 346.607 252.403 345.847C252.399 346.603 252.403 345.847 252.403 345.847Z" fill="#2565D0"/>
</g>
<path d="M13.8805 203.049L13.8847 202.293L98.8207 61.3936C98.8249 60.6376 99.597 60.642 100.369 60.6465L267.143 61.6094C267.915 61.6139 268.688 61.6183 268.683 62.3744C268.679 63.1305 268.675 63.8865 268.675 63.8865L184.511 204.79C184.507 205.546 183.735 205.542 182.963 205.537L16.1885 204.574C15.4164 204.57 14.6443 204.565 14.6485 203.809C13.8764 203.805 13.8805 203.049 13.8805 203.049ZM101.125 63.6752L19.2935 201.568L182.207 202.508L264.038 64.6158L101.125 63.6752Z" fill="#2565D0"/>
<path d="M104.974 203.594L143.943 138.028C143.943 138.028 143.943 138.028 144.716 138.033L221.925 138.474L222.697 138.478L260.936 204.486L260.932 205.242L221.963 270.808C221.963 270.808 221.963 270.808 221.19 270.804L143.981 270.362L143.209 270.358L104.974 203.594ZM144.711 138.789L105.746 203.598L143.99 268.85L221.199 269.291L260.164 204.481L221.92 139.23L144.711 138.789Z" fill="#2565D0"/>
<path d="M35.4768 203.195L35.481 202.439L108.746 78.842C109.518 78.8464 110.294 78.0946 110.294 78.0946L256.219 78.9291C256.991 78.9335 257.763 78.9379 257.759 79.694L329.652 203.365C329.648 204.121 329.644 204.877 329.644 204.877L256.379 328.473C256.375 329.23 255.603 329.225 254.831 329.221L108.905 328.386C108.133 328.382 107.361 328.378 107.365 327.621L35.4726 203.951L35.4768 203.195ZM111.817 81.8843L39.3372 203.217L110.466 325.371L254.075 326.192L326.555 204.859L255.426 82.7055L111.817 81.8843Z" fill="#2565D0"/>
<path d="M325.58 217.155C318.631 217.115 313.255 211.791 313.293 204.985C313.331 198.179 318.765 192.917 325.714 192.956C332.663 192.996 338.039 198.32 338.001 205.126C337.963 211.932 331.757 217.19 325.58 217.155Z" fill="#2565D0"/>
<path d="M182.096 213.731C176.571 213.699 172.297 209.466 172.327 204.056C172.357 198.645 176.678 194.461 182.202 194.493C187.727 194.524 192.001 198.757 191.971 204.168C191.327 209.575 187.006 213.759 182.096 213.731Z" fill="#2565D0"/>
<path d="M16.1135 215.195C9.16449 215.155 3.78905 209.831 3.82681 203.025C3.86457 196.22 9.29875 190.957 16.2478 190.997C23.1968 191.037 28.5722 196.361 28.5344 203.167C27.7246 209.968 22.2904 215.23 16.1135 215.195Z" fill="#2565D0"/>
<path d="M266.166 350.723C263.312 350.707 261.104 348.519 261.119 345.724C261.135 342.928 263.367 340.766 266.222 340.782C269.076 340.799 271.285 342.986 271.269 345.782C271.254 348.577 269.021 350.739 266.166 350.723Z" fill="#2565D0"/>
<path d="M221.916 276.093C218.055 276.07 215.756 273.033 215.773 270.008C215.794 266.227 218.895 263.977 221.983 263.994C225.843 264.016 228.142 267.054 228.126 270.079C228.877 273.864 225.776 276.115 221.916 276.093Z" fill="#2565D0"/>
<path d="M143.181 275.656C139.32 275.634 137.021 272.596 137.038 269.571C137.059 265.79 140.159 263.54 143.248 263.557C147.108 263.579 149.407 266.617 149.391 269.642C150.142 273.427 147.041 275.678 143.181 275.656Z" fill="#2565D0"/>
<path d="M98.7508 351.031C94.8905 351.009 92.5911 347.971 92.6079 344.946C92.6288 341.166 95.7297 338.915 98.8179 338.933C102.678 338.955 104.978 341.992 104.961 345.017C104.94 348.798 101.839 351.048 98.7508 351.031Z" fill="#2565D0"/>
<path d="M100.335 68.2022C96.4744 68.1801 94.175 65.1423 94.1918 62.1178C94.2128 58.3371 97.3136 56.0863 100.402 56.104C104.262 56.126 106.562 59.1638 106.545 62.1884C106.524 65.9691 103.423 68.2199 100.335 68.2022Z" fill="#2565D0"/>
<path d="M267.096 69.1464C263.235 69.1243 260.936 66.0865 260.953 63.062C260.974 59.2813 264.075 57.0305 267.163 57.0482C270.251 57.0658 273.323 60.108 273.306 63.1326C273.289 66.1572 270.184 69.1641 267.096 69.1464Z" fill="#2565D0"/>
<path d="M295.546 204.884C295.639 188.248 309.608 175.472 325.822 175.565C342.808 175.662 355.858 189.348 355.77 205.228C355.678 221.864 341.709 234.639 325.495 234.547C308.508 234.45 295.458 220.763 295.546 204.884ZM354.226 205.219C354.314 189.34 341.26 176.409 325.046 176.317C308.832 176.224 295.635 189.004 295.546 204.884C295.458 220.763 308.513 233.693 324.727 233.786C341.713 233.883 354.138 221.099 354.226 205.219Z" fill="#2565D0"/>
<path d="M160.502 204.41C160.571 192.041 170.957 182.542 183.012 182.611C195.642 182.683 205.345 192.859 205.279 204.666C205.211 217.035 194.824 226.534 182.769 226.465C170.139 226.392 160.437 216.217 160.502 204.41ZM204.131 204.659C204.197 192.852 194.49 183.239 182.435 183.17C170.38 183.101 160.568 192.603 160.502 204.41C160.437 216.217 170.143 225.83 182.198 225.899C194.827 225.971 204.066 216.466 204.131 204.659Z" fill="#2565D0"/>
<path d="M86.457 62.0745C86.499 54.5128 92.7093 48.4986 100.43 48.5428C108.151 48.5869 114.295 54.6717 114.253 62.2335C114.211 69.7953 108 75.8094 100.279 75.7652C92.5583 75.7211 86.4151 69.6363 86.457 62.0745ZM112.708 62.2247C112.746 55.419 107.371 50.0949 100.422 50.0552C93.473 50.0154 87.2669 55.2734 87.2291 62.079C87.1913 68.8846 92.5667 74.2087 99.5156 74.2485C107.237 74.2926 112.671 69.0303 112.708 62.2247Z" fill="#2565D0"/>
</svg>
