<svg width="360" height="400" viewBox="0 0 360 400" fill="none" xmlns="http://www.w3.org/2000/svg">
<path d="M294.824 303.3C294.824 303.034 294.824 303.034 295.089 303.034V302.768V302.502V302.236V301.971V301.705L266.463 252.233H323.185C323.45 252.233 323.715 252.233 323.98 251.967C323.98 251.967 324.245 251.967 324.245 251.701C324.51 251.435 324.51 251.435 324.775 251.169L353.402 201.165V200.899V200.633V200.367V200.101V199.835V199.569L324.775 149.565C324.775 149.565 324.775 149.565 324.51 149.299L324.245 149.033L323.98 148.767C323.98 148.767 323.715 148.767 323.715 148.501C323.45 148.501 323.45 148.501 323.185 148.501H322.92H266.463L294.824 99.2951V99.0291V98.7631V98.4972V98.2312V97.9652V97.6992L266.198 47.6953C266.198 47.6953 266.198 47.6953 265.933 47.4293L265.668 47.1633L265.402 46.8973C265.402 46.8973 265.137 46.8974 265.137 46.6314C264.872 46.6314 264.872 46.6314 264.607 46.6314H264.342H206.825H206.56H206.295H206.03C206.03 46.6314 205.765 46.6313 205.765 46.8973C205.765 46.8973 205.765 46.8973 205.5 47.1633C205.5 47.1633 205.5 47.1633 205.235 47.4293L176.873 96.6353L148.512 47.4293C148.512 47.4293 148.512 47.4293 148.247 47.1633L147.982 46.8973L147.717 46.6314C147.717 46.6314 147.452 46.6314 147.452 46.3654C147.452 46.3654 147.187 46.3654 146.922 46.3654H146.657H89.1392H88.8742H88.6093H88.3441C88.3441 46.3654 88.0791 46.3654 88.0791 46.6314C88.0791 46.6314 87.8139 46.6313 87.8139 46.8973C87.8139 46.8973 87.814 46.8973 87.549 47.1633L58.9228 97.1673V97.4332V97.6992V97.9652V98.2312C58.9228 98.4972 58.9228 98.4972 58.9228 98.4972V98.7631L87.284 147.969H30.5616H30.2966H30.0314H29.7665C29.7665 147.969 29.5013 147.969 29.5013 148.235C29.5013 148.235 29.5014 148.235 29.2363 148.501C29.2363 148.501 29.2364 148.501 28.9713 148.767L0.344971 198.771V199.037V199.303V199.569V199.835C0.344971 200.101 0.344971 200.101 0.344971 200.101V200.367L28.9713 250.371C28.9713 250.371 28.9712 250.637 29.2363 250.637L29.5013 250.903C29.5013 250.903 29.5014 250.903 29.7665 251.169C30.0315 251.435 30.2965 251.435 30.5616 251.435H87.284L59.1878 301.439V301.705V301.971V302.236V302.502C59.1878 302.768 59.1878 302.768 59.1878 302.768V303.034L87.8139 353.038C87.8139 353.038 87.814 353.304 88.0791 353.304L88.3441 353.57C88.3441 353.57 88.3442 353.57 88.6093 353.836C88.8743 354.102 89.1393 354.102 89.4044 354.102H146.922C147.187 354.102 147.452 354.102 147.717 353.836C147.717 353.836 147.982 353.836 147.982 353.57C148.247 353.304 148.247 353.304 148.512 353.038L176.873 303.832L205.235 353.038C205.235 353.038 205.234 353.304 205.5 353.304L205.765 353.57C205.765 353.57 205.765 353.57 206.03 353.836C206.295 354.102 206.56 354.102 206.825 354.102H264.342C264.607 354.102 264.872 354.102 265.137 353.836C265.137 353.836 265.402 353.836 265.402 353.57C265.668 353.304 265.668 353.304 265.933 353.038L294.824 303.3ZM263.282 350.379H210.536L237.041 304.364H289.788L263.282 350.379ZM145.862 350.379H93.1151L149.572 252.233H202.319L145.862 350.379ZM34.2725 248.243L60.7782 202.229H173.693L147.187 248.243H34.2725ZM30.8266 154.353L57.3323 200.367L30.8266 246.381L4.32083 200.367L30.8266 154.353ZM63.1636 98.2312L89.6694 52.2169L146.127 150.363L119.621 196.377L63.1636 98.2312ZM207.09 52.2169L233.596 98.2312L177.138 196.377L150.633 150.363L207.09 52.2169ZM263.282 50.0891L289.788 96.1033H237.041L210.536 50.0891H263.282ZM322.125 152.491L348.631 198.505H235.716L209.21 152.491H322.125ZM205.765 154.353L230.945 198.239H180.319L205.765 154.353ZM173.693 198.239H123.067L148.247 154.353L173.693 198.239ZM177.138 204.356L202.319 248.243H151.693L177.138 204.356ZM180.584 202.229H233.331L289.788 300.375H237.041L180.584 202.229ZM237.837 202.229H348.631L322.125 248.243H264.342L237.837 202.229ZM209.21 148.501L237.041 100.359H289.788L261.957 148.501H209.21ZM148.247 146.373L92.8501 50.0891H145.597L174.488 100.359L148.247 146.373ZM116.175 198.239H60.5131L34.0073 152.225H89.6694L116.175 198.239ZM144.801 252.233L89.4044 348.517L62.8986 302.502L91.7898 252.233H144.801ZM205.765 254.094L233.596 302.236L207.09 348.251L179.259 299.843L205.765 254.094Z" fill="#2565D0"/>
<path d="M264.643 147.569L234.684 200.541" stroke="#2565D0" stroke-width="0.868392"/>
<path d="M204.115 151.277L177.168 102.711L179.362 99.2643L206.621 147.517L204.115 151.277Z" stroke="#2565D0" stroke-width="1.59926" stroke-dasharray="1.6 1.6"/>
<path d="M87.8693 251.275L117.322 201.41L121.082 201.41L91.9426 251.275L87.8693 251.275Z" stroke="#2565D0" stroke-width="1.59926" stroke-dasharray="1.6 1.6"/>
<path d="M91.8322 56.822L66.2146 101.544" stroke="#2565D0" stroke-width="0.868392"/>
<path d="M94.4369 61.1639L68.8193 105.886" stroke="#2565D0" stroke-width="0.868392"/>
<path d="M97.0426 65.506L71.425 110.228" stroke="#2565D0" stroke-width="0.868392"/>
<path d="M99.6474 69.8478L74.0298 114.57" stroke="#2565D0" stroke-width="0.868392"/>
<path d="M102.253 74.1899L76.6355 118.912" stroke="#2565D0" stroke-width="0.868392"/>
<path d="M104.858 78.5317L79.2402 123.254" stroke="#2565D0" stroke-width="0.868392"/>
<path d="M107.463 82.8738L81.8457 127.596" stroke="#2565D0" stroke-width="0.868392"/>
<path d="M110.068 87.2157L84.4507 131.938" stroke="#2565D0" stroke-width="0.868392"/>
<path d="M112.674 91.5577L87.0562 136.28" stroke="#2565D0" stroke-width="0.868392"/>
<path d="M115.278 95.8996L89.6609 140.622" stroke="#2565D0" stroke-width="0.868392"/>
<path d="M117.884 100.242L92.2666 144.964" stroke="#2565D0" stroke-width="0.868392"/>
<path d="M120.489 104.584L94.8713 149.306" stroke="#2565D0" stroke-width="0.868392"/>
<path d="M123.095 108.926L97.4771 153.648" stroke="#2565D0" stroke-width="0.868392"/>
<path d="M125.699 113.267L100.082 157.99" stroke="#2565D0" stroke-width="0.868392"/>
<path d="M128.305 117.609L102.687 162.332" stroke="#2565D0" stroke-width="0.868392"/>
<path d="M130.91 121.951L105.292 166.674" stroke="#2565D0" stroke-width="0.868392"/>
<path d="M133.515 126.293L107.898 171.016" stroke="#2565D0" stroke-width="0.868392"/>
<path d="M136.12 130.635L110.503 175.358" stroke="#2565D0" stroke-width="0.868392"/>
<path d="M138.726 134.977L113.108 179.7" stroke="#2565D0" stroke-width="0.868392"/>
<path d="M141.33 139.319L115.713 184.041" stroke="#2565D0" stroke-width="0.868392"/>
<path d="M143.935 143.661L118.318 188.384" stroke="#2565D0" stroke-width="0.868392"/>
<path d="M146.541 148.003L120.923 192.725" stroke="#2565D0" stroke-width="0.868392"/>
<path d="M184.317 205.751H233.815" stroke="#2565D0" stroke-width="0.868392"/>
<path d="M186.054 208.79H235.552" stroke="#2565D0" stroke-width="0.868392"/>
<path d="M187.79 211.83H237.288" stroke="#2565D0" stroke-width="0.868392"/>
<path d="M189.527 214.869H239.025" stroke="#2565D0" stroke-width="0.868392"/>
<path d="M191.264 217.909H240.763" stroke="#2565D0" stroke-width="0.868392"/>
<path d="M193 220.948H242.499" stroke="#2565D0" stroke-width="0.868392"/>
<path d="M194.738 223.987H244.236" stroke="#2565D0" stroke-width="0.868392"/>
<path d="M196.474 227.027H245.973" stroke="#2565D0" stroke-width="0.868392"/>
<path d="M198.211 230.066H247.709" stroke="#2565D0" stroke-width="0.868392"/>
<path d="M199.948 233.106H249.446" stroke="#2565D0" stroke-width="0.868392"/>
<path d="M201.684 236.145H251.182" stroke="#2565D0" stroke-width="0.868392"/>
<path d="M203.421 239.184H252.92" stroke="#2565D0" stroke-width="0.868392"/>
<path d="M205.158 242.224H254.657" stroke="#2565D0" stroke-width="0.868392"/>
<path d="M206.895 245.263H256.393" stroke="#2565D0" stroke-width="0.868392"/>
<path d="M208.632 248.302H258.13" stroke="#2565D0" stroke-width="0.868392"/>
<path d="M210.369 251.342H259.867" stroke="#2565D0" stroke-width="0.868392"/>
<path d="M212.105 254.381H261.603" stroke="#2565D0" stroke-width="0.868392"/>
<path d="M213.842 257.421H263.34" stroke="#2565D0" stroke-width="0.868392"/>
<path d="M215.579 260.46H265.077" stroke="#2565D0" stroke-width="0.868392"/>
<path d="M217.315 263.499H266.814" stroke="#2565D0" stroke-width="0.868392"/>
<path d="M219.052 266.539H268.551" stroke="#2565D0" stroke-width="0.868392"/>
<path d="M220.789 269.578H270.288" stroke="#2565D0" stroke-width="0.868392"/>
<path d="M222.526 272.617H272.024" stroke="#2565D0" stroke-width="0.868392"/>
<path d="M224.263 275.657H273.761" stroke="#2565D0" stroke-width="0.868392"/>
<path d="M226 278.696H275.498" stroke="#2565D0" stroke-width="0.868392"/>
<path d="M227.736 281.736H277.234" stroke="#2565D0" stroke-width="0.868392"/>
<path d="M229.473 284.775H278.972" stroke="#2565D0" stroke-width="0.868392"/>
<path d="M231.209 287.814H280.708" stroke="#2565D0" stroke-width="0.868392"/>
<path d="M232.947 290.854H282.445" stroke="#2565D0" stroke-width="0.868392"/>
<path d="M234.684 293.893H284.182" stroke="#2565D0" stroke-width="0.868392"/>
<path d="M236.42 296.932H285.918" stroke="#2565D0" stroke-width="0.868392"/>
<path d="M238.157 299.972H287.655" stroke="#2565D0" stroke-width="0.868392"/>
<path d="M177.369 301.709L149.146 251.342" stroke="#2565D0" stroke-width="0.868392"/>
<path d="M237.289 203.146L323.259 249.605" stroke="#2565D0" stroke-width="0.868392"/>
<path d="M90.9645 250.039L89.6619 351.207" stroke="#2565D0" stroke-width="0.868392"/>
<path d="M146.107 48.1381L148.278 147.135" stroke="#2565D0" stroke-width="0.868392"/>
<path d="M7.16406 201.844L31.9132 158.858" stroke="#2565D0" stroke-width="0.868392"/>
<path d="M8.90112 204.883L33.6503 161.897" stroke="#2565D0" stroke-width="0.868392"/>
<path d="M10.6375 207.922L35.3866 164.937" stroke="#2565D0" stroke-width="0.868392"/>
<path d="M12.3745 210.962L37.1237 167.976" stroke="#2565D0" stroke-width="0.868392"/>
<path d="M14.1116 214.001L38.8608 171.016" stroke="#2565D0" stroke-width="0.868392"/>
<path d="M15.8479 217.04L40.5971 174.055" stroke="#2565D0" stroke-width="0.868392"/>
<path d="M17.585 220.08L42.3341 177.094" stroke="#2565D0" stroke-width="0.868392"/>
<path d="M19.3218 223.119L44.071 180.134" stroke="#2565D0" stroke-width="0.868392"/>
<path d="M21.0581 226.159L45.8073 183.173" stroke="#2565D0" stroke-width="0.868392"/>
<path d="M22.7952 229.198L47.5443 186.212" stroke="#2565D0" stroke-width="0.868392"/>
<path d="M24.5315 232.237L49.2807 189.252" stroke="#2565D0" stroke-width="0.868392"/>
<path d="M26.2686 235.277L51.0177 192.291" stroke="#2565D0" stroke-width="0.868392"/>
<path d="M28.0056 238.316L52.7548 195.331" stroke="#2565D0" stroke-width="0.868392"/>
<path d="M29.7419 241.355L54.4911 198.37" stroke="#2565D0" stroke-width="0.868392"/>
<path d="M31.479 244.395L56.2282 201.409" stroke="#2565D0" stroke-width="0.868392"/>
<circle cx="90.5302" cy="351.207" r="5.21035" fill="#2565D0"/>
<path d="M189.577 199.535C189.577 206.598 184.054 212.091 176.953 212.091C169.852 212.091 164.329 206.598 164.329 199.535C164.329 192.472 169.852 186.979 176.953 186.979C184.054 187.763 189.577 193.257 189.577 199.535Z" fill="#2565D0"/>
<path d="M177.747 230.925C160.389 230.925 146.976 216.799 146.976 200.319C146.976 183.054 161.178 169.713 177.747 169.713C195.105 169.713 208.517 183.839 208.517 200.319C208.517 216.799 194.316 230.925 177.747 230.925ZM177.747 170.498C161.178 170.498 147.765 183.839 147.765 200.319C147.765 216.799 161.178 230.14 177.747 230.14C194.316 230.14 207.728 216.799 207.728 200.319C206.939 183.839 194.316 170.498 177.747 170.498Z" fill="#2565D0"/>
<circle cx="90.5302" cy="251.342" r="5.21035" fill="#2565D0"/>
<circle cx="263.34" cy="150.608" r="5.21035" fill="#2565D0"/>
<circle cx="320.654" cy="248.737" r="5.21035" fill="#2565D0"/>
<circle cx="146.108" cy="48.138" r="5.21035" fill="#2565D0"/>
</svg>
