<svg width="360" height="400" viewBox="0 0 360 400" fill="none" xmlns="http://www.w3.org/2000/svg">
<g clip-path="url(#clip0_1959_5520)">
<path d="M180.773 60.5097C180.106 60.5075 180.773 60.5097 180.773 60.5097L61.0634 129.604C60.3937 130.27 60.3915 130.938 60.3892 131.606C61.0545 132.277 61.7219 132.279 62.3894 132.281L180.762 63.851L298.007 132.41L297.549 268.734C297.547 269.402 298.212 270.073 298.88 270.075C299.547 270.077 300.217 269.411 300.219 268.743L300.681 131.083C300.684 130.415 300.684 130.415 300.018 129.744L180.773 60.5097C181.441 60.512 180.773 60.5097 180.773 60.5097Z" fill="#2565D0"/>
<path d="M61.2591 266.597C60.5916 266.595 60.5916 266.595 59.9219 267.261C59.2522 267.927 59.9175 268.597 60.5849 268.6L179.162 337.831C179.828 338.502 180.497 337.836 181.167 337.17C181.169 336.502 181.171 335.833 180.506 335.163L61.2591 266.597C61.9266 266.599 61.2591 266.597 61.2591 266.597Z" fill="#2565D0"/>
<path d="M180.799 53.8219L55.0697 126.237C55.0697 126.237 55.0697 126.237 55.0675 126.905L54.5828 271.249C54.5828 271.249 54.5806 271.917 55.248 271.92C55.248 271.92 55.9155 271.922 55.9178 271.254L56.4047 126.242L182.134 53.8264C181.464 54.4924 181.464 54.4924 180.799 53.8219C181.467 53.8241 180.799 53.8219 180.799 53.8219Z" fill="#2565D0"/>
<path d="M306.038 127.086C305.371 127.084 306.038 127.086 306.038 127.086L304.884 272.095L179.822 344.513L179.82 345.181L180.487 345.184L306.217 272.768C306.217 272.768 306.217 272.768 306.219 272.1L306.038 127.086C306.706 127.088 306.038 127.086 306.038 127.086Z" fill="#2565D0"/>
<path d="M61.5891 128.622C60.937 128.62 60.937 128.62 60.2827 129.298C59.6284 129.976 60.2782 130.659 60.9279 131.342L176.751 201.822C177.4 202.505 178.055 201.826 178.709 201.148C178.711 200.468 178.714 199.787 178.064 199.104L61.5891 128.622C62.2411 128.624 61.5891 128.622 61.5891 128.622Z" fill="#2565D0"/>
<path d="M299.344 129.736L179.637 198.161C178.967 198.827 178.965 199.495 178.963 200.164C179.628 200.834 180.296 200.836 180.963 200.839L300.003 132.411C300.672 131.745 300.675 131.077 300.677 130.409C300.677 130.409 300.012 129.738 299.344 129.736Z" fill="#2565D0"/>
<path d="M180.311 198.836L61.2713 267.264L61.269 267.932L61.9365 267.934L180.976 199.507C180.976 199.507 180.976 199.507 180.311 198.836C180.978 198.838 180.311 198.836 180.311 198.836Z" fill="#2565D0"/>
<path d="M180.297 198.834C179.627 199.5 179.627 199.5 180.294 199.503L298.872 268.734L299.539 268.737L299.542 268.068L180.297 198.834Z" fill="#2565D0"/>
<path d="M180.763 61.1754C180.093 61.8414 180.763 61.1754 180.763 61.1754L179.632 198.835C179.632 198.835 179.63 199.503 180.298 199.506C180.298 199.506 180.966 199.508 180.968 198.84L180.763 61.1754C181.429 61.8459 180.763 61.1754 180.763 61.1754Z" fill="#2565D0"/>
<path d="M96.1597 200.178C96.5307 246.264 134.901 284.029 180.977 283.658C227.054 283.288 264.811 244.911 264.44 198.826C264.435 198.158 263.761 197.495 263.094 197.5C262.426 197.506 261.763 198.179 261.769 198.847C262.129 243.597 225.697 280.627 180.956 280.987C136.215 281.346 99.191 244.907 98.8308 200.157C98.4705 155.407 134.903 118.377 179.644 118.017C180.312 118.012 180.974 117.339 180.969 116.671C180.963 116.003 180.29 115.34 179.622 115.346C132.878 115.721 95.7833 153.425 96.1597 200.178Z" fill="#2565D0"/>
<path d="M239.025 38.1291C149.965 5.67607 51.5627 51.605 19.1168 140.77C-13.3291 229.935 32.5201 328.429 121.58 360.882C210.64 393.335 309.042 347.406 341.488 258.241C341.488 258.241 341.716 257.613 341.089 257.384C341.089 257.384 340.462 257.156 340.234 257.784C308.016 346.321 209.614 392.25 121.181 360.026C33.3758 328.03 -12.4734 229.536 19.744 140.999C51.9614 52.4614 150.364 6.53257 238.796 38.757C238.796 38.757 239.424 38.9856 239.025 38.1291C239.652 38.3576 239.025 38.1291 239.025 38.1291Z" fill="#2565D0"/>
<path d="M180.025 281.699C179.355 282.365 180.025 281.699 180.025 281.699L179.058 370.576C179.058 370.576 179.056 371.244 179.724 371.247C179.724 371.247 180.391 371.249 180.394 370.581L180.025 281.699C180.69 282.37 180.025 281.699 180.025 281.699Z" fill="#2565D0"/>
<path d="M176.024 281.686C175.354 282.352 175.357 281.684 176.024 281.686L170.385 370.547C170.385 370.547 170.383 371.215 171.05 371.217C171.05 371.217 171.718 371.219 171.72 370.551L176.024 281.686C176.024 281.686 176.022 282.354 176.024 281.686Z" fill="#2565D0"/>
<path d="M171.348 281.67L161.707 369.849C161.707 369.849 161.704 370.517 162.372 370.52C162.372 370.52 163.039 370.522 163.042 369.854L171.348 281.67C172.016 281.673 172.016 281.673 171.348 281.67Z" fill="#2565D0"/>
<path d="M167.344 280.989C166.676 280.987 166.676 280.987 167.344 280.989L152.365 368.482L152.362 369.15C152.362 369.15 153.03 369.153 153.032 368.484L167.344 280.989Z" fill="#2565D0"/>
<path d="M162.685 280.306L143.704 367.116L143.701 367.785L144.369 367.787L162.685 280.306C163.353 280.308 163.353 280.308 162.685 280.306Z" fill="#2565D0"/>
<path d="M158.68 278.955C158.013 278.953 158.68 278.955 158.68 278.955L135.031 364.414L135.029 365.082L135.696 365.084L158.68 278.955C159.345 279.626 158.68 278.955 158.68 278.955Z" fill="#2565D0"/>
<path d="M154.676 277.603C154.006 278.269 154.009 277.601 154.676 277.603L126.357 362.377L126.354 363.045L127.022 363.048L154.676 277.603C154.674 278.271 154.674 278.271 154.676 277.603Z" fill="#2565D0"/>
<path d="M150.674 276.254C150.006 276.251 150.006 276.251 150.674 276.254L118.356 359.009L118.354 359.678L119.021 359.68L150.674 276.254C150.674 276.254 150.671 276.922 150.674 276.254Z" fill="#2565D0"/>
<path d="M146.668 274.903C146.001 274.901 146.001 274.901 146.668 274.903L109.685 355.638L109.683 356.307L110.351 356.309L146.668 274.903Z" fill="#2565D0"/>
<path d="M142.676 272.887C142.009 272.884 142.676 272.887 142.676 272.887L101.696 351.604L101.693 352.272L102.361 352.274L142.676 272.887C142.676 272.887 142.674 273.555 142.676 272.887Z" fill="#2565D0"/>
<path d="M138.685 270.87L93.7063 347.568L93.7041 348.236L94.3716 348.239L138.685 270.87C139.353 270.872 139.353 270.872 138.685 270.87Z" fill="#2565D0"/>
<path d="M134.684 268.18C134.682 268.848 134.684 268.18 134.684 268.18L86.3748 342.862L86.3726 343.53L87.04 343.533L134.684 268.18C135.349 268.85 135.349 268.85 134.684 268.18C135.352 268.182 135.352 268.182 134.684 268.18Z" fill="#2565D0"/>
<path d="M131.355 266.166L79.0525 337.494L79.0503 338.162L79.7178 338.164L131.355 266.166C132.023 266.169 132.023 266.169 131.355 266.166Z" fill="#2565D0"/>
<path d="M128.031 263.481L71.732 332.122L71.7297 332.79L72.3972 332.792L128.031 263.481C128.698 263.483 128.696 264.151 128.031 263.481Z" fill="#2565D0"/>
<path d="M124.695 260.8L65.0701 326.088L65.0679 326.756L65.7353 326.758L125.36 261.47C125.362 260.802 125.362 260.802 124.695 260.8Z" fill="#2565D0"/>
<path d="M121.373 257.447L58.4197 320.05L58.4175 320.718L59.0849 320.721L122.038 258.117C122.038 258.117 122.038 258.117 121.373 257.447C122.04 257.449 121.373 257.447 121.373 257.447Z" fill="#2565D0"/>
<path d="M118.706 254.097L52.4273 313.348L52.425 314.016L53.0925 314.019L118.704 254.766C118.704 254.766 119.371 254.768 118.706 254.097Z" fill="#2565D0"/>
<path d="M116.05 250.747C115.383 250.745 115.383 250.745 116.05 250.747L46.4454 306.646L46.4431 307.314L47.1106 307.316L116.046 252.084C116.048 251.416 116.048 251.416 116.05 250.747C116.05 250.747 116.048 251.416 116.05 250.747Z" fill="#2565D0"/>
<path d="M113.402 247.394C112.734 247.392 113.402 247.394 113.402 247.394L41.1407 299.274L41.1384 299.942L41.8059 299.944L113.4 248.063C113.4 248.063 113.4 248.063 113.402 247.394Z" fill="#2565D0"/>
<path d="M110.731 244.046L36.4808 291.909L36.4785 292.577L37.146 292.579L111.396 244.716C111.396 244.716 111.396 244.716 110.731 244.046Z" fill="#2565D0"/>
<path d="M108.743 240.031C108.076 240.028 108.076 240.028 108.743 240.031L31.8345 284.544L31.8323 285.212L32.4997 285.214L108.739 241.367C108.741 240.699 108.741 240.699 108.743 240.031C108.743 240.031 108.741 240.699 108.743 240.031Z" fill="#2565D0"/>
<path d="M305.888 128.12L251.86 157.86L251.859 158.313L252.328 158.315L306.355 128.575C306.355 128.575 306.355 128.575 305.888 128.12C306.357 128.122 305.888 128.12 305.888 128.12Z" fill="#2565D0"/>
<path d="M104.777 232.663L23.8924 268.475C23.8924 268.475 23.8924 268.475 23.8901 269.143C23.8901 269.143 23.8901 269.143 24.5576 269.145L105.442 233.334C104.774 233.331 104.777 232.663 104.777 232.663Z" fill="#2565D0"/>
<path d="M101.458 224.634L17.2659 251.747C17.2659 251.747 16.5985 251.745 17.2637 252.415C17.2637 252.415 17.2637 252.415 17.9312 252.418L102.123 225.305C102.123 225.305 102.126 224.636 101.458 224.634C102.126 224.636 101.458 224.634 101.458 224.634Z" fill="#2565D0"/>
<path d="M99.4761 215.942L12.6434 234.359C12.6434 234.359 11.9759 234.356 12.6412 235.027C12.6412 235.027 12.6389 235.695 13.3086 235.029L99.4739 216.61C99.4739 216.61 99.4739 216.61 99.4761 215.942Z" fill="#2565D0"/>
<path d="M98.1767 207.249L10.0406 216.306C10.0406 216.306 9.37314 216.304 9.3709 216.972C9.3709 216.972 9.36865 217.64 10.0361 217.642L98.1722 208.586C98.1745 207.918 98.1745 207.918 98.1767 207.249C98.1767 207.249 98.1745 207.918 98.1767 207.249Z" fill="#2565D0"/>
<path d="M9.43326 198.255C8.76356 198.92 8.7658 198.252 9.43326 198.255C8.76356 198.92 9.43101 198.922 9.43101 198.922L97.5356 199.22C97.5356 199.22 98.2031 199.223 98.2053 198.555C98.2053 198.555 98.2076 197.887 97.5401 197.885L9.4355 197.587L9.43326 198.255Z" fill="#2565D0"/>
<path d="M8.6396 187.247C7.94896 187.891 7.97255 187.223 8.6396 187.247C7.94896 187.891 8.61601 187.914 8.61601 187.914L96.6661 191.03C96.6661 191.03 97.3331 191.054 97.3567 190.386C97.3567 190.386 97.3803 189.719 96.7133 189.695L8.66319 186.579L8.6396 187.247Z" fill="#2565D0"/>
<path d="M11.3788 174.178C10.6622 174.793 10.7133 174.127 11.3788 174.178C10.6622 174.793 11.3277 174.845 11.3277 174.845L99.1748 181.587C99.1748 181.587 99.8403 181.638 99.8914 180.972C99.8914 180.972 99.9425 180.306 99.277 180.255L11.4299 173.512L11.3788 174.178Z" fill="#2565D0"/>
<path d="M14.6579 156.662C13.8829 157.201 14.0009 156.543 14.6579 156.662C13.8829 157.201 14.5398 157.319 14.5398 157.319L101.258 172.902C101.258 172.902 101.915 173.02 102.033 172.362C102.033 172.362 102.151 171.705 101.494 171.587L14.7759 156.004L14.6579 156.662Z" fill="#2565D0"/>
<path d="M20.5639 138.879C19.7336 139.329 19.9242 138.688 20.5639 138.879C19.7336 139.329 20.3733 139.519 20.3733 139.519L104.814 164.683C104.814 164.683 105.453 164.874 105.644 164.233C105.644 164.233 105.835 163.593 105.195 163.402L20.7545 138.239L20.5639 138.879Z" fill="#2565D0"/>
<path d="M32.4212 112.8C31.7515 113.466 31.7515 113.466 32.419 113.468L109.029 157.832L109.697 157.835L109.699 157.166L32.4212 112.8Z" fill="#2565D0"/>
<path d="M188.519 337.194C188.535 332.516 184.544 328.493 179.871 328.477C175.199 328.461 171.181 332.457 171.165 337.135C171.149 341.813 175.141 345.836 179.813 345.852C184.487 345.199 188.503 341.871 188.519 337.194Z" fill="#2565D0"/>
<path d="M69.7421 130.295C69.7579 125.617 65.7666 121.594 61.0944 121.578C56.4222 121.563 52.4039 125.559 52.3881 130.237C52.3724 134.914 56.3637 138.937 61.0359 138.953C66.3756 138.971 69.7264 134.973 69.7421 130.295Z" fill="#2565D0"/>
<path d="M65.9278 267.945C65.9368 265.272 63.9412 263.261 61.2714 263.252C58.6015 263.243 56.5924 265.241 56.5834 267.914C56.5744 270.587 58.57 272.598 61.2399 272.607C63.9097 272.616 65.9211 269.95 65.9278 267.945Z" fill="#2565D0"/>
<path d="M188.275 200.159C188.289 195.825 185.054 192.564 180.725 192.549C176.396 192.535 173.138 195.774 173.124 200.108C173.109 204.442 176.345 207.704 180.674 207.719C185.003 207.733 188.26 204.494 188.275 200.159Z" fill="#2565D0"/>
<path d="M185.443 61.8528C185.452 59.1797 183.457 57.1682 180.787 57.1592C178.117 57.1502 176.108 59.1482 176.099 61.8212C176.09 64.4943 178.086 66.5058 180.755 66.5149C183.425 66.5239 185.434 64.5258 185.443 61.8528Z" fill="#2565D0"/>
<path d="M267.744 199.796C267.753 197.123 265.757 195.112 263.087 195.103C260.417 195.093 258.408 197.091 258.399 199.765C258.39 202.438 260.386 204.449 263.056 204.458C265.726 204.467 267.735 202.469 267.744 199.796Z" fill="#2565D0"/>
<path d="M343.821 257.106C343.83 254.433 341.834 252.421 339.165 252.412C336.495 252.403 334.486 254.401 334.477 257.074C334.468 259.747 336.463 261.759 339.133 261.768C341.803 261.777 343.812 259.779 343.821 257.106Z" fill="#2565D0"/>
<path d="M245.009 39.3896C245.018 36.7165 243.022 34.705 240.353 34.696C237.683 34.6869 235.674 36.6849 235.665 39.358C235.656 42.031 237.651 44.0426 240.321 44.0516C242.991 44.0606 245 42.0626 245.009 39.3896Z" fill="#2565D0"/>
<path d="M185.179 116.497C185.188 113.824 183.192 111.813 180.523 111.804C177.853 111.795 175.844 113.793 175.835 116.466C175.826 119.139 177.821 121.15 180.491 121.159C183.161 121.168 185.17 119.17 185.179 116.497Z" fill="#2565D0"/>
<path d="M180.787 176.276C167.161 176.23 156.908 186.427 156.862 200.069C156.816 213.711 167.001 223.977 180.626 224.023C194.252 224.069 204.506 213.872 204.552 200.23C204.598 186.588 194.413 176.322 180.787 176.276ZM180.632 222.318C168.71 222.278 158.525 212.012 158.565 200.075C158.605 188.138 168.859 177.941 180.781 177.982C192.704 178.022 202.889 188.288 202.848 200.224C202.808 212.161 192.555 222.358 180.632 222.318Z" fill="#2565D0"/>
<path d="M339.336 247.893C333.996 247.875 329.978 251.871 329.96 257.217C329.942 262.563 333.933 266.586 339.273 266.604C344.613 266.622 348.631 262.626 348.649 257.28C348.665 252.602 344.676 247.911 339.336 247.893ZM339.273 266.604C334.601 266.588 330.609 262.565 330.625 257.887C330.641 253.209 334.659 249.213 339.331 249.229C344.004 249.245 347.995 253.268 347.979 257.946C347.963 262.624 343.945 266.62 339.273 266.604Z" fill="#2565D0"/>
<path d="M180.802 52.4845C175.462 52.4664 171.444 56.4625 171.426 61.8085C171.408 67.1546 175.399 71.1776 180.739 71.1957C186.079 71.2137 190.097 67.2177 190.115 61.8716C190.133 56.5256 186.142 52.5025 180.802 52.4845ZM180.741 70.5274C176.069 70.5116 172.078 66.4886 172.093 61.8108C172.109 57.133 176.128 53.137 180.8 53.1527C185.472 53.1685 189.463 57.1916 189.447 61.8694C189.432 66.5472 185.413 70.5432 180.741 70.5274Z" fill="#2565D0"/>
</g>
<defs>
<clipPath id="clip0_1959_5520">
<rect width="360" height="400" fill="white"/>
</clipPath>
</defs>
</svg>
