<svg width="360" height="400" viewBox="0 0 360 400" fill="none" xmlns="http://www.w3.org/2000/svg">
<g clip-path="url(#clip0_1960_4851)">
<path d="M131.487 303.219L138.978 319.504" stroke="#2565D0" stroke-width="0.541064"/>
<path d="M298.44 212.208L238.916 314.555C238.916 314.555 238.916 314.555 238.403 314.555L119.87 314.555C119.87 314.555 119.87 314.555 119.356 314.555L59.833 212.208L59.833 211.697L60.3461 211.697L119.356 314.043L237.377 314.043L296.387 211.697C297.927 211.697 297.927 211.697 298.44 212.208C298.44 211.697 298.44 211.697 298.44 212.208Z" fill="#2565D0"/>
<path d="M247.656 80.2984V79.4669L107.904 79.4669L37.7878 200.564L107.904 321.662L248.138 321.662L318.255 200.564L248.136 79.4669H247.656V80.2984L246.934 80.7142L316.329 200.564L247.174 319.999L108.868 319.999L39.7126 200.564L108.868 81.1299L247.656 81.1299V80.2984L246.934 80.7142L247.656 80.2984Z" fill="#2565D0"/>
<path d="M216.65 135.057V134.594L138.658 134.594L99.5293 202.018L138.658 269.442H216.919L256.049 202.018L216.918 134.594H216.65V135.057L216.247 135.289L254.974 202.018L216.381 268.516H139.196L100.603 202.018L139.196 135.52L216.65 135.52V135.057L216.247 135.289L216.65 135.057Z" fill="#2565D0"/>
<path d="M73.0691 210.191L143.538 88.2559L73.548 210.672L126.233 302.045L231.602 302.045L284.286 210.672L257.944 164.745L232.129 118.22L227.244 108.775L284.765 210.191C284.765 210.191 284.765 210.191 284.765 210.672L232.081 302.526C232.081 302.526 232.081 302.526 231.602 302.526L125.754 302.526C125.754 302.526 125.754 302.526 125.275 302.526L73.0691 210.191Z" fill="#2565D0"/>
<path d="M125.208 203.534L160.676 142.216L125.449 203.776L151.966 249.726L204.999 249.726L231.515 203.776L218.257 180.681L205.264 157.284L202.805 152.534L231.756 203.534C231.756 203.534 231.756 203.534 231.756 203.776L205.24 249.967C205.24 249.967 205.24 249.967 204.999 249.967L151.725 249.967C151.725 249.967 151.725 249.967 151.484 249.967L125.208 203.534Z" fill="#2565D0"/>
<path d="M61.7079 203.342L121.231 100.995C121.231 100.995 121.231 100.995 121.744 100.995L240.278 100.995C240.278 100.995 240.278 100.995 240.791 100.995L300.315 203.342L300.315 203.853L299.802 203.853L240.791 101.507L122.771 101.507L63.7605 203.853C62.2211 203.853 62.221 203.853 61.7079 203.342C61.7079 203.853 61.7079 203.853 61.7079 203.342Z" fill="#2565D0"/>
<path d="M125.625 303.219L133.116 319.504" stroke="#2565D0" stroke-width="0.541064"/>
<path d="M127.579 303.219L135.07 319.504" stroke="#2565D0" stroke-width="0.541064"/>
<path d="M129.533 303.219L137.024 319.504" stroke="#2565D0" stroke-width="0.541064"/>
<path d="M346.882 147.031L315.429 201.509" stroke="#2565D0" stroke-linecap="round" stroke-dasharray="2 2"/>
<path d="M133.441 303.219L140.932 319.504" stroke="#2565D0" stroke-width="0.541064"/>
<path d="M135.395 303.219L142.886 319.504" stroke="#2565D0" stroke-width="0.541064"/>
<path d="M137.35 303.219L144.841 319.504" stroke="#2565D0" stroke-width="0.541064"/>
<path d="M139.304 303.219L146.795 319.504" stroke="#2565D0" stroke-width="0.541064"/>
<path d="M141.259 303.219L148.75 319.504" stroke="#2565D0" stroke-width="0.541064"/>
<path d="M143.213 303.219L150.704 319.504" stroke="#2565D0" stroke-width="0.541064"/>
<path d="M145.167 303.219L152.658 319.504" stroke="#2565D0" stroke-width="0.541064"/>
<path d="M147.121 303.219L154.612 319.504" stroke="#2565D0" stroke-width="0.541064"/>
<path d="M149.075 303.219L156.566 319.504" stroke="#2565D0" stroke-width="0.541064"/>
<path d="M151.029 303.219L158.52 319.504" stroke="#2565D0" stroke-width="0.541064"/>
<path d="M152.984 303.219L160.475 319.504" stroke="#2565D0" stroke-width="0.541064"/>
<path d="M154.937 303.219L162.428 319.504" stroke="#2565D0" stroke-width="0.541064"/>
<path d="M156.892 303.219L164.383 319.504" stroke="#2565D0" stroke-width="0.541064"/>
<path d="M158.846 303.219L166.337 319.504" stroke="#2565D0" stroke-width="0.541064"/>
<path d="M160.801 303.219L168.292 319.504" stroke="#2565D0" stroke-width="0.541064"/>
<path d="M162.755 303.219L170.246 319.504" stroke="#2565D0" stroke-width="0.541064"/>
<path d="M164.709 303.219L172.201 319.504" stroke="#2565D0" stroke-width="0.541064"/>
<path d="M166.663 303.219L174.154 319.504" stroke="#2565D0" stroke-width="0.541064"/>
<path d="M168.617 303.219L176.109 319.504" stroke="#2565D0" stroke-width="0.541064"/>
<path d="M170.572 303.219L178.063 319.504" stroke="#2565D0" stroke-width="0.541064"/>
<path d="M172.526 303.219L180.017 319.504" stroke="#2565D0" stroke-width="0.541064"/>
<path d="M174.479 303.219L181.971 319.504" stroke="#2565D0" stroke-width="0.541064"/>
<path d="M176.434 303.219L183.925 319.504" stroke="#2565D0" stroke-width="0.541064"/>
<path d="M178.388 303.219L185.879 319.504" stroke="#2565D0" stroke-width="0.541064"/>
<path d="M180.343 303.219L187.834 319.504" stroke="#2565D0" stroke-width="0.541064"/>
<path d="M182.296 303.219L189.787 319.504" stroke="#2565D0" stroke-width="0.541064"/>
<path d="M184.251 303.219L191.742 319.504" stroke="#2565D0" stroke-width="0.541064"/>
<path d="M186.206 303.219L193.697 319.504" stroke="#2565D0" stroke-width="0.541064"/>
<path d="M188.159 303.219L195.65 319.504" stroke="#2565D0" stroke-width="0.541064"/>
<path d="M190.114 303.219L197.605 319.504" stroke="#2565D0" stroke-width="0.541064"/>
<path d="M192.068 303.219L199.559 319.504" stroke="#2565D0" stroke-width="0.541064"/>
<path d="M194.021 303.219L201.513 319.504" stroke="#2565D0" stroke-width="0.541064"/>
<path d="M195.976 303.219L203.467 319.504" stroke="#2565D0" stroke-width="0.541064"/>
<path d="M197.93 303.219L205.421 319.504" stroke="#2565D0" stroke-width="0.541064"/>
<path d="M199.884 303.219L207.375 319.504" stroke="#2565D0" stroke-width="0.541064"/>
<path d="M201.839 303.219L209.33 319.504" stroke="#2565D0" stroke-width="0.541064"/>
<path d="M203.792 303.219L211.283 319.504" stroke="#2565D0" stroke-width="0.541064"/>
<path d="M205.747 303.219L213.238 319.504" stroke="#2565D0" stroke-width="0.541064"/>
<path d="M207.7 303.219L215.192 319.504" stroke="#2565D0" stroke-width="0.541064"/>
<path d="M209.656 303.219L217.147 319.504" stroke="#2565D0" stroke-width="0.541064"/>
<path d="M211.61 303.219L219.101 319.504" stroke="#2565D0" stroke-width="0.541064"/>
<path d="M213.564 303.219L221.056 319.504" stroke="#2565D0" stroke-width="0.541064"/>
<path d="M215.518 303.219L223.009 319.504" stroke="#2565D0" stroke-width="0.541064"/>
<path d="M217.472 303.219L224.964 319.504" stroke="#2565D0" stroke-width="0.541064"/>
<path d="M219.426 303.219L226.917 319.504" stroke="#2565D0" stroke-width="0.541064"/>
<path d="M221.381 303.219L228.872 319.504" stroke="#2565D0" stroke-width="0.541064"/>
<path d="M223.334 303.219L230.826 319.504" stroke="#2565D0" stroke-width="0.541064"/>
<path d="M225.289 303.219L232.78 319.504" stroke="#2565D0" stroke-width="0.541064"/>
<path d="M227.243 303.219L234.734 319.504" stroke="#2565D0" stroke-width="0.541064"/>
<path d="M229.198 303.219L236.689 319.504" stroke="#2565D0" stroke-width="0.541064"/>
<path d="M231.151 303.219L238.642 319.504" stroke="#2565D0" stroke-width="0.541064"/>
<path d="M233.106 302.893L240.598 319.178" stroke="#2565D0" stroke-width="0.541064"/>
<path d="M64.3918 204.576L75.6846 202.446" stroke="#2565D0" stroke-width="0.541064"/>
<path d="M65.3694 202.884L76.6621 200.754" stroke="#2565D0" stroke-width="0.541064"/>
<path d="M66.3464 201.191L77.6392 199.061" stroke="#2565D0" stroke-width="0.541064"/>
<path d="M67.3235 199.499L78.6162 197.369" stroke="#2565D0" stroke-width="0.541064"/>
<path d="M68.2998 197.807L79.5925 195.676" stroke="#2565D0" stroke-width="0.541064"/>
<path d="M69.2773 196.114L80.5701 193.984" stroke="#2565D0" stroke-width="0.541064"/>
<path d="M70.2546 194.422L81.5474 192.291" stroke="#2565D0" stroke-width="0.541064"/>
<path d="M71.2314 192.729L82.5242 190.599" stroke="#2565D0" stroke-width="0.541064"/>
<path d="M72.2092 191.037L83.502 188.907" stroke="#2565D0" stroke-width="0.541064"/>
<path d="M73.186 189.345L84.4788 187.215" stroke="#2565D0" stroke-width="0.541064"/>
<path d="M74.1636 187.652L85.4563 185.522" stroke="#2565D0" stroke-width="0.541064"/>
<path d="M75.1394 185.96L86.4321 183.83" stroke="#2565D0" stroke-width="0.541064"/>
<path d="M76.1177 184.267L87.4104 182.137" stroke="#2565D0" stroke-width="0.541064"/>
<path d="M77.0947 182.575L88.3875 180.445" stroke="#2565D0" stroke-width="0.541064"/>
<path d="M78.0725 180.883L89.3653 178.753" stroke="#2565D0" stroke-width="0.541064"/>
<path d="M79.0483 179.19L90.3411 177.06" stroke="#2565D0" stroke-width="0.541064"/>
<path d="M80.0259 177.498L91.3186 175.368" stroke="#2565D0" stroke-width="0.541064"/>
<path d="M81.0027 175.806L92.2954 173.675" stroke="#2565D0" stroke-width="0.541064"/>
<path d="M81.9805 174.113L93.2732 171.983" stroke="#2565D0" stroke-width="0.541064"/>
<path d="M82.9563 172.421L94.249 170.291" stroke="#2565D0" stroke-width="0.541064"/>
<path d="M83.9343 170.728L95.2271 168.598" stroke="#2565D0" stroke-width="0.541064"/>
<path d="M84.9116 169.036L96.2044 166.906" stroke="#2565D0" stroke-width="0.541064"/>
<path d="M85.8884 167.343L97.1812 165.213" stroke="#2565D0" stroke-width="0.541064"/>
<path d="M86.8655 165.651L98.1582 163.521" stroke="#2565D0" stroke-width="0.541064"/>
<path d="M87.8418 163.958L99.1345 161.828" stroke="#2565D0" stroke-width="0.541064"/>
<path d="M88.8201 162.266L100.113 160.136" stroke="#2565D0" stroke-width="0.541064"/>
<path d="M89.7971 160.574L101.09 158.444" stroke="#2565D0" stroke-width="0.541064"/>
<path d="M90.7749 158.882L102.068 156.751" stroke="#2565D0" stroke-width="0.541064"/>
<path d="M91.7507 157.189L103.043 155.059" stroke="#2565D0" stroke-width="0.541064"/>
<path d="M92.728 155.496L104.021 153.366" stroke="#2565D0" stroke-width="0.541064"/>
<path d="M93.7053 153.804L104.998 151.674" stroke="#2565D0" stroke-width="0.541064"/>
<path d="M94.6829 152.111L105.976 149.981" stroke="#2565D0" stroke-width="0.541064"/>
<path d="M95.6587 150.419L106.951 148.289" stroke="#2565D0" stroke-width="0.541064"/>
<path d="M96.637 148.727L107.93 146.597" stroke="#2565D0" stroke-width="0.541064"/>
<path d="M97.6133 147.035L108.906 144.905" stroke="#2565D0" stroke-width="0.541064"/>
<path d="M98.5903 145.342L109.883 143.212" stroke="#2565D0" stroke-width="0.541064"/>
<path d="M99.5679 143.65L110.861 141.52" stroke="#2565D0" stroke-width="0.541064"/>
<path d="M100.545 141.957L111.838 139.827" stroke="#2565D0" stroke-width="0.541064"/>
<path d="M101.522 140.265L112.815 138.135" stroke="#2565D0" stroke-width="0.541064"/>
<path d="M102.499 138.573L113.792 136.442" stroke="#2565D0" stroke-width="0.541064"/>
<path d="M103.477 136.88L114.769 134.75" stroke="#2565D0" stroke-width="0.541064"/>
<path d="M104.454 135.188L115.746 133.057" stroke="#2565D0" stroke-width="0.541064"/>
<path d="M105.43 133.495L116.723 131.365" stroke="#2565D0" stroke-width="0.541064"/>
<path d="M106.406 131.803L117.699 129.673" stroke="#2565D0" stroke-width="0.541064"/>
<path d="M107.385 130.111L118.677 127.981" stroke="#2565D0" stroke-width="0.541064"/>
<path d="M108.362 128.418L119.655 126.288" stroke="#2565D0" stroke-width="0.541064"/>
<path d="M109.339 126.726L120.631 124.596" stroke="#2565D0" stroke-width="0.541064"/>
<path d="M110.316 125.034L121.609 122.904" stroke="#2565D0" stroke-width="0.541064"/>
<path d="M111.293 123.15L122.586 121.02" stroke="#2565D0" stroke-width="0.541064"/>
<path d="M112.27 121.458L123.563 119.328" stroke="#2565D0" stroke-width="0.541064"/>
<path d="M113.247 119.765L124.54 117.635" stroke="#2565D0" stroke-width="0.541064"/>
<path d="M114.225 118.073L125.518 115.943" stroke="#2565D0" stroke-width="0.541064"/>
<path d="M115.201 116.38L126.494 114.25" stroke="#2565D0" stroke-width="0.541064"/>
<path d="M116.179 114.688L127.472 112.558" stroke="#2565D0" stroke-width="0.541064"/>
<path d="M117.155 112.996L128.448 110.866" stroke="#2565D0" stroke-width="0.541064"/>
<path d="M118.134 111.303L129.426 109.173" stroke="#2565D0" stroke-width="0.541064"/>
<path d="M119.109 109.611L130.402 107.481" stroke="#2565D0" stroke-width="0.541064"/>
<path d="M120.087 107.919L131.38 105.789" stroke="#2565D0" stroke-width="0.541064"/>
<path d="M121.063 106.226L132.356 104.096" stroke="#2565D0" stroke-width="0.541064"/>
<path d="M122.042 104.534L133.334 102.404" stroke="#2565D0" stroke-width="0.541064"/>
<path d="M236.725 100.532L232.833 111.532" stroke="#2565D0" stroke-width="0.541064"/>
<path d="M237.693 102.238L233.802 113.238" stroke="#2565D0" stroke-width="0.541064"/>
<path d="M238.663 103.943L234.772 114.944" stroke="#2565D0" stroke-width="0.541064"/>
<path d="M239.632 105.649L235.74 116.65" stroke="#2565D0" stroke-width="0.541064"/>
<path d="M240.601 107.355L236.709 118.356" stroke="#2565D0" stroke-width="0.541064"/>
<path d="M241.57 109.061L237.678 120.062" stroke="#2565D0" stroke-width="0.541064"/>
<path d="M242.54 110.767L238.648 121.768" stroke="#2565D0" stroke-width="0.541064"/>
<path d="M243.509 112.473L239.618 123.473" stroke="#2565D0" stroke-width="0.541064"/>
<path d="M244.479 114.179L240.588 125.179" stroke="#2565D0" stroke-width="0.541064"/>
<path d="M245.448 115.885L241.556 126.885" stroke="#2565D0" stroke-width="0.541064"/>
<path d="M246.417 117.591L242.525 128.591" stroke="#2565D0" stroke-width="0.541064"/>
<path d="M247.386 119.296L243.494 130.297" stroke="#2565D0" stroke-width="0.541064"/>
<path d="M248.356 121.002L244.464 132.003" stroke="#2565D0" stroke-width="0.541064"/>
<path d="M249.324 122.708L245.432 133.709" stroke="#2565D0" stroke-width="0.541064"/>
<path d="M250.295 124.414L246.403 135.415" stroke="#2565D0" stroke-width="0.541064"/>
<path d="M251.264 126.12L247.373 137.12" stroke="#2565D0" stroke-width="0.541064"/>
<path d="M252.233 127.826L248.341 138.826" stroke="#2565D0" stroke-width="0.541064"/>
<path d="M253.202 129.531L249.31 140.532" stroke="#2565D0" stroke-width="0.541064"/>
<path d="M254.17 131.237L250.279 142.238" stroke="#2565D0" stroke-width="0.541064"/>
<path d="M255.141 132.943L251.249 143.944" stroke="#2565D0" stroke-width="0.541064"/>
<path d="M256.111 134.649L252.22 145.65" stroke="#2565D0" stroke-width="0.541064"/>
<path d="M257.08 136.355L253.188 147.355" stroke="#2565D0" stroke-width="0.541064"/>
<path d="M258.049 138.061L254.158 149.061" stroke="#2565D0" stroke-width="0.541064"/>
<path d="M259.018 139.767L255.127 150.767" stroke="#2565D0" stroke-width="0.541064"/>
<path d="M259.988 141.473L256.096 152.473" stroke="#2565D0" stroke-width="0.541064"/>
<path d="M260.956 143.179L257.065 154.179" stroke="#2565D0" stroke-width="0.541064"/>
<path d="M261.927 144.884L258.035 155.885" stroke="#2565D0" stroke-width="0.541064"/>
<path d="M262.895 146.591L259.004 157.591" stroke="#2565D0" stroke-width="0.541064"/>
<path d="M263.865 148.296L259.974 159.296" stroke="#2565D0" stroke-width="0.541064"/>
<path d="M264.834 150.002L260.943 161.003" stroke="#2565D0" stroke-width="0.541064"/>
<path d="M265.803 151.708L261.912 162.708" stroke="#2565D0" stroke-width="0.541064"/>
<path d="M266.773 153.414L262.882 164.414" stroke="#2565D0" stroke-width="0.541064"/>
<path d="M267.743 155.12L263.851 166.12" stroke="#2565D0" stroke-width="0.541064"/>
<path d="M268.712 156.826L264.82 167.826" stroke="#2565D0" stroke-width="0.541064"/>
<path d="M269.681 158.531L265.789 169.532" stroke="#2565D0" stroke-width="0.541064"/>
<path d="M270.65 160.237L266.758 171.238" stroke="#2565D0" stroke-width="0.541064"/>
<path d="M271.62 161.943L267.728 172.944" stroke="#2565D0" stroke-width="0.541064"/>
<path d="M272.589 163.649L268.697 174.649" stroke="#2565D0" stroke-width="0.541064"/>
<path d="M273.558 165.355L269.666 176.355" stroke="#2565D0" stroke-width="0.541064"/>
<path d="M274.528 167.061L270.637 178.061" stroke="#2565D0" stroke-width="0.541064"/>
<path d="M275.498 168.766L271.606 179.767" stroke="#2565D0" stroke-width="0.541064"/>
<path d="M276.466 170.472L272.575 181.473" stroke="#2565D0" stroke-width="0.541064"/>
<path d="M277.436 172.178L273.545 183.179" stroke="#2565D0" stroke-width="0.541064"/>
<path d="M278.404 173.884L274.513 184.885" stroke="#2565D0" stroke-width="0.541064"/>
<path d="M279.375 175.59L275.483 186.59" stroke="#2565D0" stroke-width="0.541064"/>
<path d="M280.344 177.296L276.452 188.296" stroke="#2565D0" stroke-width="0.541064"/>
<path d="M281.313 179.002L277.421 190.002" stroke="#2565D0" stroke-width="0.541064"/>
<path d="M282.282 180.708L278.391 191.708" stroke="#2565D0" stroke-width="0.541064"/>
<path d="M283.417 182.509L279.525 193.509" stroke="#2565D0" stroke-width="0.541064"/>
<path d="M284.386 184.214L280.494 195.215" stroke="#2565D0" stroke-width="0.541064"/>
<path d="M285.356 185.92L281.464 196.921" stroke="#2565D0" stroke-width="0.541064"/>
<path d="M286.324 187.626L282.432 198.626" stroke="#2565D0" stroke-width="0.541064"/>
<path d="M287.294 189.332L283.402 200.332" stroke="#2565D0" stroke-width="0.541064"/>
<path d="M288.263 191.038L284.371 202.038" stroke="#2565D0" stroke-width="0.541064"/>
<path d="M289.232 192.744L285.34 203.744" stroke="#2565D0" stroke-width="0.541064"/>
<path d="M290.201 194.449L286.31 205.45" stroke="#2565D0" stroke-width="0.541064"/>
<path d="M291.171 196.155L287.28 207.156" stroke="#2565D0" stroke-width="0.541064"/>
<path d="M292.14 197.861L288.249 208.862" stroke="#2565D0" stroke-width="0.541064"/>
<path d="M293.108 199.567L289.217 210.568" stroke="#2565D0" stroke-width="0.541064"/>
<path d="M294.079 201.273L290.187 212.273" stroke="#2565D0" stroke-width="0.541064"/>
<path d="M41.084 198.198L9.63135 252.676" stroke="#2565D0" stroke-linecap="round" stroke-dasharray="2 2"/>
<circle cx="107.556" cy="80.816" r="4.81599" fill="#2565D0"/>
<circle cx="4.81599" cy="4.81599" r="4.81599" transform="matrix(1 1.74846e-07 1.74846e-07 -1 243.206 324.023)" fill="#2565D0"/>
<circle cx="40.9349" cy="198.808" r="4.81599" fill="#2565D0"/>
<circle cx="315.446" cy="201.216" r="4.81599" fill="#2565D0"/>
<circle cx="4.81599" cy="4.81599" r="4.81599" transform="matrix(1 1.74846e-07 1.74846e-07 -1 201.056 161.479)" fill="#2565D0"/>
<ellipse cx="3.3108" cy="3.3108" rx="3.3108" ry="3.3108" transform="matrix(1 1.74846e-07 1.74846e-07 -1 156.511 147.031)" fill="#2565D0"/>
<path d="M215.003 156.663C215.003 151.62 210.915 147.532 205.872 147.532C200.829 147.532 196.74 151.62 196.74 156.663C196.74 161.706 200.829 165.794 205.872 165.794C210.915 165.794 215.003 161.706 215.003 156.663Z" stroke="#2565D0"/>
<ellipse cx="6.32062" cy="6.32063" rx="6.32062" ry="6.32063" transform="matrix(1 1.74846e-07 1.74846e-07 -1 341.916 153.051)" fill="#2565D0"/>
<ellipse cx="6.32062" cy="6.32063" rx="6.32062" ry="6.32063" transform="matrix(1 1.74846e-07 1.74846e-07 -1 172.764 206.024)" fill="#2565D0"/>
<circle cx="4.81599" cy="4.81599" r="4.81599" transform="matrix(1 1.74846e-07 1.74846e-07 -1 4.81592 257.192)" fill="#2565D0"/>
<path d="M18.7629 252.375C18.7629 247.332 14.6746 243.244 9.63143 243.244C4.58828 243.244 0.500003 247.332 0.500002 252.375C0.500001 257.418 4.58828 261.507 9.63143 261.507C14.6746 261.507 18.7629 257.418 18.7629 252.375Z" stroke="#2565D0"/>
<path d="M360.077 146.43C360.077 139.724 354.641 134.288 347.935 134.288C341.23 134.288 335.794 139.724 335.794 146.43C335.794 153.135 341.23 158.571 347.935 158.571C354.641 158.571 360.077 153.135 360.077 146.43Z" stroke="#2565D0"/>
</g>
<defs>
<clipPath id="clip0_1960_4851">
<rect width="360" height="400" fill="white"/>
</clipPath>
</defs>
</svg>
