<svg width="360" height="400" viewBox="0 0 360 400" fill="none" xmlns="http://www.w3.org/2000/svg">
<path d="M172.392 175.632H171.804L103.095 135.731C102.507 135.145 102.507 134.558 102.507 133.971C103.095 133.384 103.682 133.384 104.269 133.384L172.392 172.698L240.514 133.384C241.102 132.798 241.689 133.384 242.276 133.971C242.863 134.558 242.276 135.145 241.689 135.731L172.979 175.632C172.979 175.045 172.392 175.632 172.392 175.632Z" fill="#2565D0"/>
<path d="M172.39 131.038H171.803L102.506 91.1377C101.918 91.1377 101.918 90.5509 101.918 89.9641C101.918 89.3774 101.918 88.7906 102.506 88.7906L171.216 48.8898C171.803 48.8898 172.39 48.8898 172.39 48.8898L241.1 88.7906C241.687 88.7906 241.687 89.3774 241.687 89.9641C241.687 90.5509 241.687 91.1377 241.1 91.1377L172.39 131.038C172.977 131.038 172.39 131.038 172.39 131.038ZM106.029 89.9641L172.39 128.105L238.751 89.9641L172.39 51.8237L106.029 89.9641Z" fill="#2565D0"/>
<path d="M166.521 170.939C165.934 170.353 165.934 170.353 166.521 170.353L171.806 167.419H172.393V168.006L166.521 170.939C167.108 170.939 166.521 170.939 166.521 170.939Z" fill="#2565D0"/>
<path d="M163.581 169.766C163.581 169.179 163.581 169.766 163.581 169.766C162.994 169.179 162.994 169.179 163.581 169.179L171.803 164.485H172.39V165.072L163.581 169.766Z" fill="#2565D0"/>
<path d="M161.233 168.005C160.646 168.005 161.233 168.005 161.233 168.005C160.646 167.418 160.646 167.418 161.233 167.418L171.804 160.964H172.391V161.55L161.233 168.005Z" fill="#2565D0"/>
<path d="M158.298 166.245C157.711 165.658 157.711 165.658 158.298 165.658L171.805 158.03H172.392V158.617L158.298 166.245Z" fill="#2565D0"/>
<path d="M155.948 164.484C155.361 164.484 155.361 164.484 155.948 164.484C155.361 163.897 155.361 163.897 155.948 163.897L171.804 154.509H172.391V155.096L155.948 164.484Z" fill="#2565D0"/>
<path d="M153.01 163.31C152.423 162.724 152.423 162.724 153.01 162.724L171.803 151.575H172.39V152.162L153.01 163.31Z" fill="#2565D0"/>
<path d="M150.075 161.551C149.488 160.964 149.488 160.964 150.075 160.964L171.804 148.641H172.391V149.228L150.075 161.551Z" fill="#2565D0"/>
<path d="M147.725 159.79C147.138 159.79 147.138 159.79 147.725 159.79C147.138 159.203 147.138 159.203 147.725 159.203L172.39 145.121H172.977V145.707L147.725 159.79Z" fill="#2565D0"/>
<path d="M144.79 158.029C144.203 158.029 144.79 158.029 144.79 158.029C144.203 157.443 144.203 157.443 144.79 157.443L172.391 141.6H172.978V142.187L144.79 158.029Z" fill="#2565D0"/>
<path d="M141.855 156.856C141.855 156.27 141.855 156.856 141.855 156.856C141.268 156.27 141.268 156.27 141.855 156.27L171.805 138.666H172.393V139.253L141.855 156.856C142.442 156.856 142.442 156.856 141.855 156.856Z" fill="#2565D0"/>
<path d="M138.915 155.096C138.328 154.509 138.328 154.509 138.915 154.509L171.802 135.732H172.389V136.319L138.915 155.096C139.502 155.096 139.502 155.096 138.915 155.096Z" fill="#2565D0"/>
<path d="M133.632 152.162C133.045 151.575 133.045 151.575 133.632 151.575L171.804 129.278H172.391V129.864L133.632 152.162Z" fill="#2565D0"/>
<path d="M135.726 154.293C135.138 153.707 135.138 153.707 135.726 153.707L173.898 131.409H174.485V131.996L135.726 154.293Z" fill="#2565D0"/>
<path d="M130.697 150.401C130.11 149.815 130.11 149.815 130.697 149.815L169.456 127.517H170.044V128.104L130.697 150.401C131.284 150.401 131.284 150.401 130.697 150.401Z" fill="#2565D0"/>
<path d="M128.346 148.641C127.759 148.641 127.759 148.641 128.346 148.641C127.759 148.054 127.759 148.054 128.346 148.054L166.518 125.757H167.105V126.344L128.346 148.641Z" fill="#2565D0"/>
<path d="M125.411 146.881C124.824 146.881 125.411 146.881 125.411 146.881C124.824 146.294 124.824 146.294 125.411 146.294L164.17 123.996H164.758V124.583L125.411 146.881Z" fill="#2565D0"/>
<path d="M122.471 145.708C121.884 145.121 121.884 145.121 122.471 145.121L160.644 122.823H161.231V123.41L122.471 145.708C123.059 145.708 123.059 145.708 122.471 145.708Z" fill="#2565D0"/>
<path d="M120.126 143.947C119.538 143.947 119.538 143.947 120.126 143.947C119.538 143.36 119.538 143.36 120.126 143.36L158.298 121.063H158.885V121.65L120.126 143.947Z" fill="#2565D0"/>
<path d="M117.188 142.773C116.601 142.186 116.601 142.773 117.188 142.773C116.601 142.186 116.601 142.186 117.188 142.186L155.948 119.889H156.535V120.476L117.188 142.773Z" fill="#2565D0"/>
<path d="M114.253 141.014C113.665 140.427 113.665 140.427 114.253 140.427L152.425 118.13H153.012V118.716L114.253 141.014C114.84 141.014 114.84 141.014 114.253 141.014Z" fill="#2565D0"/>
<path d="M111.905 139.252C111.318 139.252 111.318 139.252 111.905 139.252C111.318 138.666 111.318 138.666 111.905 138.666L150.077 116.368H150.664V116.955L111.905 139.252Z" fill="#2565D0"/>
<path d="M108.968 137.493C108.38 137.493 108.968 137.493 108.968 137.493C108.38 136.906 108.38 136.906 108.968 136.906L147.14 114.609H147.727V115.196L108.968 137.493Z" fill="#2565D0"/>
<path d="M105.443 136.319C104.856 135.732 104.856 135.732 105.443 135.732L144.79 113.435H145.377V114.022L105.443 136.319Z" fill="#2565D0"/>
<path d="M103.682 134.56C103.095 134.56 103.095 134.56 103.682 134.56C103.095 133.973 103.095 133.973 103.682 133.973L141.854 111.675H142.442V112.262L103.682 134.56Z" fill="#2565D0"/>
<path d="M103.095 131.625C103.095 131.038 103.095 131.625 103.095 131.625C102.508 131.038 102.508 131.038 103.095 131.038L139.505 109.914H140.093V110.501L103.095 131.625C103.682 131.625 103.682 131.625 103.095 131.625Z" fill="#2565D0"/>
<path d="M103.095 128.105C102.508 127.518 102.508 127.518 103.095 127.518L135.982 108.741H136.569V109.328L103.095 128.105C103.682 128.105 103.682 128.105 103.095 128.105Z" fill="#2565D0"/>
<path d="M103.682 125.171C103.095 125.171 103.095 125.171 103.682 125.171C103.095 124.584 103.095 124.584 103.682 124.584L133.632 106.98H134.22V107.567L103.682 125.171Z" fill="#2565D0"/>
<path d="M103.095 121.649C102.508 121.063 102.508 121.063 103.095 121.063L130.696 105.22H131.284V105.806L103.095 121.649C103.682 121.649 103.682 121.649 103.095 121.649Z" fill="#2565D0"/>
<path d="M103.095 118.716C102.508 118.129 102.508 118.129 103.095 118.129L127.76 104.047H128.347V104.633L103.095 118.716C103.682 118.716 103.682 118.716 103.095 118.716Z" fill="#2565D0"/>
<path d="M103.095 115.782C103.095 115.195 103.095 115.782 103.095 115.782C102.508 115.195 102.508 115.195 103.095 115.195L125.411 102.286H125.998V102.872L103.095 115.782C103.682 115.782 103.682 115.782 103.095 115.782Z" fill="#2565D0"/>
<path d="M103.682 112.26C103.095 112.26 103.095 112.26 103.682 112.26C103.095 111.673 103.095 111.673 103.682 111.673L123.062 100.524H123.649V101.111L103.682 112.26Z" fill="#2565D0"/>
<path d="M103.095 109.327C102.508 108.74 102.508 108.74 103.095 108.74L119.538 99.3518H120.126V99.9386L103.095 109.327C103.682 109.327 103.682 109.327 103.095 109.327Z" fill="#2565D0"/>
<path d="M103.095 105.806C102.508 105.22 102.508 105.22 103.095 105.22L116.602 97.5914H117.189V98.1782L103.095 105.806C103.682 105.806 103.682 105.806 103.095 105.806Z" fill="#2565D0"/>
<path d="M103.095 102.873C102.508 102.286 102.508 102.286 103.095 102.286L114.253 95.8314H114.84V96.4182L103.095 102.873C103.682 102.873 103.682 102.873 103.095 102.873Z" fill="#2565D0"/>
<path d="M103.095 99.352C102.508 98.7653 102.508 98.7653 103.095 98.7653L111.317 94.071H111.904V94.6578L103.095 99.352C103.682 99.352 103.682 99.352 103.095 99.352Z" fill="#2565D0"/>
<path d="M103.682 96.4182C103.095 96.4182 103.095 96.4182 103.682 96.4182C103.095 95.8314 103.095 95.8315 103.682 95.8315L108.967 92.8976H109.555V93.4844L103.682 96.4182Z" fill="#2565D0"/>
<g opacity="0.5">
<path d="M177.676 170.939C177.089 170.939 177.676 170.939 177.676 170.939L171.803 167.418V166.831H172.39L177.676 169.765C177.676 170.352 178.263 170.352 177.676 170.939Z" fill="#2565D0"/>
<path d="M182.963 168.005L172.392 161.55V160.964H172.979L183.55 167.418C183.55 166.831 183.55 167.418 182.963 168.005C183.55 168.005 182.963 168.005 182.963 168.005Z" fill="#2565D0"/>
<path d="M188.248 164.484L172.392 155.682V155.096H172.979L188.835 164.484C188.835 163.897 188.835 164.484 188.248 164.484C188.835 164.484 188.835 164.484 188.248 164.484Z" fill="#2565D0"/>
<path d="M194.121 161.551L172.392 149.228V148.641H172.979L194.708 160.964C194.708 160.964 194.708 160.964 194.121 161.551Z" fill="#2565D0"/>
<path d="M199.405 158.03L171.803 142.187V141.6H172.39L199.992 157.443C199.992 157.443 199.992 158.03 199.405 158.03C199.992 158.03 199.405 158.03 199.405 158.03Z" fill="#2565D0"/>
<path d="M205.279 155.096C204.692 155.096 204.692 155.096 205.279 155.096L172.392 136.319V135.732H172.979L205.866 154.509C205.279 154.509 205.279 154.509 205.279 155.096Z" fill="#2565D0"/>
<path d="M210.564 152.161L172.392 129.864V129.277H172.979L211.152 151.575C211.152 150.988 211.152 151.575 210.564 152.161Z" fill="#2565D0"/>
<path d="M215.85 148.642L177.091 126.344V125.757H177.678L215.85 148.055C216.437 148.055 216.437 148.642 215.85 148.642C216.437 148.642 216.437 148.642 215.85 148.642Z" fill="#2565D0"/>
<path d="M221.721 145.707C221.134 145.707 221.134 145.707 221.721 145.707L182.961 123.409V122.822H183.549L221.721 145.12C221.721 145.12 221.721 145.12 221.721 145.707Z" fill="#2565D0"/>
<path d="M227.006 142.773L188.246 120.476V119.889H188.833L227.593 142.187C227.593 141.6 227.593 142.187 227.006 142.773C227.593 142.773 227.593 142.187 227.006 142.773Z" fill="#2565D0"/>
<path d="M232.29 139.252L193.531 116.955V116.368H194.118L232.29 138.666C232.877 138.666 232.877 138.666 232.29 139.252C232.877 139.252 232.877 139.252 232.29 139.252Z" fill="#2565D0"/>
<path d="M238.754 136.319L199.407 114.022V113.435H199.994L239.341 135.732C239.341 135.732 239.341 136.319 238.754 136.319Z" fill="#2565D0"/>
<path d="M241.101 131.625C240.513 131.625 240.513 131.625 241.101 131.625L204.69 110.501V109.914H205.277L241.688 131.038C241.101 130.451 241.101 131.038 241.101 131.625C241.101 131.625 241.101 131.038 241.101 131.625Z" fill="#2565D0"/>
<path d="M240.514 125.17L209.976 107.567V106.98H210.563L240.514 124.583C241.101 123.997 241.101 124.583 240.514 125.17C241.101 125.17 241.101 125.17 240.514 125.17Z" fill="#2565D0"/>
<path d="M241.101 118.716C240.513 118.716 240.513 118.716 241.101 118.716L215.848 104.634V104.047H216.436L241.101 118.129C241.101 118.129 241.101 118.129 241.101 118.716Z" fill="#2565D0"/>
<path d="M240.514 112.261L221.134 101.112V100.525H221.721L240.514 111.674C241.101 111.674 241.101 111.674 240.514 112.261C241.101 112.261 241.101 112.261 240.514 112.261Z" fill="#2565D0"/>
<path d="M241.102 105.806C240.515 105.806 240.515 105.806 241.102 105.806L227.595 98.1776V97.5908H228.182L241.69 105.219C241.102 105.219 241.102 105.219 241.102 105.806Z" fill="#2565D0"/>
<path d="M241.103 99.352C240.516 99.352 240.516 99.352 241.103 99.352L232.881 94.6578V94.071H233.468L241.69 98.7653C241.103 98.7653 241.103 99.352 241.103 99.352Z" fill="#2565D0"/>
</g>
<path d="M241.102 135.732C240.514 135.732 239.927 135.146 239.927 134.559V89.9638C239.927 89.3771 240.514 88.7903 241.102 88.7903C241.689 88.7903 242.276 89.3771 242.276 89.9638V134.559C242.276 135.146 241.689 135.732 241.102 135.732Z" fill="#2565D0"/>
<path d="M172.395 175.633C171.808 175.633 171.221 175.046 171.221 174.459V129.864C171.221 129.277 171.808 128.691 172.395 128.691C172.982 128.691 173.57 129.277 173.57 129.864V174.459C173.57 175.046 172.982 175.633 172.395 175.633Z" fill="#2565D0"/>
<path d="M103.682 135.732C103.095 135.732 102.507 135.146 102.507 134.559V89.9638C102.507 89.3771 103.095 88.7903 103.682 88.7903C104.269 88.7903 104.856 89.3771 104.856 89.9638V134.559C104.856 135.146 104.269 135.732 103.682 135.732Z" fill="#2565D0"/>
<path d="M172.39 199.104H171.803L61.9847 135.732C61.3975 135.732 61.3975 135.146 61.3975 134.559C61.3975 133.972 61.3975 133.385 61.9847 133.385L103.093 109.914C103.68 109.328 104.268 109.914 104.855 110.501C105.442 111.088 104.855 111.675 104.268 112.261L65.5083 134.559L172.39 196.17L279.272 134.559L240.513 111.675C239.926 111.088 239.926 110.501 239.926 109.914C240.513 109.328 241.1 109.328 241.687 109.328L282.796 132.799C283.383 132.799 283.383 133.385 283.383 133.972C283.383 134.559 283.383 135.146 282.796 135.146L172.978 199.104H172.39Z" fill="#2565D0"/>
<path d="M108.379 308.831C107.791 308.244 107.791 308.831 108.379 308.831C107.791 308.244 107.791 308.244 108.379 308.244L113.077 305.31H113.664V305.897L108.379 308.831Z" fill="#2565D0"/>
<path d="M105.444 307.07C104.856 307.07 104.856 307.07 105.444 307.07C104.856 306.483 104.856 306.483 105.444 306.483L113.078 302.376H113.665V302.963L105.444 307.07Z" fill="#2565D0"/>
<path d="M102.508 305.31C101.921 304.723 101.921 304.723 102.508 304.723L112.491 298.855H113.079V299.442L102.508 305.31C103.095 305.31 102.508 305.31 102.508 305.31Z" fill="#2565D0"/>
<path d="M99.5728 304.136C98.9855 303.55 98.9855 303.55 99.5728 303.55L112.493 295.921H113.08V296.508L99.5728 304.136C100.16 304.136 100.16 304.136 99.5728 304.136Z" fill="#2565D0"/>
<path d="M97.2246 302.376C96.6374 301.79 96.6374 301.79 97.2246 301.79L112.493 292.988H113.081V293.575L97.2246 302.376Z" fill="#2565D0"/>
<path d="M94.8765 300.616C94.2892 300.616 94.2892 300.616 94.8765 300.616C94.2892 300.029 94.2892 300.029 94.8765 300.029L113.082 289.467H113.669V290.054L94.8765 300.616Z" fill="#2565D0"/>
<path d="M91.9395 298.855C91.3522 298.855 91.3522 298.855 91.9395 298.855C91.3522 298.268 91.3522 298.268 91.9395 298.268L113.081 285.946H113.668V286.533L91.9395 298.855Z" fill="#2565D0"/>
<path d="M89 297.682C88.4128 297.095 88.4128 297.095 89 297.095L112.491 283.012H113.078V283.599L89 297.682Z" fill="#2565D0"/>
<path d="M86.0645 295.921C85.4772 295.335 85.4772 295.335 86.0645 295.335L112.491 280.078H113.079V280.665L86.0645 295.921Z" fill="#2565D0"/>
<path d="M83.7163 294.161C83.1291 294.161 83.1291 294.161 83.7163 294.161C83.1291 293.574 83.1291 293.574 83.7163 293.574L113.079 276.558H113.667V277.144L83.7163 294.161Z" fill="#2565D0"/>
<path d="M80.7813 292.988C80.194 292.401 80.7813 292.988 80.7813 292.988C80.194 292.401 80.194 292.401 80.7813 292.401L113.081 273.624H113.668V274.211L80.7813 292.988Z" fill="#2565D0"/>
<path d="M77.8438 291.228C77.2565 290.641 77.2565 290.641 77.8438 290.641L112.492 270.691H113.08V271.278L77.8438 291.228Z" fill="#2565D0"/>
<path d="M74.9068 289.466C74.3195 288.88 74.3195 288.88 74.9068 288.88L112.492 267.169H113.079V267.756L74.9068 289.466C75.494 289.466 75.494 289.466 74.9068 289.466Z" fill="#2565D0"/>
<path d="M72.5586 287.707C71.9713 287.707 72.5586 287.707 72.5586 287.707C71.9713 287.12 71.9713 287.12 72.5586 287.12L113.08 263.649H113.667V264.236L72.5586 287.707Z" fill="#2565D0"/>
<path d="M69.6209 286.533C69.0336 285.946 69.0336 285.946 69.6209 285.946L113.078 261.301H113.666V261.888L69.6209 286.533Z" fill="#2565D0"/>
<path d="M66.688 284.773C66.1007 284.186 66.1007 284.186 66.688 284.186L112.495 257.781H113.082V258.368L66.688 284.773Z" fill="#2565D0"/>
<path d="M64.3357 283.013C63.7484 283.013 64.3357 283.013 64.3357 283.013C63.7484 282.426 63.7484 282.426 64.3357 282.426L113.079 254.26H113.666V254.847L64.3357 283.013Z" fill="#2565D0"/>
<path d="M61.4004 281.839C60.8131 281.252 60.8131 281.252 61.4004 281.252L112.492 251.914H113.08V252.5L61.4004 281.839Z" fill="#2565D0"/>
<path d="M58.4654 280.078C57.8781 279.491 57.8781 279.491 58.4654 279.491L113.081 248.392H113.668V248.979L58.4654 280.078Z" fill="#2565D0"/>
<path d="M54.939 278.905C54.3517 278.318 54.3517 278.318 54.939 278.318L112.491 244.872H113.078V245.459L54.939 278.905C55.5262 278.905 54.939 278.905 54.939 278.905Z" fill="#2565D0"/>
<path d="M52.5908 277.145C52.0036 277.145 52.0036 277.145 52.5908 277.145C52.0036 276.559 52.0036 276.559 52.5908 276.559L113.079 241.352H113.666V241.939L52.5908 277.145Z" fill="#2565D0"/>
<path d="M49.6533 275.971C49.0661 275.971 49.6533 275.971 49.6533 275.971C49.0661 275.384 49.0661 275.384 49.6533 275.384L113.665 238.417H114.252V239.004L49.6533 275.971Z" fill="#2565D0"/>
<path d="M47.3074 274.211C47.3074 273.624 47.3074 274.211 47.3074 274.211C46.7201 273.624 46.7201 273.037 47.3074 273.037L112.494 235.483H113.081V236.07L47.3074 274.211Z" fill="#2565D0"/>
<path d="M44.3696 272.451C43.7824 272.451 43.7824 272.451 44.3696 272.451C43.7824 271.864 43.7824 271.864 44.3696 271.864L112.492 231.963H113.08V232.55L44.3696 272.451Z" fill="#2565D0"/>
<path d="M43.7808 269.516C43.1935 268.93 43.1935 268.93 43.7808 268.93L110.729 230.202H111.316V230.789L43.7808 269.516C44.368 269.516 43.7808 269.516 43.7808 269.516Z" fill="#2565D0"/>
<path d="M43.7808 266.582C43.1935 265.995 43.1935 265.995 43.7808 265.995L107.205 229.615H107.793V230.202L43.7808 266.582C44.368 266.582 43.7808 266.582 43.7808 266.582Z" fill="#2565D0"/>
<path d="M44.3696 263.062C43.7824 263.062 43.7824 263.062 44.3696 263.062C43.7824 262.475 43.7824 262.475 44.3696 262.475L104.858 227.269H105.445V227.855L44.3696 263.062Z" fill="#2565D0"/>
<path d="M43.7808 260.128C43.1935 259.541 43.1935 259.541 43.7808 259.541L101.333 226.095H101.92V226.682L43.7808 260.128C44.368 260.128 44.368 260.128 43.7808 260.128Z" fill="#2565D0"/>
<path d="M43.7808 256.608C43.1935 256.021 43.1935 256.021 43.7808 256.021L98.9836 224.335H99.5708V224.922L43.7808 256.608C44.368 256.608 43.7808 256.608 43.7808 256.608Z" fill="#2565D0"/>
<path d="M43.7808 253.673C43.1935 253.087 43.1935 253.087 43.7808 253.087L96.6345 222.574H97.2218V223.161L43.7808 253.673C44.368 253.673 43.7808 253.673 43.7808 253.673Z" fill="#2565D0"/>
<path d="M44.3696 250.153C43.7824 250.153 43.7824 250.153 44.3696 250.153C43.7824 249.566 43.7824 249.566 44.3696 249.566L93.6998 220.814H94.2871V221.401L44.3696 250.153Z" fill="#2565D0"/>
<path d="M43.7808 247.219C43.1935 246.632 43.1935 246.632 43.7808 246.632L90.1746 219.64H90.7619V220.227L43.7808 247.219C44.368 247.219 44.368 247.219 43.7808 247.219Z" fill="#2565D0"/>
<path d="M43.7808 244.284C43.1935 243.698 43.1935 243.698 43.7808 243.698L87.2383 218.466H87.8256V219.053L43.7808 244.284C44.368 244.284 44.368 244.284 43.7808 244.284Z" fill="#2565D0"/>
<path d="M43.7808 240.764C43.1935 240.178 43.1935 240.178 43.7808 240.178L84.8892 216.12H85.4765V216.707L43.7808 240.764C44.368 240.764 43.7808 240.764 43.7808 240.764Z" fill="#2565D0"/>
<path d="M43.7808 237.831C43.1935 237.245 43.1935 237.245 43.7808 237.245L82.5402 214.947H83.1275V215.534L43.7808 237.831C44.368 237.831 43.7808 237.831 43.7808 237.831Z" fill="#2565D0"/>
<path d="M44.3696 234.311C43.7824 234.311 43.7824 234.311 44.3696 234.311C43.7824 233.724 43.7824 233.724 44.3696 233.724L80.1927 213.187H80.78V213.773L44.3696 234.311Z" fill="#2565D0"/>
<path d="M44.3696 231.377C43.7824 231.377 43.7824 231.377 44.3696 231.377C43.7824 230.79 43.7824 230.79 44.3696 230.79L77.2564 212.013H77.8437V212.6L44.3696 231.377Z" fill="#2565D0"/>
<path d="M43.7808 228.443C43.1935 227.856 43.1935 227.856 43.7808 227.856L73.7312 210.253H74.3185V210.839L43.7808 228.443C44.368 228.443 43.7808 228.443 43.7808 228.443Z" fill="#2565D0"/>
<path d="M44.3696 224.921C43.7824 224.921 43.7824 224.921 44.3696 224.921C43.7824 224.334 43.7824 224.334 44.3696 224.334L71.3838 208.491H71.971V209.078L44.3696 224.921Z" fill="#2565D0"/>
<path d="M44.3696 221.988C43.7824 221.988 43.7824 221.988 44.3696 221.988C43.7824 221.401 43.7824 221.401 44.3696 221.401L69.0347 207.318H69.622V207.905L44.3696 221.988Z" fill="#2565D0"/>
<path d="M43.7808 219.054C43.7808 218.467 43.7808 219.054 43.7808 219.054C43.1935 218.467 43.1935 218.467 43.7808 218.467L66.0968 205.558H66.6841V206.145L43.7808 219.054C44.368 219.054 43.7808 219.054 43.7808 219.054Z" fill="#2565D0"/>
<path d="M43.7808 215.533C43.1935 214.946 43.1935 214.946 43.7808 214.946L63.1605 203.797H63.7478V204.384L43.7808 215.533C44.368 215.533 43.7808 215.533 43.7808 215.533Z" fill="#2565D0"/>
<path d="M44.3696 212.012C43.7824 212.012 44.3696 212.012 44.3696 212.012C43.7824 211.425 43.7824 211.425 44.3696 211.425L60.813 202.037H61.4003V202.624L44.3696 212.012Z" fill="#2565D0"/>
<path d="M44.3714 209.078C43.7842 209.078 43.7842 209.078 44.3714 209.078C43.7842 208.491 43.7842 208.491 43.7842 208.491L57.2912 200.276H57.8785V200.863L44.3714 209.078Z" fill="#2565D0"/>
<path d="M44.3696 206.145C43.7824 205.558 44.3696 206.145 44.3696 206.145C43.7824 205.558 43.7824 205.558 44.3696 205.558L54.9404 199.104H55.5277V199.69L44.3696 206.145Z" fill="#2565D0"/>
<path d="M44.3696 202.624C43.7824 202.624 44.3696 202.624 44.3696 202.624C43.7824 202.037 43.7824 202.037 44.3696 202.037L52.5913 197.343H53.1786V197.93L44.3696 202.624Z" fill="#2565D0"/>
<path d="M44.3696 199.69C43.7824 199.69 44.3696 199.69 44.3696 199.69C43.7824 199.104 43.7824 199.104 44.3696 199.104L49.655 196.17H50.2423V196.756L44.3696 199.69Z" fill="#2565D0"/>
<path d="M151.841 290.641C151.254 290.641 150.667 290.055 150.667 289.468V210.84L81.9569 170.939C81.3696 170.352 81.3696 169.765 81.3696 169.179C81.9569 168.592 82.5442 168.592 83.1314 168.592L152.429 208.493C153.016 208.493 153.016 209.079 153.016 209.666V288.881C153.016 289.468 152.429 290.641 151.841 290.641Z" fill="#2565D0"/>
<path d="M113.079 312.351H112.492L43.7823 273.037C43.1951 273.037 43.1951 272.451 43.1951 271.864V192.649C43.1951 192.062 43.1951 191.475 43.7823 191.475C44.3696 191.475 44.9569 191.475 44.9569 191.475L113.667 231.376C114.254 231.376 114.254 231.963 114.254 232.55V311.765C114.254 312.351 114.254 312.938 113.667 312.938C113.667 312.351 113.079 312.351 113.079 312.351ZM45.5441 270.69L111.905 308.831V232.55L45.5441 194.409V270.69Z" fill="#2565D0"/>
<path d="M44.368 193.235C43.7807 193.235 43.1934 193.235 43.1934 192.648C42.6062 192.062 43.1934 191.475 43.7807 190.888L81.9529 168.59C82.5401 168.004 83.1274 168.59 83.7147 169.177C84.3019 169.764 83.7147 170.351 83.1274 170.938L44.368 193.235C44.9552 193.235 44.368 193.235 44.368 193.235Z" fill="#2565D0"/>
<path d="M113.079 312.351C112.492 312.351 111.904 312.351 111.904 311.764C111.317 311.178 111.904 310.591 112.492 310.004L151.251 287.707C151.838 287.12 152.426 287.707 153.013 288.293C153.6 288.88 153.013 289.467 152.426 290.054L113.666 312.351H113.079Z" fill="#2565D0"/>
<path d="M172.39 325.847H171.803L130.695 302.376C130.107 301.789 130.107 301.202 130.107 300.616C130.695 300.029 131.282 300.029 131.869 300.029L170.629 322.326V198.516L63.7465 136.905V182.087C63.7465 182.673 63.1593 183.26 62.572 183.26C61.9847 183.26 61.3975 182.673 61.3975 182.087V134.558C61.3975 133.971 61.3975 133.384 61.9847 133.384C62.572 133.384 63.1593 133.384 63.1593 133.384L172.978 196.756C173.565 196.756 173.565 197.343 173.565 197.93V324.673C173.565 325.26 173.565 325.847 172.978 325.847H172.39Z" fill="#2565D0"/>
<path d="M192.946 290.053C192.359 290.053 191.771 289.466 191.771 288.879V209.664C191.771 209.077 191.771 208.491 192.359 208.491L261.069 168.59C261.656 168.003 262.243 168.59 262.83 169.177C263.418 169.763 262.83 170.35 262.243 170.937L194.121 210.251V288.879C194.121 289.466 193.533 290.053 192.946 290.053Z" fill="#2565D0"/>
<path d="M231.118 312.353H230.531C229.944 312.353 229.944 311.766 229.944 311.179V231.964C229.944 231.377 229.944 230.791 230.531 230.791L299.241 190.89C299.828 190.89 300.416 190.89 300.416 190.89C301.003 190.89 301.003 191.477 301.003 192.063V271.278C301.003 271.865 301.003 272.452 300.416 272.452L231.706 312.353C231.706 312.353 231.706 312.353 231.118 312.353ZM232.88 232.551V308.832L299.241 270.691V194.411L232.88 232.551Z" fill="#2565D0"/>
<path d="M192.953 216.707C192.365 216.12 192.365 216.12 192.953 216.12L198.238 213.186H198.825V213.773L192.953 216.707Z" fill="#2565D0"/>
<path d="M192.953 219.64C192.365 219.64 192.365 219.64 192.953 219.64C192.365 219.054 192.365 219.054 192.953 219.054L201.174 214.359H201.762V214.946L192.953 219.64Z" fill="#2565D0"/>
<path d="M192.953 223.16C192.953 222.573 192.953 223.16 192.953 223.16C192.365 222.573 192.365 222.573 192.953 222.573L203.523 216.706H204.111V217.292L192.953 223.16C192.953 223.16 192.953 222.573 192.953 223.16Z" fill="#2565D0"/>
<path d="M192.953 226.095C192.365 226.095 192.953 226.095 192.953 226.095C192.365 225.508 192.365 225.508 192.953 225.508L206.46 217.88H207.047V218.467L192.953 226.095Z" fill="#2565D0"/>
<path d="M192.953 229.028C192.365 228.441 192.365 228.441 192.953 228.441L208.809 219.639H209.396V220.226L192.953 229.028Z" fill="#2565D0"/>
<path d="M192.953 231.962C192.365 231.376 192.365 231.376 192.953 231.376L212.332 220.814H212.92V221.4L192.953 231.962Z" fill="#2565D0"/>
<path d="M192.953 235.484C192.365 234.897 192.365 234.897 192.953 234.897L214.681 222.574H215.269V223.161L192.953 235.484Z" fill="#2565D0"/>
<path d="M192.953 238.417C192.365 237.83 192.365 237.83 192.953 237.83L217.618 223.747H218.205V224.334L192.953 238.417Z" fill="#2565D0"/>
<path d="M192.953 241.938C192.365 241.351 192.365 241.351 192.953 241.351L220.554 225.508H221.141V226.095L192.953 241.938Z" fill="#2565D0"/>
<path d="M192.953 244.872C192.365 244.285 192.365 244.285 192.953 244.285L222.903 227.268H223.49V227.855L192.953 244.872C193.54 244.872 193.54 244.872 192.953 244.872Z" fill="#2565D0"/>
<path d="M192.953 248.392C192.365 247.806 192.365 247.806 192.953 247.806L225.839 229.029H226.427V229.616L192.953 248.392Z" fill="#2565D0"/>
<path d="M193.189 251.164C192.602 250.577 192.602 250.577 193.189 250.577L226.076 231.8H226.663V232.387L193.189 251.164Z" fill="#2565D0"/>
<path d="M192.953 254.847C192.953 254.26 192.953 254.847 192.953 254.847C192.365 254.26 192.365 254.26 192.953 254.26L231.125 232.55H231.712V233.136L192.953 254.847Z" fill="#2565D0"/>
<path d="M192.953 257.781C192.365 257.194 192.365 257.194 192.953 257.194L231.712 234.897H232.299V235.483L192.953 257.781Z" fill="#2565D0"/>
<path d="M192.953 260.714C192.365 260.127 192.365 260.127 192.953 260.127L231.125 237.83H231.712V238.417L192.953 260.714Z" fill="#2565D0"/>
<path d="M192.953 264.235C192.365 263.648 192.365 263.648 192.953 263.648L231.125 241.351H231.712V241.937L192.953 264.235Z" fill="#2565D0"/>
<path d="M192.953 267.169C192.365 266.583 192.365 266.583 192.953 266.583L231.125 244.285H231.712V244.872L192.953 267.169Z" fill="#2565D0"/>
<path d="M192.953 270.69C192.953 270.104 192.953 270.69 192.953 270.69C192.365 270.104 192.365 270.104 192.953 270.104L231.125 247.806H231.712V248.393L192.953 270.69Z" fill="#2565D0"/>
<path d="M192.953 273.624C192.365 273.624 192.953 273.624 192.953 273.624C192.365 273.037 192.365 273.037 192.953 273.037L231.712 250.74H232.299V251.326L192.953 273.624Z" fill="#2565D0"/>
<path d="M192.953 276.558C192.365 275.971 192.365 275.971 192.953 275.971L231.125 253.674H231.712V254.261L192.953 276.558Z" fill="#2565D0"/>
<path d="M192.953 280.078C192.365 279.491 192.365 279.491 192.953 279.491L231.125 257.194H231.712V257.781L192.953 280.078Z" fill="#2565D0"/>
<path d="M192.953 283.012C192.365 282.426 192.365 282.426 192.953 282.426L231.125 260.128H231.712V260.715L192.953 283.012Z" fill="#2565D0"/>
<path d="M192.368 286.533C191.78 286.533 192.368 286.533 192.368 286.533C191.78 285.946 191.78 285.946 192.368 285.946L231.714 263.649H232.302V264.235L192.368 286.533Z" fill="#2565D0"/>
<path d="M192.953 289.467C192.365 288.88 192.365 288.88 192.953 288.88L231.125 266.582H231.712V267.169L192.953 289.467Z" fill="#2565D0"/>
<path d="M195.89 291.226C195.303 291.226 195.303 291.226 195.89 291.226C195.303 290.64 195.303 290.64 195.89 290.64L232.3 269.516H232.888V270.102L195.89 291.226Z" fill="#2565D0"/>
<path d="M198.238 292.987C198.238 292.4 198.238 292.987 198.238 292.987C197.651 292.4 197.651 292.4 198.238 292.4L231.125 273.623H231.712V274.21L198.238 292.987C198.825 292.987 198.238 292.987 198.238 292.987Z" fill="#2565D0"/>
<path d="M201.176 294.161C200.589 293.574 200.589 293.574 201.176 293.574L231.126 275.971H231.714V276.558L201.176 294.161Z" fill="#2565D0"/>
<path d="M204.113 295.922C203.526 295.922 203.526 295.922 204.113 295.922C203.526 295.335 203.526 295.335 204.113 295.335L231.714 279.492H232.301V280.079L204.113 295.922Z" fill="#2565D0"/>
<path d="M206.461 297.682C205.874 297.095 205.874 297.095 206.461 297.095L231.126 283.012H231.713V283.599L206.461 297.682C207.048 297.682 206.461 297.682 206.461 297.682Z" fill="#2565D0"/>
<path d="M209.398 298.855C208.811 298.268 208.811 298.268 209.398 298.268L231.714 285.359H232.302V285.946L209.398 298.855Z" fill="#2565D0"/>
<path d="M212.331 300.616C211.744 300.616 212.331 300.616 212.331 300.616C211.744 300.029 211.744 300.029 212.331 300.029L231.711 288.88H232.298V289.467L212.331 300.616Z" fill="#2565D0"/>
<path d="M214.682 302.376C214.095 301.789 214.095 301.789 214.682 301.789L231.125 292.4H231.713V292.987L214.682 302.376C215.269 302.376 215.269 302.376 214.682 302.376Z" fill="#2565D0"/>
<path d="M217.617 304.136C217.617 303.549 217.617 304.136 217.617 304.136C217.03 303.549 217.03 303.549 217.617 303.549L231.124 295.921H231.711V296.507L217.617 304.136C217.617 304.136 217.617 303.549 217.617 304.136Z" fill="#2565D0"/>
<path d="M220.557 305.31C219.969 305.31 219.969 305.31 220.557 305.31C219.969 304.723 219.969 304.723 220.557 304.723L231.715 298.269H232.302V298.855L220.557 305.31Z" fill="#2565D0"/>
<path d="M222.905 307.071C222.317 306.484 222.317 306.484 222.905 306.484L231.126 301.79H231.714V302.376L222.905 307.071C223.492 307.071 223.492 307.071 222.905 307.071Z" fill="#2565D0"/>
<path d="M225.84 308.831C225.84 308.244 225.84 308.831 225.84 308.831C225.253 308.244 225.253 308.244 225.84 308.244L231.125 305.31H231.713V305.897L225.84 308.831C226.427 308.244 225.84 308.831 225.84 308.831Z" fill="#2565D0"/>
<path d="M300.417 193.236H299.83L261.07 170.939C260.483 170.352 260.483 169.765 260.483 169.178C261.07 168.592 261.657 168.592 262.245 168.592L301.004 190.889C301.591 191.476 301.591 192.063 301.591 192.65C301.004 193.236 300.417 193.236 300.417 193.236Z" fill="#2565D0"/>
<path d="M231.123 233.136H230.535L191.776 210.838C191.189 210.251 191.189 209.665 191.189 209.078C191.776 208.491 192.363 208.491 192.951 208.491L231.71 230.789C232.297 231.375 232.297 231.962 232.297 232.549C232.297 233.136 231.71 233.136 231.123 233.136Z" fill="#2565D0"/>
<path d="M231.123 312.351H230.535L191.776 290.053C191.189 289.466 191.189 288.88 191.189 288.293C191.776 287.706 192.363 287.706 192.951 287.706L231.71 310.004C232.297 310.59 232.297 311.177 232.297 311.764C232.297 312.351 231.71 312.351 231.123 312.351Z" fill="#2565D0"/>
<path d="M172.394 336.997C171.807 336.997 172.394 336.997 172.394 336.997L52.0051 267.757C52.0051 267.757 52.0051 267.757 52.0051 267.17V128.104V127.517L171.807 58.8644H172.394L292.783 128.104C292.783 128.104 292.783 128.104 292.783 128.691V267.17V267.757L172.394 336.997ZM52.5924 266.583L172.394 335.823L292.196 266.583V128.691L172.394 59.4512L52.5924 128.691V266.583Z" fill="#2565D0"/>
<path d="M172.391 351.079C171.803 351.079 172.391 351.079 172.391 351.079L39.0818 274.798C39.0818 274.798 39.0818 274.798 39.0818 274.211V121.062V120.475L171.803 44.1945H172.391L305.112 120.475C305.112 120.475 305.112 120.475 305.112 121.062V274.211V274.798L172.391 351.079ZM40.2563 274.211L172.391 350.492L304.525 274.211V121.649L172.391 45.368L40.2563 121.649V274.211Z" fill="#2565D0"/>
<path d="M235.846 232.114C235.846 234.408 234.07 236.193 231.786 236.193C229.503 236.193 227.727 234.408 227.727 232.114C227.727 229.82 229.503 228.036 231.786 228.036C234.07 228.036 235.846 229.82 235.846 232.114Z" fill="#2565D0"/>
<path d="M309.815 121.062C309.815 123.996 307.466 125.756 305.117 125.756C302.18 125.756 300.418 123.409 300.418 121.062C300.418 118.715 302.767 116.368 305.117 116.368C307.466 116.368 309.815 118.715 309.815 121.062Z" fill="#2565D0"/>
<path d="M177.093 350.491C177.093 353.425 174.744 355.185 172.395 355.185C170.046 355.185 167.697 352.838 167.697 350.491C167.697 347.557 170.046 345.797 172.395 345.797C174.744 345.797 177.093 348.144 177.093 350.491Z" fill="#2565D0"/>
<path d="M177.68 325.261C177.68 328.195 175.331 329.955 172.982 329.955C170.045 329.955 168.284 327.608 168.284 325.261C168.284 322.327 170.633 320.567 172.982 320.567C175.331 320.567 177.68 322.327 177.68 325.261Z" fill="#2565D0"/>
<path d="M67.2717 134.559C67.2717 137.492 64.9227 139.253 62.5736 139.253C59.6373 139.253 57.8755 136.906 57.8755 134.559C57.8755 131.625 60.2245 129.864 62.5736 129.864C64.9227 129.278 67.2717 131.625 67.2717 134.559Z" fill="#2565D0"/>
<path d="M266.941 170.351C266.941 173.285 264.592 175.045 262.243 175.045C259.307 175.045 257.545 172.698 257.545 170.351C257.545 167.417 259.894 165.657 262.243 165.657C264.592 165.657 266.941 168.004 266.941 170.351Z" fill="#2565D0"/>
<path d="M177.093 173.286C177.093 176.22 174.744 177.98 172.395 177.98C170.046 177.98 167.697 175.633 167.697 173.286C167.697 170.352 170.046 168.592 172.395 168.592C174.744 168.592 177.093 170.939 177.093 173.286Z" fill="#2565D0"/>
<path d="M309.578 274.141C309.578 277.075 307.229 278.836 304.879 278.836C302.53 278.836 300.181 276.489 300.181 274.141C300.181 271.208 302.53 269.447 304.879 269.447C307.229 269.447 309.578 271.794 309.578 274.141Z" fill="#2565D0"/>
<path d="M44.3713 121.062C44.3713 123.996 42.0223 125.756 39.6732 125.756C37.3242 125.756 34.9751 123.409 34.9751 121.062C34.9751 118.715 37.3242 116.368 39.6732 116.368C42.0223 116.368 44.3713 118.715 44.3713 121.062Z" fill="#2565D0"/>
<path d="M181.2 129.278C181.2 134.559 177.089 138.666 171.803 138.666C166.518 138.666 162.407 134.559 162.407 129.278C162.407 123.997 166.518 119.889 171.803 119.889C177.089 120.476 181.2 124.583 181.2 129.278Z" fill="#2565D0"/>
<path d="M172.393 152.748C159.473 152.748 149.49 142.186 149.49 129.864C149.49 116.955 160.061 106.98 172.393 106.98C185.313 106.98 195.297 117.542 195.297 129.864C195.297 142.186 184.726 152.748 172.393 152.748ZM172.393 107.566C160.061 107.566 150.077 117.542 150.077 129.864C150.077 142.186 160.061 152.161 172.393 152.161C184.726 152.161 194.709 142.186 194.709 129.864C194.122 117.542 184.726 107.566 172.393 107.566Z" fill="#2565D0"/>
<path d="M305.119 131.624C299.246 131.624 294.548 126.93 294.548 121.062C294.548 115.195 299.246 110.5 305.119 110.5C310.991 110.5 315.689 115.195 315.689 121.062C315.102 126.93 310.991 131.624 305.119 131.624ZM305.119 111.674C299.833 111.674 295.722 115.781 295.722 121.062C295.722 126.343 299.833 130.451 305.119 130.451C310.404 130.451 314.515 126.343 314.515 121.062C314.515 115.781 310.404 111.674 305.119 111.674Z" fill="#2565D0"/>
<path d="M39.6728 131.625C33.8002 131.625 29.1021 126.931 29.1021 121.063C29.1021 115.195 33.8002 110.501 39.6728 110.501C45.5454 110.501 50.2435 115.195 50.2435 121.063C50.2435 126.931 45.5454 131.625 39.6728 131.625ZM39.6728 111.675C34.3874 111.675 30.2766 115.782 30.2766 121.063C30.2766 126.344 34.3874 130.451 39.6728 130.451C44.9582 130.451 49.069 126.344 49.069 121.063C49.069 115.782 44.9582 111.675 39.6728 111.675Z" fill="#2565D0"/>
</svg>
