<svg width="60" height="60" viewBox="0 0 60 60" fill="none" xmlns="http://www.w3.org/2000/svg">
<g clip-path="url(#clip0_1659_2420)">
<rect width="60" height="60" rx="8" fill="#2565D0"/>
<path d="M24.3343 35.1689H35.6655C44.9952 35.1689 52.553 42.7268 52.553 52.0564V58.8689C52.553 62.8064 49.3593 64.0002 45.4218 64.0002H14.578C10.6405 64.0002 7.44678 62.8064 7.44678 58.8689V52.0564C7.44678 42.7268 15.0046 35.1689 24.3343 35.1689Z" fill="#DAE3FF"/>
<path d="M29.9998 32.0406C36.6384 32.0406 42.0201 26.6589 42.0201 20.0203C42.0201 13.3817 36.6384 8 29.9998 8C23.3612 8 17.9795 13.3817 17.9795 20.0203C17.9795 26.6589 23.3612 32.0406 29.9998 32.0406Z" fill="#DAE3FF"/>
</g>
<defs>
<clipPath id="clip0_1659_2420">
<rect width="60" height="60" fill="white"/>
</clipPath>
</defs>
</svg>
