<svg width="32" height="32" viewBox="0 0 32 32" fill="none" xmlns="http://www.w3.org/2000/svg">
<path d="M23.9327 17.8113V24H20.3101V18.1887C20.3101 16.7547 19.7818 15.7736 18.4988 15.7736C17.5176 15.7736 16.9139 16.4528 16.6874 17.0566C16.612 17.283 16.5365 17.5849 16.5365 17.9623V24H12.9139C12.9139 24 12.9893 14.1887 12.9139 13.2075H16.5365V14.717C16.9893 13.9623 17.895 12.9057 19.7818 12.9057C22.1214 12.9057 23.9327 14.4906 23.9327 17.8113ZM9.14027 8C7.93273 8 7.10254 8.83019 7.10254 9.88679C7.10254 10.9434 7.85725 11.7736 9.0648 11.7736C10.3478 11.7736 11.1025 10.9434 11.1025 9.88679C11.178 8.75472 10.4233 8 9.14027 8ZM7.32895 24H10.9516V13.2075H7.32895V24Z" fill="currentColor"/>
</svg>
