<svg width="51" height="50" viewBox="0 0 51 50" fill="none" xmlns="http://www.w3.org/2000/svg">
<path d="M22.4226 30.8799V19.7099C22.4215 19.5113 22.4796 19.3168 22.5897 19.1513C22.6998 18.9858 22.8568 18.8567 23.0407 18.7805C23.2246 18.7044 23.4271 18.6846 23.6224 18.7236C23.8176 18.7627 23.9968 18.8589 24.137 18.9999L29.7313 24.5899C29.918 24.7773 30.0228 25.0307 30.0228 25.2949C30.0228 25.5591 29.918 25.8126 29.7313 25.9999L24.137 31.5899C23.9968 31.7309 23.8176 31.8271 23.6224 31.8662C23.4271 31.9053 23.2246 31.8855 23.0407 31.8093C22.8568 31.7331 22.6998 31.6041 22.5897 31.4385C22.4796 31.273 22.4215 31.0785 22.4226 30.8799Z" fill="url(#paint0_linear_1713_3152)"/>
<path d="M48.9941 25C48.9941 37.9751 38.4478 48.5 25.4301 48.5C12.4125 48.5 1.86621 37.9751 1.86621 25C1.86621 12.0249 12.4125 1.5 25.4301 1.5C38.4478 1.5 48.9941 12.0249 48.9941 25Z" stroke="url(#paint1_linear_1713_3152)" stroke-width="3"/>
<defs>
<linearGradient id="paint0_linear_1713_3152" x1="26.2227" y1="31.8855" x2="26.2227" y2="18.7041" gradientUnits="userSpaceOnUse">
<stop offset='0' stop-color="#56C3DB"/>
<stop offset="1" stop-color="#2B68D5"/>
</linearGradient>
<linearGradient id="paint1_linear_1713_3152" x1="25.4301" y1="49.999" x2="25.4301" y2="4.17224e-05" gradientUnits="userSpaceOnUse">
<stop offset='0' stop-color="#56C3DB"/>
<stop offset="1" stop-color="#2B68D5"/>
</linearGradient>
</defs>
</svg>
