<svg width="51" height="50" viewBox="0 0 51 50" fill="none" xmlns="http://www.w3.org/2000/svg">
<path d="M22.4866 30.8799V19.7099C22.4854 19.5113 22.5436 19.3168 22.6537 19.1513C22.7638 18.9858 22.9208 18.8567 23.1047 18.7805C23.2886 18.7044 23.4911 18.6846 23.6863 18.7236C23.8816 18.7627 24.0607 18.8589 24.201 18.9999L29.7952 24.5899C29.982 24.7773 30.0868 25.0307 30.0868 25.2949C30.0868 25.5591 29.982 25.8126 29.7952 25.9999L24.201 31.5899C24.0607 31.7309 23.8816 31.8271 23.6863 31.8662C23.4911 31.9053 23.2886 31.8855 23.1047 31.8093C22.9208 31.7331 22.7638 31.6041 22.6537 31.4385C22.5436 31.273 22.4854 31.0785 22.4866 30.8799Z" fill="#F8F8F8"/>
<path d="M49.0581 25C49.0581 37.9751 38.5117 48.5 25.4941 48.5C12.4765 48.5 1.93018 37.9751 1.93018 25C1.93018 12.0249 12.4765 1.5 25.4941 1.5C38.5117 1.5 49.0581 12.0249 49.0581 25Z" stroke="#F8F8F8" stroke-width="3"/>
</svg>
