<svg width="84" height="50" viewBox="0 0 84 50" fill="none" xmlns="http://www.w3.org/2000/svg">
<g filter="url(#filter0_d_1694_3217)">
<path d="M42.1263 33.0588H32.2938L30.285 39.2702C30.2321 39.5081 30.0207 39.6667 29.7828 39.6403H24.8136C24.5229 39.6403 24.4436 39.4817 24.5229 39.1645L33.0338 14.6624C33.1131 14.3981 33.1924 14.1073 33.2981 13.7901C33.4038 13.2351 33.4567 12.6536 33.4567 12.072C33.4303 11.9398 33.536 11.8078 33.6682 11.7812H33.7475H40.5139C40.7254 11.7812 40.8311 11.8605 40.8575 11.9927L50.5051 39.2173C50.5844 39.5081 50.5051 39.6402 50.2408 39.6402H44.7166C44.5316 39.6666 44.3465 39.5345 44.2937 39.3494L42.1263 33.0588ZM33.8268 27.6932H40.5404L37.1572 16.6711L33.8268 27.6932Z" fill="#FF9A00"/>
<path d="M56.2661 16.3015C55.3938 16.3279 54.548 15.9843 53.9136 15.3764C53.3056 14.7156 52.9885 13.8434 53.015 12.9446C52.9886 12.046 53.3321 11.2001 53.9665 10.5921C54.6009 9.98417 55.4467 9.66699 56.319 9.66699C57.3498 9.66699 58.1427 9.98417 58.7242 10.5921C59.3057 11.2265 59.6228 12.0724 59.5964 12.9446C59.6228 13.8432 59.3057 14.7155 58.6713 15.3764C58.0635 16.0107 57.1647 16.3543 56.2661 16.3015Z" fill="#FF9A00"/>
<path d="M53.3064 39.244V18.8916C53.3064 18.6273 53.4121 18.5215 53.65 18.5215H58.8834C59.1213 18.5215 59.227 18.6537 59.227 18.8916V39.244C59.227 39.5348 59.1213 39.6669 58.8834 39.6669H53.7029C53.4385 39.6669 53.3064 39.5083 53.3064 39.244Z" fill="#FF9A00"/>
</g>
<defs>
<filter id="filter0_d_1694_3217" x="-6.5061" y="-5.33301" width="99" height="64" filterUnits="userSpaceOnUse" color-interpolation-filters="sRGB">
<feFlood flood-opacity="0" result="BackgroundImageFix"/>
<feColorMatrix in="SourceAlpha" type="matrix" values="0 0 0 0 0 0 0 0 0 0 0 0 0 0 0 0 0 0 127 0" result="hardAlpha"/>
<feOffset dx="1" dy="2"/>
<feGaussianBlur stdDeviation="4"/>
<feComposite in2="hardAlpha" operator="out"/>
<feColorMatrix type="matrix" values="0 0 0 0 0.145098 0 0 0 0 0.396078 0 0 0 0 0.815686 0 0 0 0.14 0"/>
<feBlend mode="normal" in2="BackgroundImageFix" result="effect1_dropShadow_1694_3217"/>
<feBlend mode="normal" in="SourceGraphic" in2="effect1_dropShadow_1694_3217" result="shape"/>
</filter>
</defs>
</svg>
