<svg width="84" height="50" viewBox="0 0 84 50" fill="none" xmlns="http://www.w3.org/2000/svg">
<path d="M41.6324 32.3921H31.7999L29.7911 38.6035C29.7382 38.8414 29.5268 39 29.2889 38.9736H24.3197C24.029 38.9736 23.9497 38.815 24.029 38.4978L32.5399 13.9956C32.6192 13.7314 32.6985 13.4406 32.8042 13.1234C32.9099 12.5683 32.9628 11.9869 32.9628 11.4053C32.9364 11.2731 33.0421 11.141 33.1743 11.1145H33.2536H40.02C40.2315 11.1145 40.3372 11.1938 40.3636 11.326L50.0112 38.5506C50.0905 38.8414 50.0112 38.9734 49.7469 38.9734H44.2227C44.0377 38.9998 43.8526 38.8678 43.7998 38.6826L41.6324 32.3921ZM33.3329 27.0264H40.0465L36.6633 16.0044L33.3329 27.0264Z" fill="#212B36"/>
<path d="M55.7722 15.6345C54.8999 15.6609 54.0541 15.3173 53.4197 14.7094C52.8117 14.0486 52.4946 13.1764 52.5211 12.2776C52.4947 11.379 52.8382 10.5331 53.4726 9.92515C54.107 9.31718 54.9528 9 55.8251 9C56.8559 9 57.6489 9.31718 58.2303 9.92515C58.8118 10.5595 59.1289 11.4054 59.1026 12.2776C59.1289 13.1762 58.8118 14.0485 58.1774 14.7094C57.5696 15.3437 56.6708 15.6873 55.7722 15.6345Z" fill="#212B36"/>
<path d="M52.8125 38.5772V18.2248C52.8125 17.9605 52.9182 17.8547 53.1561 17.8547H58.3895C58.6274 17.8547 58.7331 17.9869 58.7331 18.2248V38.5772C58.7331 38.868 58.6274 39.0001 58.3895 39.0001H53.209C52.9446 39.0001 52.8125 38.8415 52.8125 38.5772Z" fill="#212B36"/>
</svg>
