<svg width="84" height="49" viewBox="0 0 84 49" fill="none" xmlns="http://www.w3.org/2000/svg">
<g clip-path="url(#clip0_1694_3282)">
<path d="M72.2354 19.5661C72.2985 19.6271 72.3484 19.7005 72.382 19.7816C72.4157 19.8627 72.4323 19.9498 72.4309 20.0376C72.4319 20.1259 72.4151 20.2135 72.3815 20.2952C72.3479 20.377 72.2982 20.4511 72.2354 20.5132C72.1047 20.648 71.9468 20.7105 71.7606 20.7105C71.5744 20.7105 71.4172 20.6456 71.285 20.5151C71.2224 20.4537 71.173 20.3803 71.1397 20.2992C71.1064 20.2182 71.0899 20.1312 71.0912 20.0435C71.0902 19.9552 71.107 19.8676 71.1406 19.7859C71.1742 19.7042 71.2239 19.6301 71.2867 19.568C71.4174 19.4331 71.572 19.3706 71.7622 19.3706C71.8503 19.3692 71.9377 19.3858 72.0191 19.4194C72.1005 19.4531 72.1741 19.5028 72.2354 19.5661ZM72.1791 20.4554C72.2339 20.401 72.2773 20.3361 72.3066 20.2646C72.3359 20.1931 72.3506 20.1165 72.3498 20.0393C72.351 19.9624 72.3366 19.8861 72.3076 19.8149C72.2785 19.7437 72.2354 19.6791 72.1807 19.625C72.1271 19.5694 72.0625 19.5254 71.9911 19.4958C71.9196 19.4663 71.8429 19.4518 71.7656 19.4534C71.688 19.4515 71.6109 19.4659 71.5393 19.4957C71.4676 19.5254 71.4029 19.5698 71.3494 19.626C71.2943 19.6801 71.2508 19.745 71.2215 19.8165C71.1923 19.8881 71.178 19.9648 71.1794 20.0421C71.1794 20.2045 71.2358 20.3427 71.3478 20.4573C71.4011 20.5131 71.4655 20.5572 71.5368 20.5867C71.6081 20.6163 71.6848 20.6307 71.762 20.629C71.9285 20.629 72.0642 20.571 72.1791 20.4554ZM72.0852 19.9104C72.0852 20.03 72.0328 20.1054 71.9282 20.1358L72.1204 20.3962H71.9648L71.7913 20.1546H71.6324V20.3962H71.5069V19.6731H71.7784C71.8878 19.6731 71.9686 19.6921 72.0162 19.7294C72.0638 19.7668 72.0871 19.8245 72.0871 19.9097L72.0852 19.9104ZM71.9235 20.0119C71.9491 19.9915 71.961 19.9565 71.961 19.9097C71.961 19.8628 71.9482 19.8293 71.9225 19.8105C71.8968 19.7917 71.8507 19.7832 71.7858 19.7832H71.6319V20.0435H71.7817C71.8531 20.0435 71.8987 20.0324 71.9235 20.0119ZM26.961 16.5942V17.921H26.7903V16.5942H26.3052V16.4277H27.4466V16.5942H26.9591H26.961ZM29.3403 17.921V17.2643H28.4419V17.921H28.2736V16.4289H28.4443V17.1028H29.3427V16.4289H29.5134V17.921H29.3427H29.3403ZM30.7 16.5942V17.0845H31.4523V17.251H30.7V17.7617H31.5693V17.9239H30.529V16.432H31.542V16.5985H30.7002L30.7 16.5942Z" fill="#6D6E71"/>
<path d="M25.0042 28.1459L28.5681 19.6259H29.2522L32.8162 28.1459H31.9159L30.8119 25.4822H26.984L25.8916 28.1459H25.0042ZM28.9167 20.6099L27.1649 24.822H30.6212L28.9162 20.6099H28.9167ZM33.7362 28.1459V19.6259H37.2643C38.7281 19.6259 39.7848 20.9822 39.7848 22.3017C39.7848 23.6937 38.8009 25.0013 37.337 25.0013H34.5644V28.1449H33.7357L33.7362 28.1459ZM34.5647 24.2573H37.2859C38.2937 24.2573 38.9419 23.3333 38.9419 22.3015C38.9419 21.2331 38.15 20.3697 37.2141 20.3697H34.5647V24.2573ZM39.3204 28.1459L42.8844 19.6259H43.5685L47.1325 28.1459H46.2322L45.1258 25.4822H41.2979L40.2055 28.1459H39.3181H39.3204ZM43.2306 20.6099L41.4788 24.822H44.9351L43.2306 20.6099ZM51.1625 19.5771C52.6742 19.5771 53.7782 20.3452 54.3061 21.4374L53.6339 21.8457C53.0941 20.7173 52.0376 20.334 51.1133 20.334C49.0731 20.334 47.9579 22.1583 47.9579 23.8742C47.9579 25.7582 49.338 27.4648 51.1495 27.4648C52.1094 27.4648 53.2377 26.985 53.7775 25.8804L54.4735 26.24C53.9218 27.5117 52.4095 28.2198 51.1017 28.2198C48.7618 28.2198 47.1175 25.9882 47.1175 23.8283C47.1185 21.7769 48.5918 19.5802 51.1599 19.5802L51.1625 19.5771ZM62.3659 19.6259V28.1459H61.5256V24.1617H56.4738V28.1459H55.6463V19.6259H56.4738V23.4181H61.5256V19.6259H62.3659ZM70.0142 27.4011V28.1449H64.2906V19.6259H69.9072V20.3697H65.1191V23.4419H69.2953V24.1498H65.1191V27.4021H70.0144L70.0142 27.4011Z" fill="#D22128"/>
<path d="M25.7994 29.9501C25.9002 29.9801 25.9889 30.021 26.064 30.069L25.976 30.2621C25.8992 30.211 25.8172 30.1732 25.7292 30.148C25.6412 30.1228 25.5585 30.1104 25.4795 30.1104C25.3635 30.1104 25.2703 30.1309 25.2013 30.1727C25.1324 30.2146 25.0972 30.2735 25.0972 30.3494C25.0972 30.4143 25.1169 30.469 25.1552 30.5116C25.1953 30.5554 25.2449 30.5896 25.3002 30.6114C25.3583 30.6352 25.4377 30.6626 25.5395 30.6935L25.8357 30.8036C25.9112 30.8378 25.9772 30.89 26.0279 30.9555C26.0809 31.0221 26.1073 31.111 26.1073 31.2202C26.1073 31.32 26.0799 31.4064 26.0264 31.4817C25.9729 31.5571 25.8957 31.6142 25.7975 31.6553C25.6992 31.6965 25.5849 31.7171 25.4558 31.7171C25.3271 31.7172 25.1997 31.692 25.0808 31.643C24.9656 31.5952 24.8598 31.5276 24.7681 31.4432L24.8594 31.2587C24.9412 31.3389 25.0378 31.4025 25.1438 31.4458C25.2515 31.4903 25.3578 31.5124 25.4581 31.5124C25.5889 31.5124 25.6912 31.4867 25.7665 31.4363C25.8419 31.3859 25.8793 31.3174 25.8793 31.2323C25.8793 31.1657 25.8595 31.1101 25.8203 31.0666C25.781 31.023 25.7323 30.9898 25.6743 30.965C25.5958 30.934 25.516 30.9066 25.4351 30.883C25.3345 30.8543 25.2358 30.8195 25.1395 30.7788C25.0639 30.7459 24.9978 30.6945 24.9474 30.6293C24.895 30.5634 24.8689 30.4764 24.8689 30.3677C24.8672 30.2801 24.8942 30.1943 24.9457 30.1235C24.9971 30.0536 25.0703 29.9989 25.1645 29.9604C25.2586 29.9218 25.3678 29.9023 25.4907 29.9023C25.5958 29.9023 25.6976 29.9185 25.7991 29.9485L25.7994 29.9501ZM28.4685 30.0291C28.6119 30.1095 28.7265 30.2193 28.8102 30.3572C28.894 30.4942 28.9378 30.6518 28.9367 30.8124C28.9382 30.9738 28.8944 31.1324 28.8102 31.2701C28.7268 31.4077 28.609 31.5212 28.4685 31.5997C28.3248 31.681 28.1622 31.7231 27.997 31.7219C27.8304 31.7239 27.6662 31.6817 27.5212 31.5997C27.3778 31.5188 27.2632 31.4083 27.1795 31.2701C27.0958 31.1319 27.053 30.9788 27.053 30.8124C27.0514 30.6512 27.0952 30.4928 27.1795 30.3553C27.2623 30.2179 27.3802 30.1049 27.5212 30.0281C27.6648 29.9487 27.8232 29.9085 27.9968 29.9085C28.1668 29.9085 28.3242 29.9478 28.4685 30.0291ZM27.6299 30.1991C27.52 30.2605 27.4276 30.349 27.3616 30.4562C27.295 30.5639 27.2608 30.6825 27.2608 30.8124C27.2608 30.9422 27.2941 31.0625 27.3616 31.1709C27.4276 31.2798 27.5209 31.3696 27.6322 31.4314C27.7435 31.4933 27.869 31.525 27.9963 31.5236C28.1287 31.5236 28.25 31.492 28.3611 31.4285C28.4704 31.3669 28.5619 31.278 28.6267 31.1705C28.6925 31.062 28.7258 30.9422 28.7258 30.8119C28.7269 30.686 28.6926 30.5623 28.6267 30.455C28.5616 30.3481 28.4701 30.2598 28.3611 30.1986C28.2503 30.1352 28.1248 30.1022 27.9972 30.103C27.8686 30.102 27.7419 30.135 27.6301 30.1986L27.6299 30.1991ZM30.2313 30.1106V30.7427H31.0716V30.9408H30.2313V31.7112H30.0253V29.9126H31.1681V30.1106H30.2313ZM32.8393 30.1106V31.711H32.6334V30.1106H32.0492V29.9126H33.4276V30.1106H32.8393ZM36.0839 31.711L35.5989 30.1958L35.1066 31.711H34.8974L34.2953 29.9123H34.5164L35.011 31.4727L35.4985 29.9152L35.7044 29.9128L36.1971 31.4732L36.6846 29.9128H36.8981L36.2951 31.7114H36.0811L36.0839 31.711ZM37.9244 31.2592L37.7237 31.711H37.505L38.3135 29.9123H38.527L39.3307 31.711H39.1079L38.9072 31.2592H37.9268H37.9244ZM38.4128 30.1487L38.0124 31.0608H38.8209L38.4152 30.1487H38.4128ZM41.1141 31.1403L40.9938 31.1455H40.5182V31.7162H40.3133V29.9126H40.9964C41.2199 29.9126 41.3945 29.9656 41.5191 30.0705C41.6437 30.1753 41.7053 30.3249 41.7053 30.5175C41.7053 30.6645 41.6703 30.7886 41.6011 30.8873C41.5319 30.9859 41.4347 31.058 41.3022 31.1008L41.7224 31.7114H41.4894L41.117 31.1407L41.1141 31.1403ZM41.3721 30.8407C41.4601 30.7688 41.5046 30.663 41.5046 30.5244C41.5046 30.3889 41.4601 30.2861 41.3721 30.2169C41.2841 30.1477 41.1576 30.1128 40.9917 30.1128H40.5161V30.9481H40.9917C41.1581 30.9481 41.2818 30.9127 41.3721 30.8407ZM43.055 30.113V30.7039H43.9619V30.902H43.055V31.5203H44.1012V31.716H42.8466V29.9126H44.067V30.1106H43.0523L43.055 30.113ZM46.9749 30.1106V30.7427H47.8152V30.9408H46.9749V31.7112H46.769V29.9126H47.9118V30.1106H46.9749ZM50.1886 30.0291C50.332 30.1095 50.4466 30.2193 50.5303 30.3572C50.6141 30.4942 50.6579 30.6518 50.6568 30.8124C50.6583 30.9738 50.6144 31.1324 50.5303 31.2701C50.4468 31.4077 50.3291 31.5212 50.1886 31.5997C50.0448 31.681 49.8822 31.7231 49.7171 31.7219C49.5505 31.7239 49.3863 31.6817 49.2413 31.5997C49.0979 31.5188 48.9833 31.4083 48.8996 31.2701C48.8159 31.1319 48.7731 30.9788 48.7731 30.8124C48.7715 30.6512 48.8153 30.4928 48.8996 30.3553C48.9824 30.2179 49.1003 30.1049 49.2413 30.0281C49.3849 29.9487 49.5432 29.9085 49.7168 29.9085C49.8876 29.9085 50.045 29.9478 50.1884 30.0291H50.1886ZM49.3509 30.1991C49.241 30.2605 49.1487 30.349 49.0827 30.4562C49.0161 30.5639 48.9818 30.6825 48.9818 30.8124C48.9818 30.9422 49.0151 31.0625 49.0827 31.1709C49.1487 31.2798 49.2419 31.3696 49.3532 31.4314C49.4645 31.4933 49.59 31.525 49.7173 31.5236C49.8498 31.5236 49.971 31.492 50.0821 31.4285C50.1914 31.3669 50.283 31.278 50.3477 31.1705C50.4136 31.062 50.4468 30.9422 50.4468 30.8119C50.448 30.686 50.4136 30.5623 50.3477 30.455C50.2827 30.3481 50.1912 30.2598 50.0821 30.1986C49.9714 30.1352 49.8458 30.1022 49.7183 30.103C49.5896 30.1018 49.4628 30.1348 49.3511 30.1986L49.3509 30.1991ZM53.019 31.5224C52.8849 31.6548 52.7004 31.7214 52.4657 31.7214C52.2291 31.7214 52.0438 31.6548 51.9097 31.5224C51.7756 31.3899 51.7081 31.2061 51.7081 30.9707V29.9116H51.914V30.9683C51.914 31.1419 51.9635 31.2768 52.0614 31.374C52.1594 31.4713 52.2945 31.52 52.4657 31.52C52.6369 31.52 52.7715 31.4713 52.868 31.3773C52.9645 31.2834 53.0107 31.145 53.0107 30.97V29.9109H53.2166V30.97C53.2176 31.2066 53.1507 31.3902 53.0169 31.5226L53.019 31.5224ZM55.7072 31.7112L54.6286 30.2669V31.7112H54.4227V29.9126H54.6362L55.7148 31.3583V29.9126H55.9181V31.7112H55.7072ZM58.3457 30.0315C58.4884 30.1109 58.5968 30.2186 58.6779 30.3549C58.7596 30.4932 58.8019 30.6512 58.8001 30.8119C58.8001 30.9793 58.7592 31.1329 58.6779 31.2696C58.5974 31.4059 58.4813 31.5177 58.3421 31.593C58.1995 31.6715 58.0416 31.711 57.8682 31.711H57.1482V29.9126H57.8758C58.0494 29.9126 58.2054 29.9518 58.3455 30.0315H58.3457ZM57.3541 31.5157H57.8784C58.0109 31.5157 58.1312 31.4858 58.2399 31.4254C58.3486 31.365 58.4349 31.281 58.4979 31.1733C58.5609 31.0656 58.593 30.9469 58.593 30.8147C58.5946 30.6888 58.5612 30.5649 58.4965 30.4569C58.4323 30.3499 58.3452 30.2666 58.2349 30.2041C58.1238 30.1419 57.9984 30.1099 57.8711 30.1111H57.3544V31.516L57.3541 31.5157ZM59.9703 31.2542L59.7696 31.706H59.5508L60.3593 29.9073H60.5728L61.3766 31.706H61.1545L60.9538 31.2542H59.9724H59.9703ZM60.4587 30.1437L60.0583 31.0559H60.8667L60.4611 30.1437H60.4587ZM62.7236 30.108V31.7083H62.5187V30.108H61.9344V29.91H63.3129V30.108H62.7236ZM64.3025 31.7083V29.9126H64.5085V31.7112H64.3025V31.7083ZM67.0169 30.0291C67.1603 30.1095 67.2749 30.2193 67.3586 30.3572C67.4424 30.4942 67.4862 30.6518 67.4851 30.8124C67.4866 30.9738 67.4427 31.1324 67.3586 31.2701C67.2751 31.4077 67.1574 31.5212 67.0169 31.5997C66.8731 31.681 66.7105 31.7231 66.5454 31.7219C66.3787 31.7239 66.2146 31.6817 66.0695 31.5997C65.9262 31.5188 65.8116 31.4083 65.7278 31.2701C65.6441 31.1319 65.6013 30.9788 65.6013 30.8124C65.5998 30.6512 65.6436 30.4928 65.7278 30.3553C65.8107 30.2179 65.9286 30.1049 66.0695 30.0281C66.2132 29.9487 66.3715 29.9085 66.5451 29.9085C66.7159 29.9085 66.8735 29.9478 67.0169 30.0291ZM66.1792 30.1991C66.0693 30.2605 65.9769 30.349 65.9109 30.4562C65.8444 30.5639 65.8101 30.6825 65.8101 30.8124C65.8101 30.9422 65.8434 31.0625 65.9109 31.1709C65.977 31.2798 66.0702 31.3696 66.1815 31.4314C66.2928 31.4933 66.4183 31.525 66.5456 31.5236C66.6781 31.5236 66.7993 31.492 66.9104 31.4285C67.0197 31.3669 67.1113 31.278 67.176 31.1705C67.2418 31.062 67.2751 30.9422 67.2751 30.8119C67.2763 30.686 67.2419 30.5623 67.176 30.455C67.1109 30.3481 67.0195 30.2598 66.9104 30.1986C66.7997 30.1352 66.6741 30.1022 66.5466 30.103C66.4179 30.1019 66.2912 30.1349 66.1794 30.1986L66.1792 30.1991ZM69.8592 31.7114L68.7806 30.2671V31.7114H68.5746V29.9126H68.7882L69.8668 31.3583V29.9126H70.0701V31.7112L69.8592 31.7114Z" fill="#6D6E71"/>
<path d="M22.0626 12.4423C21.6757 12.6713 21.0325 13.3173 20.2649 14.2554L20.9704 15.587C21.4657 14.8791 21.9691 14.2419 22.4761 13.6978C22.3096 13.8785 21.8141 14.4597 21.0627 15.6144C21.786 15.5787 22.8984 15.4298 23.8051 15.2753C24.075 13.7637 23.5404 13.0717 23.5404 13.0717C23.5404 13.0717 22.8596 11.9717 22.0626 12.4423Z" fill="url(#paint0_linear_1694_3282)"/>
<path d="M19.6928 23.6247L19.4153 23.6735L19.558 23.6514L19.6954 23.624L19.6928 23.6247Z" fill="#BE202E"/>
<path opacity="0.35" d="M19.6928 23.6247L19.4153 23.6735L19.558 23.6514L19.6954 23.624L19.6928 23.6247Z" fill="#BE202E"/>
<path d="M19.9272 22.4606L19.97 22.4535L20.1467 22.4219L19.9272 22.4594V22.4606Z" fill="#BE202E"/>
<path opacity="0.35" d="M19.9272 22.4606L19.97 22.4535L20.1467 22.4219L19.9272 22.4594V22.4606Z" fill="#BE202E"/>
<path d="M18.89 19.0276L19.5408 17.8541L20.2318 16.7037L20.2727 16.6378L20.9695 15.5882L20.2639 14.2559L20.1034 14.4539L19.4724 15.2696L18.7226 16.3087L18.0092 17.3652L17.3772 18.3627L18.2951 20.1758L18.8895 19.0273L18.89 19.0276Z" fill="url(#paint1_linear_1694_3282)"/>
<path d="M14.7084 29.2439L14.2847 30.4277L13.9661 31.3517C14.2371 31.4753 14.4535 31.8002 14.6587 32.1683C14.6386 31.7792 14.466 31.4137 14.1784 31.151C15.5117 31.2105 16.6602 30.8742 17.254 29.899C17.308 29.8105 17.3565 29.7187 17.3993 29.6242C17.1294 29.9666 16.7946 30.1116 16.1628 30.0769C16.1611 30.0769 16.1604 30.0769 16.1585 30.0793C16.1601 30.0793 16.1609 30.0793 16.1628 30.0769C17.0901 29.6617 17.5557 29.263 17.9666 28.6026C18.0702 28.4343 18.1665 28.2616 18.2553 28.085C17.4449 28.9177 16.5045 29.155 15.5145 28.975L14.7726 29.0559C14.7522 29.1182 14.7291 29.1805 14.7061 29.2461L14.7084 29.2439Z" fill="url(#paint2_linear_1694_3282)"/>
<path d="M15.0526 27.5811L15.5479 26.3239L16.0473 25.101L16.57 23.8692L17.124 22.618L17.6928 21.3941L17.903 20.9585L18.2711 20.2137L18.2916 20.1745L17.3737 18.3613L17.3261 18.4327L16.6934 19.5063L16.0751 20.631L15.5746 21.606L15.478 21.804L14.934 22.993L14.4429 24.2323L14.1861 24.979L14.0026 25.5925L13.6506 27.0299L14.5721 28.8526L14.9478 27.8619L15.0555 27.5818L15.0526 27.5811Z" fill="url(#paint3_linear_1694_3282)"/>
<path d="M13.6368 27.0957C13.5208 27.6782 13.4387 28.2589 13.3976 28.8363L13.3933 28.8969C13.108 28.4356 12.3342 27.9848 12.3361 27.99C12.8878 28.7901 13.3073 29.5846 13.3686 30.3643C13.073 30.4249 12.6683 30.337 12.2003 30.1653C12.6878 30.6137 13.0545 30.7374 13.1991 30.7707C12.7484 30.7987 12.2848 31.1036 11.8151 31.4607C12.5047 31.1806 13.0578 31.0696 13.4559 31.1592C12.8222 32.9417 12.1896 34.9153 11.5571 37.0079C11.7509 36.9508 11.8663 36.8207 11.9321 36.6441C12.0448 36.2648 12.7929 33.7778 13.9647 30.5103L14.0936 30.1508L14.4788 29.1012L14.5701 28.857C14.5711 28.8546 14.5711 28.8536 14.5718 28.8517L13.6504 27.0303L13.6368 27.0952V27.0957Z" fill="url(#paint4_linear_1694_3282)"/>
<path d="M18.4376 20.3278L18.3582 20.4909L18.1166 20.9931L17.8494 21.561L17.7126 21.8565L17.2951 22.7839L16.7655 24.0038L16.2455 25.2534L15.739 26.5198L15.2777 27.7164L14.7783 29.0587L15.5202 28.9778L15.476 28.9705C16.3634 28.8594 17.5436 28.1967 18.3064 27.3778C18.6574 27.0001 18.977 26.555 19.2718 26.0342C19.4913 25.6467 19.6998 25.2163 19.8936 24.7407C20.0653 24.3246 20.2301 23.8747 20.3889 23.3862C20.1849 23.494 19.9514 23.5724 19.6936 23.6271L19.5562 23.6509C19.5091 23.6593 19.4619 23.6666 19.4145 23.673C20.2439 23.3544 20.7656 22.7404 21.1449 21.9847C20.9271 22.1333 20.5735 22.3271 20.149 22.4211C20.0906 22.4339 20.0316 22.4444 19.9723 22.4527L19.9279 22.4598H19.9295C20.2165 22.3393 20.4591 22.2054 20.6667 22.0465C20.7142 22.0123 20.7556 21.9752 20.7975 21.9414C20.8615 21.8862 20.9228 21.8278 20.981 21.7664C21.0185 21.7272 21.0547 21.6868 21.0895 21.6451C21.1715 21.5469 21.2493 21.4411 21.3208 21.3265C21.3432 21.291 21.3648 21.2551 21.3857 21.2188L21.4652 21.0626C21.567 20.859 21.661 20.6515 21.7469 20.4408C21.7836 20.3504 21.8183 20.2657 21.8435 20.187L21.8751 20.0967C21.9041 20.0096 21.9281 19.9319 21.9469 19.8636C21.9755 19.7614 21.9945 19.6801 22.0016 19.6211C21.9731 19.6432 21.941 19.6656 21.9051 19.687C21.6549 19.8363 21.2262 19.9723 20.8812 20.0353C20.8759 20.0353 20.8709 20.0377 20.8657 20.0377L20.7616 20.0548C20.7675 20.0524 20.7734 20.0489 20.7794 20.0463L18.4479 20.3016C18.4445 20.3112 18.4403 20.3195 18.436 20.3254L18.4376 20.3278Z" fill="url(#paint5_linear_1694_3282)"/>
<path d="M21.062 15.6145L20.3839 16.7035L20.3453 16.7685L19.6767 17.9384L19.0418 19.1254L18.449 20.3025L20.7805 20.0471C21.4594 19.7344 21.7635 19.4519 22.0581 19.0427L22.2931 18.69L22.9772 17.4951L23.4956 16.3549L23.7015 15.7374L23.803 15.2754C22.8978 15.43 21.7849 15.5786 21.0613 15.6145H21.062Z" fill="url(#paint6_linear_1694_3282)"/>
</g>
<defs>
<linearGradient id="paint0_linear_1694_3282" x1="20.8627" y1="14.419" x2="26.0305" y2="12.9821" gradientUnits="userSpaceOnUse">
<stop offset='0' stop-color="#F69923"/>
<stop offset="0.312" stop-color="#F79A23"/>
<stop offset="0.838" stop-color="#E97826"/>
</linearGradient>
<linearGradient id="paint1_linear_1694_3282" x1="9.55087" y1="37.6136" x2="20.0621" y2="15.0712" gradientUnits="userSpaceOnUse">
<stop offset="0.323" stop-color="#9E2064"/>
<stop offset="0.63" stop-color="#C92037"/>
<stop offset="0.751" stop-color="#CD2335"/>
<stop offset="1" stop-color="#E97826"/>
</linearGradient>
<linearGradient id="paint2_linear_1694_3282" x1="13.0805" y1="35.9462" x2="19.3444" y2="22.5133" gradientUnits="userSpaceOnUse">
<stop offset='0' stop-color="#282662"/>
<stop offset="0.095" stop-color="#662E8D"/>
<stop offset="0.788" stop-color="#9F2064"/>
<stop offset="0.949" stop-color="#CD2032"/>
</linearGradient>
<linearGradient id="paint3_linear_1694_3282" x1="9.93115" y1="36.249" x2="20.4426" y2="13.7066" gradientUnits="userSpaceOnUse">
<stop offset="0.323" stop-color="#9E2064"/>
<stop offset="0.63" stop-color="#C92037"/>
<stop offset="0.751" stop-color="#CD2335"/>
<stop offset="1" stop-color="#E97826"/>
</linearGradient>
<linearGradient id="paint4_linear_1694_3282" x1="11.0028" y1="34.7475" x2="16.5269" y2="22.9008" gradientUnits="userSpaceOnUse">
<stop offset='0' stop-color="#282662"/>
<stop offset="0.095" stop-color="#662E8D"/>
<stop offset="0.788" stop-color="#9F2064"/>
<stop offset="0.949" stop-color="#CD2032"/>
</linearGradient>
<linearGradient id="paint5_linear_1694_3282" x1="12.2644" y1="37.337" x2="22.7756" y2="14.7947" gradientUnits="userSpaceOnUse">
<stop offset="0.323" stop-color="#9E2064"/>
<stop offset="0.63" stop-color="#C92037"/>
<stop offset="0.751" stop-color="#CD2335"/>
<stop offset="1" stop-color="#E97826"/>
</linearGradient>
<linearGradient id="paint6_linear_1694_3282" x1="11.4965" y1="38.6814" x2="22.0077" y2="16.1393" gradientUnits="userSpaceOnUse">
<stop offset="0.323" stop-color="#9E2064"/>
<stop offset="0.63" stop-color="#C92037"/>
<stop offset="0.751" stop-color="#CD2335"/>
<stop offset="1" stop-color="#E97826"/>
</linearGradient>
<clipPath id="clip0_1694_3282">
<rect width="60.8738" height="24.73" fill="white" transform="translate(11.5571 12.3018)"/>
</clipPath>
</defs>
</svg>
