<svg width="84" height="49" viewBox="0 0 84 49" fill="none" xmlns="http://www.w3.org/2000/svg">
<path d="M72.299 19.3558C72.3623 19.417 72.4123 19.4905 72.4459 19.5717C72.4796 19.653 72.4963 19.7403 72.4949 19.8283C72.4959 19.9168 72.479 20.0046 72.4454 20.0865C72.4117 20.1684 72.362 20.2426 72.299 20.3049C72.168 20.44 72.0098 20.5026 71.8232 20.5026C71.6366 20.5026 71.4791 20.4376 71.3466 20.3068C71.2839 20.2453 71.2344 20.1717 71.201 20.0905C71.1676 20.0092 71.1511 19.9221 71.1524 19.8343C71.1515 19.7457 71.1683 19.6579 71.2019 19.5761C71.2356 19.4942 71.2854 19.4199 71.3483 19.3577C71.4794 19.2226 71.6342 19.1599 71.8249 19.1599C71.9131 19.1585 72.0007 19.1751 72.0823 19.2088C72.1638 19.2426 72.2376 19.2924 72.299 19.3558ZM72.2426 20.247C72.2975 20.1924 72.341 20.1274 72.3703 20.0558C72.3997 19.9842 72.4145 19.9074 72.4137 19.83C72.4148 19.7529 72.4004 19.6765 72.3713 19.6051C72.3422 19.5338 72.299 19.4691 72.2442 19.4149C72.1905 19.3591 72.1258 19.315 72.0542 19.2854C71.9826 19.2558 71.9057 19.2413 71.8282 19.2428C71.7505 19.241 71.6732 19.2555 71.6014 19.2852C71.5296 19.315 71.4648 19.3595 71.4112 19.4158C71.3559 19.4701 71.3123 19.5351 71.283 19.6068C71.2537 19.6785 71.2394 19.7554 71.2408 19.8328C71.2408 19.9956 71.2973 20.134 71.4095 20.2489C71.463 20.3048 71.5275 20.3489 71.599 20.3785C71.6704 20.4082 71.7473 20.4226 71.8246 20.4209C71.9914 20.4209 72.1275 20.3628 72.2426 20.247ZM72.1484 19.7008C72.1484 19.8207 72.096 19.8962 71.9912 19.9267L72.1837 20.1876H72.0279L71.8539 19.9455H71.6948V20.1876H71.5689V19.463H71.8411C71.9507 19.463 72.0317 19.4821 72.0793 19.5195C72.127 19.5569 72.1504 19.6148 72.1504 19.7001L72.1484 19.7008ZM71.9864 19.8026C72.0121 19.7821 72.0241 19.747 72.0241 19.7001C72.0241 19.6532 72.0112 19.6196 71.9855 19.6007C71.9597 19.5819 71.9135 19.5733 71.8484 19.5733H71.6943V19.8343H71.8444C71.9159 19.8343 71.9616 19.8231 71.9864 19.8026ZM26.9306 16.3777V17.7073H26.7595V16.3777H26.2734V16.2109H27.4172V16.3777H26.9287H26.9306ZM29.3149 17.7073V17.0492H28.4146V17.7073H28.2459V16.2121H28.417V16.8874H29.3173V16.2121H29.4883V17.7073H29.3173H29.3149ZM30.6774 16.3777V16.8691H31.4313V17.0359H30.6774V17.5477H31.5485V17.7102H30.506V16.2152H31.5211V16.382H30.6776L30.6774 16.3777Z" fill="#637381"/>
<path d="M24.9688 27.9527L28.5401 19.4151H29.2257L32.797 27.9527H31.8949L30.7885 25.2835H26.9527L25.858 27.9527H24.9688ZM28.8894 20.4011L27.134 24.622H30.5974L28.889 20.4011H28.8894ZM33.7189 27.9527V19.4151H37.2543C38.7212 19.4151 39.7801 20.7742 39.7801 22.0964C39.7801 23.4913 38.7941 24.8017 37.3272 24.8017H34.5489V27.9517H33.7185L33.7189 27.9527ZM34.5491 24.0561H37.276C38.2859 24.0561 38.9354 23.1301 38.9354 22.0962C38.9354 21.0256 38.1419 20.1604 37.2041 20.1604H34.5491V24.0561ZM39.3148 27.9527L42.8861 19.4151H43.5717L47.143 27.9527H46.2409L45.1322 25.2835H41.2963L40.2016 27.9527H39.3124H39.3148ZM43.2331 20.4011L41.4776 24.622H44.9411L43.2331 20.4011ZM51.1814 19.3662C52.6962 19.3662 53.8025 20.1359 54.3315 21.2303L53.6579 21.6394C53.117 20.5088 52.0583 20.1247 51.1321 20.1247C49.0877 20.1247 47.9701 21.9528 47.9701 23.6722C47.9701 25.5601 49.3531 27.2703 51.1683 27.2703C52.1303 27.2703 53.2609 26.7894 53.8018 25.6826L54.4993 26.0429C53.9465 27.3172 52.431 28.0268 51.1204 28.0268C48.7757 28.0268 47.128 25.7905 47.128 23.6262C47.129 21.5706 48.6054 19.3693 51.1788 19.3693L51.1814 19.3662ZM62.4081 19.4151V27.9527H61.566V23.9603H56.5037V27.9527H55.6745V19.4151H56.5037V23.2152H61.566V19.4151H62.4081ZM70.0722 27.2064V27.9517H64.3368V19.4151H69.965V20.1604H65.1669V23.239H69.3519V23.9484H65.1669V27.2074H70.0724L70.0722 27.2064Z" fill="#212B36"/>
<path d="M25.7678 29.7608C25.8688 29.7908 25.9577 29.8318 26.033 29.8799L25.9448 30.0734C25.8679 30.0222 25.7857 29.9843 25.6975 29.959C25.6093 29.9338 25.5264 29.9214 25.4473 29.9214C25.331 29.9214 25.2376 29.9419 25.1685 29.9838C25.0994 30.0258 25.0642 30.0848 25.0642 30.1609C25.0642 30.2259 25.0839 30.2807 25.1223 30.3234C25.1625 30.3673 25.2122 30.4015 25.2677 30.4234C25.3258 30.4473 25.4054 30.4747 25.5074 30.5057L25.8043 30.616C25.8799 30.6503 25.946 30.7026 25.9968 30.7682C26.0499 30.835 26.0764 30.9241 26.0764 31.0334C26.0764 31.1335 26.049 31.22 25.9954 31.2956C25.9417 31.3711 25.8643 31.4283 25.7659 31.4695C25.6675 31.5107 25.5529 31.5315 25.4235 31.5315C25.2946 31.5315 25.1669 31.5063 25.0477 31.4571C24.9323 31.4093 24.8263 31.3415 24.7344 31.257L24.8259 31.0721C24.9078 31.1524 25.0046 31.2161 25.1109 31.2596C25.2188 31.3041 25.3253 31.3263 25.4259 31.3263C25.5569 31.3263 25.6594 31.3006 25.7349 31.25C25.8105 31.1995 25.8479 31.1309 25.8479 31.0456C25.8479 30.9789 25.8281 30.9231 25.7888 30.8795C25.7495 30.8359 25.7006 30.8026 25.6425 30.7778C25.5639 30.7467 25.4839 30.7193 25.4028 30.6956C25.302 30.6669 25.2031 30.632 25.1066 30.5912C25.0308 30.5582 24.9646 30.5067 24.914 30.4413C24.8616 30.3753 24.8354 30.2881 24.8354 30.1792C24.8337 30.0914 24.8607 30.0055 24.9124 29.9345C24.9638 29.8644 25.0372 29.8096 25.1316 29.771C25.226 29.7324 25.3353 29.7129 25.4585 29.7129C25.5638 29.7129 25.6658 29.7291 25.7676 29.7591L25.7678 29.7608ZM28.4425 29.8399C28.5862 29.9204 28.7011 30.0305 28.7849 30.1687C28.8689 30.306 28.9128 30.4639 28.9117 30.6248C28.9132 30.7865 28.8692 30.9455 28.7849 31.0835C28.7013 31.2214 28.5833 31.3351 28.4425 31.4137C28.2984 31.4952 28.1355 31.5374 27.97 31.5362C27.803 31.5382 27.6385 31.4959 27.4932 31.4137C27.3495 31.3327 27.2347 31.2219 27.1508 31.0835C27.0669 30.945 27.024 30.7916 27.024 30.6248C27.0224 30.4633 27.0664 30.3045 27.1508 30.1668C27.2338 30.0291 27.352 29.9159 27.4932 29.8389C27.6371 29.7594 27.7958 29.7191 27.9698 29.7191C28.1401 29.7191 28.2979 29.7584 28.4425 29.8399ZM27.6021 30.0103C27.492 30.0718 27.3994 30.1604 27.3333 30.2679C27.2666 30.3758 27.2323 30.4947 27.2323 30.6248C27.2323 30.7549 27.2656 30.8755 27.3333 30.9841C27.3995 31.0932 27.4929 31.1832 27.6044 31.2452C27.716 31.3071 27.8417 31.339 27.9693 31.3375C28.102 31.3375 28.2235 31.3058 28.3348 31.2422C28.4444 31.1805 28.5361 31.0914 28.601 30.9836C28.667 30.875 28.7003 30.7549 28.7003 30.6243C28.7015 30.4981 28.667 30.3742 28.601 30.2667C28.5358 30.1596 28.4441 30.0711 28.3348 30.0098C28.2239 29.9462 28.0981 29.9132 27.9702 29.914C27.8413 29.9129 27.7144 29.946 27.6023 30.0098L27.6021 30.0103ZM30.2089 29.9216V30.555H31.051V30.7535H30.2089V31.5255H30.0026V29.7231H31.1477V29.9216H30.2089ZM32.8224 29.9216V31.5253H32.616V29.9216H32.0306V29.7231H33.4119V29.9216H32.8224ZM36.0737 31.5253L35.5876 30.0069L35.0944 31.5253H34.8847L34.2814 29.7229H34.503L34.9986 31.2865L35.4871 29.7258L35.6934 29.7234L36.1872 31.287L36.6756 29.7234H36.8896L36.2853 31.5257H36.0709L36.0737 31.5253ZM37.918 31.0725L37.7169 31.5253H37.4977L38.3079 29.7229H38.5218L39.3272 31.5253H39.104L38.9029 31.0725H37.9204H37.918ZM38.4075 29.9598L38.0062 30.8738H38.8164L38.4099 29.9598H38.4075ZM41.1144 30.9534L40.9938 30.9586H40.5172V31.5305H40.3118V29.7231H40.9964C41.2204 29.7231 41.3953 29.7763 41.5202 29.8814C41.645 29.9864 41.7067 30.1363 41.7067 30.3293C41.7067 30.4766 41.6717 30.601 41.6024 30.6999C41.533 30.7987 41.4356 30.8709 41.3028 30.9138L41.7239 31.5257H41.4904L41.1172 30.9539L41.1144 30.9534ZM41.3729 30.6532C41.4611 30.5812 41.5056 30.4752 41.5056 30.3362C41.5056 30.2004 41.4611 30.0975 41.3729 30.0281C41.2847 29.9588 41.158 29.9238 40.9916 29.9238H40.5151V30.7609H40.9916C41.1584 30.7609 41.2823 30.7254 41.3729 30.6532ZM43.0592 29.924V30.5161H43.968V30.7146H43.0592V31.3342H44.1077V31.5303H42.8505V29.7231H44.0733V29.9216H43.0566L43.0592 29.924ZM46.9873 29.9216V30.555H47.8294V30.7535H46.9873V31.5255H46.7809V29.7231H47.9261V29.9216H46.9873ZM50.2077 29.8399C50.3514 29.9204 50.4662 30.0305 50.5501 30.1687C50.634 30.306 50.678 30.4639 50.6769 30.6248C50.6783 30.7865 50.6344 30.9455 50.5501 31.0835C50.4665 31.2214 50.3485 31.3351 50.2077 31.4137C50.0636 31.4952 49.9007 31.5374 49.7352 31.5362C49.5682 31.5382 49.4037 31.4959 49.2584 31.4137C49.1147 31.3327 48.9998 31.2219 48.9159 31.0835C48.8321 30.945 48.7892 30.7916 48.7892 30.6248C48.7876 30.4633 48.8315 30.3045 48.9159 30.1668C48.9989 30.0291 49.1171 29.9159 49.2584 29.8389C49.4023 29.7594 49.561 29.7191 49.7349 29.7191C49.906 29.7191 50.0638 29.7584 50.2074 29.8399H50.2077ZM49.3682 30.0103C49.2581 30.0718 49.1656 30.1604 49.0994 30.2679C49.0327 30.3758 48.9984 30.4947 48.9984 30.6248C48.9984 30.7549 49.0318 30.8755 49.0994 30.9841C49.1656 31.0932 49.259 31.1832 49.3705 31.2452C49.4821 31.3071 49.6078 31.339 49.7354 31.3375C49.8681 31.3375 49.9896 31.3058 50.1009 31.2422C50.2105 31.1805 50.3022 31.0914 50.3671 30.9836C50.4331 30.875 50.4664 30.7549 50.4664 30.6243C50.4676 30.4981 50.4331 30.3742 50.3671 30.2667C50.3019 30.1596 50.2103 30.0711 50.1009 30.0098C49.99 29.9462 49.8642 29.9132 49.7364 29.914C49.6074 29.9127 49.4804 29.9458 49.3684 30.0098L49.3682 30.0103ZM53.0439 31.3363C52.9096 31.469 52.7246 31.5357 52.4895 31.5357C52.2524 31.5357 52.0668 31.469 51.9324 31.3363C51.798 31.2036 51.7303 31.0194 51.7303 30.7835V29.7222H51.9366V30.7811C51.9366 30.9551 51.9862 31.0902 52.0844 31.1876C52.1826 31.2851 52.3179 31.3339 52.4895 31.3339C52.661 31.3339 52.7959 31.2851 52.8926 31.191C52.9894 31.0968 53.0356 30.9582 53.0356 30.7828V29.7215H53.242V30.7828C53.2429 31.0199 53.176 31.2038 53.0418 31.3365L53.0439 31.3363ZM55.7377 31.5255L54.6569 30.0782V31.5255H54.4505V29.7231H54.6645L55.7453 31.1719V29.7231H55.9491V31.5255H55.7377ZM58.3817 29.8423C58.5247 29.9219 58.6333 30.0298 58.7146 30.1663C58.7965 30.305 58.8388 30.4633 58.8371 30.6243C58.8371 30.7921 58.7961 30.946 58.7146 31.083C58.6339 31.2195 58.5176 31.3316 58.3781 31.4071C58.2352 31.4857 58.0769 31.5253 57.9032 31.5253H57.1817V29.7231H57.9109C58.0848 29.7231 58.2411 29.7625 58.3815 29.8423H58.3817ZM57.3881 31.3296H57.9135C58.0462 31.3296 58.1668 31.2996 58.2757 31.2391C58.3846 31.1786 58.4711 31.0945 58.5342 30.9865C58.5973 30.8786 58.6295 30.7597 58.6295 30.6272C58.6311 30.501 58.5976 30.3768 58.5328 30.2686C58.4684 30.1613 58.3812 30.0779 58.2707 30.0153C58.1593 29.953 58.0337 29.9208 57.9061 29.9221H57.3883V31.3299L57.3881 31.3296ZM60.0096 31.0675L59.8085 31.5203H59.5893L60.3995 29.7179H60.6135L61.4188 31.5203H61.1963L60.9952 31.0675H60.0118H60.0096ZM60.4991 29.9547L60.0978 30.8688H60.908L60.5015 29.9547H60.4991ZM62.7687 29.919V31.5226H62.5633V29.919H61.9779V29.7205H63.3592V29.919H62.7687ZM64.3509 31.5226V29.7231H64.5573V31.5255H64.3509V31.5226ZM67.0709 29.8399C67.2146 29.9204 67.3294 30.0305 67.4133 30.1687C67.4973 30.306 67.5412 30.4639 67.5401 30.6248C67.5415 30.7865 67.4976 30.9455 67.4133 31.0835C67.3297 31.2214 67.2117 31.3351 67.0709 31.4137C66.9268 31.4952 66.7639 31.5374 66.5984 31.5362C66.4314 31.5382 66.2669 31.4959 66.1216 31.4137C65.9779 31.3327 65.863 31.2219 65.7792 31.0835C65.6953 30.945 65.6524 30.7916 65.6524 30.6248C65.6508 30.4633 65.6947 30.3045 65.7792 30.1668C65.8622 30.0291 65.9803 29.9159 66.1216 29.8389C66.2655 29.7594 66.4242 29.7191 66.5981 29.7191C66.7692 29.7191 66.9272 29.7584 67.0709 29.8399ZM66.2314 30.0103C66.1213 30.0718 66.0288 30.1604 65.9626 30.2679C65.8959 30.3758 65.8616 30.4947 65.8616 30.6248C65.8616 30.7549 65.895 30.8755 65.9626 30.9841C66.0288 31.0932 66.1222 31.1832 66.2338 31.2452C66.3453 31.3071 66.471 31.339 66.5986 31.3375C66.7313 31.3375 66.8529 31.3058 66.9641 31.2422C67.0737 31.1805 67.1654 31.0914 67.2303 30.9836C67.2963 30.875 67.3297 30.7549 67.3297 30.6243C67.3308 30.4981 67.2964 30.3742 67.2303 30.2667C67.1651 30.1596 67.0735 30.0711 66.9641 30.0098C66.8532 29.9462 66.7274 29.9132 66.5996 29.914C66.4706 29.9128 66.3437 29.9459 66.2317 30.0098L66.2314 30.0103ZM69.9191 31.5257L68.8382 30.0784V31.5257H68.6319V29.7231H68.8459L69.9267 31.1719V29.7231H70.1304V31.5255L69.9191 31.5257Z" fill="#637381"/>
<path d="M22.0221 12.2169C21.6344 12.4464 20.9899 13.0938 20.2207 14.0338L20.9277 15.3682C21.424 14.6588 21.9285 14.0202 22.4365 13.4751C22.2697 13.6562 21.7731 14.2385 21.0201 15.3956C21.745 15.3599 22.8597 15.2107 23.7682 15.0558C24.0387 13.5411 23.503 12.8477 23.503 12.8477C23.503 12.8477 22.8208 11.7454 22.0221 12.2169Z" fill="#637381"/>
<path d="M19.6453 23.4216L19.3672 23.4705L19.5102 23.4483L19.6479 23.4209L19.6453 23.4216Z" fill="#212B36"/>
<path opacity="0.35" d="M19.6453 23.4216L19.3672 23.4705L19.5102 23.4483L19.6479 23.4209L19.6453 23.4216Z" fill="#212B36"/>
<path d="M19.8789 22.2556L19.9218 22.2485L20.0988 22.2168L19.8789 22.2544V22.2556Z" fill="#212B36"/>
<path opacity="0.35" d="M19.8789 22.2556L19.9218 22.2485L20.0988 22.2168L19.8789 22.2544V22.2556Z" fill="#212B36"/>
<path d="M18.8421 18.8148L19.4943 17.6389L20.1867 16.4861L20.2277 16.4201L20.9259 15.3683L20.2189 14.0332L20.0581 14.2317L19.4257 15.049L18.6744 16.0903L17.9595 17.149L17.3262 18.1486L18.2459 19.9655L18.8416 18.8146L18.8421 18.8148Z" fill="#637381"/>
<path d="M14.6519 29.053L14.2273 30.2392L13.908 31.1651C14.1796 31.289 14.3964 31.6145 14.6021 31.9834C14.5819 31.5935 14.409 31.2273 14.1207 30.964C15.4568 31.0236 16.6077 30.6866 17.2027 29.7095C17.2568 29.6207 17.3054 29.5287 17.3483 29.434C17.0778 29.7771 16.7423 29.9225 16.1092 29.8877C16.1075 29.8877 16.1068 29.8877 16.1049 29.8901C16.1066 29.8901 16.1073 29.8901 16.1092 29.8877C17.0385 29.4716 17.5051 29.0721 17.9168 28.4103C18.0206 28.2417 18.1171 28.0686 18.2061 27.8916C17.394 28.7261 16.4516 28.9639 15.4597 28.7835L14.7162 28.8645C14.6957 28.9269 14.6726 28.9894 14.6495 29.0551L14.6519 29.053Z" fill="#637381"/>
<path d="M14.9967 27.3873L15.493 26.1275L15.9934 24.9021L16.5172 23.6678L17.0724 22.4139L17.6424 21.1875L17.853 20.751L18.2219 20.0047L18.2423 19.9653L17.3226 18.1484L17.2749 18.2199L16.6409 19.2958L16.0213 20.4228L15.5197 21.3998L15.423 21.5983L14.8778 22.7897L14.3858 24.0316L14.1284 24.7798L13.9445 25.3946L13.5918 26.835L14.5151 28.6614L14.8916 27.6688L14.9996 27.3881L14.9967 27.3873Z" fill="#637381"/>
<path d="M13.5782 26.9005C13.4619 27.4843 13.3797 28.0662 13.3384 28.6447L13.3342 28.7055C13.0482 28.2432 12.2728 27.7914 12.2748 27.7967C12.8276 28.5985 13.2479 29.3946 13.3094 30.1759C13.0132 30.2367 12.6076 30.1485 12.1387 29.9765C12.6272 30.4259 12.9946 30.5498 13.1395 30.5831C12.6879 30.6113 12.2233 30.9167 11.7527 31.2746C12.4437 30.9939 12.9979 30.8827 13.3968 30.9725C12.7618 32.7587 12.128 34.7364 11.4941 36.8333C11.6883 36.7761 11.8039 36.6457 11.8699 36.4687C11.9829 36.0886 12.7325 33.5965 13.9067 30.3222L14.0359 29.9619L14.4219 28.9102L14.5134 28.6654C14.5144 28.6631 14.5144 28.6621 14.5151 28.6602L13.5917 26.835L13.5782 26.9V26.9005Z" fill="#637381"/>
<path d="M18.3896 20.1183L18.31 20.2818L18.0679 20.785L17.8001 21.3541L17.6631 21.6502L17.2446 22.5795L16.714 23.8019L16.1929 25.0541L15.6853 26.3232L15.223 27.5222L14.7227 28.8673L15.4661 28.7863L15.4218 28.7789C16.311 28.6677 17.4936 28.0036 18.258 27.1829C18.6098 26.8045 18.93 26.3585 19.2255 25.8366C19.4454 25.4482 19.6544 25.0169 19.8486 24.5404C20.0206 24.1234 20.1857 23.6725 20.3449 23.1831C20.1405 23.2911 19.9065 23.3697 19.6482 23.4245L19.5105 23.4483C19.4633 23.4567 19.4159 23.4641 19.3684 23.4705C20.1996 23.1512 20.7224 22.5359 21.1024 21.7787C20.8842 21.9276 20.5298 22.1218 20.1045 22.2159C20.0459 22.2288 19.9869 22.2394 19.9275 22.2476L19.8829 22.2548H19.8846C20.1722 22.134 20.4152 21.9998 20.6232 21.8406C20.6709 21.8063 20.7124 21.7691 20.7543 21.7353C20.8185 21.68 20.8799 21.6214 20.9382 21.5599C20.9758 21.5206 21.012 21.4801 21.0469 21.4384C21.1291 21.34 21.207 21.234 21.2787 21.1191C21.3011 21.0836 21.3228 21.0476 21.3438 21.0112L21.4234 20.8546C21.5254 20.6506 21.6196 20.4427 21.7057 20.2315C21.7424 20.141 21.7772 20.0561 21.8025 19.9773L21.8342 19.8867C21.8633 19.7995 21.8873 19.7216 21.9061 19.6532C21.9347 19.5507 21.9538 19.4693 21.9609 19.4102C21.9324 19.4323 21.9002 19.4547 21.8642 19.4762C21.6135 19.6258 21.1839 19.7621 20.8382 19.8252C20.8329 19.8252 20.8279 19.8276 20.8227 19.8276L20.7183 19.8448C20.7243 19.8424 20.7302 19.8388 20.7362 19.8362L18.3998 20.0921C18.3965 20.1017 18.3922 20.11 18.3879 20.1159L18.3896 20.1183Z" fill="#637381"/>
<path d="M21.0189 15.3955L20.3393 16.4868L20.3007 16.5518L19.6306 17.7242L18.9944 18.9137L18.4004 20.0932L20.7367 19.8373C21.417 19.5239 21.7218 19.2408 22.017 18.8308L22.2525 18.4774L22.938 17.28L23.4574 16.1375L23.6638 15.5186L23.7655 15.0557C22.8584 15.2105 21.7432 15.3595 21.0182 15.3955H21.0189Z" fill="#637381"/>
</svg>
