<svg width="84" height="49" viewBox="0 0 84 49" fill="none" xmlns="http://www.w3.org/2000/svg">
<path d="M49.2166 6.66699H34.997C33.1228 6.66699 31.6035 8.1863 31.6035 10.0604V24.3671C31.6035 26.2412 33.1228 27.7605 34.997 27.7605H49.2166C51.0908 27.7605 52.6101 26.2412 52.6101 24.3671V10.0604C52.6101 8.1863 51.0908 6.66699 49.2166 6.66699Z" fill="url(#paint0_linear_1694_3239)"/>
<path d="M42.2664 15.7476C42.803 15.7476 43.2096 15.6328 43.4868 15.3976C43.7639 15.1625 43.9024 14.82 43.9024 14.365C43.9024 13.9157 43.7639 13.5744 43.4868 13.341C43.2078 13.1018 42.8028 12.9822 42.2664 12.9822H40.3826V15.7478L42.2664 15.7476ZM42.3813 21.4627C43.0651 21.4627 43.578 21.3199 43.92 21.0339C44.2679 20.748 44.4418 20.3163 44.4418 19.7387C44.4418 19.1726 44.2708 18.7497 43.9289 18.4698C43.5869 18.1839 43.0711 18.041 42.3815 18.041H40.3828V21.463H42.3815M45.5473 16.7634C46.2783 16.9734 46.8443 17.3615 47.2452 17.9273C47.6461 18.4931 47.8464 19.1875 47.8466 20.0103C47.8466 21.2705 47.4162 22.21 46.5555 22.8284C45.6948 23.4469 44.3862 23.756 42.6292 23.756H36.9785V10.6895H42.09C43.9234 10.6895 45.25 10.9635 46.0693 11.5121C46.8947 12.0605 47.3074 12.9387 47.3074 14.1464C47.3074 14.7824 47.1571 15.3249 46.8564 15.7742C46.5558 16.2176 46.118 16.5455 45.5476 16.7632" fill="white"/>
<path d="M12.1519 34.7802V38.3293H14.2548C14.9593 38.3293 15.4817 38.1844 15.8193 37.8947C16.1609 37.6002 16.3311 37.1523 16.3311 36.5521C16.3311 35.954 16.1603 35.5007 15.8193 35.2149C15.4817 34.9251 14.9606 34.7802 14.2548 34.7802H12.1519ZM12.1519 30.7952V33.7162H14.0926C14.7333 33.7162 15.2092 33.5966 15.5202 33.3593C15.8359 33.1167 15.9941 32.7492 15.9941 32.256C15.9941 31.7668 15.8359 31.4013 15.5202 31.1594C15.2045 30.9175 14.7327 30.7958 14.0926 30.7958L12.1519 30.7952ZM10.8406 29.7191H14.1903C15.1899 29.7191 15.9602 29.9272 16.5012 30.3426C17.0422 30.7579 17.3121 31.3488 17.3121 32.1144C17.3121 32.7073 17.1738 33.1792 16.8967 33.5301C16.6195 33.881 16.2121 34.099 15.6764 34.1854C16.3211 34.3237 16.8209 34.6141 17.1758 35.0494C17.5347 35.4867 17.7075 36.0331 17.7075 36.691C17.7075 37.5564 17.4131 38.225 16.8249 38.6969C16.2367 39.1687 15.3993 39.404 14.3126 39.404H10.834V29.7158" fill="#230F3D"/>
<path d="M22.6525 32.9751C22.3568 32.9652 22.0633 33.0288 21.7983 33.1602C21.5332 33.2916 21.3049 33.4868 21.1339 33.7281C20.7617 34.2266 20.5756 34.9092 20.5756 35.7792C20.5756 36.6491 20.7597 37.3344 21.1272 37.8368C21.4994 38.3353 22.0078 38.5832 22.6525 38.5832C22.9472 38.5926 23.2396 38.5287 23.5035 38.3973C23.7674 38.2659 23.9945 38.071 24.1645 37.8302C24.5367 37.3284 24.7228 36.6445 24.7228 35.7792C24.7228 34.9178 24.5367 34.2372 24.1645 33.7348C23.7923 33.2283 23.2886 32.9751 22.6525 32.9751ZM22.6525 31.9629C23.6907 31.9629 24.5135 32.3005 25.0997 32.9751C25.6859 33.6497 25.9889 34.5848 25.9889 35.7798C25.9889 36.9748 25.6925 37.9046 25.0997 38.5845C24.5068 39.2598 23.6907 39.5967 22.6525 39.5967C21.6091 39.5967 20.7916 39.2591 20.1934 38.5845C19.6052 37.9053 19.3108 36.9708 19.3108 35.7798C19.3108 34.5855 19.6052 33.651 20.1934 32.9751C20.7863 32.2999 21.6037 31.9629 22.6525 31.9629Z" fill="#230F3D"/>
<path d="M30.7128 32.9751C30.4171 32.9652 30.1236 33.0288 29.8586 33.1602C29.5935 33.2916 29.3652 33.4868 29.1942 33.7281C28.822 34.2266 28.6359 34.9092 28.6359 35.7792C28.6359 36.6491 28.82 37.3344 29.1875 37.8368C29.5597 38.3353 30.0681 38.5832 30.7128 38.5832C31.0075 38.5926 31.2999 38.5287 31.5638 38.3973C31.8277 38.2659 32.0548 38.071 32.2248 37.8302C32.597 37.3284 32.7831 36.6445 32.7831 35.7792C32.7831 34.9178 32.597 34.2372 32.2248 33.7348C31.8526 33.2283 31.3489 32.9751 30.7128 32.9751ZM30.7128 31.9629C31.751 31.9629 32.5738 32.3005 33.16 32.9751C33.7462 33.6497 34.0492 34.5848 34.0492 35.7798C34.0492 36.9748 33.7528 37.9046 33.16 38.5845C32.5671 39.2598 31.751 39.5967 30.7128 39.5967C29.6694 39.5967 28.8519 39.2591 28.2537 38.5845C27.6655 37.9053 27.3711 36.9708 27.3711 35.7798C27.3711 34.5855 27.6655 33.651 28.2537 32.9751C28.8466 32.2999 29.664 31.9629 30.7128 31.9629Z" fill="#230F3D"/>
<path d="M37.1344 30.0729V32.1366H39.5935V33.0644H37.1344V37.0109C37.1344 37.6038 37.2141 37.9846 37.3736 38.1541C37.5378 38.3229 37.8688 38.4066 38.3666 38.4066H39.5935V39.4062H38.3659C37.4441 39.4062 36.808 39.2354 36.4585 38.8945C36.1082 38.5489 35.9268 37.9208 35.9268 37.0123V33.0644H35.0508V32.1366H35.9268V30.0743H37.1277M45.7319 32.3519V33.4818C45.3984 33.3102 45.0454 33.1794 44.6805 33.0923C44.317 33.0059 43.9408 32.9627 43.5506 32.9627C42.9578 32.9627 42.5118 33.0538 42.2134 33.2286C41.919 33.41 41.7721 33.6832 41.7721 34.046C41.7721 34.3232 41.8784 34.5412 42.0911 34.7014C42.3038 34.8569 42.7292 35.0071 43.3699 35.1493L43.7786 35.2404C44.6267 35.4218 45.2275 35.679 45.5831 36.0127C45.9419 36.3417 46.1148 36.8022 46.1148 37.3951C46.1243 37.7073 46.0565 38.0171 45.9174 38.2968C45.7782 38.5765 45.572 38.8174 45.3172 38.9981C44.7855 39.3916 44.0518 39.5963 43.124 39.5963C42.7345 39.5963 42.3277 39.5564 41.9037 39.4793C41.4837 39.4129 41.0397 39.2932 40.5731 39.1417V37.9088C41.0144 38.1381 41.4491 38.3109 41.8778 38.4272C42.2928 38.538 42.7203 38.5947 43.1499 38.5961C43.7121 38.5961 44.1448 38.501 44.4479 38.3103C44.751 38.1155 44.9025 37.843 44.9025 37.4928C44.9025 37.1684 44.7922 36.9192 44.5715 36.7464C44.3548 36.5736 43.877 36.4141 43.1372 36.2466L42.7219 36.1496C41.9821 35.9941 41.4478 35.7561 41.1188 35.4358C40.7898 35.1114 40.6256 34.6675 40.6256 34.1052C40.6256 33.4206 40.8682 32.8936 41.3527 32.5214C41.8372 32.1492 42.5251 31.9631 43.4164 31.9631C43.8337 31.9611 44.2505 31.9936 44.6626 32.0602C45.0309 32.1192 45.392 32.217 45.7399 32.3519M49.1514 30.0723V32.1359H51.6105V33.0637H49.1514V37.0103C49.1514 37.6031 49.2312 37.9839 49.3907 38.1534C49.5548 38.3222 49.8858 38.406 50.3836 38.406H51.6118V39.4056H50.385C49.4631 39.4056 48.8271 39.2348 48.4775 38.8938C48.1272 38.5482 47.9458 37.9201 47.9458 37.0116V33.0637H47.0698V32.1359H47.9458V30.0743H49.1527M57.3276 33.2545C57.1903 33.1754 57.0413 33.1184 56.8863 33.0857C56.7166 33.0446 56.5425 33.025 56.3679 33.0272C55.6926 33.0272 55.1736 33.2478 54.81 33.6891C54.4511 34.1265 54.2783 34.7559 54.2783 35.578V39.4076H53.0773V32.1366H54.2783V33.2664C54.5295 32.8251 54.8565 32.4981 55.2586 32.2861C55.6607 32.0695 56.1492 31.9618 56.7255 31.9618C56.8166 31.9624 56.9076 31.9688 56.9979 31.9811L57.3289 32.0263L57.3356 33.2532M61.8377 35.7521C60.8727 35.7521 60.2041 35.8625 59.8319 36.0831C59.4597 36.3038 59.2736 36.6799 59.2736 37.213C59.2736 37.637 59.4119 37.9746 59.689 38.2252C59.9701 38.4711 60.351 38.5954 60.8322 38.5954C61.4941 38.5954 62.0245 38.3614 62.4226 37.8942C62.8247 37.429 63.0261 36.7976 63.0261 36.0186V35.7528H61.8384M64.2204 35.2596V39.4069H63.0261V38.3036C62.7602 38.7449 62.4146 39.0719 62.0072 39.2839C61.6005 39.4913 61.1033 39.5963 60.5145 39.5963C59.7701 39.5963 59.1772 39.3889 58.7359 38.9736C58.2986 38.5535 58.0806 37.9932 58.0806 37.2921C58.0806 36.4746 58.3465 35.8578 58.8981 35.4424C59.4497 35.027 60.2652 34.8197 61.3572 34.8197H63.0321V34.7027C63.0321 34.1531 62.8506 33.729 62.4871 33.4306C62.1282 33.1275 61.6217 32.976 60.9684 32.976C60.553 32.976 60.1483 33.0258 59.7548 33.1255C59.3587 33.226 58.977 33.3766 58.619 33.5735V32.4702C59.0563 32.3014 59.4803 32.1758 59.8911 32.0941C60.2858 32.0093 60.6883 31.9659 61.092 31.9644C62.1435 31.9644 62.929 32.2303 63.4481 32.7819C63.9672 33.3336 64.227 34.1537 64.227 35.261M67.7828 38.3156V42.1704H66.5818V32.1372H67.7828V33.2405C68.034 32.8085 68.3497 32.4875 68.7305 32.2801C69.116 32.0675 69.5746 31.9611 70.1063 31.9611C70.5224 31.9516 70.9347 32.0421 71.3085 32.225C71.6823 32.408 72.0067 32.6781 72.2544 33.0126C72.808 33.7137 73.0851 34.6342 73.0851 35.7774C73.0851 36.9205 72.808 37.841 72.2544 38.5422C72.0067 38.8767 71.6823 39.1468 71.3085 39.3297C70.9347 39.5127 70.5224 39.6032 70.1063 39.5936C69.5746 39.5936 69.1094 39.49 68.7305 39.2813C68.3497 39.0686 68.034 38.7469 67.7828 38.3143M71.8456 35.7767C71.8456 34.8981 71.6642 34.2102 71.3006 33.7131C70.9417 33.2113 70.4459 32.9601 69.8145 32.9601C69.5225 32.9503 69.2327 33.0141 68.9719 33.1457C68.711 33.2773 68.4875 33.4724 68.3218 33.7131C67.9629 34.2115 67.7901 34.8988 67.7901 35.7767C67.7901 36.6547 67.9695 37.3452 68.3218 37.847C68.6853 38.3455 69.1831 38.5934 69.8145 38.5934C70.4459 38.5934 70.9417 38.3448 71.3006 37.847C71.6642 37.3452 71.8456 36.6547 71.8456 35.7767Z" fill="#230F3D"/>
<defs>
<linearGradient id="paint0_linear_1694_3239" x1="32.8153" y1="26.6667" x2="51.3174" y2="7.84158" gradientUnits="userSpaceOnUse">
<stop offset='0' stop-color="#070135"/>
<stop offset="1" stop-color="#612D50"/>
</linearGradient>
</defs>
</svg>
