<svg width="84" height="49" viewBox="0 0 84 49" fill="none" xmlns="http://www.w3.org/2000/svg">
<path d="M30.4941 17.8447L30.9021 22.4098H48.0547L47.6463 27.0845H41.7474L41.7467 27.0838H31.3023L31.7045 31.6488H41.7313V31.6495H47.2572L46.7363 37.57L41.747 38.9399L41.7467 38.9396L41.7271 38.9449L36.7293 37.5721L36.4098 33.9312H31.905L32.5337 41.099L41.7261 43.695L50.931 41.0999L52.053 28.3104L52.1625 27.0845L52.9726 17.8447H30.4941Z" fill="#004CE8"/>
<path d="M38.2277 8.34281H36.3519C36.3386 8.1876 36.3031 8.0468 36.2454 7.92041C36.19 7.79402 36.1124 7.68537 36.0126 7.59446C35.915 7.50133 35.7964 7.43038 35.6567 7.3816C35.517 7.3306 35.3585 7.3051 35.1811 7.3051C34.8707 7.3051 34.6079 7.38049 34.3928 7.53127C34.18 7.68205 34.0181 7.89824 33.9072 8.17984C33.7986 8.46144 33.7443 8.79958 33.7443 9.19427C33.7443 9.61113 33.7997 9.96036 33.9106 10.242C34.0237 10.5213 34.1866 10.732 34.3995 10.8739C34.6124 11.0136 34.8685 11.0834 35.1678 11.0834C35.3385 11.0834 35.4915 11.0624 35.6268 11.0202C35.762 10.9759 35.8796 10.9127 35.9793 10.8307C36.0791 10.7486 36.1601 10.6499 36.2221 10.5346C36.2864 10.4171 36.3297 10.2852 36.3519 10.1389L38.2277 10.1522C38.2056 10.4404 38.1246 10.7342 37.9849 11.0335C37.8452 11.3307 37.6468 11.6056 37.3896 11.8584C37.1346 12.109 36.8186 12.3107 36.4417 12.4637C36.0647 12.6167 35.6268 12.6932 35.1279 12.6932C34.5026 12.6932 33.9416 12.5591 33.4449 12.2908C32.9505 12.0225 32.5591 11.6278 32.2709 11.1067C31.9848 10.5856 31.8418 9.94816 31.8418 9.19427C31.8418 8.43594 31.9881 7.79735 32.2808 7.27849C32.5735 6.75742 32.9682 6.36384 33.4649 6.09776C33.9616 5.82946 34.5159 5.69531 35.1279 5.69531C35.5581 5.69531 35.9538 5.75407 36.3153 5.87159C36.6767 5.98911 36.9938 6.16095 37.2665 6.38712C37.5392 6.61107 37.7588 6.88713 37.9251 7.2153C38.0914 7.54346 38.1922 7.9193 38.2277 8.34281Z" fill="#212B36"/>
<path d="M42.7386 7.91708C42.7209 7.69535 42.6377 7.5224 42.4892 7.39823C42.3428 7.27406 42.12 7.21197 41.8206 7.21197C41.6299 7.21197 41.4736 7.23525 41.3517 7.28182C41.2319 7.32616 41.1432 7.38714 41.0856 7.46475C41.0279 7.54235 40.998 7.63105 40.9958 7.73083C40.9914 7.81287 41.0058 7.88715 41.039 7.95367C41.0745 8.01797 41.1299 8.07673 41.2053 8.12995C41.2807 8.18095 41.3772 8.22751 41.4947 8.26964C41.6122 8.31177 41.7519 8.34946 41.9138 8.38272L42.4725 8.50246C42.8495 8.58228 43.1721 8.68761 43.4404 8.81843C43.7087 8.94925 43.9282 9.10336 44.099 9.28075C44.2697 9.45591 44.395 9.65326 44.4748 9.87277C44.5568 10.0923 44.599 10.3318 44.6012 10.5912C44.599 11.0391 44.487 11.4183 44.2653 11.7287C44.0435 12.0391 43.7264 12.2753 43.314 12.4371C42.9038 12.599 42.4105 12.6799 41.8339 12.6799C41.2419 12.6799 40.7253 12.5923 40.284 12.4172C39.845 12.242 39.5035 11.9726 39.2596 11.6089C39.0179 11.2431 38.896 10.7752 38.8938 10.2054H40.6499C40.661 10.4138 40.7131 10.589 40.8062 10.7309C40.8993 10.8728 41.0302 10.9803 41.1987 11.0535C41.3694 11.1267 41.5723 11.1633 41.8073 11.1633C42.0047 11.1633 42.1699 11.1389 42.3029 11.0901C42.436 11.0413 42.5368 10.9737 42.6056 10.8872C42.6743 10.8007 42.7098 10.7021 42.712 10.5912C42.7098 10.487 42.6754 10.3961 42.6089 10.3185C42.5446 10.2386 42.4382 10.1677 42.2896 10.1056C42.141 10.0413 41.9404 9.98142 41.6876 9.92599L41.0091 9.77965C40.406 9.64882 39.9304 9.43042 39.5822 9.12442C39.2363 8.81621 39.0645 8.39603 39.0667 7.86387C39.0645 7.43149 39.1798 7.05343 39.4126 6.7297C39.6477 6.40375 39.9725 6.14987 40.3871 5.96804C40.804 5.78622 41.2818 5.69531 41.8206 5.69531C42.3705 5.69531 42.8462 5.78733 43.2475 5.97137C43.6488 6.15541 43.9582 6.41484 44.1755 6.74966C44.395 7.08226 44.5058 7.4714 44.5081 7.91708H42.7386Z" fill="#212B36"/>
<path d="M48.9765 7.91708C48.9588 7.69535 48.8756 7.5224 48.7271 7.39823C48.5807 7.27406 48.3579 7.21197 48.0586 7.21197C47.8679 7.21197 47.7115 7.23525 47.5896 7.28182C47.4699 7.32616 47.3812 7.38714 47.3235 7.46475C47.2659 7.54235 47.2359 7.63105 47.2337 7.73083C47.2293 7.81287 47.2437 7.88715 47.2769 7.95367C47.3124 8.01797 47.3679 8.07673 47.4433 8.12995C47.5186 8.18095 47.6151 8.22751 47.7326 8.26964C47.8501 8.31177 47.9898 8.34946 48.1517 8.38272L48.7105 8.50246C49.0874 8.58228 49.41 8.68761 49.6783 8.81843C49.9466 8.94925 50.1661 9.10336 50.3369 9.28075C50.5076 9.45591 50.6329 9.65326 50.7127 9.87277C50.7948 10.0923 50.8369 10.3318 50.8391 10.5912C50.8369 11.0391 50.7249 11.4183 50.5032 11.7287C50.2814 12.0391 49.9644 12.2753 49.5519 12.4371C49.1417 12.599 48.6484 12.6799 48.0719 12.6799C47.4798 12.6799 46.9632 12.5923 46.5219 12.4172C46.0829 12.242 45.7414 11.9726 45.4975 11.6089C45.2558 11.2431 45.1339 10.7752 45.1317 10.2054H46.8878C46.8989 10.4138 46.951 10.589 47.0441 10.7309C47.1373 10.8728 47.2681 10.9803 47.4366 11.0535C47.6073 11.1267 47.8102 11.1633 48.0453 11.1633C48.2426 11.1633 48.4078 11.1389 48.5408 11.0901C48.6739 11.0413 48.7748 10.9737 48.8435 10.8872C48.9122 10.8007 48.9477 10.7021 48.9499 10.5912C48.9477 10.487 48.9133 10.3961 48.8468 10.3185C48.7825 10.2386 48.6761 10.1677 48.5275 10.1056C48.379 10.0413 48.1783 9.98142 47.9255 9.92599L47.247 9.77965C46.6439 9.64882 46.1683 9.43042 45.8202 9.12442C45.4743 8.81621 45.3024 8.39603 45.3046 7.86387C45.3024 7.43149 45.4177 7.05343 45.6505 6.7297C45.8856 6.40375 46.2104 6.14987 46.6251 5.96804C47.0419 5.78622 47.5197 5.69531 48.0586 5.69531C48.6085 5.69531 49.0841 5.78733 49.4854 5.97137C49.8868 6.15541 50.1961 6.41484 50.4134 6.74966C50.6329 7.08226 50.7438 7.4714 50.746 7.91708H48.9765Z" fill="#212B36"/>
</svg>
