<svg width="84" height="49" viewBox="0 0 84 49" fill="none" xmlns="http://www.w3.org/2000/svg">
<path d="M59.3802 29.3444L59.3753 26.3724L59.3606 21.0632M62.367 23.3511L59.3753 26.3722L62.3817 29.354M42.3405 26.412C42.3549 25.7747 42.1696 25.1235 41.7943 24.5963C41.2536 23.837 40.378 23.3172 39.4177 23.3072C39.3538 23.3072 39.2903 23.3072 39.2258 23.3121C38.8462 23.3356 38.4785 23.3882 38.1531 23.5237C36.0135 24.414 35.6344 27.3853 37.4396 28.7297C39.003 29.8926 41.2772 29.4186 42.0648 27.6425C42.2311 27.2671 42.3404 26.794 42.3404 26.4122V21.0391M56.7773 23.6616C56.3354 23.3753 55.8174 23.2721 55.3061 23.2729C55.2506 23.2729 55.1936 23.2757 55.1437 23.2778C53.6654 23.3414 52.2948 24.386 52.2948 26.4121C52.2948 28.8075 54.8633 30.1004 56.7834 28.9707M65.4041 28.7099L69.9457 24.8178C69.9457 24.8178 69.8352 24.6089 69.7636 24.5128C69.1523 23.6923 68.217 23.2825 67.2344 23.2825C64.8041 23.2825 62.9805 26.4265 65.4041 28.7099ZM65.4041 28.7099C65.5719 28.868 65.8024 28.9919 66.0585 29.0986C66.9478 29.4693 68.1652 29.439 68.8238 28.9509M75.3038 23.3513C74.5573 23.3532 73.8301 23.6148 73.2913 24.1187C72.4415 24.8199 72.2571 25.7057 72.268 26.825L72.2926 29.369M47.3112 23.2922C47.2422 23.2933 47.1737 23.3008 47.1046 23.3021C45.2609 23.337 43.9316 25.251 44.3343 27.0269C44.7268 28.7575 46.6174 29.7824 48.251 29.2165C50.1534 28.7165 50.929 26.321 49.8846 24.7045C49.3133 23.8207 48.345 23.2725 47.3112 23.2922Z" stroke="#212B36" stroke-width="1.93892" stroke-linecap="round" stroke-linejoin="round"/>
<path d="M23.0411 24.3418H25.5206V22.0984H23.0411V24.3418ZM20.0893 24.3418H22.5688V22.0984H20.0893V24.3418ZM17.1965 24.3418H19.676V22.0984H17.1965V24.3418ZM14.3037 24.3418H16.7242V22.0984H14.3037V24.3418ZM11.3519 24.3418H13.8314V22.0984H11.3519V24.3418ZM14.3037 21.6261H16.7242V19.3827H14.3037V21.6261ZM17.1965 21.6261H19.676V19.3827H17.1965V21.6261ZM20.0893 21.6261H22.5688V19.3827H20.0893V21.6261ZM20.0893 18.9104H22.5688V16.667H20.0893V18.9104ZM33.4315 23.3381C33.4315 23.3381 32.3689 22.3345 30.1845 22.6887C29.9484 20.9767 28.1182 19.973 28.1182 19.973C28.1182 19.973 26.4062 22.0393 27.646 24.3418C27.2917 24.5189 26.7014 24.755 25.8158 24.755H9.58075C9.28557 25.8767 9.28557 33.3153 17.4326 33.3153C23.2772 33.3153 27.646 30.5996 29.7122 25.6406C32.7821 25.8767 33.4315 23.3381 33.4315 23.3381Z" fill="#212B36"/>
</svg>
