<svg width="84" height="53" viewBox="0 0 84 53" fill="none" xmlns="http://www.w3.org/2000/svg">
<path d="M41.0417 24C41.0417 20.6863 43.7187 18 47.0208 18C50.323 18 52.9999 20.6864 52.9999 24C52.9999 27.3137 50.3229 30 47.0208 30C43.7186 30 41.0417 27.3137 41.0417 24Z" fill="#565D65"/>
<path d="M29.0857 36.0006C29.0857 32.6869 31.7626 30.0006 35.0648 30.0006L38.2511 28.3125L41.0438 30.0006V36.0006C41.0438 39.3144 38.3669 42.0006 35.0648 42.0006C31.7626 42.0006 29.0857 39.3143 29.0857 36.0006Z" fill="#565D65"/>
<path d="M41.0431 6L37.7896 11.6721L41.0431 18H46.9383C50.2405 18 52.9173 15.3137 52.9173 12C52.9173 8.68629 50.2404 6 46.9383 6H41.0431Z" fill="#212B36"/>
<path d="M29 12C29 15.3137 31.6769 18 34.9791 18L38.1508 19.2293L41.042 18V6H34.979C31.6769 6 29 8.68629 29 12Z" fill="#565D65"/>
<path d="M29.0857 24C29.0857 27.3138 31.7626 30 35.0648 30H41.0438V18H35.0648C31.7626 18 29.0857 20.6864 29.0857 24Z" fill="#212B36"/>
</svg>
