<svg width="84" height="53" viewBox="0 0 84 53" fill="none" xmlns="http://www.w3.org/2000/svg">
<g filter="url(#filter0_d_1694_3209)">
<g clip-path="url(#clip0_1694_3209)">
<path d="M35.4782 42.5424C38.7657 42.5424 41.4345 39.8736 41.4345 36.5861V30.6299H35.4782C32.1907 30.6299 29.522 33.2986 29.522 36.5861C29.522 39.8736 32.1907 42.5424 35.4782 42.5424Z" fill="#0ACF83"/>
<path d="M29.5159 24.6672C29.5159 21.3797 32.1846 18.7109 35.4721 18.7109H41.4284V30.6297H35.4721C32.1846 30.6297 29.5159 27.9609 29.5159 24.6734V24.6672Z" fill="#A259FF"/>
<path d="M29.5159 12.7482C29.5159 9.46074 32.1846 6.79199 35.4721 6.79199H41.4284V18.7107H35.4721C32.1846 18.7107 29.5159 16.042 29.5159 12.7545V12.7482Z" fill="#F24E1E"/>
<path d="M41.3782 6.79199H47.3344C50.6219 6.79199 53.2907 9.46074 53.2907 12.7482C53.2907 16.0357 50.6219 18.7045 47.3344 18.7045H41.3782V6.79199Z" fill="#FF7262"/>
<path d="M53.3532 24.6672C53.3532 27.9547 50.6844 30.6234 47.3969 30.6234C44.1094 30.6234 41.3782 27.9547 41.3782 24.6672C41.3782 21.3797 44.0469 18.7109 47.3344 18.7109C50.6219 18.7109 53.2907 21.3797 53.2907 24.6672H53.3532Z" fill="#1ABCFE"/>
</g>
</g>
<defs>
<filter id="filter0_d_1694_3209" x="-6.5061" y="-5.33301" width="99" height="64" filterUnits="userSpaceOnUse" color-interpolation-filters="sRGB">
<feFlood flood-opacity="0" result="BackgroundImageFix"/>
<feColorMatrix in="SourceAlpha" type="matrix" values="0 0 0 0 0 0 0 0 0 0 0 0 0 0 0 0 0 0 127 0" result="hardAlpha"/>
<feOffset dx="1" dy="2"/>
<feGaussianBlur stdDeviation="4"/>
<feComposite in2="hardAlpha" operator="out"/>
<feColorMatrix type="matrix" values="0 0 0 0 0.145098 0 0 0 0 0.396078 0 0 0 0 0.815686 0 0 0 0.14 0"/>
<feBlend mode="normal" in2="BackgroundImageFix" result="effect1_dropShadow_1694_3209"/>
<feBlend mode="normal" in="SourceGraphic" in2="effect1_dropShadow_1694_3209" result="shape"/>
</filter>
<clipPath id="clip0_1694_3209">
<rect width="24" height="36" fill="white" transform="translate(29.4939 6.66699)"/>
</clipPath>
</defs>
</svg>
