<svg width="84" height="49" viewBox="0 0 84 49" fill="none" xmlns="http://www.w3.org/2000/svg">
<path d="M10.5664 31.1886L10.6609 31.0044L16.5075 19.9095L13.9098 14.9967C13.6938 14.591 13.1455 14.6944 13.0741 15.1485L10.5664 31.1886Z" fill="black"/>
<path d="M19.7674 21.4409L18.5559 22.6817L17.0432 19.886L17.9984 18.0638L19.7674 21.4409Z" fill="black" stroke="black"/>
<path d="M16.5274 19.793L10.5176 31.2607L10.6113 31.3115L18.3179 23.6482L18.4136 23.3875L16.5274 19.793Z" fill="#F6820C"/>
<path d="M25.4635 31.2727L23.5241 19.3288C23.4635 18.955 23.0792 18.8004 22.8118 19.0684L10.5703 31.2986L17.2995 35.0593C17.7262 35.2975 18.2459 35.2977 18.6728 35.0597L25.4635 31.2727Z" fill="#FCCA3F"/>
<path d="M30.7076 29.5545H29.543V20.4906H34.8279V21.6043H30.7076V24.5795H34.4299V25.6691H30.7076V29.5545ZM36.8753 21.7942C36.7148 21.9547 36.521 22.0356 36.2933 22.0356C36.1849 22.0375 36.0773 22.017 35.9772 21.9755C35.8771 21.9339 35.7865 21.8722 35.7113 21.7942C35.6336 21.7187 35.5721 21.6282 35.5306 21.5281C35.4891 21.428 35.4684 21.3205 35.4699 21.2122C35.468 21.1038 35.4885 20.9962 35.53 20.8961C35.5716 20.7959 35.6333 20.7054 35.7113 20.6302C35.7868 20.5525 35.8773 20.491 35.9774 20.4495C36.0775 20.4079 36.185 20.3873 36.2933 20.3888C36.4017 20.3869 36.5093 20.4074 36.6094 20.4489C36.7096 20.4905 36.8001 20.5522 36.8753 20.6302C36.953 20.7057 37.0145 20.7962 37.056 20.8963C37.0975 20.9964 37.1182 21.1039 37.1167 21.2122C37.1186 21.3206 37.0981 21.4282 37.0566 21.5283C37.015 21.6284 36.9533 21.7189 36.8753 21.7942ZM36.8753 29.5545H35.7107V23.3516H36.8753V29.5545ZM39.3892 29.5545H38.2239V23.3516H39.3377V24.3642H39.3879C39.5054 24.0269 39.7487 23.7483 40.1161 23.5291C40.4834 23.3098 40.8338 23.1996 41.1861 23.1996C41.5384 23.1996 41.8235 23.2505 42.0604 23.3516L41.6167 24.4412C41.4647 24.376 41.2579 24.3525 40.9969 24.3525C40.5747 24.3525 40.2009 24.5189 39.8766 24.8523C39.5523 25.1857 39.3892 25.6222 39.3892 26.1624V29.5545ZM45.123 29.7503C44.1861 29.7503 43.4247 29.4384 42.8381 28.8133C42.2516 28.1883 41.9573 27.4001 41.9573 26.4462C41.9573 25.5432 42.2418 24.7668 42.8055 24.1169C43.3692 23.4671 44.1104 23.1422 44.9893 23.1422C45.9027 23.1422 46.6452 23.4423 47.1985 24.0413C47.7518 24.6402 48.0271 25.4421 48.0271 26.4469L48.0141 26.6622H43.1206C43.1546 27.2866 43.3633 27.7805 43.747 28.1433C43.925 28.3181 44.1357 28.4562 44.3671 28.5496C44.5985 28.6429 44.8461 28.6898 45.0956 28.6874C45.9308 28.6874 46.4964 28.3331 46.792 27.6239L47.8359 28.0545C47.6402 28.5354 47.2996 28.9386 46.8357 29.2635C46.3718 29.5885 45.8016 29.7509 45.1263 29.7509L45.123 29.7503ZM46.7933 25.705C46.7672 25.3507 46.6054 25.0134 46.3059 24.6924C46.0064 24.3714 45.5608 24.2115 44.9703 24.2115C44.5397 24.2115 44.1665 24.3466 43.8501 24.6161C43.5336 24.8855 43.3164 25.249 43.1976 25.7057H46.7861L46.7933 25.705ZM52.2498 29.7503C51.7768 29.7503 51.3527 29.6491 50.9775 29.4462C50.6024 29.2433 50.3212 28.9908 50.1293 28.6868H50.0856V29.548H48.9719V20.4906H50.1365V23.3516L50.0856 24.2128H50.1365C50.3225 23.9088 50.603 23.6556 50.9847 23.4534C51.3664 23.2511 51.7846 23.1493 52.257 23.1493C53.0595 23.1493 53.7577 23.4658 54.3331 24.0987C54.9086 24.7316 55.2074 25.5165 55.2074 26.4475C55.2074 27.3786 54.9164 28.17 54.3331 28.7964C53.7498 29.4227 53.0589 29.7457 52.257 29.7457L52.2498 29.7503ZM52.0541 28.6868C52.5943 28.6868 53.0589 28.4819 53.4464 28.0734C53.834 27.665 54.0284 27.1222 54.0284 26.4469C54.0284 25.7716 53.834 25.2294 53.4464 24.8203C53.0589 24.4112 52.5937 24.207 52.0541 24.207C51.791 24.2018 51.53 24.2533 51.2886 24.358C51.0472 24.4627 50.8312 24.6182 50.6552 24.8138C50.2716 25.2248 50.0791 25.7631 50.0791 26.4469C50.0791 27.1306 50.2709 27.6748 50.6552 28.08C51.0395 28.4851 51.5054 28.6881 52.0541 28.6881V28.6868ZM58.2609 29.7503C57.6085 29.7503 57.0519 29.5545 56.6089 29.1807C56.1659 28.8068 55.9434 28.2985 55.9434 27.68C55.9434 27.0047 56.2044 26.4756 56.7283 26.0913C57.2522 25.707 57.8975 25.5152 58.6661 25.5152C59.3499 25.5152 59.911 25.6417 60.3494 25.8949V25.7174C60.3494 25.2607 60.1929 24.8966 59.881 24.6226C59.5691 24.3486 59.1848 24.2115 58.7287 24.2115C58.3908 24.2115 58.0848 24.2918 57.8107 24.453C57.55 24.5975 57.3501 24.8313 57.2477 25.1113L56.1841 24.6559C56.3277 24.284 56.6102 23.9408 57.0323 23.625C57.4545 23.3092 58.011 23.15 58.7026 23.15C59.496 23.15 60.1544 23.3823 60.6776 23.8462C61.2009 24.3101 61.4625 24.9645 61.4625 25.8081V29.5552H60.3553V28.6939H60.3044C59.8399 29.4025 59.1607 29.7574 58.2661 29.7574L58.2609 29.7503ZM58.4567 28.6868C58.9375 28.6868 59.3747 28.5073 59.7668 28.1485C60.1589 27.7896 60.3553 27.3655 60.3553 26.8762C60.0265 26.6061 59.5332 26.4717 58.8742 26.4717C58.3086 26.4717 57.8825 26.5943 57.5954 26.839C57.3083 27.0837 57.1648 27.3707 57.1648 27.7002C57.1648 28.0043 57.2953 28.2444 57.5576 28.4219C57.8199 28.5993 58.1187 28.6881 58.4567 28.6881V28.6868ZM64.8508 29.7503C64.1591 29.7503 63.5869 29.5806 63.1348 29.244C62.6943 28.9206 62.3506 28.4829 62.1411 27.9782L63.185 27.5476C63.5139 28.3305 64.0756 28.7122 64.8684 28.7122C65.2311 28.7122 65.5287 28.632 65.7609 28.4708C65.9932 28.3096 66.1093 28.0989 66.1093 27.8379C66.1093 27.4334 65.8268 27.1594 65.2612 27.0158L64.0084 26.7118C63.6117 26.6106 63.2359 26.4182 62.8816 26.1356C62.5273 25.8531 62.3518 25.4851 62.3518 24.9971C62.3518 24.449 62.5946 24.0034 63.08 23.6615C63.5654 23.3196 64.1415 23.1487 64.809 23.1487C65.3571 23.1487 65.8529 23.2792 66.277 23.5219C66.7011 23.7646 67.0156 24.1274 67.2016 24.5919L66.1889 25.0095C65.9606 24.4614 65.4882 24.1874 64.7712 24.1874C64.4254 24.1874 64.1337 24.2526 63.8969 24.4027C63.66 24.5528 63.5426 24.74 63.5426 24.9847C63.5426 25.339 63.8166 25.5797 64.3647 25.7063L65.5926 25.9973C66.1746 26.1324 66.6052 26.3647 66.8845 26.6935C67.1637 27.0223 67.302 27.3942 67.302 27.8072C67.302 28.3644 67.0737 28.8283 66.6183 29.1996C66.1628 29.5708 65.5756 29.7568 64.8586 29.7568L64.8508 29.7503ZM71.0537 29.7503C70.1167 29.7503 69.3547 29.4384 68.7688 28.8133C68.1829 28.1883 67.8879 27.4001 67.8879 26.4462C67.8879 25.5432 68.1724 24.7668 68.7361 24.1169C69.2999 23.4671 70.0411 23.1422 70.9199 23.1422C71.8334 23.1422 72.5759 23.4423 73.1291 24.0413C73.6824 24.6402 73.9578 25.4421 73.9578 26.4469V26.6622H69.0643C69.097 27.2866 69.307 27.7805 69.6907 28.1433C69.8686 28.3181 70.0792 28.4561 70.3105 28.5494C70.5418 28.6428 70.7892 28.6897 71.0387 28.6874C71.8738 28.6874 72.4395 28.3331 72.7351 27.6239L73.779 28.0545C73.5833 28.5354 73.2427 28.9386 72.7788 29.2635C72.3149 29.5885 71.7446 29.7509 71.0693 29.7509L71.0537 29.7503ZM72.724 25.705C72.6979 25.3507 72.5361 25.0134 72.2366 24.6924C71.9371 24.3714 71.4915 24.2115 70.901 24.2115C70.4905 24.2043 70.0917 24.3486 69.7807 24.6167C69.4643 24.8868 69.247 25.2496 69.1283 25.7063H72.7168L72.724 25.705Z" fill="#212B36"/>
</svg>
