<svg width="84" height="49" viewBox="0 0 84 49" fill="none" xmlns="http://www.w3.org/2000/svg">
<path d="M50.835 21.8389C49.8814 21.8389 49.17 22.3073 49.17 23.4348C49.17 24.2763 49.6385 24.8737 50.7828 24.8737C51.7533 24.8737 52.4125 24.3015 52.4125 23.3995C52.4125 22.3757 51.8234 21.8389 50.835 21.8389ZM48.9277 29.799C48.7016 30.0761 48.4767 30.3712 48.4767 30.7106C48.4767 31.4034 49.3602 31.6126 50.5747 31.6126C51.5805 31.6126 52.9504 31.5425 52.9504 30.6068C52.9504 30.0515 52.2913 30.0167 51.4582 29.9645L48.9339 29.7917L48.9277 29.799ZM54.0606 21.8905C54.3719 22.2904 54.7023 22.8441 54.7023 23.6424C54.7023 25.5665 53.1877 26.694 51.0089 26.694C50.4479 26.694 49.9571 26.6239 49.6385 26.5381L49.0663 27.4497L50.766 27.5535C53.7672 27.7442 55.5342 27.8317 55.5342 30.1367C55.5342 32.1315 53.784 33.2568 50.766 33.2568C47.6274 33.2568 46.4314 32.4591 46.4314 31.0831C46.4314 30.3033 46.7792 29.8865 47.385 29.3138C46.8129 29.0726 46.6221 28.6384 46.6221 28.1705C46.6221 27.7891 46.8129 27.4413 47.1253 27.1187L48.2001 26.0781C47.3503 25.663 46.708 24.7598 46.708 23.4836C46.708 21.4894 48.0262 20.12 50.6796 20.12C51.4257 20.12 51.8767 20.189 52.2756 20.294H55.6571V21.7676L54.0611 21.8888M58.7071 18.7389C57.7254 18.7389 57.1465 18.1668 57.1465 17.1772C57.1465 16.1877 57.7187 15.6514 58.7071 15.6514C59.7129 15.6514 60.2851 16.1899 60.2851 17.1772C60.2851 18.1645 59.7123 18.7389 58.7071 18.7389ZM56.4632 29.1606V27.7919L57.3484 27.6707C57.5908 27.6359 57.6261 27.5837 57.6261 27.3229V22.2259C57.6261 22.0352 57.5739 21.914 57.4 21.8613L56.4632 21.532L56.6539 20.1285H60.2441V27.3257C60.2441 27.6034 60.261 27.6376 60.5218 27.6735L61.4054 27.7947V29.1623H56.4615M68.2699 28.4892C67.5238 28.8538 66.4311 29.1904 65.4426 29.1904C63.3783 29.1904 62.5985 28.359 62.5985 26.3984V21.8546C62.5985 21.7508 62.5985 21.6807 62.4583 21.6807H61.2522V20.138C62.778 19.9697 63.3856 19.2012 63.5763 17.3107H65.2239V19.7734C65.2239 19.894 65.2239 19.9473 65.363 19.9473H67.8088V21.6807H65.2183V25.8178C65.2183 26.8416 65.4617 27.2399 66.3963 27.2399C66.8821 27.2399 67.378 27.1187 67.801 26.9628L68.2694 28.4886" fill="#212B36"/>
<path d="M38.8516 23.5107L28.4557 13.1159C27.8577 12.5174 26.8867 12.5174 26.2875 13.1159L24.1295 15.2745L26.867 18.012C27.5037 17.7972 28.233 17.9419 28.739 18.4479C28.9806 18.6899 29.1493 18.995 29.2257 19.3283C29.3022 19.6616 29.2834 20.0097 29.1715 20.3328L31.8103 22.9716C32.4414 22.7517 33.1847 22.8947 33.6951 23.4035C33.922 23.6299 34.0851 23.912 34.1682 24.2214C34.2512 24.5309 34.2513 24.8568 34.1683 25.1662C34.0853 25.4757 33.9222 25.7579 33.6955 25.9843C33.4687 26.2106 33.1863 26.3733 32.8767 26.4558C32.5674 26.5387 32.2417 26.5387 31.9324 26.4558C31.623 26.3729 31.341 26.21 31.1147 25.9834C30.579 25.4471 30.4471 24.6595 30.7181 23.9993L28.2638 21.545V28.0214C28.4321 28.1078 28.6015 28.2217 28.7463 28.3664C29.4587 29.0788 29.4587 30.2333 28.7463 30.9469C28.5769 31.1164 28.3759 31.2509 28.1545 31.3427C27.9332 31.4344 27.6959 31.4817 27.4563 31.4817C27.2167 31.4817 26.9795 31.4344 26.7581 31.3427C26.5368 31.2509 26.3357 31.1164 26.1664 30.9469C25.4539 30.2328 25.4539 29.0788 26.1664 28.3664C26.3373 28.1956 26.5404 28.0602 26.7638 27.9681V21.4328C26.5534 21.3431 26.3431 21.2118 26.1664 21.0402C25.9103 20.7843 25.7363 20.458 25.6663 20.1028C25.5964 19.7477 25.6338 19.3798 25.7737 19.0459L23.0743 16.346L15.9416 23.4619C15.6549 23.7499 15.4939 24.1398 15.4939 24.5462C15.4939 24.9526 15.6549 25.3425 15.9416 25.6306L26.338 36.0253C26.936 36.6239 27.9071 36.6239 28.5062 36.0253L38.8516 25.6794C39.1383 25.3913 39.2993 25.0014 39.2993 24.595C39.2993 24.1886 39.1383 23.7987 38.8516 23.5107Z" fill="#637381"/>
</svg>
