<svg width="84" height="49" viewBox="0 0 84 49" fill="none" xmlns="http://www.w3.org/2000/svg">
<path d="M16.6753 15.9849C16.9186 15.3462 17.2531 14.7582 17.7498 14.2818C19.7368 12.3455 23.0214 12.8321 24.3697 15.2651C25.3834 17.1102 26.458 18.9146 27.5022 20.7394L32.7332 29.843C34.1829 32.3875 32.6115 35.6011 29.7325 36.037C27.9685 36.3006 26.3161 35.4896 25.4037 33.9081L20.8013 25.9197C20.7708 25.8589 20.7303 25.8082 20.6897 25.7575C20.5275 25.6257 20.4566 25.4331 20.3552 25.2608L16.9692 19.3911C16.5739 18.7018 16.3914 17.9516 16.4117 17.1608C16.4421 16.7553 16.4928 16.3498 16.6753 15.9849Z" fill="#3C8BD9"/>
<path d="M16.6755 15.9844C16.5843 16.3493 16.5032 16.7143 16.4829 17.0995C16.4525 17.9511 16.6654 18.7418 17.0912 19.4818L20.4265 25.2501C20.5278 25.4225 20.6089 25.5948 20.7103 25.757L18.8754 28.9098L16.3106 33.3298C16.27 33.3298 16.2599 33.3095 16.2498 33.2791C16.2396 33.198 16.27 33.127 16.2903 33.0459C16.706 31.5253 16.3613 30.177 15.3171 29.0213C14.6784 28.3218 13.8674 27.9265 12.9348 27.7947C11.7183 27.6223 10.6437 27.9366 9.68061 28.6969C9.50828 28.8287 9.39676 29.0213 9.19401 29.1227C9.15346 29.1227 9.13318 29.1024 9.12305 29.072L10.5727 26.5477L16.6046 16.0959C16.6249 16.0553 16.6553 16.0249 16.6755 15.9844Z" fill="#FABC04"/>
<path d="M9.16346 29.1025L9.7413 28.5855C12.2047 26.6391 15.905 28.0482 16.4422 31.13C16.574 31.8701 16.5031 32.5797 16.28 33.2893C16.2699 33.3502 16.2598 33.4008 16.2395 33.4617C16.1483 33.6239 16.0672 33.7962 15.9658 33.9584C15.0635 35.4486 13.7355 36.1887 11.9918 36.0772C9.99474 35.9352 8.42342 34.4349 8.1497 32.4479C8.01791 31.4848 8.21053 30.5826 8.70727 29.7513C8.80864 29.5688 8.93029 29.4066 9.04181 29.2242C9.0925 29.1836 9.07222 29.1025 9.16346 29.1025Z" fill="#34A852"/>
<path d="M9.16387 29.103C9.12332 29.1436 9.12332 29.2146 9.05236 29.2247C9.04222 29.1537 9.08277 29.1132 9.12332 29.0625L9.16387 29.103Z" fill="#637381"/>
<path d="M16.2395 33.4614C16.1989 33.3904 16.2395 33.3398 16.28 33.2891L16.3206 33.3296L16.2395 33.4614Z" fill="#212B36"/>
<path d="M37.3167 15.1465C34.714 15.1465 32.5488 17.2425 32.5488 19.8222C32.5488 22.402 34.714 24.4749 37.3167 24.4749C38.7217 24.4749 39.7582 24.0143 40.5874 23.1621C41.4397 22.3098 41.693 21.1351 41.693 20.1908C41.693 19.8913 41.67 19.6149 41.6239 19.3846H37.3167V20.6514H40.3801C40.288 21.3655 40.0577 21.8952 39.6891 22.2638C39.2515 22.7014 38.5375 23.2081 37.3167 23.2081C35.428 23.2081 33.9539 21.6879 33.9539 19.8222C33.9539 17.9565 35.428 16.4363 37.3167 16.4363C38.3302 16.4363 39.0903 16.8279 39.62 17.3577L40.5183 16.4594C39.7582 15.7223 38.7448 15.1465 37.3167 15.1465ZM45.125 18.4863C43.4896 18.4863 42.1307 19.7531 42.1307 21.5267C42.1307 23.2772 43.4666 24.5671 45.125 24.5671C46.7834 24.5671 48.1193 23.2772 48.1193 21.5267C48.1193 19.7762 46.7603 18.4863 45.125 18.4863ZM45.125 23.3694C44.2267 23.3694 43.4436 22.6093 43.4436 21.5267C43.4436 20.4441 44.2267 19.684 45.125 19.684C46.0233 19.684 46.8064 20.4211 46.8064 21.5267C46.8064 22.6093 46.0233 23.3694 45.125 23.3694ZM51.6204 18.4863C49.962 18.4863 48.626 19.7531 48.626 21.5267C48.626 23.2772 49.962 24.5671 51.6204 24.5671C53.2557 24.5671 54.6147 23.2772 54.6147 21.5267C54.6147 19.7762 53.2787 18.4863 51.6204 18.4863ZM51.6204 23.3694C50.7221 23.3694 49.9389 22.6093 49.9389 21.5267C49.9389 20.4441 50.7221 19.684 51.6204 19.684C52.5186 19.684 53.3018 20.4211 53.3018 21.5267C53.3018 22.6093 52.5417 23.3694 51.6204 23.3694ZM58.0927 18.4863C56.5955 18.4863 55.2366 19.7992 55.2366 21.5037C55.2366 23.1851 56.5955 24.498 58.0927 24.498C58.8067 24.498 59.3595 24.1755 59.659 23.807H59.705V24.2446C59.705 25.3963 59.1062 26.0182 58.1157 26.0182C57.3096 26.0182 56.8259 25.4423 56.6186 24.9586L55.4669 25.4423C55.7894 26.2485 56.6646 27.2159 58.1157 27.2159C59.659 27.2159 60.9488 26.2946 60.9488 24.0834V18.6936H59.705V19.1773H59.659C59.3595 18.8088 58.8067 18.4863 58.0927 18.4863ZM58.2079 23.3233C57.3096 23.3233 56.5495 22.5632 56.5495 21.5037C56.5495 20.4441 57.3096 19.661 58.2079 19.661C59.1062 19.661 59.7972 20.4441 59.7972 21.5037C59.7972 22.5632 59.1062 23.3233 58.2079 23.3233ZM61.9162 15.515H63.2291V24.4059H61.9162V15.515ZM66.7532 18.4863C65.1869 18.4863 63.874 19.7071 63.874 21.5267C63.874 23.2312 65.1639 24.5671 66.8914 24.5671C68.2964 24.5671 69.1026 23.7149 69.425 23.2312L68.3885 22.5402C68.0431 23.0469 67.5594 23.3694 66.8914 23.3694C66.2004 23.3694 65.7167 23.0699 65.4173 22.448L69.4941 20.7666L69.3559 20.4211C69.1026 19.7531 68.3195 18.4863 66.7532 18.4863ZM65.1869 21.4346C65.1409 20.2599 66.1083 19.661 66.7762 19.661C67.306 19.661 67.7667 19.9144 67.9049 20.3059L65.1869 21.4346Z" fill="#757575"/>
<path d="M41.2109 35.0866L44.2513 27.002H45.426L48.4664 35.0866H47.3147L46.5316 32.8985H43.1457L42.3626 35.0866H41.2109ZM43.4912 31.9311H46.1861L44.8732 28.2918H44.8272L43.4912 31.9311ZM49.5259 34.4187C49.0192 33.8428 48.7658 33.1518 48.7658 32.3226C48.7658 31.5165 49.0192 30.8255 49.5259 30.2266C50.0557 29.6508 50.6546 29.3744 51.3916 29.3744C51.8062 29.3744 52.1748 29.4665 52.4972 29.6277C52.8427 29.812 53.0961 30.0193 53.2804 30.3187H53.3264L53.2804 29.5586V27.002H54.3169V35.0866H53.3264V34.3265H53.2804C53.0961 34.6029 52.8427 34.8333 52.4972 35.0175C52.1517 35.2018 51.7832 35.2709 51.3916 35.2709C50.6546 35.2709 50.0327 34.9945 49.5259 34.4187ZM52.7967 33.7737C53.1422 33.4052 53.3034 32.9215 53.3034 32.3226C53.3034 31.7468 53.1422 31.2631 52.7967 30.8946C52.4742 30.526 52.0596 30.3418 51.5529 30.3418C51.0461 30.3418 50.6315 30.526 50.3091 30.8946C49.9636 31.2631 49.8023 31.7468 49.8023 32.3226C49.8023 32.8985 49.9636 33.3822 50.3091 33.7507C50.6546 34.1192 51.0692 34.3035 51.5529 34.3035C52.0596 34.3265 52.4742 34.1423 52.7967 33.7737ZM59.1078 34.7642C58.6932 35.0866 58.1634 35.2709 57.5185 35.2709C56.9657 35.2709 56.482 35.1327 56.0443 34.8333C55.6297 34.5338 55.3303 34.1653 55.146 33.6816L56.0674 33.29C56.2056 33.6125 56.3898 33.8889 56.6662 34.0732C56.9196 34.2574 57.219 34.3496 57.5185 34.3496C57.8409 34.3496 58.1173 34.2805 58.3477 34.1423C58.578 34.0041 58.6701 33.8198 58.6701 33.6355C58.6701 33.29 58.3937 33.0136 57.864 32.8524L56.9196 32.6221C55.837 32.3457 55.3073 31.8389 55.3073 31.0558C55.3073 30.5491 55.5146 30.1575 55.9292 29.835C56.3438 29.5356 56.8735 29.3744 57.4954 29.3744C57.9632 29.3712 58.4237 29.4903 58.8314 29.7199C59.2229 29.9502 59.4993 30.2727 59.6606 30.6642L58.7392 31.0558C58.6241 30.8255 58.4628 30.6412 58.2325 30.503C58.0022 30.3648 57.7258 30.2957 57.4263 30.2957C57.1499 30.2957 56.9196 30.3648 56.6893 30.503C56.482 30.6412 56.3668 30.8024 56.3668 31.0097C56.3668 31.3322 56.6662 31.5625 57.2651 31.6777L58.0943 31.885C59.1999 32.1614 59.7297 32.7142 59.7297 33.5434C59.7527 34.0271 59.5224 34.4417 59.1078 34.7642Z" fill="#757575"/>
</svg>
