<svg width="84" height="49" viewBox="0 0 84 49" fill="none" xmlns="http://www.w3.org/2000/svg">
<path d="M30.6689 25.0968C30.6356 25.1478 30.5708 25.3087 30.4825 25.5776C30.3922 25.8484 30.2823 26.186 30.1528 26.5981C30.0232 27.0044 29.8819 27.4617 29.7328 27.9661L29.2676 29.5126C29.091 30.0385 28.9536 30.5527 28.7966 31.0591L28.4041 32.429L28.1097 33.4534L27.9723 33.9441C27.9135 34.107 27.8546 34.2875 27.7565 34.4877C27.6583 34.684 27.5406 34.8743 27.4228 35.0529C27.2854 35.2296 27.1481 35.3807 26.9911 35.4984C26.834 35.6162 26.677 35.6751 26.5004 35.6751C26.2256 35.6751 26.0294 35.5809 25.892 35.4003C25.7546 35.2139 25.6958 34.8783 25.6958 34.3876V33.9441C25.6958 33.7812 25.7743 33.4731 25.892 33.0256C26.0098 32.5742 26.1471 32.0679 26.3238 31.5026C26.4808 30.9335 26.677 30.3486 26.8537 29.7422L27.3836 28.0936C26.9125 28.6039 26.4219 29.1142 25.892 29.6048C25.3621 30.1151 24.8126 30.5665 24.2631 30.959C23.6939 31.3515 23.1248 31.6851 22.5556 31.9403C21.9865 32.1954 21.437 32.3132 20.9071 32.3132C20.2987 32.3132 19.7884 32.1758 19.3566 31.901C18.9249 31.6263 18.552 31.2926 18.2772 30.8609C18.0024 30.4291 17.7866 29.9385 17.6492 29.4086C17.5726 28.9002 17.4941 28.3507 17.4941 27.8208V27.6246C17.4941 27.5657 17.502 27.5009 17.5138 27.4401C17.5609 26.4588 17.7002 25.4579 17.9259 24.4295C18.1614 23.3933 18.4558 22.3688 18.8287 21.3483C19.2016 20.3277 19.6333 19.3268 20.124 18.3534C20.6343 17.4192 21.1642 16.4968 21.7333 15.6332C22.3025 14.7697 22.9148 13.965 23.5585 13.2389C24.2062 12.5088 24.8675 11.8808 25.5486 11.3548C26.2276 10.8249 26.9145 10.4128 27.6093 10.1184C28.2962 9.824 28.9831 9.66699 29.6621 9.66699C30.4472 9.66699 31.2047 9.88288 31.9387 10.3088C32.6649 10.7464 33.3518 11.4333 33.9955 12.395C34.1407 12.6109 34.231 12.8267 34.2703 13.0466C34.3095 13.2624 34.3291 13.4724 34.3291 13.6648C34.3291 14.124 34.2212 14.489 34.0014 14.752C33.7855 15.0268 33.5304 15.1445 33.2163 15.1445C32.9416 15.1445 32.6865 15.0072 32.4509 14.7128C32.2154 14.4184 31.9407 14.0063 31.6659 13.4764C31.3911 12.9857 31.0968 12.6324 30.7631 12.4166C30.4295 12.2007 30.0762 12.1026 29.6837 12.1026C29.0753 12.1026 28.4473 12.3577 27.7604 12.868C27.0735 13.3782 26.4062 14.0259 25.7389 14.8502C25.0717 15.6744 24.424 16.6165 23.8156 17.6763C23.2072 18.7361 22.6577 19.8155 22.1867 20.9341C21.7156 22.0528 21.3428 23.1322 21.068 24.2117C20.7932 25.2911 20.6559 26.2527 20.6559 27.1163C20.6559 27.4107 20.6755 27.705 20.7147 27.9994C20.754 28.3134 20.8325 28.5686 20.9306 28.8237C21.0287 29.0788 21.1857 29.2751 21.382 29.4321C21.5783 29.5891 21.8138 29.6676 22.0885 29.6676C22.4025 29.6676 22.7754 29.5695 23.168 29.3536C23.5801 29.1377 23.9922 28.863 24.424 28.5097C24.8558 28.1564 25.3072 27.7639 25.7389 27.3322C26.1707 26.9004 26.6025 26.449 26.9754 25.9976C27.3482 25.5462 27.7015 25.1144 27.9763 24.7023C28.2707 24.2902 28.4865 23.9369 28.6435 23.6229L29.7799 19.9705C29.9251 19.5839 30.1135 19.3072 30.3549 19.1462C30.5904 18.9814 30.8318 18.899 31.0811 18.899C31.1988 18.899 31.3225 18.9186 31.4441 18.9578C31.5619 18.9971 31.6757 19.0599 31.7719 19.1462C31.87 19.2247 31.9426 19.3425 31.9995 19.4799C32.0584 19.6173 32.0977 19.7743 32.0977 19.9705C32.0977 20.4612 32.0584 20.9243 31.9799 21.3522C31.9014 21.7839 31.7837 22.1961 31.6463 22.6082C31.5285 23.0106 31.3715 23.4207 31.2145 23.8348C31.0575 24.247 30.9005 24.6787 30.7435 25.1301L30.6689 25.0968ZM46.9642 28.0956C46.5854 28.6059 46.1438 29.1044 45.6414 29.5872C45.1558 30.058 44.6348 30.4911 44.0831 30.8825C43.5493 31.2593 43.0233 31.5635 42.5072 31.7931C41.9891 32.0227 41.5259 32.1365 41.1138 32.1365C40.7016 32.1365 40.3621 31.9992 40.103 31.7244C39.844 31.4496 39.7144 30.9786 39.7144 30.3113C39.7144 29.8403 39.7851 29.2908 39.9225 28.6628C39.6987 29.0553 39.4181 29.4674 39.0825 29.86C38.7489 30.2721 38.3622 30.645 37.9324 30.9786C37.5007 31.3123 37.0179 31.587 36.484 31.7833C35.9502 31.9795 35.3693 32.0973 34.7373 32.0973C34.4567 32.0973 34.1819 32.058 33.9189 31.9795C33.6442 31.901 33.4087 31.7833 33.2124 31.6066C33.0162 31.43 32.8592 31.1945 32.7218 30.9001C32.604 30.6057 32.5451 30.2328 32.5451 29.8011L32.5844 29.3301C32.6236 29.0357 32.7218 28.545 32.918 27.8974C33.1143 27.2497 33.3891 26.4058 33.7816 25.3656C34.1741 24.3255 34.704 23.0891 35.4105 21.6171C35.5871 21.2246 35.7834 20.9499 36.0385 20.7732C36.274 20.5966 36.5292 20.5181 36.8039 20.5181C36.9217 20.5181 37.0394 20.5377 37.1768 20.577C37.2946 20.5966 37.4123 20.6555 37.5301 20.734C37.6478 20.8125 37.7263 20.9106 37.8049 21.0284C37.8637 21.1265 37.903 21.2639 37.903 21.4209C37.903 21.519 37.8834 21.6171 37.8637 21.6956C37.8049 21.8723 37.7263 22.0881 37.589 22.3629L37.0787 23.3324C36.8824 23.6857 36.6862 24.0782 36.4703 24.4943C36.2544 24.9123 36.0582 25.3578 35.8815 25.7935C35.7049 26.2449 35.5479 26.7061 35.4105 27.1673C35.2731 27.6383 35.1946 28.0897 35.175 28.5215C35.175 28.7177 35.2143 28.8747 35.2928 29.0317C35.3713 29.1887 35.5283 29.2673 35.7245 29.2673C36.274 29.2673 36.8236 29.0906 37.3338 28.7177C37.8441 28.3507 38.3151 27.8934 38.7469 27.3479C39.1787 26.7983 39.5712 26.2096 39.9244 25.5815C40.2777 24.9535 40.5525 24.3844 40.788 23.8662C40.945 23.5189 41.102 23.146 41.2197 22.7476C41.3375 22.3551 41.4749 21.9822 41.6319 21.6485C41.7693 21.3149 41.9459 21.0284 42.1421 20.8046C42.3188 20.5809 42.5543 20.471 42.8487 20.471C43.1431 20.471 43.3982 20.5887 43.5748 20.8242C43.7515 21.0598 43.8496 21.3345 43.8496 21.6682C43.8496 21.8448 43.7907 22.0999 43.673 22.4139C43.5552 22.7279 43.4178 23.1008 43.2412 23.513L42.672 24.8416C42.4562 25.3127 42.2795 25.7837 42.1029 26.2743C41.9263 26.7552 41.7693 27.236 41.6515 27.6952C41.5337 28.1662 41.4749 28.598 41.4749 28.9905C41.4749 29.3634 41.6711 29.5401 42.044 29.5401C42.3188 29.5401 42.6524 29.4615 43.0449 29.2653C43.4375 29.0887 43.8496 28.8335 44.2814 28.4999C44.7131 28.1662 45.1449 27.7737 45.5767 27.3223C46.0084 26.8709 46.4009 26.3921 46.7346 25.87L46.872 27.9504L46.9642 28.0956Z" fill="#637381" stroke="white" stroke-width="0.303717" stroke-miterlimit="10"/>
<path d="M47.3631 27.3305C47.2689 27.566 47.1767 27.8407 47.0884 28.1508C46.9961 28.4609 46.951 28.7396 46.951 28.9849C46.951 29.138 46.9765 29.2597 47.0295 29.3519C47.0805 29.4442 47.1786 29.4893 47.3239 29.4893C47.5064 29.4893 47.7321 29.4265 48.0049 29.2989C48.2757 29.1714 48.5681 29.0045 48.8822 28.7926C49.1962 28.5846 49.5259 28.3451 49.8634 28.0743C50.2049 27.7995 50.5445 27.5051 50.8801 27.2304C51.2137 26.936 51.5356 26.6416 51.8417 26.3472C52.1479 26.0528 52.4226 25.7781 52.666 25.5426C52.7327 25.4641 52.8132 25.4248 52.9094 25.3856C53.0036 25.3463 53.086 25.3267 53.1547 25.3267C53.3313 25.3267 53.4687 25.3856 53.5864 25.5426C53.7042 25.6799 53.7631 25.8762 53.7631 26.1117C53.7631 26.3276 53.7042 26.5631 53.5864 26.8182C53.4687 27.0734 53.2528 27.3285 52.9584 27.5836C52.4089 28.1724 51.8594 28.7416 51.2902 29.2911C50.7407 29.821 50.1716 30.3116 49.622 30.7238C49.0725 31.1359 48.523 31.4499 47.9735 31.7051C47.424 31.9406 46.8941 32.0583 46.3838 32.0583C46.0305 32.0583 45.7361 31.9994 45.5006 31.8817C45.2651 31.7639 45.0885 31.6069 44.9315 31.4107C44.7941 31.2144 44.696 30.9789 44.6371 30.7238C44.5782 30.449 44.5586 30.1742 44.5586 29.8799C44.5586 29.3696 44.6175 28.8593 44.7549 28.3294C44.8922 27.7995 45.0296 27.3089 45.2062 26.8771C45.5203 26.0725 45.8146 25.2874 46.1287 24.5024L46.9922 22.3436L50.8958 12.513C51.043 12.1205 51.249 11.8418 51.514 11.6691C51.7809 11.5121 52.0439 11.4336 52.3127 11.4336C52.5875 11.4336 52.823 11.5121 53.0467 11.6887C53.2626 11.8575 53.3804 12.1401 53.3804 12.5267C53.3804 12.7093 53.3411 12.9036 53.2724 13.1077C53.1939 13.3039 53.1154 13.5277 52.9977 13.7612C52.7818 14.2362 52.5267 14.821 52.2323 15.5158L51.251 17.7923C50.9173 18.6068 50.5641 19.4605 50.2108 20.3437L49.151 22.9343C48.7978 23.7743 48.4837 24.5632 48.1894 25.3169L47.424 27.2657L47.3631 27.3305Z" fill="#637381" stroke="white" stroke-width="0.303717" stroke-miterlimit="10"/>
<path d="M65.6767 24.563C65.8003 24.4787 65.9122 24.4119 66.0162 24.3609C66.1182 24.3099 66.2183 24.2824 66.3106 24.2824C66.5009 24.2824 66.6442 24.3687 66.7384 24.5375C66.8365 24.7063 66.8954 24.9104 66.8954 25.1577C66.8954 25.4227 66.8365 25.6935 66.7188 25.9682C66.601 26.243 66.444 26.4746 66.2085 26.6551C65.2861 27.4735 64.4618 28.2193 63.7553 28.8925C63.0291 29.5657 62.3619 30.1446 61.7142 30.6294C61.0666 31.12 60.4385 31.4929 59.8301 31.7677C59.2217 32.0424 58.5741 32.1798 57.8676 32.1798C57.2199 32.1798 56.7096 32.0424 56.3564 31.748C56.0031 31.4733 55.8265 31.0808 55.8265 30.5705V30.4527C55.8265 30.4331 55.8461 30.3742 55.8461 30.335C55.8854 30.0406 56.0227 29.6873 56.2582 29.2752C56.4938 28.8827 56.7685 28.4705 57.1022 28.0388C57.4358 27.607 57.7891 27.1752 58.1619 26.7435C58.5348 26.3117 58.8685 25.8996 59.2021 25.507C59.5161 25.1145 59.7713 24.7613 59.9871 24.4276C60.203 24.1136 60.3012 23.8389 60.3012 23.6426C60.3012 23.5248 60.2619 23.4267 60.1795 23.3482C60.0872 23.2893 59.944 23.2501 59.7477 23.2501C59.3944 23.2501 59.0412 23.3482 58.6761 23.5248C58.3033 23.7015 57.9382 23.9566 57.5771 24.251C57.2238 24.565 56.8706 24.8986 56.533 25.2912C56.1954 25.6837 55.8854 26.0958 55.5713 26.508C55.277 26.9397 55.0022 27.3519 54.7471 27.7836C54.5116 28.2154 54.2957 28.6079 54.119 28.9612L53.9032 29.4322L53.6088 30.1387L53.2555 30.9238L52.9219 31.6892L52.6471 32.3368C52.5686 32.5331 52.5097 32.6508 52.4705 32.7293C52.4312 32.8275 52.3723 33.0041 52.2742 33.2592L51.9209 34.1581L51.5088 35.2375L51.1163 36.2973L50.7827 37.1962C50.6845 37.4513 50.6256 37.624 50.606 37.7162C50.5079 37.9714 50.4098 38.2265 50.292 38.462C50.1743 38.6975 50.0467 38.8997 49.8956 39.0783C49.7464 39.2549 49.5737 39.4021 49.3794 39.51C49.1832 39.6082 48.9673 39.667 48.7318 39.667C48.4177 39.667 48.1626 39.5885 47.9664 39.4472C47.7701 39.3098 47.6523 39.0155 47.6523 38.6033C47.6523 38.4071 47.672 38.1912 47.7308 37.9753C47.7701 37.7594 47.8486 37.5592 47.9271 37.3473C47.986 37.1314 48.0841 36.9351 48.1626 36.7389C48.2411 36.5426 48.3196 36.3464 48.3785 36.1579C48.8299 35.1374 49.3107 34.1169 49.7916 33.0846C50.2724 32.0522 50.7336 31.0435 51.185 30.0426C51.6285 29.0416 52.0387 28.0604 52.4214 27.0791C52.7943 26.1174 53.1083 25.1832 53.3634 24.2922L53.6382 23.515C53.756 23.1814 53.8933 22.8477 54.0503 22.5337C54.2074 22.2197 54.384 21.9253 54.5802 21.6898C54.7765 21.4543 54.9924 21.3307 55.2083 21.3307C55.5615 21.3307 55.8108 21.4092 55.9658 21.5662C56.1228 21.7389 56.2013 21.9587 56.2013 22.2727C56.2013 22.3316 56.1935 22.4297 56.1758 22.5671C56.1562 22.7045 56.1366 22.8419 56.1052 22.9891L56.0208 23.4012C56.0011 23.5386 55.9619 23.6367 55.9423 23.6956C56.2563 23.3502 56.6095 23.0087 56.9785 22.6652C57.3514 22.3257 57.7439 22.0176 58.1364 21.7428C58.5289 21.4681 58.9411 21.2325 59.3532 21.0657C59.7654 20.8891 60.1775 20.8008 60.5897 20.8008C60.884 20.8008 61.1588 20.84 61.4453 20.9185C61.7201 21.001 61.9752 21.1207 62.1911 21.2796C62.4207 21.4367 62.5993 21.6329 62.7367 21.8684C62.8741 22.1039 62.9428 22.3846 62.9428 22.7006C62.9428 23.1186 62.8329 23.5641 62.6288 24.0351C62.4129 24.514 62.1578 24.9968 61.832 25.4678C61.518 25.9506 61.1706 26.4177 60.7997 26.871C60.4268 27.3224 60.0931 27.7346 59.7595 28.1075L58.9352 29.0691C58.7193 29.3243 58.6016 29.5009 58.5976 29.599C58.5976 29.7168 58.6369 29.8149 58.7154 29.8934C58.7939 29.9719 58.9313 30.0112 59.1079 30.0112C59.261 30.0112 59.4769 29.9228 59.7556 29.756C60.046 29.5794 60.4425 29.3046 60.9527 28.9003C61.463 28.4882 62.1224 27.9583 62.9094 27.2714C63.6945 26.5923 64.6757 25.7406 65.8278 24.7063L65.6767 24.563Z" fill="#637381" stroke="white" stroke-width="0.303717" stroke-miterlimit="10"/>
</svg>
