<svg width="84" height="49" viewBox="0 0 84 49" fill="none" xmlns="http://www.w3.org/2000/svg">
<path d="M31.0076 17.4277L32.1535 30.886H41.5239V30.8958H46.6989L46.2091 36.6832L41.5331 38.0147L36.8479 36.6832L36.5522 33.1225H32.3383L32.9297 40.1165L41.5424 42.6669L41.5656 42.635L50.118 40.1165L51.2732 26.4424H35.9977L35.6096 21.8811H51.6521L52.0402 17.4277H31.0076Z" fill="#FF4C1E"/>
<path d="M28.5312 13.5148V6.66699H30.3903V9.34192H32.8513V6.66699H34.7103V13.5148H32.8513V10.8399H30.3903V13.5148H28.5312Z" fill="#212B36"/>
<path d="M35.4058 8.16495V6.66699H41.3575V8.16495H39.2979V13.5148H37.4655V8.16495H35.4058Z" fill="#212B36"/>
<path d="M42.0572 6.66699H44.371L45.9626 10.5456H46.0429L47.6344 6.66699H49.9483V13.5148H48.1293V9.55592H48.0758L46.5511 13.4613H45.4544L43.9297 9.52917H43.8762V13.5148H42.0572V6.66699Z" fill="#212B36"/>
<path d="M50.8293 13.5148V6.66699H52.6884V12.0169H55.4569V13.5148H50.8293Z" fill="#212B36"/>
</svg>
