<svg width="84" height="49" viewBox="0 0 84 49" fill="none" xmlns="http://www.w3.org/2000/svg">
<path fill-rule="evenodd" clip-rule="evenodd" d="M24.1889 23.7054C24.1889 27.5143 21.17 30.6025 17.4461 30.6025C13.7222 30.6025 10.7034 27.5143 10.7034 23.7054C10.7034 19.8965 13.7222 16.8082 17.4461 16.8082C21.17 16.8082 24.1889 19.8959 24.1889 23.7054Z" fill="#637381"/>
<path d="M10.9792 25.4141C10.9792 25.4141 10.491 18.2216 17.1181 18.0163L16.6556 17.2456L13.0595 18.4529L12.032 19.6342L11.1329 21.3552L10.6191 23.3584L10.7732 24.694" fill="#212B36"/>
<path d="M12.8286 19.0009C11.6454 20.2112 10.9135 21.8822 10.9135 23.7314C10.9135 25.5805 11.6451 27.2518 12.8286 28.4619C14.0121 29.6719 15.6434 30.4188 17.4466 30.4188C19.2498 30.4188 20.8842 29.6688 22.0646 28.4619C23.245 27.2549 23.9797 25.5805 23.9797 23.7317C23.9797 21.8829 23.2475 20.2115 22.0646 19.0012C20.8817 17.7908 19.2498 17.0449 17.4466 17.0442C15.6434 17.0436 14.009 17.7939 12.8286 19.0009ZM12.5255 28.7544C11.2714 27.469 10.4941 25.6918 10.4941 23.7317C10.4941 21.7716 11.2714 19.994 12.5255 18.7084C13.7796 17.4227 15.5256 16.6251 17.4432 16.6251C19.3607 16.6251 21.1039 17.4221 22.3605 18.7084C23.6172 19.9947 24.395 21.771 24.395 23.7317C24.395 25.6924 23.6178 27.4693 22.3605 28.7547C21.1033 30.04 19.3604 30.8379 17.4432 30.8379C15.5259 30.8379 13.7858 30.041 12.5255 28.7544Z" fill="#212B36"/>
<path fill-rule="evenodd" clip-rule="evenodd" d="M20.2846 23.7444L19.257 23.8984L17.8695 24.0525L16.9704 24.0781L16.0972 24.0525L15.4294 23.8469L14.8356 23.2047L14.3731 21.8946L14.27 21.6121L13.6534 21.4068L13.294 20.8161L13.0371 19.9686L13.3196 19.2236L13.9875 18.9923L14.5269 19.2492L14.7837 19.8142L15.0919 19.763L15.195 19.6348L15.0919 19.0442L15.0663 18.2991L15.2203 17.2716L15.2141 16.6847L15.6828 15.9359L16.5047 15.3453L17.9432 14.7287L19.5358 14.96L20.9227 15.9619L21.5649 16.9894L21.9759 17.7344L22.079 19.5839L21.7709 21.1764L21.2059 22.589L20.6665 23.334" fill="#F0D6B7"/>
<path fill-rule="evenodd" clip-rule="evenodd" d="M19.4109 28.1877L15.7376 28.3414V28.958L16.0458 31.1159L15.8917 31.2959L13.3229 30.4224L13.1429 30.1143L12.886 27.2117L12.2922 25.4647L12.1641 25.0538L14.2188 23.6412L14.861 23.3843L15.4261 24.0781L15.9142 24.5147L16.4792 24.6944L16.7361 24.7716L17.0443 26.1073L17.2755 26.3898L17.8662 26.1841L17.4552 26.9804L19.6897 28.0336L19.4072 28.1877" fill="#335061"/>
<path fill-rule="evenodd" clip-rule="evenodd" d="M13.3232 19.2228L13.991 18.9916L14.5304 19.2485L14.7873 19.8135L15.0955 19.7622L15.1726 19.4541L15.0186 18.8603L15.1726 17.4478L15.0445 16.6771L15.507 16.1377L16.5089 15.3414L16.2264 14.9561L14.8139 15.6499L14.2201 16.1124L13.8863 16.8312L13.3726 17.5249L13.2185 18.3469L13.3216 19.2203" fill="#6D6B6D"/>
<path fill-rule="evenodd" clip-rule="evenodd" d="M14.3763 16.8082C14.3763 16.8082 14.7616 15.8582 16.3029 15.3957C17.8443 14.9332 16.3801 15.0613 16.3801 15.0613L14.7107 15.7032L14.0685 16.3454L13.786 16.8592L14.3797 16.8079M13.606 19.0424C13.606 19.0424 13.0666 17.2442 15.1216 16.9873L15.0445 16.6792L13.6319 17.0135L13.2209 18.3502L13.3241 19.2236L13.6066 19.0439" fill="#DCD9D8"/>
<path fill-rule="evenodd" clip-rule="evenodd" d="M14.428 21.4322L14.7642 21.1062C14.7642 21.1062 14.9161 21.1237 14.9417 21.3037C14.9674 21.4837 15.0449 23.1019 16.149 23.9757C16.2496 24.0554 15.3271 23.8507 15.3271 23.8507L14.5052 22.5694M19.1544 20.9475C19.1544 20.9475 19.2144 20.1662 19.4241 20.2287C19.6338 20.2912 19.6335 20.4984 19.6335 20.4984C19.6335 20.4984 19.1241 20.8278 19.1544 20.9475Z" fill="#F7E4CD"/>
<path d="M21.2865 18.0924C21.2865 18.0924 20.8631 18.1818 20.824 18.5549C20.785 18.9281 21.2865 18.6321 21.3634 18.6062M18.1783 18.118C18.1783 18.118 17.6133 18.1952 17.6133 18.5546C17.6133 18.914 18.2555 18.889 18.4352 18.7346" fill="#F7E4CD"/>
<path fill-rule="evenodd" clip-rule="evenodd" d="M14.6815 19.7907C14.6815 19.7907 13.7052 19.1969 13.6027 19.7651C13.5002 20.3332 13.2683 20.7411 13.7567 21.332L13.423 21.2289L13.1148 20.4326L13.0117 19.662L13.6055 19.0454L14.2733 19.0966L14.6587 19.4048L14.6815 19.7907ZM15.1502 18.1694C15.1502 18.1694 15.5868 15.909 17.796 15.4724C19.6148 15.113 20.5701 15.5496 20.9298 15.9606C20.9298 15.9606 19.3117 14.0342 17.7735 14.6249C16.2353 15.2155 15.1021 16.2946 15.1277 16.9881L15.1534 18.1694M21.1067 16.2171C21.1067 16.2171 20.362 16.1915 20.3361 16.8594C20.3361 16.8594 20.3361 16.9625 20.3873 17.0647C20.3873 17.0647 20.9811 16.3968 21.3374 16.7565M17.8441 17.1344C17.8441 17.1344 17.7191 16.1093 16.8419 16.7053C16.2768 17.0906 16.3281 17.6303 16.4309 17.7328C16.5337 17.8353 16.5059 18.0453 16.5872 17.9006C16.6684 17.756 16.6397 17.2962 16.9222 17.1678C17.2047 17.0394 17.6678 16.8959 17.8472 17.1347" fill="#F7E4CD"/>
<path fill-rule="evenodd" clip-rule="evenodd" d="M15.4293 24.078L13.0149 25.1571C13.0149 25.1571 14.0168 29.1354 13.5033 30.3711L13.1439 30.2461L13.1183 28.7304L12.4505 25.8534L12.168 25.0571L14.6815 23.3589L15.4265 24.0777M15.6778 26.28L16.0203 26.6978V28.2391H15.6097L15.5584 27.0319C15.5584 26.9069 15.6097 26.4381 15.6097 26.4381M15.6862 28.4704L14.5299 28.5216L14.8643 28.7529L15.6862 28.8779" fill="#49728B"/>
<path fill-rule="evenodd" clip-rule="evenodd" d="M19.6426 28.213L20.5926 28.1874L20.8239 30.5506L19.8479 30.6787L19.6426 28.213Z" fill="#335061"/>
<path fill-rule="evenodd" clip-rule="evenodd" d="M19.8984 28.2129L21.3369 28.1357L21.9307 26.5688C21.9307 26.4916 22.4445 24.4112 22.4445 24.4112L21.2882 23.2039L21.0569 22.9983L20.4403 23.6149V26.0034L19.9009 28.2129" fill="#335061"/>
<path fill-rule="evenodd" clip-rule="evenodd" d="M20.5417 28.0331L19.6426 28.2128L19.7676 28.9322C20.1013 29.0863 20.6667 28.6753 20.6667 28.6753M20.5642 23.5376L22.3621 24.8733L22.4133 24.2567L21.052 22.9983L20.5667 23.5408" fill="#49728B"/>
<path fill-rule="evenodd" clip-rule="evenodd" d="M16.5783 33.2737L16.0464 31.1158L15.782 29.5236L15.7383 28.3413L18.1453 28.2163H19.6428L19.5066 30.9102L19.7378 32.9909L19.7122 33.3762L17.7599 33.5303L16.5786 33.2734" fill="white"/>
<path fill-rule="evenodd" clip-rule="evenodd" d="M19.3082 28.1873C19.3082 28.1873 19.1801 30.8587 19.5651 32.7594C19.5651 32.7594 18.7944 33.2475 17.6641 33.376L19.8216 33.2988L20.0785 33.1447L19.7704 28.9321L19.6932 28.033" fill="#DCD9D8"/>
<path fill-rule="evenodd" clip-rule="evenodd" d="M20.868 30.3457L21.8699 30.0632L23.7706 29.9601L24.0531 29.0869L23.5393 27.5712L22.9456 27.494L22.1237 27.7509L21.3349 28.1359L20.9161 28.0591L20.5898 28.1841" fill="white"/>
<path fill-rule="evenodd" clip-rule="evenodd" d="M20.8496 29.8314C20.8496 29.8314 21.5174 29.5233 21.6203 29.5489L21.3378 28.1364L21.6715 28.0082L21.9028 29.498L23.4697 29.5752C23.4697 29.5752 23.7778 28.9814 23.701 28.3679L23.9835 29.1898L24.0091 29.6524L23.5982 30.2689L23.1356 30.3721L22.365 30.3464L22.1081 30.0127L21.209 30.1408L20.9265 30.2439" fill="#DCD9D8"/>
<path d="M19.8393 28.0086L19.2742 26.5732L18.6836 25.7257C18.6836 25.7257 18.8117 25.3663 18.9917 25.3663H19.5824L20.1474 25.5719L20.0961 26.522L19.8393 28.0117" fill="white"/>
<path fill-rule="evenodd" clip-rule="evenodd" d="M19.9502 27.5198C19.9502 27.5198 19.2308 26.1329 19.2308 25.9272C19.2308 25.9272 19.3589 25.6191 19.5389 25.696C19.7189 25.7729 20.104 25.9785 20.104 25.9785V25.4903L19.2305 25.3103L18.6367 25.3875L19.6386 27.7507L19.844 27.7764" fill="#DCD9D8"/>
<path d="M16.8091 24.1297L16.0975 24.0522L15.4297 23.8466V24.0779L15.756 24.4379L16.7835 24.9004" fill="white"/>
<path fill-rule="evenodd" clip-rule="evenodd" d="M15.6625 24.2068C15.6625 24.2068 16.4588 24.5412 16.7157 24.4637L16.7413 24.7715L16.0225 24.6177L15.5859 24.3096L15.6631 24.2065" fill="#DCD9D8"/>
<path fill-rule="evenodd" clip-rule="evenodd" d="M20.8661 25.4503C20.4301 25.4378 20.0363 25.3856 19.6916 25.2884C19.7151 25.1472 19.6713 25.0084 19.7063 24.9065C19.8023 24.8378 19.9635 24.8384 20.1088 24.8222C19.9832 24.7603 19.8066 24.7359 19.662 24.7715C19.6588 24.6734 19.6145 24.6128 19.5879 24.5359C19.8329 24.4484 20.4114 23.8749 20.737 24.0649C20.892 24.1556 20.9579 24.6712 20.9698 24.9219C20.9798 25.13 20.9511 25.3397 20.8661 25.4531" fill="#637381"/>
<path d="M20.8641 25.4503C20.4282 25.4378 20.0344 25.3856 19.6897 25.2884C19.7131 25.1472 19.6694 25.0084 19.7044 24.9065C19.8003 24.8378 19.9616 24.8384 20.1069 24.8222C19.9813 24.7603 19.8047 24.7359 19.66 24.7715C19.6569 24.6734 19.6125 24.6128 19.5859 24.5359C19.8309 24.4484 20.4094 23.8749 20.735 24.0649C20.8901 24.1556 20.956 24.6712 20.9679 24.9219C20.9779 25.13 20.9491 25.3397 20.8641 25.4531V25.4503Z" stroke="#637381" stroke-width="0.61625"/>
<path fill-rule="evenodd" clip-rule="evenodd" d="M18.7806 24.7379L18.7768 24.8373C18.6409 24.9266 18.4212 24.9257 18.2718 25.0007C18.4607 25.0069 18.6461 25.0538 18.8152 25.1382L18.8059 25.3873C18.5565 25.5579 18.3287 25.8123 18.0349 25.9726C17.8961 26.0482 17.4086 26.2432 17.2608 26.2089C17.1774 26.1895 17.1696 26.0857 17.1364 25.9879C17.0652 25.7785 16.9014 25.4454 16.887 25.1301C16.8689 24.7319 16.8286 24.0644 17.2577 24.1469C17.6036 24.2125 18.0065 24.3719 18.2743 24.5219C18.438 24.6116 18.5327 24.7219 18.7812 24.7413" fill="#637381"/>
<path d="M18.7806 24.7379L18.7768 24.8373C18.6409 24.9266 18.4212 24.9257 18.2718 25.0007C18.4607 25.0069 18.6461 25.0538 18.8152 25.1382L18.8059 25.3873C18.5565 25.5579 18.3287 25.8123 18.0349 25.9726C17.8961 26.0482 17.4086 26.2432 17.2608 26.2089C17.1774 26.1895 17.1696 26.0857 17.1364 25.9879C17.0652 25.7785 16.9014 25.4454 16.887 25.1301C16.8689 24.7319 16.8286 24.0644 17.2577 24.1469C17.6036 24.2125 18.0065 24.3719 18.2743 24.5219C18.438 24.6116 18.5327 24.7219 18.7812 24.7413L18.7806 24.7379Z" stroke="#637381" stroke-width="0.61625"/>
<path fill-rule="evenodd" clip-rule="evenodd" d="M19.0298 25.212C18.9916 24.9951 18.9476 24.9332 18.9648 24.7441C19.5429 24.3585 19.6517 25.4067 19.0298 25.212Z" fill="#637381"/>
<path d="M19.0298 25.212C18.9916 24.9951 18.9476 24.9332 18.9648 24.7441C19.5429 24.3585 19.6517 25.4067 19.0298 25.212Z" stroke="#637381" stroke-width="0.61625"/>
<path fill-rule="evenodd" clip-rule="evenodd" d="M19.8694 25.3857C19.8694 25.3857 19.6894 25.1288 19.8182 25.0513C19.9469 24.9738 20.075 25.0513 20.1525 24.9263C20.2301 24.8013 20.1525 24.7206 20.1782 24.5669C20.2038 24.4131 20.3322 24.3869 20.4607 24.3613C20.5891 24.3356 20.9488 24.2841 21.0001 24.4125L20.846 23.95L20.5379 23.8469L19.5619 24.4119L19.5106 24.6944V25.2607M17.1718 26.2363L17.0718 25.0347C17.0174 24.4369 17.2156 24.5409 17.7337 24.5409C17.8128 24.5409 18.2212 24.6353 18.2503 24.695C18.3903 24.9813 18.0159 24.9175 18.4115 25.1335C18.7459 25.3157 19.3356 25.0228 19.2006 24.6178C19.125 24.5278 18.8069 24.5866 18.6931 24.5303L18.0912 24.2178C17.8359 24.0853 17.2459 23.8922 16.9737 24.0772C16.284 24.5459 17.0174 25.7179 17.2634 26.2076" fill="#212B36"/>
<path fill-rule="evenodd" clip-rule="evenodd" d="M17.8447 17.135C17.1447 16.9719 16.7969 17.4282 16.5847 17.9007C16.3953 17.8547 16.4706 17.5969 16.5184 17.4657C16.6434 17.121 17.1487 16.6625 17.5613 16.7244C17.7388 16.7513 17.9791 16.9134 17.8447 17.1344M21.2561 17.9325L21.2892 17.9338C21.4474 18.2626 21.5842 18.6107 21.7839 18.9007C21.6502 19.212 20.7714 19.4876 20.7851 18.932C20.9751 18.8488 21.3033 18.9151 21.4717 18.8088C21.3742 18.5416 21.2342 18.3138 21.253 17.9357M18.2035 17.9413C18.3535 18.2163 18.4025 18.5057 18.616 18.7132C18.7119 18.807 18.8988 18.921 18.8035 19.1813C18.7816 19.2429 18.6235 19.3798 18.5322 19.4064C18.1988 19.5048 17.4213 19.4267 17.6847 19.0107C17.9607 19.0232 18.3316 19.1898 18.5379 18.9895C18.3794 18.7395 18.1003 18.2354 18.201 17.9404M21.128 20.7373C20.6258 21.0599 20.0654 21.4108 19.2426 21.3296C19.0666 21.1733 18.9998 20.8364 19.1707 20.6117C19.2598 20.768 19.2038 21.0492 19.452 21.088C19.9189 21.168 20.4623 20.8023 20.7983 20.6745C21.0067 20.3233 20.7804 20.1942 20.5926 19.9683C20.2082 19.5051 19.6932 18.9313 19.712 18.2379C19.8673 18.1254 19.8807 18.4098 19.8995 18.4616C20.1001 18.931 20.6048 19.5314 20.9733 19.9304C21.067 20.0295 21.2127 20.1242 21.2295 20.1898C21.2773 20.3773 21.1051 20.608 21.1252 20.7345M14.5093 20.3976C14.3518 20.3076 14.3143 19.912 14.1296 19.8976C13.8655 19.882 13.9108 20.4111 13.9146 20.7208C13.7327 20.5558 13.7008 20.0476 13.8342 19.7832C13.682 19.7082 13.6139 19.8657 13.5295 19.9208C13.638 19.1323 14.6858 19.5551 14.509 20.3911M21.4511 21.0661C21.2173 21.5111 20.8867 22.0011 20.2004 22.0155C20.1864 21.8718 20.1754 21.653 20.2011 21.5664C20.7254 21.5164 21.0492 21.2489 21.4511 21.0661ZM18.1635 21.3546C18.601 21.5846 19.4054 21.6093 20.0001 21.5921C20.032 21.7224 20.0314 21.8833 20.0326 22.0421C19.2682 22.0802 18.3635 21.8911 18.1635 21.3546ZM18.0807 21.7836C18.3832 22.543 19.4232 22.4555 20.3001 22.4349C20.2614 22.5337 20.1751 22.6499 20.0739 22.6921C19.7926 22.8065 19.0176 22.8934 18.6276 22.6859C18.38 22.5546 18.2213 22.2571 18.0857 22.0827C18.0232 21.9983 17.6941 21.7839 18.0807 21.7836Z" fill="#212B36"/>
<path fill-rule="evenodd" clip-rule="evenodd" d="M21.0942 25.9743L19.9785 27.7432C20.1551 27.2238 20.2307 26.3547 20.2573 25.6921C20.6267 25.5193 20.9432 25.7312 21.0948 25.974" fill="#81B0C4"/>
<path fill-rule="evenodd" clip-rule="evenodd" d="M23.0042 28.1602C22.6067 28.2399 22.3273 28.629 21.9395 28.6015C22.1526 28.3015 22.526 28.1743 23.0042 28.1602ZM23.1792 28.7852C22.8551 28.8165 22.4745 28.8718 22.146 28.8477C22.3017 28.6102 22.9011 28.6921 23.1792 28.7852ZM23.2917 29.3184C22.9276 29.3262 22.4748 29.319 22.1291 29.2871C22.3338 29.0671 23.0561 29.2059 23.2917 29.3184Z" fill="#212B36"/>
<path fill-rule="evenodd" clip-rule="evenodd" d="M20.4099 30.7871C20.4621 31.2446 20.6434 31.7078 20.6209 32.2091C20.4196 32.2769 20.304 32.3362 20.034 32.3359L19.9746 30.8537C20.1074 30.8624 20.3027 30.759 20.4096 30.7874" fill="#DCD9D8"/>
<path fill-rule="evenodd" clip-rule="evenodd" d="M19.8219 24.0464C19.6391 24.1657 19.4835 24.3151 19.3078 24.4423C18.9184 24.4617 18.7059 24.4154 18.4197 24.1917C18.4244 24.1739 18.4531 24.1817 18.4509 24.1598C18.8678 24.3457 19.3978 24.0842 19.8188 24.0467" fill="#F0D6B7"/>
<path fill-rule="evenodd" clip-rule="evenodd" d="M17.6328 26.8879C17.7475 26.3916 18.1963 26.1347 18.6038 25.8613C19.0244 26.395 19.2804 27.0816 19.562 27.7441C18.8963 27.5435 18.2163 27.2179 17.6328 26.8879Z" fill="#81B0C4"/>
<path fill-rule="evenodd" clip-rule="evenodd" d="M19.9737 30.8529C19.9568 31.2592 20.0137 31.9092 20.033 32.3351C20.3027 32.3354 20.4184 32.2758 20.6199 32.2083C20.6428 31.7073 20.4615 31.2438 20.409 30.7863C20.3027 30.7582 20.1068 30.8613 19.974 30.8526L19.9737 30.8529ZM15.7726 28.5447C15.9507 30.18 16.2082 31.5548 16.6807 33.003C17.7295 33.3217 18.9939 33.3492 19.9215 33.0617C19.7512 32.2442 19.8255 31.2492 19.7262 30.3772C19.6512 29.7216 19.6893 29.0616 19.5865 28.3928C18.463 28.159 16.8751 28.3381 15.7729 28.5444L15.7726 28.5447ZM19.8518 28.4034C19.8424 29.1059 19.883 29.7988 19.9368 30.5019C20.2065 30.4613 20.3899 30.4344 20.6399 30.3794C20.5587 29.7025 20.5687 28.9406 20.4024 28.3419C20.2109 28.3437 20.0421 28.3397 19.8512 28.4037L19.8518 28.4034ZM21.22 28.2903C21.095 28.2609 20.9431 28.289 20.8206 28.2915C20.8781 28.8641 21.0175 29.496 21.0665 30.0969C21.259 30.1032 21.3618 30.0125 21.5197 29.9813C21.5281 29.4538 21.4737 28.7269 21.2197 28.29L21.22 28.2903ZM23.2919 30.1832C23.6929 30.0857 23.9451 29.5944 23.8326 29.09C23.7576 28.7509 23.6232 28.1125 23.4794 27.8956C23.3732 27.7353 23.0857 27.5249 22.8563 27.6721C22.4828 27.9112 21.825 27.9806 21.5531 28.2703C21.6897 28.725 21.7322 29.3494 21.7884 29.9257C22.255 29.9547 22.8291 29.7975 23.2166 29.9644C22.9457 30.0519 22.5947 30.0529 22.3603 30.1807C22.5516 30.2732 22.9994 30.2544 23.2916 30.1838L23.2919 30.1832ZM19.5621 27.744C19.2802 27.0815 19.0246 26.3949 18.6039 25.8611C18.1964 26.1346 17.7476 26.3915 17.6329 26.8877C18.2164 27.2177 18.8964 27.5434 19.5621 27.744ZM20.2565 25.6924C20.2299 26.3549 20.1543 27.2243 19.9777 27.7434C20.399 27.2068 20.7387 26.5824 21.0934 25.9746C20.9421 25.7317 20.6256 25.5199 20.2559 25.6927L20.2565 25.6924ZM19.469 25.4127C19.3096 25.3955 19.1739 25.5961 18.9664 25.5096C18.9189 25.5621 18.8727 25.6189 18.8271 25.6705C19.2855 26.223 19.4936 27.0065 19.8477 27.6556C20.0377 27.0321 20.0159 26.3493 20.0577 25.668C19.7968 25.6846 19.6515 25.432 19.469 25.4127ZM18.9627 24.7445C18.9458 24.9336 18.9896 24.9955 19.0277 25.2124C19.6527 25.4067 19.5408 24.3592 18.9627 24.7445ZM18.273 24.5183C18.0052 24.3714 17.6023 24.212 17.2564 24.1432C16.8273 24.0611 16.8676 24.7286 16.8857 25.1264C16.9001 25.442 17.0639 25.7749 17.1351 25.9843C17.1686 26.0821 17.1757 26.1858 17.2595 26.2052C17.4073 26.2365 17.8945 26.0449 18.0336 25.9689C18.3274 25.8089 18.5555 25.5546 18.8046 25.3836L18.8139 25.1345C18.6448 25.0501 18.4594 25.0032 18.2705 24.997C18.4199 24.922 18.6392 24.923 18.7755 24.8336L18.7792 24.7342C18.5308 24.7155 18.4361 24.6045 18.2723 24.5148L18.273 24.5183ZM15.7104 24.0532C15.4879 24.2789 16.3341 24.5867 16.6035 24.6033C16.602 24.4604 16.6848 24.3258 16.6682 24.2233C16.3482 24.167 15.9276 24.2045 15.7104 24.0532ZM18.4499 24.1595C18.4489 24.1814 18.4202 24.1736 18.4186 24.1914C18.7049 24.4151 18.9174 24.4614 19.3068 24.442C19.4824 24.3145 19.638 24.1654 19.8208 24.0461C19.3999 24.0836 18.8699 24.3451 18.453 24.1592L18.4499 24.1595ZM20.9643 24.922C20.9525 24.6711 20.8862 24.1554 20.7315 24.0651C20.4065 23.8751 19.8277 24.4486 19.5824 24.5361C19.609 24.613 19.653 24.6736 19.6565 24.7717C19.8015 24.7361 19.9777 24.7605 20.1034 24.8223C19.958 24.8386 19.7971 24.838 19.7008 24.9067C19.6655 25.0086 19.7096 25.1474 19.6862 25.2886C20.0309 25.3855 20.4246 25.4377 20.8606 25.4505C20.945 25.3402 20.9743 25.1305 20.9643 24.9192V24.922ZM15.336 24.272C15.2663 24.222 14.7938 23.6076 14.7291 23.6329C13.8775 23.9695 13.0781 24.5526 12.364 25.1039C13.045 26.5655 13.32 28.3559 13.3687 30.0816C14.1488 30.4463 14.8344 30.9723 15.8926 31.0273C15.7701 30.1604 15.6582 29.3872 15.5888 28.5709C15.3232 28.4584 14.9413 28.5759 14.6919 28.5365C14.6897 28.2365 15.0722 28.4053 15.1038 28.2034C15.1279 28.0509 14.8935 28.0393 14.9694 27.799C15.1641 27.8696 15.2663 28.0259 15.4738 28.0847C15.6635 27.6696 15.4713 26.9355 15.4988 26.589C15.5041 26.524 15.5313 26.2283 15.6769 26.2802C15.8063 26.3227 15.6701 27.0665 15.6813 27.3946C15.6938 27.6971 15.6447 27.9896 15.7673 28.179C16.8183 28.035 17.8763 27.9483 18.9367 27.9193C18.693 27.815 18.4039 27.7162 18.0867 27.5371C17.9148 27.4434 17.3729 27.2384 17.3232 27.0752C17.2442 26.8149 17.5311 26.6765 17.5801 26.4502C17.0639 26.7315 16.9629 26.1802 16.8407 25.7896C16.7301 25.4355 16.667 25.1708 16.6398 24.967C16.1951 24.7545 15.7194 24.5401 15.3366 24.2683L15.336 24.272ZM20.5159 23.707C21.2284 23.3617 21.3597 24.9977 21.0775 25.5249C21.1206 25.6821 21.269 25.7424 21.3297 25.8836C20.9321 26.5955 20.4906 27.2602 20.0852 27.964C20.3868 27.7765 20.8178 27.9306 21.1728 27.79C21.3025 27.7387 21.3965 27.4415 21.4947 27.204C21.765 26.5502 22.0487 25.7258 22.175 25.102C22.2031 24.9598 22.2813 24.6501 22.2638 24.5239C22.2325 24.2973 21.9253 24.1295 21.769 23.9895C21.4809 23.7307 21.2997 23.5029 20.999 23.2613C20.874 23.4413 20.6159 23.562 20.5162 23.7082L20.5159 23.707ZM13.7106 17.3905C13.3712 17.7639 13.4418 18.4637 13.4834 18.9615C14.0969 18.5755 14.911 18.9921 14.9035 19.6484C15.1963 19.6406 15.0128 19.2827 14.9597 19.0515C14.7866 18.2983 15.2513 17.4796 14.9807 16.7908C14.4556 16.8305 14.0234 17.0452 13.7103 17.3902L13.7106 17.3905ZM16.1388 15.2232C15.37 15.441 14.3888 15.9992 14.07 16.6895C14.3144 16.6539 14.4841 16.5308 14.7253 16.5155C14.8166 16.5092 14.936 16.5536 15.041 16.528C15.2497 16.4761 15.426 16.0082 15.5835 15.8342C15.7366 15.6642 15.9216 15.5914 16.0479 15.4363C16.1291 15.3973 16.2488 15.3998 16.2535 15.2782C16.2182 15.2407 16.1816 15.212 16.1391 15.2238L16.1388 15.2232ZM20.1384 15.4279C19.3408 14.9779 17.9914 14.6394 17.1426 15.0623C16.4551 15.4035 15.5332 15.9686 15.2175 16.6842C15.5122 17.3717 15.13 18.0074 15.106 18.7087C15.0935 19.0818 15.2816 19.4074 15.296 19.8134C15.195 19.9796 14.8866 20.0003 14.6741 19.9884C14.6022 19.629 14.4766 19.2252 14.1066 19.1852C13.5831 19.1281 13.2003 19.5612 13.1765 20.014C13.1453 20.5465 13.5859 21.4288 14.2047 21.3672C14.4441 21.3435 14.5028 21.1038 14.7635 21.1063C14.9047 21.3881 14.5453 21.4769 14.5085 21.6782C14.4991 21.7303 14.5381 21.9338 14.5616 22.0294C14.6741 22.4944 14.925 23.096 15.1719 23.4498C15.4854 23.8989 16.101 23.9664 16.7632 24.0104C16.882 23.7557 17.3173 23.7767 17.6014 23.8432C17.2607 23.7089 16.9451 23.3817 16.6826 23.0926C16.3813 22.7607 16.0763 22.4051 16.0607 21.9707C16.6295 22.7601 17.1001 23.4498 18.1348 23.797C18.918 24.0595 19.8324 23.6767 20.434 23.2542C20.684 23.0785 20.8328 22.7998 21.0103 22.5447C21.6744 21.5897 21.9841 20.2259 21.9159 18.9049C21.8847 18.3599 21.8891 17.8168 21.7065 17.4502C21.5153 17.0667 20.869 16.7239 20.4909 17.0705C20.4209 16.6976 20.8056 16.4673 21.2575 16.6017C20.9356 16.1861 20.5971 15.686 20.1387 15.4276L20.1384 15.4279ZM21.624 27.724C22.2472 27.4146 23.4116 26.8902 23.8023 27.7253C23.946 28.0331 24.1157 28.5534 24.1904 28.8709C24.296 29.3191 24.076 30.2616 23.6154 30.4116C23.2085 30.5444 22.7335 30.5366 22.2403 30.4379C22.1825 30.3897 22.1153 30.3066 22.0734 30.2191C21.7234 30.2057 21.3953 30.2379 21.1193 30.3816C21.1456 30.6404 20.9706 30.6816 20.8062 30.7354C20.6843 31.2179 21.05 31.8479 20.9625 32.2879C20.9 32.6014 20.5146 32.6498 20.2312 32.7086C20.2218 32.8827 20.2437 33.0283 20.2631 33.1755C20.1984 33.4142 19.9077 33.5505 19.6318 33.5836C18.7255 33.693 17.3498 33.7414 16.4785 33.428C16.2354 32.8311 16.0441 32.1061 15.841 31.4248C14.9938 31.5154 14.3063 31.0579 13.6584 30.7582C13.434 30.6541 13.124 30.5969 13.0396 30.4182C12.9584 30.2454 12.9915 29.9138 12.9715 29.6006C12.9203 28.8006 12.8762 28.0297 12.6653 27.2109C12.5706 26.8434 12.4052 26.5193 12.2902 26.1652C12.184 25.8371 11.9974 25.4317 11.949 25.1045C11.8771 24.6195 12.3334 24.5926 12.6256 24.3858C13.0768 24.0607 13.4312 23.8811 13.92 23.5879C14.0647 23.501 14.5013 23.2817 14.5513 23.1801C14.65 22.9795 14.3819 22.6963 14.31 22.5388C14.1966 22.2901 14.1375 22.0785 14.1212 21.8332C13.7112 21.7685 13.4003 21.5244 13.2125 21.2488C12.9018 20.7934 12.6865 19.9509 12.9553 19.3099C12.9762 19.2593 13.0815 19.1599 13.0968 19.0827C13.1275 18.9302 13.0393 18.7271 13.0337 18.5646C13.0025 17.7314 13.1743 17.0139 13.7353 16.7626C13.9628 15.8557 14.7778 15.5542 15.5454 15.1032C15.8323 14.9345 16.1485 14.8269 16.4754 14.7069C17.6473 14.2757 19.4455 14.3569 20.4181 15.0926C20.8306 15.4045 21.49 16.0632 21.7256 16.5401C22.3484 17.7989 22.3038 19.9028 21.8684 21.4341C21.81 21.6397 21.7247 21.9419 21.6059 22.1888C21.5231 22.3613 21.2662 22.7063 21.2975 22.8585C21.3297 23.016 21.8834 23.4367 22.0022 23.551C22.2159 23.7573 22.6222 24.0311 22.6585 24.2917C22.6938 24.5686 22.5366 24.948 22.4566 25.2152C22.19 26.1074 21.9297 26.9318 21.6275 27.7271" fill="#212B36"/>
<path fill-rule="evenodd" clip-rule="evenodd" d="M17.4664 21.5485C17.5001 21.5035 17.6861 21.435 17.9461 21.5603C17.9461 21.5603 17.6379 21.6116 17.6636 22.126L17.5354 22.1004C17.5354 22.1004 17.4026 21.6347 17.4667 21.5488" fill="#F7E4CD"/>
<path fill-rule="evenodd" clip-rule="evenodd" d="M19.72 25.9654C19.72 25.9934 19.7117 26.0207 19.6962 26.0439C19.6807 26.0671 19.6586 26.0852 19.6328 26.0959C19.607 26.1066 19.5786 26.1094 19.5512 26.104C19.5238 26.0985 19.4986 26.0851 19.4789 26.0653C19.4591 26.0456 19.4457 26.0204 19.4402 25.993C19.4348 25.9656 19.4376 25.9372 19.4483 25.9114C19.4589 25.8856 19.477 25.8635 19.5003 25.848C19.5235 25.8325 19.5508 25.8242 19.5788 25.8242C19.6569 25.8242 19.72 25.8876 19.72 25.9654ZM19.8613 26.6205C19.8613 26.6484 19.853 26.6757 19.8375 26.6989C19.8219 26.7222 19.7999 26.7403 19.7741 26.751C19.7483 26.7617 19.7199 26.7645 19.6925 26.759C19.6651 26.7536 19.6399 26.7401 19.6201 26.7203C19.6004 26.7006 19.5869 26.6754 19.5815 26.648C19.576 26.6206 19.5788 26.5922 19.5895 26.5664C19.6002 26.5406 19.6183 26.5185 19.6415 26.503C19.6648 26.4875 19.6921 26.4792 19.72 26.4792C19.7981 26.4792 19.8613 26.5426 19.8613 26.6205Z" fill="#212B36"/>
<path d="M27.5374 30.0808V28.8076H28.2418C28.2635 29.1472 28.343 29.3965 28.4803 29.5554C28.6211 29.7144 28.8288 29.7939 29.1034 29.7939C29.4538 29.7939 29.6976 29.6585 29.8347 29.3876C29.9755 29.1203 30.046 28.6164 30.046 27.876V20.707H28.8706V20.0513H33.1783V20.7076H32.1426V27.9188C32.1426 28.7965 31.9204 29.4377 31.476 29.8423C31.0354 30.2469 30.3328 30.4492 29.3684 30.4492C29.0684 30.4492 28.7668 30.4185 28.4637 30.357C28.1604 30.2956 27.8518 30.2035 27.5374 30.0808ZM38.0435 24.8931C38.0435 24.1347 37.973 23.6037 37.8322 23.3002C37.6914 22.9931 37.4511 22.8395 37.1115 22.8395C36.7828 22.8395 36.5463 22.9896 36.4021 23.2896C36.2613 23.5896 36.1909 24.0917 36.1909 24.7959V24.8934H38.0441L38.0435 24.8931ZM40.151 25.5378H36.1903V25.5815C36.1903 26.3257 36.3022 26.864 36.5262 27.1963C36.7502 27.525 37.1114 27.6894 37.61 27.6894C38.0254 27.6894 38.3614 27.5792 38.6179 27.3588C38.8741 27.1384 39.0385 26.8186 39.111 26.3994H40.0104C39.855 27.0531 39.5461 27.5336 39.0838 27.8407C38.6213 28.1478 37.9747 28.3013 37.144 28.3013C36.1471 28.3013 35.3815 28.0394 34.8471 27.5157C34.3158 26.9886 34.0502 26.2372 34.0502 25.2615C34.0502 24.3079 34.3229 23.5638 34.8683 23.0292C35.4138 22.4946 36.1723 22.2273 37.144 22.2273C38.0976 22.2273 38.8291 22.5091 39.3385 23.0727C39.8479 23.6325 40.1187 24.4554 40.151 25.5415V25.5378ZM41.0398 28.141V27.4854H41.858V23.0371H41.0398V22.3814H43.7762V23.1939C44.0054 22.8508 44.2689 22.6034 44.5668 22.4517C44.8631 22.3 45.2381 22.2242 45.6919 22.2242C46.3384 22.2242 46.8259 22.4157 47.1544 22.7986C47.4867 23.1778 47.6529 23.7377 47.6529 24.4784V27.4857H48.4764V28.141H45.0387V27.4854H45.7378V24.424C45.7378 23.9365 45.6746 23.5987 45.5481 23.4108C45.4231 23.2191 45.2082 23.1233 44.9034 23.1233C44.5169 23.1233 44.2334 23.266 44.0528 23.5514C43.8721 23.8331 43.7818 24.2828 43.7818 24.9006V27.485H44.4862V28.1413L41.0398 28.141ZM52.5643 28.141H49.1017V27.4854H49.9199V20.3601H49.1017V19.71H51.8381V25.1231L54.1625 23.0371H53.4744V22.3814H56.0995V23.0371H55.0319L53.5475 24.3699L55.9748 27.4857H56.5979V28.141H53.2928V27.4854H53.97L52.3715 25.4318L51.8352 25.9087V27.4857H52.5612V28.141H52.5643ZM57.4355 20.7501C57.4355 20.4576 57.5365 20.2119 57.7386 20.0132C57.9407 19.8111 58.1881 19.71 58.4808 19.71C58.7662 19.71 59.0082 19.8111 59.2068 20.0132C59.4089 20.2119 59.5099 20.4576 59.5099 20.7501C59.5099 21.0355 59.4089 21.2793 59.2068 21.4814C59.008 21.6801 58.766 21.7795 58.4808 21.7795C58.1883 21.7795 57.9409 21.6801 57.7386 21.4814C57.5365 21.2826 57.4355 21.0389 57.4355 20.7501ZM59.5293 27.4847H60.3528V28.141H56.7901V27.4854H57.6083V23.0371H56.7901V22.3814H59.5265V27.4857L59.5293 27.4847ZM61.0219 28.141V27.4854H61.84V23.0371H61.0219V22.3814H63.7582V23.1939C63.9874 22.8508 64.2509 22.6034 64.5489 22.4517C64.8451 22.3 65.2201 22.2242 65.6739 22.2242C66.3204 22.2242 66.8079 22.4157 67.1365 22.7986C67.4688 23.1778 67.6349 23.7377 67.6349 24.4784V27.4857H68.4584V28.141H65.0208V27.4854H65.7198V24.424C65.7198 23.9365 65.6566 23.5987 65.5302 23.4108C65.4051 23.2191 65.1902 23.1233 64.8854 23.1233C64.499 23.1233 64.2154 23.266 64.0348 23.5514C63.8541 23.8331 63.7638 24.2828 63.7638 24.9006V27.485H64.4682V28.1413H61.0306L61.0219 28.141ZM69.2253 27.9729V26.3634H69.8378C69.8884 26.7932 70.0492 27.1219 70.32 27.3494C70.5909 27.5734 70.9593 27.6854 71.4254 27.6854C71.8154 27.6854 72.1133 27.6187 72.3192 27.4854C72.5288 27.3478 72.6336 27.1528 72.6336 26.9003C72.6336 26.6712 72.5669 26.4924 72.4335 26.3641C72.3035 26.2376 72.0488 26.1274 71.6695 26.0334L70.8788 25.8334C70.2829 25.6876 69.8513 25.4761 69.5837 25.199C69.3164 24.9209 69.1828 24.5459 69.1828 24.074C69.1828 23.4489 69.3995 22.9848 69.8328 22.6814C70.2662 22.3743 70.9344 22.2208 71.8376 22.2208C72.1772 22.2208 72.5384 22.2496 72.9214 22.3073C73.3079 22.3615 73.7341 22.4482 74.2002 22.5673V24.023H73.5877C73.5552 23.6272 73.4143 23.331 73.1651 23.1346C72.9193 22.9358 72.5653 22.8364 72.1032 22.8364C71.7132 22.8364 71.417 22.8997 71.2148 23.0261C71.016 23.1511 70.9166 23.3318 70.9166 23.568C70.9166 23.763 70.9744 23.9166 71.0901 24.0287C71.2057 24.1405 71.4134 24.2345 71.7132 24.3105L72.4989 24.5105C73.2539 24.7022 73.7747 24.9387 74.0614 25.22C74.3504 25.5016 74.4949 25.8935 74.4949 26.3956C74.4949 27.0456 74.2618 27.5261 73.7958 27.8369C73.3333 28.144 72.6126 28.2976 71.6338 28.2976C71.2763 28.2976 70.8971 28.2705 70.4963 28.2163C70.0954 28.1621 69.671 28.0809 69.2231 27.9726L69.2253 27.9729Z" fill="#212B36"/>
</svg>
