<svg width="84" height="49" viewBox="0 0 84 49" fill="none" xmlns="http://www.w3.org/2000/svg">
<path d="M34.9034 23.2286L34.4271 24.9158L34.9034 23.228V23.2286Z" fill="#212B36"/>
<path d="M48.8967 19.3639H46.7151C46.5938 19.3639 46.4737 19.4607 46.4479 19.5795L44.8989 26.7482C44.8731 26.8663 44.753 26.9631 44.6323 26.9631H43.0878C41.5595 26.9631 41.7363 25.9066 42.0552 24.4589L42.0648 24.415L42.2501 23.4275L42.3301 23.0209L43.0349 19.5795C43.0594 19.4607 42.98 19.3633 42.8587 19.3633H40.6191C40.5573 19.3654 40.498 19.3876 40.45 19.4265C40.402 19.4654 40.368 19.5189 40.3532 19.5788L39.3315 24.364C38.7764 26.8967 38.9236 29.3118 41.939 29.3874H46.7584C46.8797 29.3874 46.9991 29.2905 47.0249 29.1718L49.0658 19.5769C49.0916 19.4581 49.0122 19.3613 48.8915 19.3613L48.8967 19.3639ZM57.597 26.9883C57.7183 26.9883 57.7906 27.0851 57.7732 27.2039L57.5615 28.2398" fill="#212B36"/>
<path d="M51.7688 25.6539C51.7668 25.5403 51.8959 25.3453 52.0173 25.3453L51.7449 25.3408C51.6158 26.5762 51.7688 25.6539 51.7688 25.6539ZM57.5989 26.9944C57.7202 26.9944 57.7925 27.0912 57.7751 27.21L57.5343 28.4079" fill="#212B36"/>
<path d="M57.35 29.2761L57.5275 28.4087L57.35 29.2768V29.2761ZM21.4611 25.6798L21.8 24.1773L21.4127 25.8941L21.3675 26.1097L21.4618 25.6785L21.4611 25.6798ZM25.5196 19.3385H23.1231C23.0612 19.3409 23.0016 19.3631 22.9532 19.4018C22.9048 19.4404 22.87 19.4936 22.8539 19.5534L22.3996 21.5542C22.3919 21.5801 22.3907 21.6075 22.3959 21.634C22.401 21.6605 22.4126 21.6853 22.4294 21.7064C22.4463 21.7275 22.468 21.7443 22.4927 21.7552C22.5173 21.7661 22.5443 21.7709 22.5713 21.7692H24.9864C25.1078 21.7692 25.2278 21.6724 25.2536 21.5542L25.6925 19.5489C25.7183 19.4308 25.6409 19.334 25.5183 19.334L25.5196 19.3385ZM18.0417 33.4488L20.018 33.4643C19.4345 33.4643 18.4709 33.4533 18.041 33.4481L18.0417 33.4488Z" fill="#212B36"/>
<path d="M24.8315 22.4593H22.4221C22.3602 22.4617 22.3007 22.4839 22.2522 22.5226C22.2038 22.5612 22.169 22.6144 22.153 22.6742L21.4753 25.6793L21.381 26.1105L20.7356 29.1782C20.7036 29.3213 20.6649 29.4628 20.6194 29.6022C20.6194 29.6022 20.1676 30.9447 19.4099 30.9299L18.658 30.9157C18.5963 30.9174 18.5368 30.9387 18.488 30.9765C18.4393 31.0144 18.4039 31.0667 18.3869 31.1261L17.8861 33.2314C17.8781 33.2572 17.8766 33.2845 17.8814 33.3109C17.8863 33.3374 17.8974 33.3624 17.9139 33.3836C17.9305 33.4049 17.9519 33.4219 17.9763 33.4331C18.0008 33.4444 18.0276 33.4496 18.0545 33.4483L20.0314 33.4644C21.9264 33.4644 22.9249 32.4143 23.5658 29.3937L25.018 22.6813C25.0438 22.5632 24.9651 22.4664 24.8437 22.4664L24.8315 22.4593ZM59.1422 29.3892C59.0209 29.3892 58.9486 29.2924 58.968 29.1737L60.7861 20.6631" fill="#212B36"/>
<path d="M58.9947 29.2818C58.9798 29.2225 58.9882 29.0772 59.014 28.9591L59.8763 24.9188L58.9676 29.1741C58.9417 29.2928 59.0205 29.3896 59.1418 29.3896H59.3626C59.2412 29.3896 59.0089 29.3412 58.9947 29.2818ZM61.5247 29.3412C61.4589 29.367 61.3053 29.3896 61.1839 29.3896H61.4047C61.4663 29.3872 61.5254 29.3648 61.5731 29.3258C61.6209 29.2868 61.6546 29.2333 61.6693 29.1734L61.7132 28.9578C61.6893 29.0766 61.5841 29.3148 61.5196 29.3412H61.5247ZM69.2053 21.2334L69.3053 21.6465C69.3331 21.7646 69.2563 21.8608 69.1356 21.8614" fill="#212B36"/>
<path d="M62.3603 25.7553L62.4494 25.3267L62.796 23.7034L62.4035 25.5416L62.3603 25.7553ZM60.8145 20.5234L60.739 20.8784L59.8767 24.9188L60.7855 20.6635L60.8145 20.5241V20.5234Z" fill="#212B36"/>
<path d="M69.3059 21.6464L69.2059 21.2334L69.0575 20.5879C68.8612 19.8263 68.2855 19.3855 67.0347 19.3855L61.2775 19.3816C61.2158 19.3838 61.1564 19.406 61.1084 19.4449C61.0604 19.4838 61.0264 19.5373 61.0116 19.5972L60.9225 20.0187L60.7934 20.6557L59.0224 28.9514C58.9966 29.0701 58.9882 29.2095 59.003 29.2741C59.0179 29.3386 59.2502 29.3819 59.3709 29.3819H61.191C61.3124 29.3819 61.4653 29.3599 61.5318 29.3335C61.5983 29.307 61.6957 29.0753 61.7254 28.9501L62.416 25.5332L63.155 22.0711C63.1809 21.953 63.3003 21.8569 63.421 21.8562L69.1478 21.8536C69.2685 21.8536 69.3453 21.7568 69.3176 21.6387L69.3059 21.6464ZM76.678 17.9069L76.2372 17.9088H74.4042C74.337 17.9128 74.2716 17.9311 74.2121 17.9625C74.1527 17.9939 74.1006 18.0376 74.0595 18.0908L70.0062 24.0287C69.9378 24.1287 69.8597 24.1139 69.832 23.9964L69.5338 22.6882C69.5177 22.6283 69.4829 22.5752 69.4345 22.5365C69.3861 22.4978 69.3266 22.4757 69.2646 22.4732H66.659C66.5377 22.4732 66.4654 22.5681 66.499 22.6849L67.6608 26.7756C67.6943 26.8918 67.6963 27.0835 67.6672 27.2016L67.1509 29.1811C67.1421 29.2065 67.1397 29.2337 67.1441 29.2602C67.1485 29.2867 67.1594 29.3117 67.1759 29.3329C67.1924 29.3541 67.2139 29.3709 67.2385 29.3817C67.2631 29.3925 67.29 29.397 67.3167 29.3948H69.8984C70.0198 29.3948 70.1437 29.298 70.1734 29.1818L70.6897 27.2023C70.7302 27.0629 70.7935 26.9312 70.8769 26.8124L77.4577 18.0785C77.5306 17.9817 77.4912 17.903 77.3699 17.9043L76.6793 17.9088L76.678 17.9069ZM55.9753 23.0302C55.9598 23.1593 55.8385 23.2561 55.7172 23.2561H52.4126C52.2984 23.2561 52.2403 23.1787 52.2577 23.0819L52.2603 23.0644L52.2751 23.0083C52.5978 22.1692 53.2336 21.6187 54.4412 21.6187C55.8011 21.6187 56.0663 22.2835 55.974 23.0302H55.9753ZM55.0072 19.2171C50.7668 19.2171 49.7618 21.791 49.1984 24.3889C48.6343 27.037 48.6833 29.5135 53.0709 29.5135H53.7667L54.3024 29.5116L57.0945 29.4948C57.1558 29.492 57.2145 29.4694 57.2618 29.4304C57.3092 29.3914 57.3426 29.3382 57.3572 29.2786L57.7812 27.2055C57.8058 27.0867 57.7264 26.9899 57.605 26.9899H53.6608C52.0925 26.9899 51.6258 26.573 51.7975 25.3473H58.1033C58.2066 25.3454 58.3002 25.2828 58.3369 25.1847C58.3434 25.1672 58.3499 25.1485 58.3524 25.1298C59.2883 21.5993 59.0198 19.2196 55.0091 19.2196L55.0072 19.2171ZM34.9629 23.0167L34.9035 23.2277L34.4272 24.9162L33.9509 26.6033C33.9311 26.6628 33.8937 26.7149 33.8437 26.7527C33.7937 26.7905 33.7334 26.8122 33.6707 26.815H31.1504C29.2386 26.815 28.7733 25.3196 29.2386 23.1141C29.7033 20.8584 30.6166 19.4559 32.498 19.3139C35.0694 19.1203 35.5831 20.9287 34.9635 23.016L34.9629 23.0167ZM36.6913 26.6859C36.6913 26.6859 37.8789 23.8009 38.15 22.1337C38.5179 19.9025 37.4013 16.667 33.0866 16.667C28.7965 16.667 26.9338 19.756 26.2232 23.1212C25.5132 26.5033 26.4439 29.4696 30.7089 29.4464L37.2186 29.4225C37.2811 29.4195 37.341 29.3974 37.3904 29.359C37.4397 29.3206 37.476 29.268 37.4942 29.2082L38.0429 27.1184C38.0517 27.093 38.0542 27.0659 38.0499 27.0394C38.0457 27.013 38.0349 26.9879 38.0186 26.9667C38.0022 26.9454 37.9808 26.9285 37.9563 26.9176C37.9318 26.9067 37.905 26.902 37.8783 26.9041H36.8282C36.7249 26.9034 36.6668 26.8369 36.6784 26.7492C36.6804 26.733 36.6849 26.7169 36.6913 26.7001V26.6859Z" fill="#212B36"/>
<path d="M57.9276 24.7549C57.9276 24.835 57.863 24.8995 57.783 24.8995C57.703 24.8995 57.6384 24.835 57.6384 24.7549C57.6384 24.6749 57.703 24.6104 57.783 24.6104C57.863 24.6104 57.9276 24.6749 57.9276 24.7549Z" fill="#212B36"/>
<path d="M4.31889 21.7241C3.16888 23.4404 3.31177 25.6733 4.19041 27.4962L4.25496 27.6263L4.29632 27.7083L4.32139 27.7558L4.36714 27.8404L4.45112 27.99L4.49875 28.072L4.59589 28.2301L4.63725 28.2965L4.77826 28.5079L4.80584 28.5469L4.93431 28.7245L4.98257 28.7883L5.10791 28.9399L5.15303 28.9965L5.31848 29.193L5.32851 29.204L5.49647 29.3882L5.55036 29.4448L5.68448 29.5749L5.73963 29.6289L5.92325 29.8026L5.95835 29.8332L6.12568 29.9795L6.18835 30.0368L6.32748 30.15L6.40268 30.2151L6.55936 30.3322L6.63206 30.3855L6.78372 30.4896L6.84952 30.5352L7.08767 30.6861L7.15348 30.7251L7.33209 30.8292L7.43111 30.8813L7.55895 30.9502L7.58841 30.9652L7.64043 30.9912L7.84285 31.0888L7.88547 31.1083L8.12174 31.2098L8.17939 31.2332L8.40187 31.3191L8.43007 31.3295L8.67825 31.4141L8.73841 31.4323L8.9891 31.5078C14.5511 32.5618 16.1668 28.0375 16.1668 28.0375C14.8099 29.8722 12.4065 30.3569 10.119 29.8182C10.0326 29.7987 9.94858 29.7701 9.8646 29.744L9.80193 29.7245C9.72004 29.6983 9.63856 29.6708 9.55752 29.6419L9.52368 29.6289C9.45098 29.6028 9.37953 29.5742 9.30746 29.5456L9.24667 29.5209C9.16817 29.4887 9.09023 29.4551 9.01291 29.42L8.96653 29.3986L8.76975 29.3036L8.70708 29.2749C8.65569 29.2489 8.60555 29.2216 8.55479 29.1943L8.45326 29.139C8.39187 29.1047 8.33107 29.0694 8.27089 29.0329L8.20947 28.9971C8.12937 28.9481 8.04998 28.8978 7.97133 28.8462C7.94939 28.8319 7.92871 28.8163 7.9074 28.802L7.73819 28.6849C7.71939 28.6718 7.70184 28.6588 7.68367 28.6458L7.52386 28.5255L7.45304 28.4702L7.3089 28.3531L7.24435 28.2997L7.06448 28.1423C7.05822 28.1358 7.05195 28.1312 7.04568 28.1253C6.98176 28.0603 6.91909 28.0069 6.85642 27.9471L6.80315 27.8937L6.66715 27.7558L6.61388 27.7005C6.55732 27.6406 6.50175 27.5796 6.44718 27.5177C6.38694 27.4493 6.32781 27.3799 6.26982 27.3095L6.22595 27.2549L6.10437 27.0987L6.0605 27.0336L5.92012 26.8398C4.65919 25.0493 4.20357 22.5745 5.22322 20.542M7.89487 20.2785C7.06323 21.5146 7.10835 23.1847 7.75699 24.4983C7.86562 24.7192 7.98853 24.9322 8.12487 25.1359C8.25021 25.3213 8.38809 25.5418 8.55291 25.6908L8.73967 25.886L8.78855 25.9361L8.97907 26.1202L8.98847 26.1287L9.21095 26.3199L9.26109 26.3609L9.49422 26.5366L9.65716 26.6491L9.82951 26.7597L9.85458 26.7747L10.0075 26.8632L10.062 26.8925L10.1686 26.9497L10.1849 26.9575L10.4073 27.0655L10.4562 27.0863L10.6442 27.1631L10.7226 27.193L10.8899 27.2535L10.9651 27.2796C11.0453 27.3056 11.1243 27.3446 11.2076 27.3524C15.5024 28.0909 16.4939 24.659 16.4939 24.659C15.6002 25.9953 13.8693 26.6329 12.0224 26.1358L11.7792 26.063L11.7059 26.0382L11.5367 25.9771L11.4596 25.9472L11.2766 25.8704L11.2264 25.8489L11.0027 25.7409L10.8899 25.6759L10.8253 25.6414L10.6499 25.5373L10.4775 25.428L10.3146 25.3154L10.0827 25.1398L10.0307 25.0968C9.21596 24.4345 8.58111 23.5354 8.27591 22.5023C7.96255 21.4372 8.02522 20.2421 8.5786 19.272M10.8911 19.1985C10.4011 19.9467 10.3522 20.8771 10.6931 21.7053C11.0516 22.5836 11.7873 23.2667 12.6453 23.592L12.7518 23.631L12.7988 23.6466L12.9518 23.6922C15.3232 24.1671 15.9599 22.4287 16.1373 22.1731C15.5733 23.0149 14.6332 23.2173 13.465 22.9245C13.3699 22.8984 13.2758 22.8685 13.183 22.8347C13.0693 22.7929 12.9578 22.7449 12.849 22.6909C12.6425 22.5878 12.4464 22.4636 12.2636 22.3201C11.2233 21.5003 10.5715 19.9389 11.2565 18.667" fill="#212B36"/>
</svg>
