<svg width="84" height="49" viewBox="0 0 84 49" fill="none" xmlns="http://www.w3.org/2000/svg">
<g clip-path="url(#clip0_1694_3255)">
<path d="M23.9131 31.9703C23.9131 31.4003 23.9926 30.9193 24.1506 30.5298C24.303 30.1585 24.5401 29.8279 24.8429 29.5644C25.1422 29.3181 25.4902 29.138 25.8641 29.036C26.2536 28.9267 26.6716 28.8721 27.1229 28.8721C27.5296 28.8695 27.9346 28.9247 28.3258 29.036C28.7141 29.1452 29.055 29.321 29.3471 29.5644C29.6392 29.8078 29.8696 30.1297 30.0394 30.5298C30.2092 30.9193 30.2947 31.3991 30.2947 31.9703C30.2947 32.5165 30.2092 32.9844 30.0394 33.3739C29.8833 33.7432 29.6468 34.073 29.3471 34.3393C29.0561 34.5947 28.7153 34.7763 28.3258 34.8856C27.9368 35.0086 27.5309 35.0699 27.1229 35.0673C26.6716 35.0673 26.2536 35.0079 25.8641 34.8856C25.487 34.7826 25.1379 34.5959 24.8429 34.3393C24.5508 34.084 24.3204 33.7622 24.1506 33.3739C23.9926 32.9856 23.9131 32.5189 23.9131 31.9703ZM34.1921 43.5436C33.5983 43.5436 33.007 43.5009 32.3871 43.4166C31.7672 43.3323 31.2506 43.2218 30.8386 43.0888V38.7153C31.215 38.8364 31.5677 38.9219 31.9073 38.9706C32.2744 39.0341 32.6464 39.0647 33.0188 39.062C33.3228 39.062 33.6078 39.0145 33.8738 38.916C34.158 38.8329 34.4078 38.6605 34.5863 38.4243C34.793 38.194 34.9568 37.8781 35.078 37.4767C35.1991 37.0884 35.2596 36.5837 35.2596 35.9638V14.2029H40.8171V36.7832C40.8171 37.719 40.696 38.593 40.4526 39.3957C40.2416 40.188 39.8484 40.9199 39.3043 41.5332C38.7818 42.1531 38.1013 42.6376 37.2618 42.9915C36.4222 43.3453 35.4033 43.5199 34.2004 43.5199M35.0316 8.9114C35.0316 8.3889 35.1112 7.95784 35.2691 7.60515C35.4271 7.25246 35.6396 6.9734 35.9068 6.76678C36.1859 6.54828 36.5077 6.39628 36.8723 6.31078C37.2487 6.22528 37.6441 6.18371 38.0574 6.18371C38.4497 6.18103 38.841 6.22366 39.2235 6.31078C39.5703 6.38768 39.8947 6.54375 40.1711 6.76678C40.4591 6.98421 40.6851 7.27325 40.8266 7.60515C40.9965 7.94596 41.082 8.37703 41.082 8.9114C41.082 9.42203 40.9965 9.85309 40.8266 10.2177C40.6687 10.5703 40.4502 10.8553 40.1711 11.0727C39.8891 11.2868 39.5668 11.4418 39.2235 11.5287C38.8411 11.6162 38.4497 11.6592 38.0574 11.6569C37.6441 11.6569 37.2499 11.6153 36.8723 11.5287C36.5245 11.4391 36.1969 11.2844 35.9068 11.0727C35.6396 10.8542 35.4271 10.568 35.2691 10.2177C35.1112 9.86734 35.0316 9.4339 35.0316 8.9114ZM60.1116 28.5265C60.1116 29.5953 59.9169 30.531 59.5179 31.3326C59.1369 32.1262 58.5673 32.8144 57.859 33.3371C57.1417 33.8715 56.2737 34.2728 55.2524 34.54C54.2311 34.8072 53.0911 34.9414 51.8265 34.9414C51.1579 34.9414 50.538 34.9176 49.968 34.8701C49.4237 34.8368 48.882 34.7697 48.3459 34.6695C47.8353 34.5721 47.3436 34.451 46.8698 34.3049C46.3793 34.1527 45.8986 33.9703 45.4306 33.7586V29.1678C45.9412 29.4231 46.4756 29.6428 47.0337 29.8601L48.7283 30.4063L50.3504 30.7531C50.8383 30.8342 51.3319 30.8767 51.8265 30.8801C52.3252 30.8801 52.7503 30.8386 53.1018 30.7531C53.4545 30.6557 53.7395 30.5156 53.9568 30.3707C54.1872 30.2009 54.3523 30.0061 54.4485 29.777C54.5569 29.5492 54.6129 29.3001 54.6123 29.0478C54.6123 28.7925 54.5696 28.5681 54.4853 28.3733C54.414 28.1667 54.2478 27.9541 53.9568 27.7356C53.6778 27.5053 53.2645 27.2607 52.7171 26.9709L50.5487 25.9022L48.2331 24.717C47.5895 24.3156 47.0551 23.8858 46.63 23.387C46.2158 22.8993 45.9 22.3359 45.7001 21.7281C45.4935 21.0963 45.3914 20.3506 45.3914 19.4861C45.3914 18.5385 45.5731 17.712 45.9376 17.0078C46.2993 16.2943 46.8311 15.6809 47.4861 15.2218C48.1547 14.7468 48.9563 14.3953 49.892 14.153C50.8396 13.9096 51.8906 13.7885 53.0448 13.7885C54.2596 13.7885 55.4139 13.9286 56.5076 14.2077C57.6013 14.4867 58.7246 14.9059 59.8801 15.4664L58.2033 19.403C57.2795 18.966 56.3983 18.6073 55.5611 18.3283C54.7509 18.0536 53.9015 17.9121 53.046 17.9091C52.2931 17.9091 51.7457 18.0433 51.4073 18.3105C51.0795 18.5777 50.9156 18.9422 50.9156 19.403C50.9156 19.6464 50.9584 19.878 51.0427 20.0596C51.1282 20.2425 51.298 20.4361 51.5533 20.6534C51.8086 20.8481 52.1673 21.0666 52.628 21.3089L54.433 22.1639L56.7653 23.292C57.4157 23.6268 58.0168 24.05 58.5513 24.5496C59.0449 25.017 59.4359 25.5819 59.6996 26.2085C59.9668 26.8403 60.101 27.6062 60.101 28.5051" fill="#212B36"/>
</g>
<defs>
<clipPath id="clip0_1694_3255">
<rect width="38" height="38" fill="white" transform="translate(22.9939 5.66699)"/>
</clipPath>
</defs>
</svg>
