<svg width="84" height="49" viewBox="0 0 84 49" fill="none" xmlns="http://www.w3.org/2000/svg">
<path d="M24.9247 33.667C24.8541 33.6671 24.7847 33.649 24.7233 33.6142C24.6618 33.5795 24.6105 33.5294 24.5742 33.4689L21.4932 28.3298L15.731 29.897C15.6432 29.9182 15.5509 29.9096 15.4685 29.8726C15.3861 29.8356 15.3184 29.7723 15.2759 29.6926L8.54209 17.0349C8.51116 16.977 8.49472 16.9124 8.49416 16.8467C8.49359 16.781 8.50893 16.7161 8.53885 16.6576C8.56878 16.5991 8.61241 16.5487 8.66602 16.5107C8.71963 16.4727 8.78164 16.4483 8.84675 16.4394L14.5638 15.6709C14.6428 15.6599 14.7232 15.6723 14.7952 15.7067C14.8672 15.741 14.9275 15.7957 14.9687 15.8639L21.8643 27.382L29.8844 25.2005L27.2102 21.4236C27.1716 21.37 27.1467 21.3077 27.1376 21.2422C27.1284 21.1767 27.1354 21.11 27.1578 21.0478C27.1802 20.9856 27.2174 20.9298 27.2661 20.8852C27.3149 20.8406 27.3738 20.8085 27.4378 20.7918L31.1896 19.9047C31.2645 19.8869 31.343 19.8907 31.4159 19.9156C31.4888 19.9406 31.5531 19.9857 31.6014 20.0458L34.8486 24.1004C34.8909 24.1531 34.9194 24.2156 34.9316 24.2822C34.9437 24.3487 34.9391 24.4172 34.9181 24.4815C34.8972 24.5459 34.8605 24.6039 34.8115 24.6506C34.7625 24.6972 34.7026 24.7308 34.6373 24.7485L31.2272 25.6788L34.213 29.8788C34.2495 29.9304 34.2736 29.9897 34.2833 30.0521C34.293 30.1146 34.2881 30.1784 34.2689 30.2386C34.2496 30.2988 34.2167 30.3537 34.1726 30.399C34.1285 30.4442 34.0745 30.4786 34.0149 30.4994L25.0538 33.6419C25.0122 33.6573 24.969 33.6658 24.9247 33.667ZM22.3094 28.1067L25.1021 32.7643L33.2407 29.9152L30.3985 25.9082L22.3094 28.1067ZM9.53693 17.1634L15.8388 29.0238L21.0688 27.6046L14.4083 16.514L9.53693 17.1634ZM28.2383 21.4475L30.7457 24.9742L33.8563 24.1279L31.1501 20.7579L28.2383 21.4475ZM39.1376 20.2163H39.9526V28.9548H39.1408L39.1376 20.2163ZM47.9138 22.6504V28.9548H47.1133V27.8641C46.803 28.2527 46.4124 28.5712 45.9686 28.7969C45.3646 29.0856 44.6853 29.1774 44.0263 29.0594C43.3674 28.9415 42.7621 28.6196 42.2958 28.1393C41.9874 27.8296 41.7446 27.4609 41.5819 27.0553C41.4192 26.6497 41.3398 26.2154 41.3486 25.7785C41.342 25.3457 41.4233 24.9161 41.5876 24.5157C41.7519 24.1153 41.9958 23.7524 42.3046 23.449C42.6013 23.1373 42.9594 22.8903 43.3564 22.7239C43.7533 22.5574 44.1804 22.475 44.6108 22.4818C45.0998 22.4755 45.5825 22.5884 46.0162 22.8121C46.4568 23.0512 46.8349 23.3905 47.1202 23.8026V22.6492L47.9138 22.6504ZM44.6729 23.2773C44.2318 23.2744 43.7982 23.3906 43.4177 23.6135C43.0372 23.8365 42.7239 24.158 42.5108 24.5442C42.0576 25.3328 42.0576 26.3025 42.5108 27.0911C42.7258 27.4829 43.0424 27.8095 43.4273 28.0365C43.8006 28.2593 44.2275 28.3763 44.6622 28.375C45.1048 28.3751 45.5396 28.2593 45.9235 28.039C46.3077 27.8277 46.6256 27.5124 46.84 27.13C47.0586 26.733 47.1695 26.2856 47.1615 25.8324C47.1708 25.4947 47.1117 25.1585 46.9879 24.8442C46.864 24.5299 46.6778 24.2438 46.4406 24.0032C46.2119 23.7666 45.9368 23.5798 45.6325 23.4546C45.3282 23.3293 45.0012 23.2683 44.6722 23.2754L44.6729 23.2773ZM49.432 22.6504H50.2608V23.5719C50.4682 23.2538 50.7341 22.9779 51.0444 22.7589C51.2971 22.5858 51.5956 22.492 51.9019 22.4893C52.1567 22.4977 52.405 22.5717 52.6228 22.7043L52.1978 23.3939C52.0604 23.3281 51.9112 23.2908 51.759 23.2842C51.4655 23.2932 51.1861 23.412 50.976 23.617C50.6889 23.8994 50.4888 24.2581 50.3993 24.6508C50.3032 25.0102 50.2551 25.7361 50.2551 26.8285V28.9617H49.4264L49.432 22.6504ZM59.5873 22.6504V28.9548H58.7874V27.8641C58.4771 28.2527 58.0866 28.5712 57.6428 28.7969C57.0388 29.0856 56.3594 29.1774 55.7005 29.0594C55.0415 28.9415 54.4362 28.6196 53.9699 28.1393C53.6616 27.8296 53.4188 27.4609 53.2561 27.0553C53.0933 26.6497 53.014 26.2154 53.0227 25.7785C53.0102 24.904 53.355 24.0609 53.98 23.449C54.2767 23.1373 54.6349 22.8903 55.0318 22.7239C55.4287 22.5574 55.8558 22.475 56.2862 22.4818C56.7752 22.4755 57.2579 22.5884 57.6917 22.8121C58.1322 23.0512 58.5103 23.3905 58.7956 23.8026V22.6492L59.5873 22.6504ZM56.3464 23.2773C55.9054 23.2744 55.4717 23.3906 55.0912 23.6135C54.7107 23.8365 54.3974 24.158 54.1843 24.5442C53.7311 25.3328 53.7311 26.3025 54.1843 27.0911C54.3994 27.4829 54.7159 27.8095 55.1008 28.0365C55.4741 28.2593 55.901 28.3763 56.3357 28.375C56.7783 28.3751 57.2132 28.2593 57.597 28.039C57.9813 27.8277 58.2991 27.5124 58.5135 27.13C58.7322 26.733 58.843 26.2856 58.8351 25.8324C58.8453 25.4937 58.7867 25.1564 58.6629 24.8409C58.5391 24.5254 58.3527 24.2383 58.1148 23.9969C57.8862 23.7605 57.6113 23.5738 57.3072 23.4486C57.0031 23.3233 56.6764 23.2622 56.3477 23.2691L56.3464 23.2773ZM60.8178 22.6504H61.6829L63.7992 27.2454L65.893 22.6504H66.758L63.8745 28.9555H63.7303L60.8178 22.6504ZM73.2969 26.863L73.9865 27.2222C73.7932 27.6212 73.5301 27.9825 73.2098 28.2891C72.9215 28.556 72.5849 28.7654 72.2181 28.9059C71.819 29.0526 71.3963 29.1244 70.9712 29.1178C69.9432 29.1178 69.1387 28.7835 68.5578 28.1148C67.9968 27.4858 67.6887 26.6714 67.6927 25.8286C67.6846 25.0526 67.9447 24.2972 68.4293 23.6973C68.7198 23.3127 69.0985 23.0036 69.5334 22.7958C69.9684 22.5881 70.4469 22.488 70.9286 22.5037C71.4241 22.4875 71.9163 22.5899 72.3642 22.8026C72.812 23.0152 73.2025 23.3319 73.5031 23.7261C73.9595 24.3028 74.1894 25.0237 74.1927 25.8888H68.5164C68.507 26.5577 68.759 27.2034 69.2185 27.6892C69.4333 27.9169 69.6934 28.0971 69.9822 28.218C70.2709 28.339 70.5818 28.398 70.8948 28.3913C71.2146 28.3915 71.5319 28.3348 71.8319 28.2239C72.1145 28.1236 72.3767 27.9732 72.6061 27.7801C72.8804 27.5153 73.1131 27.2105 73.2963 26.8761L73.2969 26.863ZM73.2969 25.1704C73.2153 24.7952 73.0541 24.4418 72.8242 24.1342C72.6034 23.8647 72.3226 23.6505 72.0043 23.5086C71.6702 23.3519 71.3054 23.2704 70.9361 23.2704C70.3477 23.2585 69.7769 23.472 69.3407 23.8672C69.016 24.1597 68.7705 24.5922 68.6042 25.1648L73.2969 25.1704ZM75.5787 20.2232H76.3905V28.9617H75.5787V20.2232Z" fill="#EF533F"/>
</svg>
