<svg width="84" height="49" viewBox="0 0 84 49" fill="none" xmlns="http://www.w3.org/2000/svg">
<path d="M15.0856 11.7354L15.7585 13.0009C15.905 13.2292 16.0755 13.4411 16.2672 13.6331C16.8308 14.1967 17.3673 14.7875 17.8476 15.4203C18.9884 16.9186 19.7582 18.5823 20.3083 20.3837C20.638 21.4838 20.817 22.6111 20.8306 23.752C20.8861 27.1616 19.7169 30.0896 17.3525 32.5232C16.9693 32.9089 16.5556 33.263 16.1153 33.5819C15.8807 33.5819 15.7714 33.3967 15.6751 33.2381C15.4899 32.9294 15.3862 32.5917 15.3313 32.2485C15.2485 31.8361 15.1936 31.4237 15.2214 30.9971V30.8045C15.2078 30.7631 15.0016 11.8323 15.0837 11.736L15.0856 11.7354Z" fill="#599636"/>
<path d="M15.0855 11.6943C15.0578 11.6388 15.03 11.6807 15.0028 11.7079C15.0164 11.9826 14.9201 12.2302 14.7682 12.4641C14.6034 12.6987 14.383 12.8765 14.1632 13.0691C12.9397 14.1279 11.9778 15.4064 11.2074 16.8362C10.19 18.7611 9.65415 20.823 9.50352 22.9954C9.43561 23.7795 9.75046 26.5427 9.99863 27.3397C10.6715 29.4572 11.8815 31.2302 13.4558 32.7698C13.841 33.1402 14.2534 33.4847 14.6793 33.8144C14.8028 33.8144 14.817 33.7045 14.8442 33.6218C14.8983 33.4462 14.9396 33.2669 14.9676 33.0853C15.0911 32.3982 15.1602 31.7105 15.2424 31.0234L15.0911 11.6943H15.0855Z" fill="#6CAC48"/>
<path d="M15.7597 34.4205C15.7875 34.1044 15.9449 33.8433 16.1036 33.5822C15.9388 33.5143 15.8147 33.376 15.7184 33.2241C15.6357 33.0864 15.5671 32.9154 15.5122 32.7704C15.3196 32.1931 15.2776 31.5881 15.2233 30.9967V30.6387C15.1554 30.6942 15.1405 31.1609 15.1405 31.2301C15.0992 31.8622 15.0171 32.4814 14.8936 33.0858C14.8522 33.3328 14.8257 33.5809 14.6738 33.8007C14.6738 33.8285 14.6738 33.8563 14.6874 33.897C14.9343 34.6255 15.0035 35.3681 15.0455 36.1244V36.3991C15.0455 36.7288 15.0319 36.6603 15.3066 36.7695C15.4165 36.8109 15.5412 36.8251 15.6505 36.9072C15.7332 36.9072 15.7468 36.8393 15.7468 36.7837L15.7054 36.33V35.0644C15.6918 34.8446 15.7332 34.6242 15.761 34.4181L15.7597 34.4205Z" fill="#C2BFBF"/>
<path d="M26.1997 28.6699V29.9792C26.1982 30.031 26.2012 30.0829 26.2085 30.1342C26.2255 30.2893 26.3207 30.3839 26.4607 30.4274C26.5912 30.4618 26.7239 30.4877 26.8578 30.5049C26.9354 30.5137 26.9612 30.5478 26.97 30.631C26.9788 30.9241 26.953 30.9588 26.6687 30.9411C26.0055 30.9065 25.3417 30.8983 24.6786 30.9411H24.6155C24.4088 30.95 24.3917 30.9323 24.3917 30.7255C24.3917 30.6909 24.4006 30.648 24.4006 30.6133C24.4006 30.5503 24.4434 30.5188 24.504 30.5188C24.6426 30.5018 24.7712 30.4671 24.9011 30.4412C25.082 30.3984 25.1848 30.2862 25.2024 30.1053C25.2276 29.9073 25.2276 29.7005 25.2276 29.502L25.2365 27.1935C25.2393 27.1265 25.223 27.0602 25.1895 27.0021C25.1561 26.9441 25.1067 26.8968 25.0473 26.8657C24.8915 26.7791 24.7266 26.7098 24.5556 26.6589C24.504 26.6419 24.4523 26.6337 24.4094 26.6072C24.2833 26.5467 24.2802 26.4351 24.4006 26.3658C24.4434 26.3406 24.4951 26.3229 24.5468 26.3141C25.0696 26.237 25.5833 26.1071 26.0799 25.9264C26.1833 25.8918 26.2091 25.9012 26.2186 26.004C26.2274 26.067 26.2186 26.1426 26.2098 26.2019C26.1928 26.3141 26.1928 26.4257 26.1928 26.5297C26.1928 26.5726 26.2016 26.6161 26.2444 26.6419C26.2873 26.6678 26.3308 26.6419 26.3705 26.6167C26.5514 26.478 26.7324 26.3494 26.9303 26.2385C27.214 26.0834 27.5166 25.9453 27.8444 25.9025C28.2415 25.8508 28.5851 25.9542 28.887 26.2126C29.0119 26.3244 29.1218 26.4517 29.2142 26.5915C29.3006 26.7176 29.3088 26.7207 29.421 26.6343C29.7488 26.3929 30.093 26.1779 30.4636 26.0229C30.8513 25.859 31.2478 25.8338 31.6437 25.9712C32.0484 26.1174 32.3245 26.4017 32.4884 26.7894C32.6271 27.0996 32.6864 27.4198 32.6864 27.7539V30.0624C32.6864 30.2175 32.7494 30.3145 32.9019 30.3902C33.0658 30.4532 33.2468 30.4847 33.4189 30.5194C33.5311 30.5446 33.5311 30.5446 33.5311 30.6581C33.5141 30.9418 33.4882 30.9594 33.2121 30.9418C32.5207 30.903 31.8277 30.903 31.1362 30.9418C30.9976 30.9506 30.9976 30.9506 30.99 30.8125V30.7697C30.9812 30.5364 30.9812 30.5364 31.2056 30.486L31.4294 30.4255C31.5052 30.4076 31.5728 30.3648 31.6213 30.3038C31.6698 30.2429 31.6963 30.1674 31.6967 30.0895L31.7219 29.4433L31.7048 27.7552C31.6982 27.6044 31.6663 27.4559 31.6103 27.3158C31.3947 26.7901 30.9213 26.6009 30.4642 26.6526C30.1194 26.6873 29.8181 26.8247 29.5338 27.0233C29.4733 27.0662 29.4304 27.1179 29.4392 27.2042C29.5168 27.7558 29.4645 28.3074 29.4739 28.8583V30.0561C29.4739 30.2717 29.5603 30.3751 29.767 30.4267L30.1642 30.5131C30.2247 30.5219 30.2587 30.5478 30.2587 30.6165V30.6795C30.2499 30.921 30.2335 30.9317 29.9915 30.9292C29.3024 30.8945 28.6128 30.9039 27.9326 30.9292C27.6994 30.938 27.6805 30.9121 27.6912 30.677C27.7 30.5383 27.7164 30.5308 27.8463 30.5049L28.1299 30.4532C28.3821 30.4015 28.4748 30.307 28.4918 30.0397L28.517 29.4623L28.5 27.7306C28.4829 27.515 28.4369 27.3082 28.319 27.1103C28.147 26.7913 27.8778 26.628 27.509 26.6104C27.1383 26.5852 26.8112 26.7226 26.5004 26.8941C26.2848 27.0201 26.1902 27.1695 26.2073 27.4198V28.6774L26.1997 28.6699ZM42.4302 28.7222V29.9369C42.4316 30.0233 42.4373 30.1096 42.4472 30.1954C42.4509 30.2526 42.4731 30.3071 42.5104 30.3506C42.5476 30.3941 42.5981 30.4244 42.654 30.4368C42.8027 30.4802 42.9558 30.5062 43.1104 30.5144C43.1968 30.5232 43.2138 30.5572 43.2226 30.6266V30.6871C43.2138 30.9884 43.1797 31.0231 42.8866 31.0061C42.231 30.9632 41.5773 30.9714 40.9223 31.0061L40.6702 31.0149C40.6185 31.0149 40.6071 30.9897 40.5926 30.9544C40.5675 30.8351 40.5675 30.7118 40.5926 30.5925C40.6015 30.5408 40.6355 30.5295 40.6872 30.515C40.8133 30.498 40.9205 30.4721 41.0402 30.452C41.2558 30.4003 41.3334 30.3133 41.3415 30.0901L41.3668 29.3664V27.2471C41.3668 27.092 41.3062 26.9975 41.1688 26.9281C41.0137 26.8417 40.8498 26.7819 40.6771 26.7213C40.6254 26.7043 40.5737 26.6867 40.5309 26.6608C40.4187 26.5833 40.4048 26.4717 40.5139 26.3853C40.5628 26.3451 40.6228 26.3209 40.6859 26.316C41.2375 26.2296 41.7715 26.1092 42.2884 25.9025C42.3489 25.8773 42.3748 25.8936 42.4006 25.9453C42.4264 25.997 42.4353 26.0575 42.4258 26.1174L42.4006 26.5221C42.4006 26.5738 42.3754 26.6482 42.4176 26.6684C42.4693 26.7031 42.504 26.6255 42.5468 26.6054C42.8012 26.392 43.0822 26.2125 43.3827 26.0714C43.65 25.9453 43.9249 25.8646 44.2356 25.8823C44.8131 25.917 45.2266 26.2101 45.4933 26.7182C45.632 26.9855 45.6912 27.278 45.7171 27.5799L45.7423 28.2103L45.7511 30.1141C45.7599 30.2603 45.8116 30.3555 45.9579 30.4072C46.1095 30.4577 46.2651 30.4953 46.4231 30.5194C46.5618 30.5364 46.5693 30.5623 46.5782 30.6915V30.7344C46.5611 31.0275 46.5435 31.0357 46.2504 31.018C45.6076 30.9836 44.9635 30.9836 44.3207 31.018C44.2344 31.0269 44.1487 31.018 44.0686 31.0269C44.0169 31.0269 43.9822 31.018 43.974 30.9664C43.957 30.8541 43.9394 30.7426 43.9652 30.6215C43.974 30.5698 43.9999 30.544 44.0598 30.5352L44.4569 30.4721C44.5956 30.4375 44.6725 30.3461 44.6902 30.22L44.7072 29.9785L44.6983 28.1782C44.6983 27.9714 44.6895 27.7646 44.6467 27.5579C44.5433 27.1166 44.2073 26.8014 43.7515 26.7573C43.3544 26.7144 42.9951 26.8178 42.666 27.0328C42.5021 27.1361 42.4327 27.2824 42.4327 27.4633V28.7644C42.4327 28.7392 42.4327 28.7392 42.4416 28.7392L42.4302 28.7222Z" fill="#47474A"/>
<path d="M67.6617 26.284C67.5671 25.6549 67.3339 25.0951 66.9292 24.604C66.5765 24.1702 66.1201 23.8324 65.6022 23.6219C65.0601 23.3981 64.482 23.3288 63.8964 23.3117C63.6549 23.3029 60.3643 23.3546 60.1229 23.3117C60.0624 23.3029 60.0195 23.3206 59.9842 23.3723C59.9413 23.4353 59.8978 23.5015 59.872 23.5702C59.7686 23.8034 59.7686 23.7858 60.0182 23.8198C60.225 23.8545 60.423 23.8715 60.6215 23.932C60.8024 23.9926 60.9317 24.0959 60.9745 24.2939C60.9916 24.3884 61.0092 27.4206 61.0092 28.8339L60.9745 29.8425C60.9657 29.9201 60.9575 29.9976 60.9317 30.0663C60.897 30.1697 60.8371 30.2554 60.7337 30.2996C60.62 30.3531 60.4973 30.3851 60.3719 30.3941C60.1386 30.4193 60.1046 30.4288 60.0271 30.6873L60.0019 30.7818C59.9848 30.894 59.993 30.911 60.1052 30.911L62.681 30.9363L63.6896 30.9192L64.3874 30.8329C65.1798 30.6866 65.8865 30.3588 66.4891 29.8337C66.8334 29.5297 67.1145 29.1608 67.3162 28.7482C67.5577 28.2659 67.661 27.7396 67.6869 27.2063C67.7297 26.9049 67.7121 26.5948 67.6617 26.2846V26.284ZM66.4122 27.507C66.3776 28.0585 66.266 28.5925 65.9817 29.0747C65.6198 29.7038 65.1029 30.1432 64.3881 30.2977C64.0779 30.3607 63.7678 30.3922 63.4425 30.3494C63.2093 30.3241 62.9861 30.2977 62.7705 30.2201C62.3828 30.0815 62.2448 29.8419 62.2366 29.4637L62.2277 24.2693C62.2277 23.9591 62.3664 23.8911 62.5896 23.8816C62.9256 23.8564 63.2704 23.8646 63.6064 23.8986C63.9641 23.9332 64.3151 24.0181 64.6491 24.1508C64.8972 24.2542 65.127 24.3968 65.3299 24.5731C65.7951 24.9703 66.1052 25.4683 66.2754 26.0545C66.4141 26.5286 66.4393 27.0108 66.4141 27.4931L66.4122 27.507ZM74.8216 28.3517C74.8216 28.3 74.8216 28.2571 74.8128 28.2054C74.7352 27.7314 74.485 27.3695 74.0979 27.0941C73.8483 26.9131 73.564 26.7927 73.2708 26.7064C73.2191 26.6893 73.1763 26.6717 73.1246 26.6635C73.1334 26.6206 73.1593 26.6118 73.1851 26.603C73.3572 26.5166 73.5211 26.4221 73.6673 26.2928C73.9346 26.069 74.1086 25.7929 74.2013 25.4569C74.253 25.276 74.253 25.0951 74.236 24.9054C74.2219 24.6834 74.1581 24.4674 74.0491 24.2735C73.9402 24.0796 73.7891 23.9127 73.6068 23.7852C73.2097 23.492 72.7451 23.3716 72.2628 23.3628C71.3324 23.3458 70.3938 23.3628 69.4639 23.3628C69.1967 23.3628 68.93 23.3798 68.6539 23.3376C68.6022 23.3288 68.5278 23.3124 68.49 23.3723C68.427 23.4845 68.3513 23.596 68.3261 23.7253C68.3173 23.7858 68.3349 23.8198 68.4036 23.8287L68.9981 23.915C69.2313 23.9497 69.3952 24.0789 69.4116 24.2857C69.4285 24.4286 69.4369 24.5724 69.4368 24.7162L69.4198 26.3269L69.411 29.5141C69.411 29.7032 69.3858 29.8848 69.3505 30.0739C69.342 30.1339 69.3164 30.1902 69.2767 30.2361C69.237 30.2819 69.1849 30.3154 69.1267 30.3323C68.9546 30.384 68.7907 30.4357 68.6098 30.4357C68.5614 30.4311 68.5129 30.4431 68.4723 30.4697C68.4316 30.4963 68.4012 30.5358 68.386 30.582C68.3513 30.6595 68.3229 30.7459 68.3084 30.8234C68.2914 30.9268 68.3173 30.9621 68.4207 30.9495C68.4982 30.9407 71.3412 31.01 71.8752 30.9583C72.1941 30.9236 72.5055 30.8808 72.8226 30.7862C73.3648 30.6141 73.8653 30.3639 74.2612 29.9415C74.589 29.5967 74.7781 29.1832 74.7951 28.7009C74.8203 28.5887 74.8203 28.4771 74.8203 28.3561L74.8216 28.3517ZM70.6434 24.8215L70.6686 24.1325C70.6686 24.0033 70.7203 23.9434 70.8495 23.9169C71.0563 23.874 71.2631 23.8917 71.4698 23.8999C71.6766 23.9169 71.8745 23.9428 72.0813 24.0033C72.4595 24.1155 72.7533 24.3311 72.926 24.6923C73.0044 24.8565 73.0455 25.0361 73.0464 25.218C73.0552 25.4595 73.0376 25.6921 72.943 25.9241C72.7968 26.243 72.5648 26.4498 72.2282 26.5103C71.8916 26.5708 70.9359 26.545 70.7896 26.545C70.6604 26.545 70.651 26.528 70.651 26.3987V25.5874C70.6307 25.3351 70.6277 25.0818 70.6421 24.8291L70.6434 24.8215ZM73.4423 29.4561C73.296 29.8438 73.0288 30.1117 72.6499 30.2567C72.4431 30.3342 72.2364 30.3828 72.0195 30.3689C71.7522 30.3601 71.4856 30.3689 71.2189 30.3172C70.8571 30.2397 70.6932 29.8949 70.6673 29.6452C70.6245 29.2058 70.6503 28.7576 70.6421 28.4305V27.2933C70.6421 27.1546 70.6591 27.1123 70.806 27.1123L71.6161 27.1212L72.1677 27.1842C72.5553 27.2706 72.9084 27.4174 73.1845 27.7181C73.4083 27.9596 73.5293 28.2521 73.5551 28.571C73.5804 28.8724 73.564 29.1655 73.4518 29.4498L73.4423 29.4561Z" fill="#C2BFBF"/>
<path d="M51.5544 26.8608L51.7782 26.8955C52.0196 26.9043 52.3039 26.8179 52.3897 26.4819C52.4369 26.3214 52.4369 26.1507 52.3897 25.9902C52.338 25.9902 52.3121 26.0331 52.2863 26.0507C52.157 26.1541 52.0108 26.2146 51.8557 26.2317C51.5456 26.2663 51.2354 26.2487 50.9341 26.1371L50.5117 25.9908C50.2172 25.8944 49.9072 25.8538 49.5977 25.8711C49.1583 25.9057 48.7448 26.052 48.3571 26.2588C47.9435 26.4825 47.651 26.8185 47.5124 27.2756C47.4348 27.5429 47.426 27.8177 47.4607 28.0938C47.547 28.7229 47.8742 29.1623 48.4598 29.3949C48.4945 29.4038 48.5203 29.4201 48.5544 29.4296C48.6319 29.4725 48.6407 29.516 48.5714 29.5759L48.3558 29.7221L47.8389 30.0411C47.7097 30.1186 47.6926 30.1798 47.7355 30.3166C47.7868 30.4775 47.8822 30.6208 48.011 30.7301C48.1292 30.8315 48.2631 30.9131 48.4075 30.9715C48.5021 31.0144 48.5021 31.0346 48.4163 31.1102L47.9246 31.4632C47.7607 31.5893 47.5968 31.7154 47.4594 31.8768C47.3638 31.979 47.295 32.1033 47.2589 32.2385C47.2228 32.3738 47.2207 32.5159 47.2526 32.6521C47.3167 32.9512 47.4733 33.2225 47.7002 33.4275C47.9242 33.6349 48.1967 33.783 48.4926 33.8581C48.9749 33.9967 49.4747 34.0043 49.9658 33.9097C50.6719 33.7805 51.2896 33.4685 51.775 32.9364C52.111 32.5834 52.309 32.1699 52.3266 31.6757C52.3454 31.3898 52.2622 31.1066 52.0919 30.8763C51.9215 30.6461 51.675 30.4837 51.3962 30.418L50.9309 30.3317L49.5094 30.2056C49.3543 30.1968 49.1993 30.1709 49.07 30.0934C48.9061 29.99 48.8633 29.7921 48.9667 29.6628C49.0442 29.5683 49.1388 29.5078 49.2598 29.4989L49.5353 29.4737C50.0801 29.4183 50.5915 29.1853 50.9908 28.8106C51.204 28.6132 51.3565 28.3591 51.4302 28.0781C51.5336 27.7074 51.5336 27.3216 51.4472 26.9434C51.422 26.8488 51.4302 26.84 51.5506 26.857L51.5544 26.8608ZM49.4426 31.1518C49.4943 31.1606 49.546 31.1518 49.5977 31.1518C49.9595 31.1688 50.3302 31.1947 50.6832 31.2905C50.7985 31.3246 50.9108 31.3678 51.0192 31.4197C51.364 31.6088 51.4932 31.9366 51.4497 32.2897C51.3981 32.6773 51.1825 32.9528 50.8465 33.1344C50.6227 33.2605 50.3724 33.3153 50.114 33.3411C50.0194 33.35 49.933 33.3411 49.8385 33.3411C49.5372 33.35 49.244 33.3159 48.9597 33.1949C48.7618 33.1174 48.5979 33.0058 48.4516 32.8501C48.1503 32.5487 48.0104 31.9972 48.4605 31.549C48.7359 31.2968 49.0467 31.1184 49.4426 31.1518ZM50.4247 28.4639C50.2438 28.9203 49.8473 29.0583 49.4514 28.9978C49.0896 28.9461 48.8223 28.7482 48.6508 28.4204C48.427 27.981 48.3672 27.5252 48.4958 27.0505C48.5903 26.6975 48.8059 26.4302 49.1848 26.3697C49.667 26.2833 50.1304 26.4561 50.3737 26.9383C50.4998 27.1716 50.5546 27.4552 50.5546 27.8599C50.5458 28.0238 50.5117 28.2476 50.4254 28.4632L50.4247 28.4639ZM39.5708 27.8776C39.4932 27.4124 39.3211 26.99 39.0022 26.637C38.5281 26.1113 37.9255 25.8805 37.2446 25.8786C36.6502 25.8698 36.091 26.0425 35.5905 26.3527C35.0985 26.6472 34.7378 27.1188 34.5825 27.6708C34.4363 28.1707 34.4438 28.6794 34.5573 29.1869C34.8586 30.5485 35.9101 31.1335 37.1671 31.0478C37.5378 31.0226 37.8908 30.9016 38.2262 30.7377C38.726 30.5044 39.0879 30.1344 39.3375 29.6433C39.5355 29.2386 39.6212 28.8074 39.613 28.3163L39.5701 27.877L39.5708 27.8776ZM38.3478 29.7902C38.2862 29.984 38.1694 30.1557 38.0118 30.2842C37.8542 30.4127 37.6625 30.4925 37.4602 30.5139C37.082 30.5656 36.7277 30.471 36.4094 30.2466C36.1796 30.0775 35.9935 29.856 35.8666 29.6004C35.5136 28.8768 35.4531 28.119 35.6334 27.3437C35.6914 27.1037 35.817 26.8854 35.9952 26.7145C36.3142 26.4214 36.6842 26.3527 37.0984 26.4391C37.4955 26.5254 37.7962 26.7404 38.044 27.0682C38.2917 27.396 38.4058 27.7742 38.4745 28.1714C38.5092 28.3693 38.5092 28.5761 38.5174 28.7053C38.5174 29.1188 38.4827 29.4618 38.3535 29.7908L38.3478 29.7902ZM58.3941 27.9469C58.331 27.447 58.1444 26.9906 57.7908 26.6118C57.3256 26.1037 56.7223 25.8881 56.0509 25.8793C55.4735 25.8704 54.9396 26.0343 54.4485 26.3186C53.8969 26.6464 53.518 27.111 53.3718 27.7402C53.1971 28.4265 53.2704 29.1525 53.5786 29.7902C53.8622 30.3935 54.3451 30.7811 54.9831 30.9532C55.6891 31.1424 56.3617 31.0566 57.016 30.7377C57.5847 30.4622 57.9894 30.0316 58.222 29.4454C58.3607 29.1005 58.4111 28.7305 58.4199 28.2993C58.4287 28.2218 58.4111 28.0837 58.3947 27.9463L58.3941 27.9469ZM57.2052 29.6786C57.0665 30.1438 56.7746 30.4452 56.2835 30.5145C55.9217 30.5662 55.5775 30.4798 55.2667 30.2731C54.9994 30.0921 54.8103 29.8507 54.6723 29.567C54.5172 29.2657 54.4308 28.9467 54.3968 28.6196C54.3451 28.2148 54.3451 27.819 54.4397 27.4136C54.4577 27.3337 54.4837 27.2558 54.5172 27.181C54.7586 26.5777 55.2926 26.3023 55.9217 26.4403C56.3441 26.5349 56.6624 26.7681 56.9038 27.1211C57.1371 27.466 57.2487 27.8448 57.301 28.2558C57.3262 28.4197 57.3357 28.5918 57.3262 28.7381C57.3262 29.0741 57.301 29.3842 57.2001 29.6855L57.2052 29.6786Z" fill="#47474A"/>
</svg>
