<svg width="84" height="49" viewBox="0 0 84 49" fill="none" xmlns="http://www.w3.org/2000/svg">
<path fill-rule="evenodd" clip-rule="evenodd" d="M10.0193 37.8978H12.1284V29.5425L15.4222 36.8273C15.7953 37.7029 16.3313 38.0273 17.3692 38.0273C18.407 38.0273 18.911 37.7026 19.2965 36.8273L22.574 29.5425V37.8978H24.6994V29.5425C24.6994 28.7315 24.3747 28.3414 23.6932 28.1304C22.087 27.6439 21.0161 28.0657 20.5296 29.1523L17.3012 36.356L14.1859 29.1523C13.7153 28.0657 12.628 27.6439 11.0058 28.1304C10.3404 28.3414 10.016 28.7312 10.016 29.5425L10.0156 37.8978H10.0193ZM26.4551 31.0999H28.5806V35.6916C28.5646 35.9509 28.6617 36.5353 29.817 36.5509C30.417 36.5673 34.3923 36.5509 34.4243 36.5509V31.0672H36.5498V38.5793C36.5498 40.4288 34.2588 40.8339 33.1912 40.8506H26.5075V39.4397H33.2083C34.5712 39.2935 34.409 38.6124 34.409 38.3851V37.8331H29.9144C27.8213 37.8167 26.4744 36.892 26.4587 35.8374V31.0992L26.4551 31.0999ZM72.0462 25.7781C70.7487 25.7453 69.7422 25.8755 68.8985 26.2326C68.6556 26.3308 68.2658 26.3308 68.2338 26.6384C68.3636 26.7675 68.3792 26.9788 68.4931 27.1577C68.6876 27.4824 69.0287 27.9199 69.3367 28.1468C69.6778 28.4068 70.0185 28.6661 70.3749 28.8934C71.0076 29.2825 71.7215 29.5097 72.3378 29.8992C72.6949 30.1265 73.0517 30.4185 73.4088 30.6621C73.5906 30.7919 73.7008 31.0032 73.928 31.0839V31.0348C73.8146 30.8894 73.7819 30.6785 73.6688 30.5156C73.5062 30.3537 73.344 30.2072 73.1815 30.0454C72.7113 29.4126 72.1269 28.8606 71.4942 28.4068C70.9749 28.0497 69.8396 27.5632 69.6287 26.9632L69.5967 26.9304C69.9531 26.8977 70.3749 26.7679 70.716 26.6704C71.268 26.525 71.7706 26.557 72.3378 26.4111C72.5978 26.3457 72.8571 26.265 73.1171 26.1839V26.0384C72.8251 25.7464 72.6142 25.357 72.3062 25.0813C71.4789 24.3675 70.5698 23.6697 69.6287 23.0857C69.1258 22.7613 68.4767 22.55 67.9414 22.2747C67.7461 22.1773 67.4221 22.1286 67.3087 21.9664C67.016 21.61 66.8541 21.1391 66.6432 20.7169C66.173 19.8245 65.7185 18.8351 65.313 17.894C65.021 17.2612 64.8421 16.6285 64.4857 16.0445C62.8145 13.2863 60.997 11.6153 58.2064 9.9764C57.6064 9.63567 56.8926 9.48912 56.1336 9.31094L54.9169 9.24548C54.6569 9.13203 54.3976 8.82366 54.1703 8.67748C53.2456 8.09347 50.8605 6.828 50.1787 8.49929C49.7405 9.55385 50.8278 10.592 51.1969 11.1277C51.4732 11.5008 51.8296 11.9226 52.0249 12.3444C52.134 12.6201 52.1703 12.9124 52.2841 13.2044C52.5434 13.9183 52.7871 14.7136 53.1278 15.379C53.3096 15.7197 53.5005 16.0772 53.7278 16.3852C53.8576 16.5634 54.0849 16.6448 54.1333 16.9369C53.906 17.2616 53.8903 17.7478 53.7605 18.154C53.1762 19.9874 53.4034 22.2587 54.2307 23.6049C54.4907 24.0104 55.1035 24.9031 55.9347 24.562C56.6649 24.27 56.502 23.3453 56.7129 22.534C56.762 22.3395 56.7293 22.2096 56.8264 22.0795V22.1122L57.4918 23.4588C57.9948 24.2537 58.8711 25.0813 59.601 25.6333C59.9901 25.9253 60.2984 26.4286 60.785 26.6068V26.5577H60.753C60.6555 26.4122 60.5093 26.3468 60.3795 26.2333C60.0875 25.9413 59.7631 25.5842 59.5359 25.2599C58.8548 24.3515 58.2548 23.3453 57.7191 22.3071C57.4591 21.8042 57.2318 21.2525 57.0217 20.7496C56.9235 20.5547 56.9235 20.2623 56.7617 20.1656C56.518 20.522 56.1616 20.8311 55.9824 21.2689C55.674 21.9664 55.642 22.8264 55.5285 23.7188C55.4631 23.7351 55.4922 23.7188 55.4631 23.7515C54.9445 23.622 54.7656 23.086 54.5711 22.6322C54.0845 21.4802 54.0031 19.6307 54.4249 18.3001C54.5383 17.9594 55.0256 16.8885 54.8311 16.5641C54.7329 16.2558 54.4093 16.0776 54.2303 15.8339C54.0194 15.5256 53.7929 15.1365 53.6467 14.7957C53.2576 13.8866 53.0631 12.8812 52.6409 11.9724C52.4456 11.5506 52.1052 11.1124 51.8292 10.7233C51.5209 10.2851 51.1809 9.97677 50.9372 9.45785C50.8561 9.27967 50.7427 8.9873 50.8725 8.79239C50.9045 8.66257 50.9699 8.6142 51.099 8.58148C51.3099 8.40329 51.9107 8.6302 52.1216 8.72693C52.7216 8.97057 53.2245 9.19748 53.7274 9.53785C53.9547 9.70004 54.1983 10.0084 54.4904 10.0899H54.8314C55.3507 10.2033 55.9344 10.1226 56.4206 10.268C57.2806 10.5444 58.0591 10.9495 58.7573 11.3881C60.8824 12.7346 62.6352 14.6492 63.8192 16.9372C64.0137 17.3103 64.0948 17.651 64.2737 18.0405C64.6148 18.8358 65.0367 19.6467 65.3767 20.426C65.7178 21.1885 66.0421 21.9678 66.5287 22.6006C66.7723 22.9413 67.7454 23.1195 68.1832 23.298C68.508 23.4435 69.0105 23.5744 69.3033 23.7526C69.8545 24.0933 70.4062 24.4828 70.9251 24.8559C71.1844 25.05 71.996 25.4559 72.0444 25.7795L72.0462 25.7781ZM55.5005 11.679C55.2764 11.677 55.0529 11.7042 54.8358 11.7601V11.7928H54.8678C54.9976 12.0524 55.2249 12.231 55.3871 12.4583L55.7605 13.2372L55.7925 13.2044C56.0198 13.0423 56.1336 12.7826 56.1336 12.3935C56.0362 12.2801 56.0202 12.1662 55.9391 12.0528C55.8416 11.8906 55.6307 11.8092 55.5005 11.6797V11.679Z" fill="#00678C"/>
<path fill-rule="evenodd" clip-rule="evenodd" d="M38.1699 37.8975H44.2704C44.9842 37.8975 45.666 37.7521 46.2173 37.4921C47.142 37.0702 47.5802 36.503 47.5802 35.7564V34.1989C47.5802 33.5989 47.0773 33.0306 46.0718 32.6415C45.5526 32.4469 44.9035 32.3331 44.2707 32.3331H41.7071C40.847 32.3331 40.4416 32.0731 40.3278 31.5058C40.3118 31.4411 40.3118 31.376 40.3118 31.3113V30.3538C40.3118 30.3047 40.3118 30.2403 40.3278 30.1756C40.4412 29.7374 40.6685 29.6236 41.4187 29.5429H47.6649V28.1309H41.7267C40.8667 28.1309 40.4125 28.1799 40.0067 28.3098C38.7572 28.6989 38.2056 29.3156 38.2056 30.4022V31.636C38.2056 32.5924 39.2765 33.4044 41.0936 33.5989C41.2881 33.6153 41.4991 33.6153 41.71 33.6153H43.9005C43.9816 33.6153 44.0624 33.6153 44.1271 33.6317C44.7925 33.6964 45.0846 33.8098 45.2791 34.0527C45.4089 34.1826 45.4416 34.2964 45.4416 34.4426V35.6753C45.4416 35.8208 45.3442 36.0164 45.1496 36.1782C44.9551 36.34 44.646 36.4539 44.2405 36.4702C44.1595 36.4702 44.1114 36.4866 44.0296 36.4866H38.1699V37.8975ZM60.7866 35.448C60.7866 36.8917 61.8775 37.7026 64.0484 37.8655C64.2593 37.8819 64.4539 37.8975 64.6648 37.8975H70.1812V36.4866H64.6164C63.3826 36.4866 62.9124 36.1782 62.9124 35.432V28.1309H60.7826V35.4484L60.7866 35.448ZM48.9264 35.5124V30.4832C48.9264 29.2014 49.8348 28.4221 51.6039 28.1792C51.7985 28.1629 51.993 28.1465 52.1712 28.1465H56.1945C56.4054 28.1465 56.5843 28.1629 56.7952 28.1792C58.5636 28.4221 59.4556 29.2011 59.4556 30.4832V35.5124C59.4556 36.5506 59.0829 37.1026 58.2062 37.4761L60.2826 39.3575H57.8331L56.1458 37.8328L54.4418 37.9302H52.1705C51.7543 37.9282 51.34 37.8738 50.9374 37.7684C49.5919 37.3946 48.9264 36.6811 48.9264 35.5124ZM51.2137 35.3997C51.2137 35.4644 51.2501 35.5288 51.2628 35.6106C51.3763 36.1942 51.9275 36.519 52.7712 36.519H54.6861L52.9341 34.9288H55.3836L56.9247 36.3244C57.2174 36.1619 57.3956 35.9346 57.4603 35.6426C57.4767 35.5779 57.4767 35.4971 57.4767 35.4317V30.6127C57.4767 30.548 57.4767 30.4836 57.4603 30.4182C57.3469 29.8669 56.7956 29.5589 55.968 29.5589H52.7716C51.8305 29.5589 51.2141 29.9643 51.2141 30.6127L51.2137 35.3997Z" fill="#CE8B2C"/>
</svg>
