<svg width="84" height="49" viewBox="0 0 84 49" fill="none" xmlns="http://www.w3.org/2000/svg">
<g clip-path="url(#clip0_1694_3223)">
<path fill-rule="evenodd" clip-rule="evenodd" d="M53.6581 17.6724H65.7538V19.9049H60.9551V31.6507H58.5558V19.9049H53.6581V17.6724ZM75.8259 27.2779C75.8001 27.0311 75.6862 26.8371 75.4881 26.6988C75.2874 26.5591 75.0297 26.4899 74.7123 26.4899C74.4899 26.4899 74.2986 26.5238 74.1386 26.5903C73.9799 26.6567 73.8565 26.7462 73.771 26.8602C73.6869 26.9741 73.6449 27.1043 73.6408 27.2494C73.6408 27.3715 73.6707 27.4773 73.7276 27.5655C73.7846 27.655 73.8605 27.7309 73.9596 27.792C74.0572 27.8544 74.1657 27.9045 74.2851 27.9466C74.4058 27.9886 74.5251 28.0239 74.6459 28.0524L75.2006 28.188C75.423 28.2396 75.6387 28.3087 75.8462 28.3969C76.0524 28.4837 76.2395 28.5936 76.4037 28.7265C76.5678 28.8594 76.698 29.0194 76.7929 29.2066C76.8892 29.3951 76.938 29.6149 76.938 29.8671C76.938 30.2089 76.8499 30.5087 76.6736 30.7677C76.4959 31.0254 76.2409 31.2275 75.9059 31.3727C75.5722 31.5178 75.1694 31.591 74.6947 31.591C74.2362 31.591 73.8361 31.5205 73.4998 31.3795C73.162 31.2397 72.8976 31.0349 72.7077 30.7664C72.5178 30.4965 72.4161 30.1683 72.4011 29.7817H73.4536C73.4686 29.9838 73.5337 30.152 73.6449 30.289C73.7561 30.4232 73.9026 30.5223 74.0816 30.5901C74.262 30.6552 74.4641 30.6891 74.6865 30.6891C74.9185 30.6891 75.1233 30.6538 75.301 30.5846C75.4759 30.5155 75.6143 30.4205 75.7133 30.2944C75.815 30.1723 75.8652 30.0258 75.8666 29.859C75.8652 29.7071 75.8191 29.581 75.7323 29.4806C75.6428 29.3816 75.5193 29.2988 75.3606 29.231C75.202 29.1646 75.0161 29.1035 74.8046 29.0506L74.1318 28.8811C73.6462 28.7577 73.261 28.5691 72.9789 28.3182C72.6968 28.0659 72.5571 27.7336 72.5571 27.3159C72.5571 26.9727 72.6507 26.6716 72.8419 26.4139C73.0305 26.1562 73.2882 25.9555 73.6151 25.8131C73.9433 25.6693 74.3136 25.5988 74.7272 25.5988C75.1463 25.5988 75.5139 25.6693 75.8313 25.8131C76.1473 25.9555 76.3969 26.1535 76.5773 26.4072C76.7577 26.6608 76.8512 26.9497 76.8567 27.2779H75.8259ZM70.3883 25.6775H71.4517V29.7722C71.4504 30.1493 71.369 30.4707 71.2089 30.742C71.0489 31.0132 70.8251 31.2194 70.5403 31.3645C70.2554 31.5097 69.9218 31.5829 69.5434 31.5829C69.1975 31.5829 68.8869 31.5205 68.6102 31.3984C68.3335 31.2764 68.1138 31.0946 67.9537 30.8546C67.791 30.6131 67.711 30.3147 67.711 29.9553H68.7757C68.777 30.1126 68.8137 30.2483 68.8815 30.3622C68.9493 30.4761 69.0442 30.5629 69.1636 30.624C69.2857 30.685 69.4267 30.7149 69.584 30.7149C69.7549 30.7149 69.9001 30.6796 70.0194 30.6077C70.1374 30.5372 70.2297 30.4314 70.292 30.2903C70.3544 30.1506 70.387 29.9784 70.3883 29.7722V25.6775ZM66.2936 31.5653C66.1173 31.5653 65.9681 31.5042 65.8433 31.3822C65.7185 31.2615 65.6561 31.1136 65.6575 30.9386C65.6561 30.7691 65.7185 30.624 65.8433 30.5019C65.9681 30.3798 66.1173 30.3188 66.2936 30.3188C66.4631 30.3188 66.611 30.3798 66.7358 30.5019C66.8619 30.624 66.9256 30.7691 66.927 30.9386C66.9256 31.0539 66.8972 31.1597 66.8375 31.2547C66.7778 31.351 66.7019 31.4256 66.6056 31.4812C66.5106 31.5368 66.4075 31.5653 66.2936 31.5653ZM21.6705 31.5463L10.493 17.667H7.49414V31.6453H9.89348V20.655L18.7394 31.6507H33.7648V29.4182H24.0684V25.729H31.866V23.4965H24.0684V19.9049H33.7648V17.6724H21.6691V19.9049H21.6705V31.5463ZM43.0272 27.6631L41.4538 25.7073L36.6565 31.667H39.8045L43.0272 27.6631ZM39.8045 17.6792H36.6647L47.9113 31.6561H51.0593L45.436 24.6724L51.0512 17.6887L47.9113 17.6941L43.864 22.7207L39.8045 17.6792Z" fill="#637381"/>
</g>
<defs>
<clipPath id="clip0_1694_3223">
<rect width="69.4439" height="14" fill="white" transform="translate(7.49414 17.667)"/>
</clipPath>
</defs>
</svg>
