<svg width="84" height="49" viewBox="0 0 84 49" fill="none" xmlns="http://www.w3.org/2000/svg">
<path d="M24.202 30.6386C23.8782 30.6386 23.5629 30.5136 23.3215 30.275L15.9767 22.9302V29.369C15.9767 30.0507 15.4201 30.6102 14.7356 30.6102C14.0511 30.6102 13.4944 30.0847 13.4944 29.369V19.9395C13.4944 19.4368 13.7983 18.9852 14.2612 18.7921C14.7242 18.5989 15.2553 18.7068 15.6132 19.0619L22.958 26.4067V19.9395C22.958 19.2578 23.5147 18.6983 24.1992 18.6983C24.8836 18.6983 25.4403 19.255 25.4403 19.9395V29.369C25.4403 30.0507 24.8836 30.6102 24.1992 30.6102M29.9449 18.6813L29.6041 19.3175L26.9627 24.1118L26.6219 24.7167L26.9627 25.3217L29.6041 29.9598L29.9591 30.596H36.8608L37.2017 29.8973L39.1728 25.9267L40.0532 24.126H38.0537L33.0123 24.1402C32.3591 24.1317 31.7541 24.7253 31.7541 25.3814C31.7541 26.0374 32.3563 26.631 33.0123 26.6225L36.0514 26.6083L35.3072 28.1136H31.4048L29.4649 24.6997L31.419 21.1636H35.5771L36.5427 23.1518H39.0421L37.4686 19.38L37.1278 18.6813H29.9449ZM42.5129 18.6671C41.8596 18.6756 41.2802 19.2749 41.2916 19.9225V23.1603H43.7739V19.9225C43.7824 19.2635 43.2059 18.6586 42.5185 18.6671M46.4949 30.6386C45.8132 30.6386 45.2537 30.0819 45.2537 29.3974V19.9594C45.2537 19.2777 45.8104 18.7182 46.4949 18.7182C47.1793 18.7182 47.736 19.2749 47.736 19.9594V26.4265L55.0808 19.0818C55.4359 18.7267 55.9698 18.6216 56.4328 18.8119C56.8957 19.0022 57.1996 19.4567 57.1996 19.9594V29.4258C57.1996 30.1075 56.6429 30.667 55.9585 30.667C55.274 30.667 54.7173 30.1103 54.7173 29.4258V22.9558L47.3725 30.3006C47.1396 30.5335 46.8243 30.6642 46.492 30.6642M66.3877 24.6827L70.2504 20.837C70.7332 20.3542 70.7333 19.5674 70.2533 19.0818C69.7733 18.5961 68.9837 18.5989 68.498 19.0789L64.6353 22.9331L60.7726 19.0789C60.2898 18.5961 59.5002 18.5961 59.0174 19.0818C58.5345 19.5674 58.5345 20.3542 59.0202 20.837L62.8829 24.6827L59.023 28.5169C58.5402 28.9998 58.5402 29.7865 59.0202 30.2722C59.2531 30.5079 59.5684 30.6414 59.8723 30.6414C60.1762 30.6414 60.5056 30.5221 60.7471 30.2779L64.6012 26.4351L68.4554 30.2779C68.6883 30.5108 69.0036 30.6414 69.3302 30.6414C69.6568 30.6414 69.9664 30.5193 70.1822 30.2722C70.6651 29.7894 70.6651 29.0026 70.1794 28.5169L66.3309 24.6827M42.4561 30.6301C41.8028 30.6216 41.2234 30.0223 41.2348 29.3747V24.1771H43.7171V29.369C43.7256 30.0279 43.1491 30.6329 42.4617 30.6244" fill="#212B36"/>
</svg>
