<svg width="84" height="49" viewBox="0 0 84 49" fill="none" xmlns="http://www.w3.org/2000/svg">
<g clip-path="url(#clip0_1694_3227)">
<path d="M41.4436 26.3539V20.894L36.7152 18.1641L31.9868 20.894V26.3539L36.7152 29.0838L41.4436 26.3539Z" fill="#3B8739"/>
<path d="M60.0657 25.5252L63.1471 27.3046L60.0657 29.0841L55.3376 26.3541V20.8941L60.0657 18.1641L62.9311 19.8192C63.2182 21.0303 63.3991 22.2818 63.4651 23.5632L61.7131 24.5746V22.6727L60.0657 21.7221L58.4182 22.6727V24.5746L60.0657 25.5252Z" fill="#E3E3E3"/>
<path d="M60.9832 24.1532V23.0934L60.0654 22.5635L59.1475 23.0934V24.1532L60.0654 24.6832L60.9832 24.1532Z" fill="#66A060"/>
<path d="M29.7535 20.8941V28.0941L26.6001 26.295V22.6042L25.0256 21.6947L23.451 22.6041V26.2949L21.6604 27.3167C21.5507 26.4492 21.4941 25.5647 21.4941 24.6673C21.4941 23.0233 21.6827 21.423 22.0401 19.8878L25.0256 18.1641L29.7535 20.8941Z" fill="#E3E3E3"/>
<path d="M41.4432 26.3525L36.7148 18.1631L31.9867 20.893L36.715 29.0824L41.4432 26.3525Z" fill="#6DA75D"/>
<path d="M31.9868 26.3535L33.6104 23.7058L31.9868 20.8936V26.3535Z" fill="#55A344"/>
<path d="M39.8675 23.6237L41.4438 20.894L36.7153 18.1641L39.8675 23.6237Z" fill="#639D57"/>
<path d="M49.9221 11.8359V19.0796L48.3373 18.1642L43.6084 20.8942V26.3542L48.3373 29.0842L53.0653 26.3542V13.5185L49.9221 11.8359ZM49.9135 24.5336L48.3372 25.4439L46.7609 24.5336V22.7139L48.3372 21.8036L49.9135 22.7139V24.5336Z" fill="#E3E3E3"/>
<path d="M44.6394 33.0927C44.6394 33.0927 44.5465 32.2946 43.6928 32.2946C42.839 32.2946 42.2545 32.406 42.2545 32.8793C42.2545 33.3526 43.9156 33.3526 44.5467 33.5382C45.1778 33.7237 45.7345 34.2063 45.4561 35.0601C45.1777 35.9139 44.3239 36.0066 43.0061 36.0066C41.6884 36.0066 41.3914 34.9115 41.3914 34.4847H42.1337C42.1337 34.4847 42.0409 35.1529 42.9132 35.2642C43.7855 35.3755 44.6196 35.4382 44.7321 34.7631C44.8806 33.8722 41.9109 34.3177 41.6511 33.4454C41.4316 32.7083 41.5582 31.7379 43.0431 31.5893C44.5279 31.4408 45.3445 32.0964 45.3445 33.0742L44.6394 33.0927Z" fill="#66A060"/>
<path d="M37.4676 36.5719L39.1089 37.5194C39.9336 37.9955 40.9644 37.4004 40.9644 36.4482V34.7877V31.7318H40.2954V36.2621C40.2954 36.7821 39.7325 37.1072 39.2821 36.8471L38.1365 36.1858V31.3508L42.3236 28.9336L46.5107 31.3508V36.1858L42.3236 38.603L41.1174 37.9066L40.3298 38.2242L42.3235 39.3754L47.1796 36.5716V30.9647L42.3236 28.1611L37.4675 30.9649V36.5719H37.4676Z" fill="#66A060"/>
</g>
<defs>
<clipPath id="clip0_1694_3227">
<rect width="42" height="42" fill="white" transform="translate(21.4941 3.66699)"/>
</clipPath>
</defs>
</svg>
