<svg width="84" height="49" viewBox="0 0 84 49" fill="none" xmlns="http://www.w3.org/2000/svg">
<g clip-path="url(#clip0_1694_3228)">
<path d="M41.4431 26.3539V20.894L36.7147 18.1641L31.9863 20.894V26.3539L36.7147 29.0838L41.4431 26.3539Z" fill="#212B36"/>
<path d="M60.0659 25.5252L63.1473 27.3046L60.0659 29.0841L55.3379 26.3541V20.8941L60.0659 18.1641L62.9314 19.8192C63.2185 21.0303 63.3993 22.2818 63.4654 23.5632L61.7134 24.5746V22.6727L60.0659 21.7221L58.4185 22.6727V24.5746L60.0659 25.5252Z" fill="#212B36"/>
<path d="M60.9842 24.1532V23.0934L60.0664 22.5635L59.1484 23.0934V24.1532L60.0664 24.6832L60.9842 24.1532Z" fill="#212B36"/>
<path d="M29.7535 20.8941V28.0941L26.6001 26.295V22.6042L25.0256 21.6947L23.451 22.6041V26.2949L21.6604 27.3167C21.5507 26.4492 21.4941 25.5647 21.4941 24.6673C21.4941 23.0233 21.6827 21.423 22.0401 19.8878L25.0256 18.1641L29.7535 20.8941Z" fill="#212B36"/>
<path d="M41.4432 26.3525L36.7148 18.1631L31.9867 20.893L36.715 29.0824L41.4432 26.3525Z" fill="#464B51"/>
<path d="M31.9863 26.3535L33.6099 23.7058L31.9863 20.8936V26.3535Z" fill="#212B36"/>
<path d="M39.867 23.6237L41.4433 20.894L36.7148 18.1641L39.867 23.6237Z" fill="#212B36"/>
<path d="M49.9231 11.8359V19.0796L48.3382 18.1642L43.6094 20.8942V26.3542L48.3382 29.0842L53.0663 26.3542V13.5185L49.9231 11.8359ZM49.9145 24.5336L48.3381 25.4439L46.7618 24.5336V22.7139L48.3381 21.8036L49.9145 22.7139V24.5336Z" fill="#212B36"/>
<path d="M44.6387 33.0927C44.6387 33.0927 44.5458 32.2946 43.6921 32.2946C42.8383 32.2946 42.2538 32.406 42.2538 32.8793C42.2538 33.3526 43.9149 33.3526 44.546 33.5382C45.177 33.7237 45.7338 34.2063 45.4554 35.0601C45.1769 35.9139 44.3232 36.0066 43.0054 36.0066C41.6877 36.0066 41.3906 34.9115 41.3906 34.4847H42.133C42.133 34.4847 42.0401 35.1529 42.9125 35.2642C43.7848 35.3755 44.6189 35.4382 44.7313 34.7631C44.8798 33.8722 41.9102 34.3177 41.6503 33.4454C41.4308 32.7083 41.5575 31.7379 43.0423 31.5893C44.5272 31.4408 45.3438 32.0964 45.3438 33.0742L44.6387 33.0927Z" fill="#212B36"/>
<path d="M37.4669 36.5719L39.1082 37.5194C39.9328 37.9955 40.9636 37.4004 40.9636 36.4482V34.7877V31.7318H40.2947V36.2621C40.2947 36.7821 39.7318 37.1072 39.2813 36.8471L38.1358 36.1858V31.3508L42.3229 28.9336L46.51 31.3508V36.1858L42.3229 38.603L41.1167 37.9066L40.329 38.2242L42.3228 39.3754L47.1789 36.5716V30.9647L42.3229 28.1611L37.4668 30.9649V36.5719H37.4669Z" fill="#212B36"/>
</g>
<defs>
<clipPath id="clip0_1694_3228">
<rect width="42" height="42" fill="white" transform="translate(21.4941 3.66699)"/>
</clipPath>
</defs>
</svg>
