<svg width="84" height="49" viewBox="0 0 84 49" fill="none" xmlns="http://www.w3.org/2000/svg">
<path d="M14.4755 33.1788H11.3856V30.2388H14.6436C15.8357 30.2388 16.4324 30.7428 16.4324 31.7318C16.4324 32.6967 15.7801 33.1794 14.4761 33.1794M16.697 30.2046C16.2738 29.8462 15.6812 29.667 14.9194 29.667L10.4941 29.6894V36.7232H11.3856L11.3773 33.7288H14.6702C15.496 33.7288 16.1459 33.5496 16.62 33.1912C17.0942 32.8328 17.3315 32.3343 17.3315 31.6982C17.3315 31.062 17.1196 30.5636 16.6964 30.2052L16.697 30.2046ZM22.4665 35.247C22.3815 35.4772 22.2359 35.683 22.0433 35.8451C21.6438 36.2147 21.0347 36.3978 20.2083 36.3978C19.4684 36.3978 18.9061 36.2186 18.5036 35.8602C18.1011 35.5018 17.9087 35.0219 17.9087 34.421C17.9087 34.1074 17.9608 33.8301 18.0644 33.5877C18.1626 33.3529 18.317 33.1428 18.5154 32.9739C18.925 32.6211 19.4897 32.4435 20.2083 32.4435C21.8065 32.4435 22.5956 33.1027 22.5956 34.4204C22.5956 34.734 22.55 35.0084 22.4594 35.2459M22.621 32.6513C22.0776 32.1826 21.2732 31.9479 20.2077 31.9479C19.2015 31.9479 18.4231 32.1876 17.8743 32.6664C17.3789 33.0999 17.1315 33.6845 17.1315 34.4204C17.1315 35.1512 17.3872 35.7409 17.8986 36.19C18.181 36.432 18.5101 36.6073 18.8854 36.7153C19.2606 36.8234 19.7022 36.8833 20.2077 36.8833C21.2732 36.8833 22.0747 36.6515 22.6347 36.1878C23.1301 35.7644 23.3775 35.1775 23.3775 34.4266C23.3775 33.6705 23.1271 33.0808 22.6258 32.6569L22.621 32.6513ZM29.3691 35.4497C29.3691 36.4017 28.4723 36.8699 26.6793 36.8699C26.1312 36.8699 25.6695 36.8363 25.2942 36.7713C24.9189 36.7064 24.6147 36.5961 24.3803 36.4443C24.2012 36.3293 24.0535 36.1758 23.9493 35.9963C23.8428 35.8154 23.7735 35.5763 23.7422 35.2935L24.5709 35.2862C24.5709 35.6586 24.7171 35.933 25.0089 36.1094C25.3226 36.3211 25.8773 36.4269 26.674 36.4269C27.9271 36.4269 28.554 36.1301 28.554 35.5354C28.554 35.1882 28.3438 34.9491 27.9236 34.8186C27.8383 34.7934 27.3316 34.7267 26.4023 34.6186C25.473 34.5106 24.8952 34.4131 24.6662 34.3274C24.1713 34.141 23.9239 33.8066 23.9239 33.3228C23.9148 33.1047 23.9725 32.8889 24.0901 32.7012C24.2078 32.5135 24.3803 32.362 24.5868 32.2649C24.8059 32.1697 25.0781 32.0952 25.4061 32.042C25.734 31.9888 26.1134 31.9625 26.545 31.9625C28.271 31.9625 29.1341 32.4749 29.1341 33.4997H28.3409C28.3409 32.7796 27.7341 32.4189 26.5207 32.4189C25.9033 32.4189 25.4434 32.4917 25.1397 32.6429C24.8361 32.7941 24.6839 33.0125 24.6839 33.3149C24.6839 33.5972 24.8887 33.801 25.2983 33.927C25.5381 33.9925 26.0886 34.0681 26.951 34.1538C27.7229 34.2194 28.2521 34.3123 28.5398 34.4338C29.0879 34.6354 29.3685 34.9771 29.3685 35.4609L29.3691 35.4497ZM32.646 36.7377L32.3068 36.7825L32.0949 36.7977C31.5515 36.7977 31.1597 36.7232 30.9199 36.5737C30.6802 36.4241 30.5648 36.1637 30.5648 35.7896V32.5808H29.5762V32.1087H30.5588L30.5665 30.5921H31.3272V32.1087H32.6519V32.5886L31.3272 32.5808V35.704C31.3272 35.9364 31.3864 36.0971 31.5225 36.1856C31.6587 36.274 31.886 36.3183 32.221 36.3183C32.2683 36.3239 32.3216 36.3216 32.3808 36.3127C32.44 36.3037 32.527 36.2847 32.6442 36.2556L32.6525 36.7372L32.646 36.7377ZM37.9065 35.667C37.6953 35.83 37.4546 35.9554 37.1962 36.0372C36.9298 36.1228 36.6244 36.166 36.2787 36.166C34.6876 36.166 33.8932 35.5499 33.8932 34.3011C33.8932 33.7226 34.0968 33.2696 34.5029 32.9425C34.9089 32.6155 35.4831 32.4519 36.2224 32.4519C36.9671 32.4519 37.5324 32.6166 37.9183 32.9464C38.3043 33.2763 38.4972 33.7176 38.4972 34.2714C38.4972 34.8751 38.3001 35.3355 37.9065 35.6681M39.2579 32.1064H38.4972L38.4889 32.9C38.1539 32.578 37.9148 32.3735 37.7703 32.2884C37.3442 32.0672 36.7937 31.9563 36.1177 31.9563C35.1274 31.9563 34.3715 32.1703 33.8506 32.5981C33.3557 32.9901 33.1083 33.5597 33.1083 34.3045C33.1083 34.6718 33.171 35.0006 33.2959 35.2901C33.4208 35.5796 33.6037 35.8249 33.8435 36.026C34.3661 36.4387 35.1043 36.6453 36.0585 36.6453C37.2045 36.6453 38.0119 36.3485 38.4972 35.7493V36.5709C38.4972 37.0945 38.3226 37.5005 37.974 37.7872C37.6253 38.0739 37.0517 38.2184 36.2532 38.2184C35.5027 38.2184 34.9676 38.1204 34.655 37.925C34.4153 37.7749 34.2501 37.5139 34.1602 37.1426H33.3818C33.467 37.6606 33.6984 38.0359 34.0767 38.2671C34.5135 38.5337 35.2511 38.667 36.2893 38.667C38.2759 38.667 39.2691 37.9687 39.2691 36.5714V32.1008L39.2579 32.1064ZM43.3718 32.574C43.1609 32.5403 42.9475 32.5227 42.7337 32.5214C41.4835 32.5214 40.8585 33.1699 40.8585 34.4674V36.7232H40.1067L40.0984 32.107L40.859 32.1143V32.9375H40.8987C41.0266 32.6127 41.2284 32.3663 41.5054 32.1994C41.8085 32.0314 42.2607 31.9558 42.8621 31.9558H43.373V32.5735L43.3718 32.574ZM44.0797 34.123C44.1756 33.5983 44.3911 33.1923 44.7261 32.9044C44.9451 32.7381 45.192 32.6132 45.4684 32.5292C45.7448 32.4452 46.0568 32.4043 46.4025 32.4043C47.0785 32.4043 47.6301 32.5796 48.0587 32.9308C48.4873 33.2819 48.7069 33.6789 48.7069 34.1236H44.0857M48.7815 32.6995C48.5033 32.4403 48.1635 32.248 47.7906 32.1389C47.3963 32.0174 46.9358 31.9569 46.4084 31.9569C45.4228 31.9569 44.6587 32.1736 44.1153 32.6065C43.5719 33.0394 43.3002 33.6297 43.3002 34.3762C43.3002 35.1227 43.5606 35.7202 44.0827 36.1525C44.6468 36.6364 45.443 36.8783 46.4711 36.8783C46.8808 36.8783 47.2602 36.8335 47.6088 36.7467C47.9575 36.6599 48.2623 36.5339 48.5234 36.3743C48.9815 36.0629 49.271 35.6799 49.3935 35.2229H48.5648C48.2825 36.0069 47.5804 36.4068 46.4575 36.4068C45.6643 36.4068 45.0547 36.2141 44.6225 35.8277C44.2555 35.4917 44.072 35.0683 44.072 34.5419H49.4941C49.4941 33.759 49.2574 33.1447 48.7672 32.6939L48.7815 32.6995Z" fill="#231F20"/>
<path d="M56.8568 34.7718C56.8568 36.3392 55.6881 37.1225 53.3516 37.1225C51.9513 37.1225 50.9288 36.8535 50.2846 36.3123C49.7517 35.8684 49.4941 35.1914 49.4941 34.2818H50.4415C50.4415 35.7454 51.4125 36.4769 53.3576 36.4769C54.2895 36.4769 54.9639 36.327 55.379 36.0285C55.7307 35.764 55.9119 35.3496 55.9119 34.7859C55.9119 34.2274 55.6721 33.836 55.1925 33.6112C54.9201 33.4831 54.257 33.3377 53.203 33.1532C51.8767 32.9342 51.0164 32.7157 50.6227 32.4973C50.0531 32.1751 49.7677 31.6281 49.7677 30.8563C49.7677 30.137 50.0045 29.6009 50.4948 29.2499C51.0158 28.8643 51.9117 28.6715 53.1793 28.6715C55.4708 28.6715 56.6153 29.4946 56.6153 31.1407H55.6608C55.6608 29.9077 54.81 29.2915 53.1148 29.2915C52.2622 29.2915 51.6381 29.4158 51.2438 29.663C50.8708 29.9282 50.6842 30.3163 50.6842 30.83C50.6842 31.3662 50.9241 31.7434 51.4036 31.9625C51.6582 32.0893 52.4102 32.2648 53.6572 32.4903C54.8295 32.6805 55.62 32.9021 56.0255 33.1564C56.5851 33.4677 56.8645 34.0064 56.8645 34.7731L56.8568 34.7718ZM64.4996 35.5725C64.1451 35.8788 63.7412 36.1114 63.3083 36.2585C62.8654 36.4109 62.3699 36.4871 61.821 36.4871C60.696 36.4871 59.796 36.1669 59.1056 35.5071C58.4152 34.8474 58.0695 33.9846 58.0695 32.8977C58.0695 31.7639 58.4117 30.8819 59.0967 30.2491C59.7818 29.6162 60.6954 29.2998 61.8204 29.2998C62.9667 29.2998 63.8678 29.6303 64.5233 30.2926C64.8697 30.6148 65.1255 30.9972 65.2913 31.4232C65.457 31.8491 65.5399 32.3455 65.5399 32.8983C65.5399 34.0256 65.193 34.9172 64.5002 35.5731M65.0005 36.1067C65.4908 35.7326 65.8531 35.274 66.0882 34.7468C66.3233 34.2197 66.4405 33.5939 66.4405 32.9034C66.4405 31.6544 66.0568 30.6526 65.2895 29.893C64.8791 29.4785 64.3836 29.1704 63.8092 28.9693C63.2349 28.7682 62.5658 28.667 61.8198 28.667C60.3709 28.667 59.2335 29.0468 58.4075 29.8071C57.5816 30.5674 57.1689 31.5974 57.1689 32.8983C57.1689 34.1646 57.5851 35.1862 58.4123 35.9632C59.2394 36.7402 60.384 37.129 61.8275 37.129C62.3918 37.129 62.8844 37.0873 63.3054 37.0053C63.7263 36.9233 64.0828 36.7959 64.3759 36.6249L65.7661 37.667L66.3464 37.0905L65.0005 36.1028V36.1067ZM73.4853 36.9285H67.0563V28.8739L67.9403 28.8566V36.2546H73.4941L73.4859 36.9272L73.4853 36.9285Z" fill="#367FAF"/>
<path d="M45.8307 23.3958C45.9456 22.4121 45.9112 22.2682 46.6243 22.4277L46.7993 22.4439C47.3479 22.4697 48.0639 22.3539 48.4858 22.1524C49.392 21.7206 49.9294 20.9984 49.036 21.1879C46.9972 21.6198 46.8571 20.9108 46.8571 20.9108C49.0104 17.6276 49.909 13.4597 49.1329 12.44C47.0147 9.65703 43.3466 10.9736 43.2859 11.0077L43.2666 11.0113C42.864 10.9256 42.4129 10.8734 41.907 10.8656C40.985 10.85 40.2848 11.1139 39.7479 11.5284C39.7479 11.5284 33.2053 8.75735 33.5041 15.0131C33.5683 16.3435 35.3597 25.0812 37.4955 22.4421C38.2762 21.4764 39.0302 20.6607 39.0302 20.6607C39.4048 20.9168 39.8471 21.047 40.3238 21.0002L40.36 20.9684C40.3491 21.0937 40.354 21.2199 40.3746 21.3439C39.8243 21.9755 39.986 22.0876 38.8866 22.3197C37.7738 22.5555 38.4274 22.9753 38.8545 23.0851C39.3721 23.2182 40.5701 23.4066 41.3783 22.2424L41.3462 22.3755C41.5621 22.5531 41.5475 23.6513 41.5779 24.4358C41.6082 25.2203 41.6596 25.9533 41.8154 26.3851C41.9712 26.8169 42.1538 27.929 43.601 27.6105C44.8089 27.3442 45.7332 26.9615 45.8173 23.3982" fill="#231F20"/>
<path d="M45.8307 23.3958C45.9456 22.4121 45.9112 22.2682 46.6243 22.4277L46.7993 22.4439C47.3479 22.4697 48.0639 22.3539 48.4858 22.1524C49.392 21.7206 49.9294 20.9984 49.036 21.1879C46.9972 21.6198 46.8571 20.9108 46.8571 20.9108C49.0104 17.6276 49.909 13.4597 49.1329 12.44C47.0147 9.65703 43.3466 10.9736 43.2859 11.0077L43.2666 11.0113C42.864 10.9256 42.4129 10.8734 41.907 10.8656C40.985 10.85 40.2848 11.1139 39.7479 11.5284C39.7479 11.5284 33.2053 8.75735 33.5041 15.0131C33.5683 16.3435 35.3597 25.0812 37.4955 22.4421C38.2762 21.4764 39.0302 20.6607 39.0302 20.6607C39.4048 20.9168 39.8471 21.047 40.3238 21.0002L40.36 20.9684C40.3491 21.0937 40.354 21.2199 40.3746 21.3439C39.8243 21.9755 39.986 22.0876 38.8866 22.3197C37.7738 22.5555 38.4274 22.9753 38.8545 23.0851C39.3721 23.2182 40.5701 23.4066 41.3783 22.2424L41.3462 22.3755C41.5621 22.5531 41.5475 23.6513 41.5779 24.4358C41.6082 25.2203 41.6596 25.9533 41.8154 26.3851C41.9712 26.8169 42.1538 27.929 43.601 27.6105C44.8089 27.3442 45.7332 26.9615 45.8173 23.3982" stroke="#231F20" stroke-width="2"/>
<path d="M49.0508 21.1886C47.0101 21.6204 46.8699 20.9115 46.8699 20.9115C49.0251 17.6282 49.9246 13.4603 49.1478 12.44C47.0276 9.65702 43.3561 10.9736 43.2954 11.0077L43.2755 11.0113C42.8725 10.9256 42.421 10.8734 41.9147 10.8656C40.9918 10.85 40.2909 11.1139 39.7536 11.5284C39.7536 11.5284 33.205 8.75734 33.5041 15.0131C33.5683 16.3447 35.3614 25.0812 37.4991 22.4421C38.2806 21.4765 39.0352 20.6608 39.0352 20.6608C39.4102 20.9169 39.8587 21.047 40.3295 21.0002L40.3663 20.9685C40.3546 21.0884 40.3605 21.2054 40.3809 21.3439C39.8301 21.9755 39.9919 22.0877 38.8915 22.3198C37.7777 22.5555 38.4319 22.9753 38.8594 23.0851C39.3775 23.2183 40.5766 23.4066 41.3855 22.2424L41.3534 22.3756C41.5695 22.5531 41.7213 23.5302 41.695 24.4148C41.6688 25.2995 41.653 25.9083 41.8235 26.3833C41.9941 26.8584 42.1623 27.9272 43.6108 27.6087C44.8198 27.3424 45.4471 26.6527 45.5341 25.5023C45.596 24.6841 45.7362 24.8053 45.7444 24.0748L45.8565 23.7287C45.9862 22.6191 45.877 22.2622 46.6217 22.4289L46.7969 22.4451C47.3459 22.4709 48.0631 22.3552 48.4848 22.1536C49.3919 21.7218 49.9298 20.9996 49.0356 21.1892L49.0508 21.1886Z" fill="#417BA2"/>
<path d="M41.6013 21.6776C41.5446 23.7092 41.6154 25.7544 41.8139 26.2517C42.0123 26.749 42.4381 27.7164 43.9022 27.4022C45.1247 27.1399 45.57 26.6326 45.7626 25.5123L46.2144 21.9315M39.8531 11.494C39.8531 11.494 33.2267 8.78554 33.5338 14.9442C33.5929 16.2553 35.4119 24.8585 37.5734 22.2599C38.3637 21.3149 39.0777 20.5649 39.0777 20.5649M43.4262 10.9997C43.19 11.0717 47.1115 9.56866 49.3368 12.4171C50.1223 13.4211 49.2187 17.5257 47.0335 20.7586" stroke="white" stroke-width="0.6" stroke-linecap="round" stroke-linejoin="round"/>
<path d="M47.0329 20.7538C47.0329 20.7538 47.1747 21.4525 49.2388 21.0266C50.1424 20.84 49.5932 21.5505 48.6819 21.9763C47.9295 22.3248 46.2427 22.4151 46.2144 21.9326C46.1435 20.6865 47.1026 21.0656 47.0329 20.7538ZM47.0329 20.7538C46.9703 20.4727 46.5416 20.1969 46.2581 19.5094C46.01 18.9088 42.8622 14.3051 47.1322 14.989C47.2887 14.9565 46.0183 10.9275 42.0224 10.862C38.0264 10.7964 38.1587 15.7757 38.1587 15.7757" stroke="white" stroke-width="0.6" stroke-linecap="round" stroke-linejoin="bevel"/>
<path d="M40.4825 21.1782C39.9256 21.8001 40.0892 21.9105 38.9765 22.1391C37.8503 22.3712 38.5117 22.7846 38.944 22.8927C39.4679 23.0238 40.6804 23.2092 41.4983 22.0629C41.7476 21.7144 41.4972 21.1569 41.1546 21.0146C40.9893 20.9461 40.7678 20.861 40.4837 21.1782H40.4825Z" stroke="white" stroke-width="0.6" stroke-linejoin="round"/>
<path d="M40.4465 21.168C40.3904 20.8018 40.567 20.3672 40.7554 19.8569C41.0389 19.0927 41.7003 18.3284 41.1706 15.9047C40.7808 14.0986 38.1597 15.5285 38.1585 15.7735C38.1574 16.0186 38.2767 17.015 38.1148 18.1755C37.9022 19.6898 39.0775 20.9708 40.4317 20.839" stroke="white" stroke-width="0.6" stroke-linecap="round" stroke-linejoin="round"/>
<path d="M39.8229 15.7377C39.811 15.8215 39.9764 16.0448 40.1908 16.0743C40.4052 16.1038 40.5894 15.9296 40.6007 15.8463C40.6119 15.7631 40.4471 15.6704 40.2321 15.6396C40.0172 15.6089 39.8335 15.6532 39.8223 15.7371L39.8229 15.7377Z" fill="white"/>
<path d="M46.363 15.5671C46.3748 15.6509 46.2094 15.8742 45.995 15.9037C45.7807 15.9333 45.5964 15.759 45.5846 15.6758C45.5728 15.5925 45.7381 15.4998 45.9531 15.4702C46.1681 15.4407 46.3512 15.4832 46.363 15.5671Z" fill="white"/>
<path d="M47.4841 14.667C47.5605 15.3044 47.1783 15.7397 47.1312 16.4185C47.0598 17.4062 48.1759 18.5357 46.4941 19.667" stroke="white" stroke-width="0.6" stroke-linecap="round" stroke-linejoin="round"/>
</svg>
