<svg width="84" height="49" viewBox="0 0 84 49" fill="none" xmlns="http://www.w3.org/2000/svg">
<path d="M22.4939 38.7226V10.1393C22.4939 9.94486 22.5751 9.83366 22.7647 9.83366C23.2251 9.83366 23.6584 9.83366 24.2814 9.80592C24.9314 9.77819 25.6084 9.77819 26.3397 9.75033C27.071 9.72246 27.8564 9.72259 28.696 9.69473C29.5355 9.66699 30.348 9.66699 31.1605 9.66699C33.3813 9.66699 35.223 9.94473 36.7397 10.5281C38.094 11.0003 39.3397 11.7781 40.369 12.8058C41.2357 13.6947 41.9127 14.7781 42.346 15.9725C42.7523 17.1391 42.969 18.3335 42.969 19.5835C42.969 21.9725 42.4273 23.9446 41.344 25.5002C40.2607 27.0558 38.744 28.2225 36.9835 28.8892C35.1418 29.5836 33.1105 29.8336 30.8897 29.8336C30.2397 29.8336 29.8064 29.8336 29.5355 29.8058C29.2647 29.7781 28.8855 29.7781 28.371 29.7781V38.6948C28.398 38.8892 28.2627 39.0558 28.073 39.0837C28.046 39.0837 28.0188 39.0837 27.9647 39.0837H22.8189C22.6022 39.0837 22.4939 38.9726 22.4939 38.7226ZM28.3981 15.1949V24.5282C28.7773 24.556 29.1294 24.5838 29.4544 24.5838H30.8898C32.76 24.5838 34.9199 24.133 36.2252 22.6117C37.3486 21.3023 37.3518 18.7057 36.4419 17.2783C35.3618 15.5839 33.2018 15.093 31.3502 15.1394C30.646 15.1394 30.0231 15.1394 29.5085 15.1671C28.9669 15.1393 28.5877 15.167 28.3981 15.1949Z" fill="#212B36"/>
<path d="M59.8705 22.8334C59.058 22.389 58.1913 22.0834 57.2705 21.889C56.2685 21.6667 55.2663 21.5279 54.2372 21.5279C53.6955 21.5002 53.1267 21.5835 52.6122 21.7223C52.2602 21.8057 51.9622 22.0001 51.7727 22.2779C51.6372 22.5002 51.5559 22.7779 51.5559 23.0279C51.5559 23.2779 51.6642 23.5279 51.8267 23.7502C52.0705 24.0558 52.3955 24.3058 52.7475 24.5002C53.3705 24.8335 54.0205 25.1391 54.6705 25.4169C56.133 25.9169 57.5413 26.6113 58.8413 27.4446C59.7351 28.0279 60.4663 28.8057 60.9809 29.7502C61.4142 30.6392 61.6309 31.6113 61.6038 32.6113C61.6309 33.9169 61.2518 35.2224 60.5476 36.3057C59.7893 37.4168 58.733 38.278 57.5143 38.778C56.1872 39.3613 54.5622 39.6669 52.6122 39.6669C51.3664 39.6669 50.1477 39.5558 48.9289 39.3058C47.9809 39.1392 47.0331 38.8336 46.1664 38.4169C45.9768 38.3058 45.8414 38.1113 45.8684 37.8892V33.0558C45.8684 32.9725 45.8955 32.8614 45.9767 32.8058C46.058 32.7502 46.1392 32.7781 46.2205 32.8336C47.2767 33.4725 48.3872 33.9169 49.5788 34.1946C50.608 34.4724 51.6913 34.6113 52.7746 34.6113C53.8038 34.6113 54.535 34.4724 55.0225 34.2224C55.4558 34.028 55.7538 33.5557 55.7538 33.0557C55.7538 32.6668 55.5371 32.3057 55.1038 31.9446C54.6705 31.5836 53.7767 31.1669 52.4496 30.639C51.0683 30.139 49.7954 29.4724 48.6038 28.639C47.7642 28.0279 47.06 27.2223 46.5455 26.2779C46.1122 25.389 45.8955 24.4169 45.9225 23.4446C45.9225 22.2502 46.2475 21.1113 46.8433 20.0835C47.5203 18.9725 48.5225 18.0835 49.6871 17.5279C50.96 16.8613 52.5579 16.5557 54.4808 16.5557C55.5913 16.5557 56.7288 16.639 57.8391 16.8057C58.6516 16.9167 59.4371 17.139 60.1684 17.4446C60.2766 17.4723 60.3851 17.5835 60.4391 17.6946C60.4662 17.8057 60.4934 17.9169 60.4934 18.0279V22.5557C60.4934 22.6667 60.4391 22.7779 60.3579 22.8334C60.1143 22.889 59.9788 22.889 59.8705 22.8334Z" fill="#212B36"/>
</svg>
