<svg width="84" height="51" viewBox="0 0 84 51" fill="none" xmlns="http://www.w3.org/2000/svg">
<g filter="url(#filter0_d_1694_3220)">
<g clip-path="url(#clip0_1694_3220)">
<path d="M54.7933 25.5714C54.5056 25.1984 54.1933 24.8252 53.8596 24.4534C54.089 24.1872 54.3076 23.9206 54.5133 23.6539C56.6393 20.8973 57.2429 18.3966 56.2129 16.6127C55.1829 14.8287 52.7158 14.1011 49.2651 14.564C48.9014 14.6128 48.5301 14.6747 48.1528 14.7482C48.0244 14.3729 47.8885 14.0093 47.7446 13.6596C46.4203 10.4401 44.5564 8.66699 42.4965 8.66699C40.4366 8.66699 38.5728 10.4401 37.2484 13.6596C37.1046 14.0093 36.9686 14.3729 36.8403 14.7482C36.463 14.6747 36.0916 14.6128 35.7279 14.564C32.2777 14.1012 29.8102 14.8287 28.7802 16.6127C27.7502 18.3967 28.3538 20.8973 30.4798 23.6539C30.6854 23.9206 30.904 24.1872 31.1334 24.4534C30.7997 24.8252 30.4875 25.1983 30.1998 25.5714C28.0738 28.3281 27.4701 30.8287 28.5001 32.6127C29.3277 34.0461 31.0827 34.7974 33.5304 34.7974C34.1291 34.7974 34.7697 34.7524 35.4478 34.6614C35.8846 34.6027 36.3322 34.5255 36.7882 34.4314C36.9316 34.8617 37.0849 35.277 37.2484 35.6745C38.5728 38.8939 40.4366 40.667 42.4965 40.667C44.5564 40.667 46.4203 38.8939 47.7446 35.6744C47.9081 35.2769 48.0614 34.8616 48.2048 34.4314C48.6608 34.5254 49.1084 34.6027 49.5452 34.6613C50.2235 34.7523 50.8638 34.7973 51.4626 34.7973C53.9101 34.7973 55.6654 34.0459 56.4929 32.6126C57.5229 30.8287 56.9193 28.3281 54.7933 25.5714ZM51.1931 16.2999C52.907 16.2999 54.1184 16.7349 54.5891 17.5501C55.2049 18.6169 54.6361 20.4242 53.0285 22.5088C52.8753 22.7074 52.714 22.9062 52.546 23.1049C51.6061 22.2106 50.548 21.3356 49.3969 20.5017C49.2379 19.1132 48.9988 17.7863 48.6862 16.5526C49.6039 16.3832 50.4466 16.2999 51.1931 16.2999ZM44.9856 29.1665C44.1428 29.6531 43.3109 30.0896 42.4971 30.4777C41.6827 30.0894 40.8507 29.6534 40.0074 29.1665C39.0771 28.6294 38.1868 28.0609 37.3469 27.4704C37.2764 26.5735 37.2383 25.6377 37.2383 24.667C37.2383 23.5796 37.2859 22.5358 37.3737 21.5419C38.1227 21.0276 38.9095 20.5311 39.7273 20.0589C40.6673 19.5162 41.5934 19.0366 42.4964 18.6161C43.3996 19.0366 44.3256 19.5162 45.2656 20.0589C46.0835 20.5311 46.8703 21.0276 47.6193 21.5419C47.707 22.5358 47.7547 23.5796 47.7547 24.667C47.7547 25.6377 47.7166 26.5735 47.6461 27.4704C46.8062 28.0609 45.9159 28.6294 44.9856 29.1665ZM47.3601 29.9172C47.2344 30.7154 47.0821 31.4714 46.9071 32.1799C46.2116 31.9778 45.4871 31.7333 44.7398 31.4452C45.1351 31.2353 45.5299 31.0172 45.9231 30.7903C46.4127 30.5076 46.8919 30.216 47.3601 29.9172ZM40.2531 31.4452C39.5057 31.7333 38.7813 31.9776 38.0858 32.1796C37.9109 31.4712 37.7585 30.7153 37.6329 29.9172C38.1011 30.216 38.5803 30.5076 39.0699 30.7902C39.463 31.0172 39.8578 31.2353 40.2531 31.4452ZM35.3861 25.976C34.7924 25.4841 34.2361 24.983 33.7228 24.4772C34.2429 23.9811 34.8034 23.4905 35.3997 23.0094C35.3758 23.5566 35.3633 24.1096 35.3633 24.667C35.3633 25.1063 35.3712 25.5428 35.3861 25.976ZM37.6848 19.0987C37.8108 18.3517 37.9606 17.6436 38.1303 16.9784C38.7964 17.1646 39.4907 17.3906 40.207 17.6569C39.7334 17.9041 39.2604 18.1634 38.7899 18.4351C38.4153 18.6514 38.0469 18.8729 37.6848 19.0987ZM44.7859 17.6568C45.5023 17.3905 46.1965 17.1644 46.8628 16.9783C47.0324 17.6436 47.1822 18.3517 47.3083 19.0987C46.9461 18.8729 46.5778 18.6514 46.2032 18.4351C45.7325 18.1634 45.2596 17.904 44.7859 17.6568ZM49.5933 23.0094C50.1896 23.4905 50.7501 23.9811 51.2703 24.4772C50.7569 24.983 50.2006 25.4841 49.6069 25.976C49.6218 25.5428 49.6298 25.1063 49.6298 24.667C49.6298 24.1096 49.6173 23.5566 49.5933 23.0094ZM42.4965 10.542C43.8527 10.542 45.2933 12.2672 46.3231 15.1856C45.0824 15.5342 43.7963 15.9966 42.4965 16.5617C41.1968 15.9966 39.9106 15.5343 38.6699 15.1856C39.6997 12.2672 41.1403 10.542 42.4965 10.542ZM30.4039 17.5502C30.8747 16.7349 32.0855 16.2999 33.7999 16.2999C34.5463 16.2999 35.3891 16.3833 36.3069 16.5527C35.9942 17.7864 35.7552 19.1133 35.5962 20.5018C34.4451 21.3357 33.387 22.2107 32.4471 23.1049C32.2791 22.9062 32.1178 22.7075 31.9646 22.5089C30.3569 20.4243 29.7881 18.6169 30.4039 17.5502ZM33.5198 32.9254C31.8059 32.9253 30.5946 32.4904 30.1239 31.6752C29.508 30.6084 30.0768 28.8011 31.6844 26.7165C31.9135 26.4194 32.1597 26.1221 32.4215 25.8252C33.3508 26.7388 34.4056 27.635 35.5589 28.4907C35.7107 29.9449 35.9491 31.3358 36.2678 32.6268C35.2559 32.8275 34.3313 32.9255 33.5198 32.9254ZM42.4965 38.792C41.114 38.792 39.6439 36.9989 38.6107 33.9769C39.8723 33.6102 41.1787 33.1272 42.4965 32.5402C43.8143 33.1272 45.1207 33.6102 46.3823 33.9769C45.3491 36.9989 43.879 38.792 42.4965 38.792ZM54.8691 31.6752C54.1756 32.8764 51.8749 33.2515 48.7252 32.6268C49.0439 31.3358 49.2823 29.9449 49.4341 28.4907C50.5874 27.635 51.6422 26.7388 52.5714 25.8252C52.8333 26.1221 53.0794 26.4195 53.3085 26.7165C54.9163 28.8011 55.4851 30.6084 54.8691 31.6752Z" fill="#5599FF"/>
<path d="M42.4962 27.5643C44.0961 27.5643 45.3931 26.2673 45.3931 24.6674C45.3931 23.0675 44.0961 21.7705 42.4962 21.7705C40.8963 21.7705 39.5994 23.0675 39.5994 24.6674C39.5994 26.2673 40.8963 27.5643 42.4962 27.5643Z" fill="#5599FF"/>
</g>
</g>
<defs>
<filter id="filter0_d_1694_3220" x="-6.5061" y="-5.33301" width="99" height="64" filterUnits="userSpaceOnUse" color-interpolation-filters="sRGB">
<feFlood flood-opacity="0" result="BackgroundImageFix"/>
<feColorMatrix in="SourceAlpha" type="matrix" values="0 0 0 0 0 0 0 0 0 0 0 0 0 0 0 0 0 0 127 0" result="hardAlpha"/>
<feOffset dx="1" dy="2"/>
<feGaussianBlur stdDeviation="4"/>
<feComposite in2="hardAlpha" operator="out"/>
<feColorMatrix type="matrix" values="0 0 0 0 0.145098 0 0 0 0 0.396078 0 0 0 0 0.815686 0 0 0 0.14 0"/>
<feBlend mode="normal" in2="BackgroundImageFix" result="effect1_dropShadow_1694_3220"/>
<feBlend mode="normal" in="SourceGraphic" in2="effect1_dropShadow_1694_3220" result="shape"/>
</filter>
<clipPath id="clip0_1694_3220">
<rect width="32" height="32" fill="white" transform="translate(26.4939 8.66699)"/>
</clipPath>
</defs>
</svg>
