<svg width="84" height="49" viewBox="0 0 84 49" fill="none" xmlns="http://www.w3.org/2000/svg">
<path d="M54.2994 24.9044C54.0117 24.5314 53.6994 24.1582 53.3657 23.7864C53.5951 23.5202 53.8137 23.2536 54.0194 22.9869C56.1454 20.2303 56.749 17.7296 55.719 15.9457C54.689 14.1617 52.2219 13.4341 48.7712 13.897C48.4075 13.9458 48.0362 14.0077 47.6589 14.0812C47.5305 13.7059 47.3946 13.3423 47.2507 12.9926C45.9264 9.77306 44.0625 8 42.0026 8C39.9427 8 38.0789 9.77306 36.7545 12.9926C36.6107 13.3423 36.4747 13.7059 36.3464 14.0812C35.9691 14.0078 35.5977 13.9458 35.234 13.897C31.7838 13.4342 29.3163 14.1617 28.2863 15.9457C27.2563 17.7297 27.8599 20.2303 29.9859 22.9869C30.1915 23.2536 30.4101 23.5202 30.6395 23.7864C30.3058 24.1582 29.9936 24.5313 29.7059 24.9044C27.5799 27.6611 26.9762 30.1618 28.0062 31.9457C28.8338 33.3791 30.5888 34.1304 33.0365 34.1304C33.6352 34.1304 34.2758 34.0854 34.9539 33.9944C35.3907 33.9358 35.8383 33.8585 36.2943 33.7644C36.4377 34.1947 36.591 34.61 36.7545 35.0075C38.0789 38.2269 39.9427 40 42.0026 40C44.0625 40 45.9264 38.2269 47.2507 35.0074C47.4142 34.6099 47.5675 34.1946 47.7109 33.7644C48.1669 33.8584 48.6145 33.9357 49.0513 33.9943C49.7296 34.0853 50.3699 34.1303 50.9687 34.1303C53.4162 34.1303 55.1715 33.3789 55.999 31.9456C57.029 30.1617 56.4254 27.6611 54.2994 24.9044ZM50.6992 15.6329C52.4131 15.6329 53.6245 16.0679 54.0952 16.8831C54.711 17.9499 54.1422 19.7572 52.5346 21.8418C52.3814 22.0404 52.2201 22.2392 52.0521 22.4379C51.1122 21.5436 50.0541 20.6686 48.903 19.8348C48.744 18.4462 48.5049 17.1193 48.1923 15.8856C49.11 15.7162 49.9527 15.6329 50.6992 15.6329ZM44.4917 28.4995C43.6489 28.9861 42.817 29.4226 42.0032 29.8107C41.1888 29.4224 40.3568 28.9864 39.5135 28.4995C38.5832 27.9624 37.6929 27.3939 36.853 26.8034C36.7825 25.9065 36.7444 24.9707 36.7444 24C36.7444 22.9126 36.792 21.8688 36.8798 20.8749C37.6288 20.3606 38.4156 19.8641 39.2334 19.3919C40.1734 18.8492 41.0995 18.3696 42.0025 17.9491C42.9057 18.3696 43.8317 18.8492 44.7717 19.3919C45.5896 19.8641 46.3764 20.3606 47.1254 20.8749C47.2131 21.8688 47.2608 22.9126 47.2608 24C47.2608 24.9707 47.2227 25.9065 47.1522 26.8034C46.3123 27.3939 45.422 27.9624 44.4917 28.4995ZM46.8662 29.2502C46.7405 30.0484 46.5882 30.8044 46.4132 31.5129C45.7177 31.3108 44.9932 31.0663 44.2459 30.7782C44.6412 30.5683 45.036 30.3503 45.4292 30.1233C45.9188 29.8406 46.398 29.549 46.8662 29.2502ZM39.7592 30.7782C39.0118 31.0663 38.2874 31.3106 37.5919 31.5126C37.417 30.8042 37.2646 30.0483 37.139 29.2502C37.6072 29.549 38.0864 29.8406 38.576 30.1232C38.9691 30.3502 39.3639 30.5683 39.7592 30.7782ZM34.8922 25.309C34.2985 24.8171 33.7422 24.316 33.2289 23.8102C33.749 23.3141 34.3095 22.8235 34.9058 22.3424C34.8819 22.8896 34.8694 23.4426 34.8694 24C34.8694 24.4393 34.8773 24.8758 34.8922 25.309ZM37.1909 18.4318C37.3169 17.6847 37.4667 16.9766 37.6364 16.3114C38.3025 16.4976 38.9968 16.7236 39.7131 16.9899C39.2395 17.2371 38.7665 17.4964 38.296 17.7681C37.9214 17.9844 37.553 18.2059 37.1909 18.4318ZM44.292 16.9898C45.0084 16.7235 45.7026 16.4974 46.3689 16.3113C46.5385 16.9766 46.6883 17.6847 46.8144 18.4318C46.4522 18.2059 46.0839 17.9844 45.7093 17.7681C45.2386 17.4964 44.7657 17.237 44.292 16.9898ZM49.0994 22.3424C49.6957 22.8235 50.2562 23.3141 50.7764 23.8102C50.263 24.316 49.7067 24.8171 49.113 25.309C49.1279 24.8758 49.1359 24.4393 49.1359 24C49.1359 23.4426 49.1234 22.8896 49.0994 22.3424ZM42.0026 9.875C43.3588 9.875 44.7994 11.6002 45.8292 14.5186C44.5885 14.8672 43.3024 15.3296 42.0026 15.8947C40.7029 15.3296 39.4167 14.8673 38.176 14.5186C39.2058 11.6002 40.6464 9.875 42.0026 9.875ZM29.91 16.8832C30.3808 16.0679 31.5916 15.6329 33.306 15.6329C34.0524 15.6329 34.8952 15.7163 35.813 15.8857C35.5003 17.1194 35.2613 18.4463 35.1023 19.8348C33.9512 20.6687 32.8931 21.5437 31.9532 22.4379C31.7852 22.2393 31.6239 22.0405 31.4707 21.8419C29.863 19.7573 29.2942 17.9499 29.91 16.8832ZM33.0259 32.2584C31.312 32.2583 30.1007 31.8234 29.63 31.0082C29.0141 29.9414 29.5829 28.1341 31.1905 26.0495C31.4196 25.7524 31.6658 25.4551 31.9276 25.1582C32.8569 26.0718 33.9117 26.968 35.065 27.8237C35.2168 29.2779 35.4552 30.6688 35.7739 31.9598C34.762 32.1605 33.8374 32.2585 33.0259 32.2584ZM42.0026 38.125C40.6201 38.125 39.15 36.3319 38.1168 33.3099C39.3784 32.9432 40.6848 32.4602 42.0026 31.8732C43.3204 32.4602 44.6268 32.9432 45.8884 33.3099C44.8552 36.3319 43.3851 38.125 42.0026 38.125ZM54.3752 31.0082C53.6817 32.2094 51.381 32.5845 48.2313 31.9598C48.55 30.6688 48.7884 29.2779 48.9402 27.8237C50.0935 26.968 51.1483 26.0718 52.0775 25.1582C52.3394 25.4551 52.5855 25.7525 52.8146 26.0495C54.4224 28.1341 54.9912 29.9414 54.3752 31.0082Z" fill="#212B36"/>
<path d="M42.0023 26.8969C43.6022 26.8969 44.8992 25.5999 44.8992 24C44.8992 22.4001 43.6022 21.1031 42.0023 21.1031C40.4024 21.1031 39.1055 22.4001 39.1055 24C39.1055 25.5999 40.4024 26.8969 42.0023 26.8969Z" fill="#212B36"/>
</svg>
