<svg width="84" height="49" viewBox="0 0 84 49" fill="none" xmlns="http://www.w3.org/2000/svg">
<path d="M48.8497 31.0155C50.0936 30.8868 51.0372 29.8145 50.9943 28.5275C50.9515 27.2407 49.8791 26.2112 48.5923 26.2112H48.5066C47.1767 26.2541 46.1473 27.3694 46.1902 28.6991C46.2332 29.3426 46.4904 29.9002 46.8765 30.2862C45.4181 33.1603 43.1877 35.2621 39.842 37.0208C37.5686 38.2219 35.2095 38.6509 32.8503 38.3507C30.9201 38.0933 29.4188 37.2354 28.475 35.8197C27.1025 33.7179 26.9738 31.4444 28.132 29.171C28.947 27.5409 30.2337 26.3398 31.0487 25.7393C30.8772 25.1817 30.6197 24.238 30.4911 23.5518C24.2715 28.0558 24.9149 34.1469 26.8023 37.0208C28.2177 39.1657 31.0916 40.4954 34.2658 40.4954C35.1236 40.4954 35.9814 40.4096 36.8394 40.1952C42.3298 39.1228 46.4906 35.8627 48.8497 31.0155ZM56.399 25.6965C53.1391 21.8788 48.335 19.7769 42.8445 19.7769H42.1583C41.7722 19.0048 40.9572 18.49 40.0564 18.49H39.9706C38.641 18.5329 37.6116 19.6482 37.6544 20.978C37.6973 22.2648 38.7696 23.2943 40.0564 23.2943H40.1422C41.0858 23.2514 41.9009 22.6509 42.244 21.8358H43.0161C46.2761 21.8358 49.3644 22.7795 52.1526 24.6241C54.2972 26.0396 55.8414 27.8842 56.6993 30.1147C57.4284 31.9163 57.3855 33.675 56.6134 35.1764C55.4125 37.4498 53.3965 38.6938 50.737 38.6938C49.0212 38.6938 47.3913 38.179 46.5334 37.7929C46.0616 38.2219 45.2036 38.9082 44.6031 39.3373C46.4477 40.1951 48.335 40.667 50.1365 40.667C54.2543 40.667 57.2998 38.3935 58.458 36.1201C59.7018 33.6321 59.616 29.3426 56.399 25.6965ZM34.6089 31.7446C34.6518 33.0315 35.7241 34.0609 37.0109 34.0609H37.0968C38.4265 34.0181 39.4559 32.9027 39.413 31.573C39.3702 30.2861 38.2977 29.2567 37.0109 29.2567H36.9252C36.8394 29.2567 36.7106 29.2567 36.625 29.2995C34.8663 26.3826 34.1371 23.2085 34.3946 19.7768C34.566 17.2031 35.4239 14.9725 36.9252 13.1279C38.1691 11.5408 40.5711 10.7687 42.2012 10.7259C46.7479 10.64 48.678 16.3022 48.8068 18.5757C49.3644 18.7044 50.308 19.0047 50.9515 19.2192C50.4367 12.2702 46.1473 8.66699 42.0296 8.66699C38.1691 8.66699 34.6089 11.4552 33.1933 15.5732C31.2203 21.0637 32.5071 26.3398 34.9091 30.5007C34.6948 30.8009 34.566 31.2727 34.6089 31.7446Z" fill="#764ABC"/>
</svg>
