<svg width="84" height="49" viewBox="0 0 84 49" fill="none" xmlns="http://www.w3.org/2000/svg">
<path d="M56.9304 27.4686C55.5316 27.4769 54.3208 27.8241 53.3047 28.3413C52.9295 27.5737 52.5542 26.9035 52.4919 26.4027C52.4217 25.8211 52.3355 25.4656 52.4217 24.7706C52.5079 24.0756 52.8986 23.0901 52.8986 23.0097C52.8906 22.9371 52.8134 22.5816 52.0076 22.5734C51.2018 22.5651 50.5067 22.7351 50.4289 22.9585C50.2895 23.362 50.1773 23.775 50.0931 24.1945C49.9526 24.9538 48.4836 27.6447 47.6474 29.0578C47.3738 28.5086 47.1396 28.0233 47.0928 27.6359C47.0225 27.0542 46.9363 26.6988 47.0225 26.0038C47.1088 25.3088 47.4994 24.3232 47.4994 24.2429C47.4915 24.1703 47.4143 23.8148 46.6084 23.8065C45.8026 23.7983 45.1075 23.9683 45.0298 24.1917C44.9521 24.4151 44.8659 24.9269 44.6945 25.4276C44.5305 25.9229 42.5772 30.4203 42.0689 31.5907C41.8113 32.1883 41.5899 32.6654 41.4195 32.9884C41.2492 33.3114 41.4116 33.0126 41.3961 33.0451L41.1779 33.4732V33.4815C41.0683 33.6834 40.9512 33.8777 40.8958 33.8777C40.8569 33.8777 40.7787 33.3362 40.9118 32.5933C41.2008 31.0344 41.9039 28.6027 41.8964 28.5136C41.8964 28.4734 42.0295 28.0458 41.444 27.8268C40.8734 27.6089 40.6707 27.9721 40.6244 27.9721C40.5781 27.9721 40.5392 28.1014 40.5392 28.1014C40.5392 28.1014 41.1726 25.3627 39.3278 25.3627C38.1712 25.3627 36.5771 26.6635 35.7883 27.851L31.8034 30.105L31.7182 30.0081C29.4828 27.544 25.3498 25.7985 25.5217 22.487C25.584 21.2835 25.9901 18.1084 33.4608 14.2631C39.579 11.1128 44.4784 11.9767 45.33 13.8999C46.5414 16.6458 42.7124 21.7523 36.352 22.4875C33.9302 22.7704 32.656 21.8008 32.3356 21.4376C32.0003 21.0524 31.9524 21.0414 31.8279 21.1146C31.6245 21.2279 31.7496 21.5669 31.8279 21.7694C32.0152 22.2784 32.7965 23.1836 34.125 23.6348C35.2891 24.031 38.1329 24.2489 41.5712 22.8755C45.421 21.3154 48.4293 17.0398 47.5468 13.4602C46.6473 9.81687 40.8032 8.62167 35.2784 10.6494C31.9891 11.8617 28.4262 13.7513 25.8629 16.2309C22.8158 19.1716 22.3309 21.7402 22.5342 22.8067C23.2453 26.6118 28.3166 29.0919 30.3477 30.9254L30.0656 31.0872C29.05 31.6045 25.1822 33.6966 24.2129 35.9098C23.1192 38.4136 24.3849 40.2157 25.2285 40.4578C27.8381 41.209 30.5105 39.8602 31.9561 37.6382C33.3932 35.4168 33.2218 32.5328 32.5576 31.2165L32.5341 31.1681L33.3309 30.6839C33.8157 30.3895 34.3054 30.104 34.7999 29.8276C34.5498 30.5303 34.3704 31.3629 34.2762 32.5735C34.1666 33.9954 34.7286 35.8366 35.4716 36.5641C35.8 36.8794 36.1902 36.8871 36.4329 36.8871C37.2925 36.8871 37.6837 36.1519 38.1127 35.2715C38.6439 34.1968 39.1133 32.9532 39.1133 32.9532C39.1133 32.9532 38.5278 36.322 40.1288 36.322C40.7143 36.322 41.3008 35.5384 41.5659 35.1345V35.1427C41.5659 35.1427 41.5819 35.1185 41.6127 35.0618C41.675 34.965 41.7064 34.9078 41.7064 34.9078V34.8913C41.9406 34.4714 42.4643 33.5156 43.2457 31.9181C44.2538 29.8656 45.2225 27.2975 45.2225 27.2975C45.2225 27.2975 45.3161 27.9275 45.6057 28.9615C45.7776 29.5756 46.1528 30.2458 46.4413 30.9001L46.0661 31.4339L46.0741 31.4421C45.8867 31.7008 45.6749 31.9759 45.4567 32.2499C44.6599 33.2349 43.7066 34.3586 43.5815 34.6822C43.4325 35.0674 43.4644 35.3447 43.7535 35.5709C43.9642 35.7326 44.3389 35.7646 44.7381 35.7326C45.4567 35.6842 45.9623 35.4982 46.2071 35.386C46.6582 35.2198 47.0843 34.9886 47.4728 34.6992C48.2542 34.1016 48.7311 33.2531 48.6842 32.1223C48.6608 31.5005 48.466 30.8864 48.2233 30.3047L48.4341 29.9817C49.6689 28.1163 50.6216 26.0637 50.6216 26.0637C50.6216 26.0637 50.7153 26.6938 51.0048 27.7278C51.1539 28.2527 51.4503 28.8267 51.7159 29.3918C50.5593 30.3691 49.8328 31.5005 49.5827 32.2433C49.1217 33.6168 49.4815 34.2386 50.1607 34.3894C50.4657 34.4538 50.9032 34.3085 51.2305 34.1638C51.6366 34.0262 52.1289 33.7924 52.5824 33.4446C53.3638 32.847 54.1137 32.015 54.0749 30.8913C54.0514 30.3741 53.9184 29.8656 53.7395 29.3808C54.7242 28.9609 55.9979 28.7183 57.6154 28.9202C61.0926 29.3401 61.7803 31.5863 61.6472 32.5234C61.5141 33.4605 60.7876 33.9778 60.5454 34.139C60.3033 34.2931 60.225 34.3492 60.2484 34.462C60.2804 34.6315 60.3889 34.6238 60.5997 34.5914C60.8887 34.5429 62.428 33.8237 62.4908 32.0953C62.5845 29.8739 60.5449 27.451 56.9272 27.4747L56.9304 27.4686ZM30.114 36.815C28.9654 38.1159 27.3479 38.6089 26.6597 38.1885C25.9172 37.7444 26.2073 35.8295 27.6209 34.4483C28.4805 33.608 29.5977 32.8327 30.3322 32.3561L31.0433 31.9121C31.0902 31.8791 31.1216 31.8636 31.1216 31.8636C31.1764 31.8306 31.2386 31.791 31.3015 31.7503C31.8252 33.7214 31.3249 35.4503 30.1145 36.8156L30.114 36.815ZM38.514 30.9095C38.1148 31.9192 37.2717 34.5127 36.7639 34.3668C36.3264 34.2458 36.0614 32.2824 36.6788 30.3443C36.9912 29.3671 37.6555 28.1983 38.0467 27.7509C38.68 27.0245 39.3666 26.7813 39.5391 27.0807C39.7424 27.4686 38.7657 30.28 38.5156 30.9106L38.514 30.9095ZM45.4444 34.3349C45.2725 34.423 45.116 34.489 45.0452 34.4395C44.9904 34.4065 45.1155 34.2854 45.1155 34.2854C45.1155 34.2854 45.9831 33.3241 46.3269 32.88L47.0066 31.9831V32.0799C47.0066 33.2432 45.9282 34.0185 45.4439 34.3338L45.4444 34.3349ZM50.7893 33.0693C50.6642 32.9725 50.6796 32.6731 51.1017 31.7365C51.2656 31.3651 51.6409 30.7427 52.2886 30.1534C52.3669 30.3955 52.4137 30.6299 52.4057 30.8484C52.3977 32.3028 51.3976 32.8437 50.7877 33.0699L50.7893 33.0693Z" fill="#CF649A"/>
</svg>
