<svg width="84" height="49" viewBox="0 0 84 49" fill="none" xmlns="http://www.w3.org/2000/svg">
<path d="M40.9077 37.6503C38.4091 37.4749 35.9397 36.8623 34.4251 36.0422C33.5625 35.5751 32.9052 35.001 32.6473 34.4894L32.4939 34.1849V24.6363V15.0876L32.6153 14.8475C33.1579 13.7744 34.8896 12.8071 37.307 12.2266C38.1276 12.0296 39.3122 11.8334 40.2786 11.7344C41.2655 11.6334 43.8812 11.6487 44.8656 11.7615C47.4819 12.0609 49.7082 12.7312 51.0802 13.6327C51.6093 13.9803 52.1523 14.5365 52.3362 14.9194L52.4939 15.2476L52.4804 24.7674L52.4669 34.2872L52.3403 34.5377C52.2707 34.6755 52.0604 34.9466 51.873 35.14C50.7322 36.318 48.2851 37.1894 45.0753 37.5607C44.4211 37.6364 41.5789 37.6975 40.9077 37.6503ZM45.5121 29.4684C45.5025 29.444 45.129 29.1199 44.6821 28.7481C44.2352 28.3764 43.8503 28.0547 43.8268 28.0334C43.8033 28.012 43.8858 27.9364 44.0103 27.8653C44.1347 27.7943 44.3731 27.5966 44.5401 27.4261C45.0284 26.9273 45.2588 26.3113 45.2588 25.5043C45.2588 24.7099 45.0103 24.069 44.5126 23.5797C44.0111 23.0865 43.4352 22.8746 42.5965 22.8746C41.3038 22.8746 40.311 23.6093 39.9942 24.8005C39.8852 25.2102 39.8858 26.0381 39.9953 26.4014C40.2811 27.3491 41.0594 28.0373 42.028 28.1989C42.3558 28.2536 42.4002 28.2772 42.6236 28.5152C42.7564 28.6566 43.029 28.9389 43.2293 29.1425L43.5934 29.5127H44.5615C45.094 29.5127 45.5217 29.4928 45.5121 29.4684ZM42.1922 26.8281C41.9591 26.7098 41.871 26.6179 41.7381 26.3547C41.6354 26.1515 41.6179 26.0358 41.6167 25.5554C41.6156 25.0673 41.6315 24.9618 41.7387 24.7498C41.9141 24.4029 42.1557 24.2387 42.5295 24.2124C43.0498 24.1756 43.3502 24.4244 43.5076 25.0221C43.7006 25.755 43.4884 26.5342 43.0253 26.7928C42.7824 26.9285 42.42 26.9439 42.1922 26.8281ZM37.9011 28.1885C38.9161 28.001 39.4923 27.4261 39.4923 26.6007C39.4923 25.8685 39.1203 25.4418 38.0922 24.9948C37.5037 24.7389 37.2905 24.5782 37.2905 24.3906C37.2905 24.235 37.4928 24.0645 37.7283 24.0217C37.9583 23.9799 38.5682 24.0831 38.9283 24.2248L39.2302 24.3436V23.6927V23.0418L38.9025 22.971C38.7 22.9272 38.2745 22.901 37.7885 22.9023C37.1002 22.9023 36.9654 22.9186 36.7063 23.0188C35.9496 23.3115 35.5905 23.8099 35.5963 24.5597C35.6016 25.2616 35.9818 25.6995 36.9279 26.0934C37.4862 26.3258 37.7099 26.5027 37.7099 26.7119C37.7099 27.1563 36.9497 27.211 36.1449 26.8245C35.9244 26.7186 35.7264 26.6234 35.7048 26.6128C35.6831 26.6023 35.6655 26.9064 35.6655 27.2885C35.6655 27.9803 35.6662 27.9836 35.7948 28.0313C36.279 28.2106 37.3492 28.2905 37.9011 28.1885ZM49.505 27.5468V26.9596H48.5876H47.6702V24.9426V22.9257H46.8577H46.0451V25.5299V28.1341H47.775H49.505V27.5468ZM43.8434 17.2564C45.458 17.1474 46.6684 16.9414 47.7335 16.5945C48.7946 16.249 49.4214 15.8308 49.5616 15.375C49.6156 15.1993 49.6117 15.1327 49.5362 14.9401C49.1977 14.0768 47.3067 13.4134 44.4171 13.1445C43.181 13.0294 40.933 13.0667 39.7545 13.2218C37.9562 13.4584 36.4967 13.898 35.8478 14.3985C34.5351 15.4111 35.9233 16.5247 39.1516 17.0488C40.5513 17.2761 42.3648 17.3564 43.8434 17.2564Z" fill="#00BCF2"/>
</svg>
