<svg width="83" height="48" viewBox="0 0 83 48" fill="none" xmlns="http://www.w3.org/2000/svg">
<path fill-rule="evenodd" clip-rule="evenodd" d="M10.363 20.5061C11.527 15.8461 14.44 13.5161 19.099 13.5161C26.089 13.5161 26.961 18.7561 30.455 19.6311C32.785 20.2141 34.823 19.3411 36.57 17.0111C35.406 21.6701 32.493 24.0001 27.835 24.0001C20.845 24.0001 19.973 18.7601 16.479 17.8851C14.149 17.3021 12.111 18.1751 10.364 20.5051L10.363 20.5061ZM1.62695 30.9901C2.79295 26.3301 5.70295 24.0001 10.363 24.0001C17.353 24.0001 18.225 29.2401 21.719 30.1151C24.049 30.6981 26.087 29.8251 27.834 27.4951C26.67 32.1551 23.757 34.4851 19.098 34.4851C12.108 34.4851 11.236 29.2451 7.74195 28.3701C5.41195 27.7871 3.37395 28.6601 1.62695 30.9901Z" fill="url(#paint0_linear_429_883)"/>
<path fill-rule="evenodd" clip-rule="evenodd" d="M42.9296 21.578H40.6426V20.208H46.8126V21.578H44.5266V27.792H42.9296V21.578ZM49.7996 27.091C49.5879 27.3321 49.3379 27.5365 49.0596 27.696C48.7876 27.852 48.4346 27.93 48.0016 27.93C47.7626 27.9312 47.5246 27.8989 47.2946 27.834C47.0706 27.77 46.8746 27.671 46.7086 27.537C46.5426 27.403 46.4086 27.232 46.3106 27.022C46.2126 26.812 46.1606 26.564 46.1606 26.272C46.1606 25.89 46.2456 25.578 46.4166 25.337C46.588 25.095 46.8187 24.9012 47.0866 24.774C47.3626 24.639 47.6726 24.544 48.0166 24.487C48.3637 24.4299 48.714 24.3945 49.0656 24.381L49.7776 24.349V24.073C49.7776 23.733 49.6846 23.499 49.4956 23.373C49.3066 23.247 49.0856 23.183 48.8316 23.183C48.2416 23.183 47.9056 23.406 47.8216 23.853L46.4616 23.726C46.5596 23.146 46.8156 22.726 47.2266 22.466C47.6376 22.206 48.1916 22.078 48.8866 22.078C49.3116 22.078 49.6736 22.128 49.9716 22.232C50.2696 22.336 50.5096 22.482 50.6896 22.672C50.8741 22.8696 51.0091 23.1081 51.0836 23.368C51.1656 23.64 51.2056 23.948 51.2056 24.288V27.793H49.7996V27.093V27.091ZM49.7676 25.317L49.1076 25.349C48.7956 25.362 48.5436 25.395 48.3526 25.445C48.1616 25.495 48.0126 25.557 47.9126 25.631C47.8126 25.705 47.7396 25.791 47.7056 25.891C47.6716 25.991 47.6526 26.101 47.6526 26.221C47.6526 26.405 47.7166 26.551 47.8426 26.656C47.9686 26.761 48.1476 26.816 48.3726 26.816C48.7566 26.816 49.0686 26.728 49.3086 26.55C49.4436 26.45 49.5546 26.324 49.6386 26.173C49.7226 26.022 49.7656 25.831 49.7656 25.605V25.318L49.7676 25.317ZM52.4136 22.247H53.9036V27.791H52.4136V22.247ZM52.3936 20.207H53.9236V21.545H52.3936V20.207ZM55.1776 20.207H56.6676V27.791H55.1776V20.207ZM57.3346 22.247H58.9506L59.7276 25.922L60.7896 22.3H62.0876L63.0876 25.933L63.8646 22.258H65.4176L63.8006 27.802H62.3536L61.3636 24.148L60.3636 27.802H58.9496L57.3336 22.258L57.3346 22.247ZM66.0946 22.247H67.5846V27.791H66.0946V22.247ZM66.0746 20.207H67.6046V21.545H66.0746V20.207ZM68.8486 22.247H70.2956V23.012C70.5156 22.687 70.7756 22.449 71.0756 22.3C71.3756 22.151 71.6906 22.077 72.0156 22.077C72.6476 22.077 73.1156 22.242 73.4206 22.571C73.7256 22.9 73.8786 23.419 73.8786 24.127V27.791H72.3896V24.33C72.3896 23.93 72.3156 23.675 72.1656 23.533C72.0156 23.391 71.8186 23.321 71.5706 23.321C71.3806 23.321 71.2146 23.351 71.0756 23.406C70.9366 23.461 70.8076 23.544 70.6876 23.65C70.5876 23.75 70.5046 23.868 70.4376 24.006C70.3705 24.1469 70.3363 24.3011 70.3376 24.457V27.792H68.8376V22.248L68.8486 22.247ZM78.9286 27.059C78.742 27.3437 78.4858 27.5761 78.1843 27.7341C77.8827 27.8921 77.5459 27.9706 77.2056 27.962C76.4256 27.962 75.8456 27.7 75.4606 27.176C75.0756 26.652 74.8866 25.926 74.8866 24.999C74.8821 24.5983 74.9381 24.1991 75.0526 23.815C75.1626 23.457 75.3196 23.149 75.5256 22.891C75.7278 22.6357 75.9862 22.4304 76.2806 22.291C76.5806 22.151 76.9156 22.079 77.2906 22.079C77.5666 22.079 77.8406 22.129 78.1136 22.229C78.3866 22.329 78.6436 22.529 78.8856 22.803V20.211H80.3756V27.795H78.9296V27.062L78.9286 27.059ZM78.8966 24.956C78.8966 24.602 78.8666 24.319 78.7966 24.106C78.7266 23.893 78.6386 23.721 78.5046 23.586C78.3766 23.459 78.2366 23.386 78.0846 23.336C77.9373 23.2975 77.7858 23.278 77.6336 23.278C77.4742 23.2773 77.3165 23.31 77.1706 23.374C77.0246 23.438 76.8986 23.537 76.7876 23.671C76.6766 23.805 76.5906 23.983 76.5276 24.201C76.4646 24.419 76.4316 24.681 76.4316 24.987C76.4316 25.319 76.4616 25.597 76.5316 25.821C76.6016 26.045 76.6746 26.225 76.7816 26.363C76.8886 26.501 77.0116 26.6 77.1536 26.66C77.2956 26.72 77.4486 26.76 77.6116 26.76C77.9656 26.76 78.2566 26.657 78.4836 26.452C78.6268 26.3073 78.734 26.1308 78.7966 25.937C78.8626 25.735 78.8966 25.475 78.8966 25.157V24.967V24.956Z" fill="#212B36"/>
<defs>
<linearGradient id="paint0_linear_429_883" x1="1.62695" y1="-5.11889" x2="36.57" y2="53.1191" gradientUnits="userSpaceOnUse">
<stop offset="" stop-color="#2383AE"/>
<stop offset="1" stop-color="#6DD7B9"/>
</linearGradient>
</defs>
</svg>
