<svg width="84" height="49" viewBox="0 0 84 49" fill="none" xmlns="http://www.w3.org/2000/svg">
<path d="M36.2973 28.0589H38.0566L39.85 22.0825H38.1414L37.0795 26.3224L35.9404 22.0825H34.4558L33.3129 26.3224L32.2611 22.0825H30.5525L32.3358 28.0589H34.0951L35.2044 24.2303L36.2973 28.0589ZM39.9424 25.0878C39.9424 26.8812 41.1638 28.2076 43.0863 28.2076C44.5734 28.2076 45.3727 27.3153 45.6011 26.8939L44.5601 26.1047C44.3893 26.3566 43.921 26.8363 43.1078 26.8363C42.2269 26.8363 41.5871 26.2648 41.5529 25.465H45.7613C45.772 25.3498 45.772 25.2371 45.772 25.1213C45.772 23.1678 44.7203 21.9319 42.8692 21.9319C41.165 21.9319 39.943 23.2798 39.943 25.0865L39.9424 25.0878ZM41.6004 24.436C41.6688 23.7513 42.1484 23.2247 42.8926 23.2247C43.6141 23.2247 44.138 23.7044 44.1722 24.436H41.6004ZM46.3675 28.0595H47.8547V27.4432C48.0148 27.6375 48.6096 28.2026 49.6266 28.2026C51.3352 28.2026 52.5528 26.9116 52.5528 25.0713C52.5528 23.2203 51.4327 21.93 49.7177 21.93C48.69 21.93 48.0945 22.5014 47.9458 22.7065V19.791H46.37V28.0589L46.3675 28.0595ZM47.8989 25.0884C47.8989 23.9683 48.5622 23.3292 49.4304 23.3292C50.3455 23.3292 50.9618 24.0506 50.9618 25.0884C50.9618 26.1503 50.3227 26.8141 49.4304 26.8141C48.4704 26.8141 47.8989 26.0358 47.8989 25.0884ZM53.1672 30.1966H54.743V27.4413C54.8923 27.6356 55.4853 28.2007 56.5149 28.2007C58.2235 28.2007 59.35 26.9097 59.35 25.0593C59.35 23.2317 58.1387 21.9281 56.4238 21.9281C55.4062 21.9281 54.8113 22.4995 54.6519 22.7046V22.0755H53.1647V30.1909L53.1672 30.1966ZM54.6987 25.0542C54.6987 24.105 55.2701 23.3285 56.2301 23.3285C57.1224 23.3285 57.7616 23.9917 57.7616 25.0542C57.7616 26.0953 57.1452 26.8135 56.2301 26.8135C55.3619 26.8135 54.6987 26.1744 54.6987 25.0542ZM59.636 26.2079C59.636 27.4641 60.6637 28.2076 61.8762 28.2076C62.5628 28.2076 63.0191 28.0026 63.3286 27.6697L63.4311 28.0577H64.8258V24.2733C64.8258 22.9362 64.2544 21.9319 62.3344 21.9319C61.4986 21.9427 60.6827 22.188 59.9796 22.64L60.5745 23.7158C61.02 23.488 61.568 23.2937 62.1629 23.2937C62.8603 23.2937 63.2482 23.6481 63.2482 24.1746V24.5625C63.0305 24.4132 62.5616 24.2322 61.956 24.2322C60.5612 24.2303 59.6354 25.0296 59.6354 26.2066L59.636 26.2079ZM61.2118 26.1611C61.2118 25.6706 61.6339 25.327 62.2395 25.327C62.8451 25.327 63.2805 25.6371 63.2805 26.1611C63.2805 26.6642 62.8451 26.9837 62.2528 26.9837C61.6604 26.9837 61.2118 26.6534 61.2118 26.1611ZM68.6538 26.8129C67.6603 26.8129 66.9452 26.0915 66.9452 25.077C66.9452 24.117 67.5742 23.3279 68.5918 23.3279C69.2658 23.3279 69.7309 23.6582 69.9866 23.8993L70.4321 22.5729C70.0441 22.2768 69.4259 21.9338 68.5462 21.9338C66.7288 21.9338 65.3682 23.2709 65.3682 25.0884C65.3682 26.9059 66.6946 28.2083 68.5576 28.2083C69.4259 28.2083 70.0783 27.8438 70.4194 27.5691L69.9973 26.2781C69.7328 26.4933 69.2531 26.8135 68.6475 26.8135L68.6538 26.8129ZM71.0193 28.0583H72.5951V24.972L74.5948 28.0583H76.4458L74.1828 24.7885L76.2857 22.08H74.5138L72.5944 24.5948V19.7961H71.0187L71.0193 28.0583Z" fill="#1A1C1C"/>
<path d="M26.5485 30.5896L18.1762 35.3263V31.6382L23.3932 28.7677L26.5485 30.5896ZM27.1218 30.0707V20.1669L24.0589 21.9369V28.3032L27.1218 30.0707ZM9.06724 30.5896L17.4396 35.3263V31.6382L12.2213 28.767L9.06724 30.5896ZM8.4939 30.0707V20.1669L11.5568 21.9369V28.3032L8.4939 30.0707ZM8.85334 19.5246L17.4408 14.667V18.2317L11.8947 21.2832L8.85334 19.5246ZM26.7624 19.5246L18.1749 14.667V18.2317L23.721 21.2807L26.7624 19.5246Z" fill="#8ED6FB"/>
<path d="M17.4408 30.9595L12.2927 28.1276V22.5207L17.4408 25.4925V30.9595ZM18.1761 30.9595L23.3242 28.1307V22.5214L18.1761 25.4931V30.9595ZM12.6414 21.8733L17.8091 19.0332L22.9768 21.8733L17.8091 24.8565L12.6414 21.8733Z" fill="#1C78C0"/>
</svg>
