<?xml version="1.0" standalone="no"?>
<!DOCTYPE svg PUBLIC "-//W3C//DTD SVG 20010904//EN"
 "http://www.w3.org/TR/2001/REC-SVG-20010904/DTD/svg10.dtd">
<svg version="1.0" xmlns="http://www.w3.org/2000/svg"
 width="512.000000pt" height="512.000000pt" viewBox="0 0 512.000000 512.000000"
 preserveAspectRatio="xMidYMid meet">
<metadata>
Created by potrace 1.14, written by Peter Selinger 2001-2017
</metadata>
<g transform="translate(0.000000,512.000000) scale(0.100000,-0.100000)"
fill="#000000" stroke="none">
<path d="M2320 5110 c-466 -45 -925 -224 -1305 -509 -125 -94 -343 -306 -443
-430 -294 -365 -476 -786 -549 -1268 -25 -170 -23 -528 6 -712 127 -829 630
-1529 1368 -1904 379 -193 744 -280 1168 -279 539 0 1054 166 1485 476 1272
914 1434 2744 341 3859 -221 226 -422 373 -702 512 -251 124 -529 209 -809
245 -115 15 -443 21 -560 10z m1354 -610 c142 -54 233 -212 206 -359 -23 -126
-74 -185 -246 -285 -998 -577 -1426 -822 -1463 -839 -59 -26 -158 -27 -229 -3
-82 28 -145 84 -184 163 -29 60 -33 77 -33 148 0 71 4 88 33 147 21 44 48 79
75 101 51 41 1560 912 1614 932 58 21 163 19 227 -5z m-8 -1191 c81 -30 164
-114 194 -194 44 -119 12 -260 -78 -347 -34 -33 -322 -204 -1022 -608 -536
-310 -1004 -580 -1040 -599 -61 -33 -71 -36 -155 -36 -78 0 -97 4 -146 28 -66
32 -132 99 -162 165 -17 36 -22 66 -22 132 0 101 27 171 91 233 41 41 2001
1180 2104 1223 72 31 159 32 236 3z m-972 -1763 c72 -35 149 -119 172 -188 10
-31 18 -81 17 -120 0 -85 -43 -179 -106 -234 -48 -41 -592 -359 -652 -380 -51
-19 -149 -21 -200 -4 -62 19 -133 69 -170 117 -49 65 -68 129 -63 221 6 139
64 216 234 313 55 31 185 106 289 166 105 61 211 117 235 126 67 25 174 17
244 -17z"/>
</g>
</svg>
