<svg width="397" height="167" viewBox="0 0 397 167" fill="none" xmlns="http://www.w3.org/2000/svg">
<path d="M73.5735 164.76V131.86H0.641602V114.145L77.7147 2.56134H97.2706V111.844H120.968V131.86H97.2706V164.76H73.5735ZM73.5735 111.844V39.8325L24.3387 111.844H73.5735Z" fill="#2565D0"/>
<path d="M196.801 166.831C177.935 166.831 163.517 159.698 153.548 145.434C143.731 131.017 138.823 110.387 138.823 83.5456C138.823 56.2441 143.731 35.6146 153.548 21.6571C163.517 7.54617 177.935 0.490723 196.801 0.490723C215.82 0.490723 230.237 7.54617 240.054 21.6571C249.87 35.6146 254.778 56.1674 254.778 83.3156C254.778 110.31 249.793 131.017 239.823 145.434C230.007 159.698 215.666 166.831 196.801 166.831ZM196.801 147.045C208.457 147.045 217.123 141.906 222.798 131.63C228.473 121.354 231.311 105.249 231.311 83.3156C231.311 61.3823 228.473 45.4309 222.798 35.4612C217.277 25.3382 208.611 20.2767 196.801 20.2767C185.144 20.2767 176.478 25.3382 170.803 35.4612C165.128 45.5842 162.29 61.5357 162.29 83.3156C162.29 105.249 165.128 121.354 170.803 131.63C176.478 141.906 185.144 147.045 196.801 147.045Z" fill="#2565D0"/>
<path d="M349.476 164.76V131.86H276.545V114.145L353.618 2.56134H373.174V111.844H396.871V131.86H373.174V164.76H349.476ZM349.476 111.844V39.8325L300.242 111.844H349.476Z" fill="#2565D0"/>
</svg>
