<svg width="1302" height="655" viewBox="0 0 1302 655" fill="none" xmlns="http://www.w3.org/2000/svg">
<path d="M1201 654L1201 0.999993" stroke="#E0E0E0" stroke-opacity="0.5" stroke-linecap="round"/>
<path d="M1001 654L1001 0.999993" stroke="#E0E0E0" stroke-opacity="0.5" stroke-linecap="round"/>
<path d="M801 654L801 0.999993" stroke="#E0E0E0" stroke-opacity="0.5" stroke-linecap="round"/>
<path d="M601 654L601 0.999993" stroke="#E0E0E0" stroke-opacity="0.5" stroke-linecap="round"/>
<path d="M401 654L401 0.999993" stroke="#E0E0E0" stroke-opacity="0.5" stroke-linecap="round"/>
<path d="M201 654L201 0.999993" stroke="#E0E0E0" stroke-opacity="0.5" stroke-linecap="round"/>
<path d="M1 654L1.00003 0.999993" stroke="#E0E0E0" stroke-opacity="0.5" stroke-linecap="round"/>
<path d="M1301 654L1301 0.999993" stroke="#E0E0E0" stroke-opacity="0.5" stroke-linecap="round"/>
<path d="M1101 654L1101 0.999993" stroke="#E0E0E0" stroke-opacity="0.5" stroke-linecap="round"/>
<path d="M901 654L901 0.999993" stroke="#E0E0E0" stroke-opacity="0.5" stroke-linecap="round"/>
<path d="M701 654L701 0.999993" stroke="#E0E0E0" stroke-opacity="0.5" stroke-linecap="round"/>
<path d="M501 654L501 0.999993" stroke="#E0E0E0" stroke-opacity="0.5" stroke-linecap="round"/>
<path d="M301 654L301 0.999993" stroke="#E0E0E0" stroke-opacity="0.5" stroke-linecap="round"/>
<path d="M101 654L101 0.999993" stroke="#E0E0E0" stroke-opacity="0.5" stroke-linecap="round"/>
<rect x="12" y="121" width="20" height="20" fill="#2565D0"/>
<rect x="67" y="299" width="8" height="8" fill="#2565D0"/>
<rect x="12" y="496" width="20" height="20" fill="#2565D0"/>
<rect x="215" y="371" width="20" height="20" fill="#2565D0"/>
<rect x="1261" y="137" width="20" height="20" fill="#2565D0"/>
<rect x="1135" y="375" width="20" height="20" fill="#2565D0"/>
<rect x="1161" y="76" width="8" height="8" fill="#2565D0"/>
<rect x="1244" y="505" width="8" height="8" fill="#2565D0"/>
<rect x="1048" y="259" width="8" height="8" fill="#2565D0"/>
<rect x="1043" y="595" width="8" height="8" fill="#2565D0"/>
<rect x="154" y="588" width="8" height="8" fill="#2565D0"/>
<rect x="224" y="107" width="8" height="8" fill="#2565D0"/>
</svg>
