<svg width="320" height="183" viewBox="0 0 320 183" fill="none" xmlns="http://www.w3.org/2000/svg">
<g clip-path="url(#clip0_133_436)">
<path d="M75.0783 163.696C67.6024 160.977 61.0058 155.712 56.7171 148.283C47.0353 131.514 52.7809 110.071 69.5502 100.389L229.087 8.28073C238.428 2.88775 249.219 2.28153 258.62 5.70096C266.096 8.42026 272.692 13.6855 276.981 21.1139C286.663 37.8831 280.917 59.326 264.148 69.0077L104.611 161.116C95.2699 166.509 84.479 167.116 75.0783 163.696Z" fill="#D9D9D9"/>
<path d="M23.0644 319.985C15.5885 317.265 8.99187 312 4.7031 304.572C-4.97865 287.803 0.766925 266.36 17.5362 256.678L228.537 134.857C237.878 129.464 248.669 128.858 258.069 132.277C265.545 134.996 272.142 140.262 276.43 147.69C286.112 164.459 280.367 185.902 263.597 195.584L52.5969 317.405C43.256 322.798 32.465 323.404 23.0644 319.985Z" fill="#D9D9D9"/>
<path d="M71.6053 416.848C64.1294 414.129 57.5328 408.864 53.2441 401.435C43.5623 384.666 49.3079 363.223 66.0772 353.541L122.687 320.858C132.028 315.465 142.819 314.858 152.22 318.278C159.696 320.997 166.292 326.262 170.581 333.691C180.263 350.46 174.517 371.903 157.748 381.585L101.138 414.268C91.797 419.661 81.006 420.268 71.6053 416.848Z" fill="#D9D9D9"/>
<path d="M289.543 205.027C306.312 195.346 312.058 173.903 302.376 157.134L276.43 147.69C286.112 164.459 280.366 185.902 263.597 195.584L289.543 205.027Z" fill="#D9D9D9"/>
<path d="M302.377 157.133C298.088 149.705 291.491 144.44 284.016 141.72L258.083 132.282C265.553 135.002 272.144 140.266 276.431 147.69L302.377 157.133Z" fill="#D9D9D9"/>
<path d="M284.015 141.721C274.614 138.302 263.823 138.908 254.482 144.301L228.536 134.857C237.877 129.464 248.668 128.858 258.069 132.278L284.015 141.721Z" fill="url(#paint0_linear_133_436)"/>
<path d="M290.094 78.4507C306.863 68.769 312.608 47.3262 302.927 30.5569L276.981 21.1133C286.662 37.8826 280.917 59.3254 264.147 69.0071L290.094 78.4507Z" fill="#D9D9D9"/>
<path d="M302.927 30.5572C298.638 23.1289 292.041 17.8636 284.565 15.1443L258.632 5.70551C266.103 8.42621 272.694 13.6896 276.98 21.1136L302.927 30.5572Z" fill="#D9D9D9"/>
<path d="M284.563 15.1446C275.162 11.7252 264.371 12.3314 255.03 17.7244L229.084 8.28073C238.425 2.88775 249.216 2.28153 258.617 5.70096L284.563 15.1446Z" fill="url(#paint1_linear_133_436)"/>
<path d="M130.557 170.56L290.093 78.451L264.147 69.0073L104.61 161.116L130.557 170.56Z" fill="#D9D9D9"/>
<path d="M254.481 144.3L43.4803 266.121L17.5342 256.678L228.535 134.856L254.481 144.3Z" fill="#E4E4E4"/>
<path d="M255.033 17.7239L95.496 109.833L69.5498 100.389L229.087 8.28027L255.033 17.7239Z" fill="#E4E4E4"/>
<path d="M101.023 173.14C110.424 176.559 121.215 175.953 130.556 170.56L104.61 161.116C95.2688 166.509 84.4778 167.115 75.0771 163.696L101.023 173.14Z" fill="#D9D9D9"/>
<path d="M82.662 157.727C86.9482 165.151 93.5396 170.414 101.01 173.135L75.0771 163.696C67.6012 160.977 61.0046 155.712 56.7158 148.283L82.662 157.727Z" fill="url(#paint2_linear_133_436)"/>
<path d="M82.662 157.727C72.9802 140.958 78.7258 119.515 95.4951 109.833L69.5489 100.39C52.7796 110.071 47.034 131.514 56.7158 148.283L82.662 157.727Z" fill="url(#paint3_linear_133_436)"/>
<rect x="65.1318" y="127.363" width="254.339" height="70.1214" rx="35.0607" transform="rotate(-30 65.1318 127.363)" fill="#F3F4F7"/>
<rect x="13.1191" y="283.652" width="313.764" height="70.1214" rx="35.0607" transform="rotate(-30 13.1191 283.652)" fill="#F3F4F7"/>
</g>
<defs>
<linearGradient id="paint0_linear_133_436" x1="254.166" y1="140.576" x2="264.239" y2="100.727" gradientUnits="userSpaceOnUse">
<stop offset="" stop-color="#E4E4E4"/>
<stop offset="0.33176" stop-color="white"/>
</linearGradient>
<linearGradient id="paint1_linear_133_436" x1="254.713" y1="13.9997" x2="260.236" y2="-12.231" gradientUnits="userSpaceOnUse">
<stop offset="" stop-color="#E4E4E4"/>
<stop offset="0.211303" stop-color="white"/>
<stop offset="0.839974" stop-color="#EEEEEF"/>
</linearGradient>
<linearGradient id="paint2_linear_133_436" x1="73.1694" y1="156.198" x2="91.807" y2="178.977" gradientUnits="userSpaceOnUse">
<stop offset="" stop-color="#E4E4E4"/>
<stop offset="1" stop-color="white"/>
</linearGradient>
<linearGradient id="paint3_linear_133_436" x1="83.5231" y1="100.976" x2="76.6202" y2="161.03" gradientUnits="userSpaceOnUse">
<stop offset="0.119056" stop-color="#E4E4E4" stop-opacity="0.99"/>
<stop offset="0.473957" stop-color="#F7F7F7"/>
<stop offset="0.75458" stop-color="#E4E4E4"/>
</linearGradient>
<clipPath id="clip0_133_436">
<rect width="320" height="183" fill="white"/>
</clipPath>
</defs>
</svg>
