<svg width="226" height="140" viewBox="0 0 226 140" fill="none" xmlns="http://www.w3.org/2000/svg">
<g clip-path="url(#clip0_209_1538)">
<path d="M53.0241 115.61C47.7442 113.69 43.0854 109.971 40.0564 104.725C33.2187 92.8814 37.2765 77.7374 49.1198 70.8997L161.793 5.84793C168.39 2.03914 176.011 1.61099 182.65 4.02596C187.93 5.94647 192.589 9.66504 195.618 14.9113C202.456 26.7546 198.398 41.8986 186.554 48.7363L73.8814 113.788C67.2844 117.597 59.6633 118.025 53.0241 115.61Z" fill="#D9D9D9"/>
<path d="M16.2892 225.989C11.0094 224.068 6.35051 220.35 3.32156 215.104C-3.51617 203.26 0.541641 188.116 12.3849 181.278L161.404 95.2423C168.001 91.4335 175.622 91.0054 182.261 93.4203C187.541 95.3408 192.2 99.0594 195.229 104.306C202.067 116.149 198.009 131.293 186.166 138.131L37.1466 224.167C30.5496 227.976 22.9284 228.404 16.2892 225.989Z" fill="#D9D9D9"/>
<path d="M50.5713 294.399C45.2914 292.478 40.6326 288.76 37.6036 283.513C30.7659 271.67 34.8237 256.526 46.667 249.688L86.6478 226.605C93.2448 222.797 100.866 222.368 107.505 224.783C112.785 226.704 117.444 230.423 120.473 235.669C127.31 247.512 123.253 262.656 111.409 269.494L71.4286 292.577C64.8316 296.385 57.2105 296.814 50.5713 294.399Z" fill="#D9D9D9"/>
<path d="M204.49 144.8C216.333 137.963 220.391 122.819 213.553 110.975L195.228 104.306C202.066 116.149 198.008 131.293 186.165 138.131L204.49 144.8Z" fill="#D9D9D9"/>
<path d="M213.554 110.975C210.525 105.729 205.866 102.01 200.586 100.089L182.271 93.4233C187.547 95.3448 192.202 99.0621 195.229 104.305L213.554 110.975Z" fill="#D9D9D9"/>
<path d="M200.586 100.091C193.946 97.6761 186.325 98.1042 179.728 101.913L161.404 95.2434C168.001 91.4346 175.622 91.0065 182.261 93.4215L200.586 100.091Z" fill="url(#paint0_linear_209_1538)"/>
<path d="M204.879 55.4057C216.722 48.568 220.78 33.424 213.942 21.5807L195.618 14.9111C202.455 26.7544 198.398 41.8984 186.554 48.7362L204.879 55.4057Z" fill="#D9D9D9"/>
<path d="M213.942 21.5813C210.913 16.335 206.254 12.6164 200.974 10.6959L182.659 4.02977C187.935 5.95127 192.59 9.66855 195.618 14.9117L213.942 21.5813Z" fill="#D9D9D9"/>
<path d="M55.4715 230.837L204.49 144.8L186.166 138.131L37.147 224.167L55.4715 230.837Z" fill="#D9D9D9"/>
<path d="M200.972 10.6955C194.333 8.28056 186.712 8.7087 180.115 12.5175L161.791 5.84793C168.388 2.03914 176.009 1.61099 182.648 4.02596L200.972 10.6955Z" fill="url(#paint1_linear_209_1538)"/>
<path d="M92.2053 120.458L204.878 55.4059L186.554 48.7363L73.8809 113.788L92.2053 120.458Z" fill="#D9D9D9"/>
<path d="M179.727 101.912L30.7078 187.948L12.3833 181.278L161.402 95.2422L179.727 101.912Z" fill="#E4E4E4"/>
<path d="M180.117 12.5172L67.4441 77.569L49.1196 70.8994L161.793 5.84766L180.117 12.5172Z" fill="#E4E4E4"/>
<path d="M71.3479 122.28C77.9871 124.695 85.6082 124.266 92.2053 120.458L73.8808 113.788C67.2838 117.597 59.6626 118.025 53.0234 115.61L71.3479 122.28Z" fill="#D9D9D9"/>
<path d="M58.3801 111.395C61.4073 116.638 66.0624 120.356 71.3384 122.277L53.0233 115.611C47.7435 113.69 43.0846 109.972 40.0557 104.726L58.3801 111.395Z" fill="url(#paint2_linear_209_1538)"/>
<path d="M58.3799 111.394C51.5422 99.5507 55.6 84.4067 67.4433 77.569L49.1188 70.8994C37.2755 77.7371 33.2177 92.8811 40.0555 104.724L58.3799 111.394Z" fill="url(#paint3_linear_209_1538)"/>
<rect x="45.999" y="89.9502" width="179.627" height="49.5233" rx="24.7616" transform="rotate(-30 45.999 89.9502)" fill="#F3F4F7"/>
<rect x="9.26514" y="200.329" width="221.596" height="49.5233" rx="24.7616" transform="rotate(-30 9.26514 200.329)" fill="#F3F4F7"/>
</g>
<defs>
<linearGradient id="paint0_linear_209_1538" x1="179.505" y1="99.2825" x2="186.619" y2="71.1386" gradientUnits="userSpaceOnUse">
<stop offset="" stop-color="#E4E4E4"/>
<stop offset="0.33176" stop-color="white"/>
</linearGradient>
<linearGradient id="paint1_linear_209_1538" x1="179.891" y1="9.88696" x2="183.791" y2="-8.63852" gradientUnits="userSpaceOnUse">
<stop offset="" stop-color="#E4E4E4"/>
<stop offset="0.211303" stop-color="white"/>
<stop offset="0.839974" stop-color="#EEEEEF"/>
</linearGradient>
<linearGradient id="paint2_linear_209_1538" x1="51.676" y1="110.315" x2="64.8388" y2="126.403" gradientUnits="userSpaceOnUse">
<stop offset="" stop-color="#E4E4E4"/>
<stop offset="1" stop-color="white"/>
</linearGradient>
<linearGradient id="paint3_linear_209_1538" x1="58.9881" y1="71.3133" x2="54.113" y2="113.727" gradientUnits="userSpaceOnUse">
<stop offset="0.119056" stop-color="#E4E4E4" stop-opacity="0.99"/>
<stop offset="0.473957" stop-color="#F7F7F7"/>
<stop offset="0.75458" stop-color="#E4E4E4"/>
</linearGradient>
<clipPath id="clip0_209_1538">
<rect width="226" height="140" fill="white"/>
</clipPath>
</defs>
</svg>
